<?xml version="1.0" standalone="no"?>
<!DOCTYPE svg PUBLIC "-//W3C//DTD SVG 20010904//EN"
 "http://www.w3.org/TR/2001/REC-SVG-20010904/DTD/svg10.dtd">
<svg version="1.0" xmlns="http://www.w3.org/2000/svg"
 width="500.000000pt" height="500.000000pt" viewBox="0 0 500.000000 500.000000"
 preserveAspectRatio="xMidYMid meet">

<g transform="translate(0.000000,500.000000) scale(0.100000,-0.100000)"
fill="#000000" stroke="none">
<path d="M986 4813 c-3 -10 -19 -90 -36 -178 -53 -280 -49 -265 -76 -275 -15
-6 -22 -15 -18 -25 5 -11 21 -15 65 -15 52 0 59 2 59 20 0 11 -7 20 -15 20 -9
0 -15 9 -15 24 0 48 9 56 65 56 59 0 60 -1 69 -46 6 -27 4 -32 -15 -37 -12 -3
-19 -12 -17 -19 6 -18 120 -18 126 0 2 7 -5 16 -17 19 -12 3 -21 6 -21 7 0 12
-100 448 -105 456 -10 16 -43 12 -49 -7z m54 -199 c29 -132 29 -134 -25 -134
-52 0 -50 -4 -30 105 20 108 25 128 31 123 2 -3 13 -45 24 -94z"/>
<path d="M1006 4213 c-4 -9 -32 -56 -63 -105 -66 -104 -79 -162 -44 -197 27
-27 66 -27 84 0 24 34 30 3 9 -45 l-20 -44 40 -6 c53 -9 61 -1 38 37 -31 50
-23 91 10 52 37 -44 109 22 96 88 -6 28 -120 222 -137 233 -4 2 -10 -4 -13
-13z"/>
<path d="M2459 3778 c-81 -140 -198 -298 -380 -513 -289 -342 -364 -444 -429
-592 -74 -165 -87 -295 -43 -425 78 -230 279 -341 509 -279 97 27 162 63 237
131 31 28 61 49 67 45 28 -18 -3 -221 -50 -323 -25 -54 -98 -170 -156 -250
l-16 -22 301 0 c165 0 301 2 301 5 0 3 -15 26 -34 52 -116 163 -227 479 -186
528 11 13 21 7 72 -40 118 -109 233 -152 385 -142 67 4 97 11 147 36 116 57
214 191 236 323 17 109 -16 262 -90 413 -70 141 -127 221 -355 490 -215 254
-351 434 -422 558 -25 42 -46 77 -48 77 -2 0 -23 -33 -46 -72z m127 -193 c101
-143 222 -297 410 -521 181 -217 203 -248 260 -368 52 -111 74 -196 74 -297 0
-100 -21 -164 -76 -238 -35 -47 -59 -67 -109 -92 -61 -30 -69 -31 -159 -27
-83 3 -102 8 -168 40 -53 27 -92 56 -142 107 -37 39 -71 71 -75 71 -4 0 -26
-20 -50 -44 l-44 -45 -55 49 -54 49 -72 -74 c-56 -58 -90 -83 -152 -112 -73
-35 -85 -38 -169 -38 -74 0 -98 4 -137 23 -142 70 -218 235 -190 414 26 165
134 348 372 628 225 265 440 550 440 583 0 21 24 -5 96 -108z m-32 -1760 c15
-38 43 -98 61 -132 18 -34 30 -65 27 -68 -9 -9 -270 -6 -276 3 -3 5 13 44 35
88 22 43 54 124 71 179 l31 100 12 -50 c6 -27 24 -81 39 -120z"/>
<path d="M2468 3597 c-52 -82 -154 -216 -283 -371 -242 -291 -266 -321 -326
-409 -187 -272 -209 -501 -62 -658 63 -68 130 -93 231 -87 64 4 89 10 142 39
65 34 143 103 191 168 l26 35 55 -48 c31 -27 59 -49 61 -50 3 0 29 21 58 49
l51 49 21 -29 c38 -56 134 -140 193 -171 200 -106 378 -44 456 159 52 132 1
356 -121 536 -23 33 -121 156 -218 273 -191 230 -333 409 -395 501 -21 31 -42
57 -46 57 -4 0 -19 -19 -34 -43z m79 -165 c17 -34 35 -87 39 -118 5 -46 9 -54
23 -48 38 16 50 15 71 -6 18 -18 21 -30 17 -64 -3 -23 -9 -49 -12 -58 -6 -15
0 -16 47 -12 l53 6 119 -141 c140 -165 192 -241 253 -365 109 -227 63 -425
-109 -467 -122 -29 -245 37 -348 188 -29 43 -55 80 -57 82 -2 3 -32 -23 -66
-57 -34 -34 -67 -62 -72 -62 -5 0 -39 30 -76 66 l-66 66 -32 -56 c-78 -135
-189 -217 -307 -224 -118 -8 -197 57 -225 185 -39 174 73 386 407 766 26 29
47 33 88 17 l26 -10 -6 55 c-5 43 -3 60 11 81 15 23 22 26 55 20 l37 -6 6 53
c7 59 63 180 80 175 7 -2 26 -32 44 -66z m-147 -102 c0 -11 -7 -20 -15 -20
-18 0 -19 12 -3 28 16 16 18 15 18 -8z m234 -21 c-10 -16 -24 -9 -24 12 0 18
2 19 15 9 8 -7 12 -16 9 -21z m-344 -135 c0 -16 -16 -19 -25 -4 -8 13 4 32 16
25 5 -4 9 -13 9 -21z m458 -2 c2 -7 -3 -12 -12 -12 -9 0 -16 7 -16 16 0 17 22
14 28 -4z"/>
<path d="M2483 3425 c-29 -57 -34 -85 -34 -194 0 -83 39 -343 54 -358 3 -2 11
25 20 59 47 188 49 384 6 478 l-26 55 -20 -40z"/>
<path d="M2340 3230 c-17 -31 4 -90 56 -160 26 -33 48 -59 50 -58 8 9 -38 203
-52 219 -22 24 -41 24 -54 -1z"/>
<path d="M2616 3231 c-17 -18 -60 -221 -47 -221 14 0 81 111 93 154 18 67 -10
107 -46 67z"/>
<path d="M2211 3084 c-26 -33 -27 -47 -1 -39 66 21 175 -59 229 -167 17 -34
31 -67 31 -75 0 -7 5 -13 11 -13 18 0 2 77 -30 146 -66 142 -186 216 -240 148z"/>
<path d="M2689 3087 c-74 -39 -143 -149 -163 -259 -11 -59 9 -45 34 24 38 105
133 188 214 188 41 0 44 7 15 44 -25 32 -43 33 -100 3z"/>
<path d="M2165 3002 c-69 -42 -221 -244 -294 -389 -37 -75 -59 -164 -53 -215
4 -36 22 -55 22 -24 0 23 51 78 87 92 65 28 141 6 170 -49 24 -46 13 -124 -21
-154 -62 -53 -161 -16 -154 57 4 41 45 75 77 65 43 -13 50 -75 9 -75 -17 0
-19 5 -14 25 7 29 -13 34 -38 9 -21 -21 -20 -40 4 -64 26 -26 63 -25 95 3 56
48 34 143 -39 167 -30 10 -42 8 -80 -8 -52 -23 -79 -66 -80 -127 -1 -53 25
-92 77 -116 51 -23 78 -23 143 -4 101 30 192 117 247 237 12 26 25 48 29 48 5
0 41 -31 81 -69 l72 -69 68 64 c37 35 71 64 77 64 5 0 23 -27 40 -59 72 -135
196 -231 299 -231 127 0 197 84 152 184 -55 125 -221 107 -221 -24 0 -59 67
-98 121 -70 39 21 14 102 -27 86 -13 -5 -14 -9 -4 -21 10 -12 9 -16 -5 -21
-43 -17 -46 41 -3 65 25 14 29 14 55 -5 43 -32 44 -83 3 -118 -37 -31 -73 -33
-117 -6 -36 21 -60 82 -49 123 10 42 54 86 97 97 73 20 140 -15 182 -95 l16
-30 1 57 c0 125 -78 291 -224 473 -106 132 -146 156 -222 136 -81 -22 -155
-129 -194 -282 -26 -101 -38 -262 -21 -282 8 -11 7 -18 -7 -31 -18 -15 -20
-15 -37 5 -16 16 -17 22 -6 29 11 6 13 30 8 117 -12 209 -73 355 -175 423 -53
35 -102 39 -147 12z m-255 -427 c-7 -31 -7 -51 -1 -59 7 -8 1 -20 -20 -40 -16
-16 -33 -26 -36 -22 -8 8 13 79 39 134 25 54 32 49 18 -13z m1231 -53 c11 -35
19 -66 16 -69 -3 -2 -20 6 -39 19 -18 12 -35 24 -37 25 -2 1 1 9 7 16 7 8 9
35 6 68 -5 52 -5 53 10 29 8 -14 25 -53 37 -88z m-353 -147 c26 -22 31 -23 42
-10 19 23 33 18 26 -10 -4 -16 1 -42 13 -70 11 -25 18 -45 15 -45 -24 0 -144
128 -144 153 0 14 19 7 48 -18z m-528 3 c0 -15 -113 -128 -129 -128 -8 0 -7 9
4 30 8 16 15 45 15 65 0 37 13 46 28 18 9 -15 12 -14 37 5 31 25 45 28 45 10z"/>
<path d="M2491 2743 c1 -16 4 -41 8 -58 7 -29 8 -28 18 20 12 53 10 65 -13 65
-9 0 -14 -10 -13 -27z"/>
<path d="M2497 1863 c-3 -5 -19 -44 -37 -88 -18 -44 -37 -84 -41 -89 -26 -28
-8 -36 81 -36 55 0 90 4 90 10 0 6 -11 32 -24 58 -13 26 -31 71 -40 100 -18
53 -21 58 -29 45z"/>
<path d="M3970 1278 c19 -31 27 -68 14 -68 -3 0 -12 7 -20 15 -22 22 -41 19
-71 -11 -42 -42 -30 -91 52 -214 l68 -102 26 49 c15 26 39 67 54 91 35 55 47
87 49 129 2 64 -60 96 -102 51 l-20 -22 0 30 c0 17 7 39 15 50 23 30 18 34
-35 34 l-50 0 20 -32z"/>
<path d="M2038 1288 c7 -7 13 -21 13 -32 1 -21 1 -21 6 -1 3 11 10 26 15 33 8
9 4 12 -18 12 -22 0 -25 -3 -16 -12z"/>
<path d="M2234 1286 c-12 -31 0 -51 31 -51 24 0 31 5 33 24 2 13 -1 28 -7 34
-7 7 -10 1 -8 -19 2 -23 -2 -29 -18 -29 -16 0 -20 6 -18 28 2 29 -4 36 -13 13z"/>
<path d="M3016 1278 c-22 -31 -21 -33 18 -34 l35 0 -15 28 c-17 34 -19 34 -38
6z"/>
<path d="M1902 1263 c2 -22 9 -29 28 -30 24 -3 24 -2 3 6 -15 7 -20 16 -16 30
3 13 1 21 -6 21 -8 0 -11 -11 -9 -27z"/>
<path d="M1992 1260 c0 -19 2 -27 5 -17 2 9 2 25 0 35 -3 9 -5 1 -5 -18z"/>
<path d="M2122 1265 c0 -16 2 -24 5 -17 2 6 15 12 28 12 13 0 26 -6 28 -12 3
-7 5 1 5 17 0 17 -2 24 -5 18 -2 -7 -15 -13 -28 -13 -13 0 -26 6 -28 13 -3 6
-5 -1 -5 -18z"/>
<path d="M2408 1265 c-3 -14 -1 -25 3 -25 5 0 9 11 9 25 0 14 -2 25 -4 25 -2
0 -6 -11 -8 -25z"/>
<path d="M2461 1263 c1 -17 3 -21 6 -10 6 21 17 22 33 2 19 -23 30 -18 29 13
-1 16 -3 20 -6 10 -6 -22 -17 -23 -33 -3 -19 23 -30 18 -29 -12z"/>
<path d="M2632 1263 c3 -24 8 -28 33 -28 26 0 30 4 32 30 2 28 1 28 -5 5 -10
-33 -48 -35 -45 -2 2 12 -2 22 -8 22 -6 0 -9 -12 -7 -27z"/>
<path d="M2820 1275 c0 -9 9 -15 25 -15 14 0 25 -5 25 -11 0 -7 -10 -9 -27 -4
-21 5 -25 4 -17 -5 16 -16 59 -8 59 10 0 8 -10 16 -22 18 -13 2 -23 8 -23 13
0 5 -4 9 -10 9 -5 0 -10 -7 -10 -15z"/>
<path d="M2735 1240 c3 -5 8 -10 11 -10 2 0 4 5 4 10 0 6 -5 10 -11 10 -5 0
-7 -4 -4 -10z"/>
<path d="M3095 1240 c3 -5 8 -10 11 -10 2 0 4 5 4 10 0 6 -5 10 -11 10 -5 0
-7 -4 -4 -10z"/>
<path d="M2251 793 c1 -34 2 -35 9 -13 l8 25 7 -22 c10 -31 23 -29 32 5 l7 27
7 -30 c6 -29 7 -29 8 8 1 40 -13 50 -24 17 -3 -11 -10 -20 -15 -20 -5 0 -12 9
-15 20 -11 33 -25 23 -24 -17z"/>
<path d="M2437 804 c-11 -14 -17 -27 -15 -29 7 -7 47 -9 48 -2 3 62 -5 70 -33
31z m19 -21 c-10 -10 -19 5 -10 18 6 11 8 11 12 0 2 -7 1 -15 -2 -18z"/>
<path d="M2507 823 c-10 -17 -1 -32 27 -43 21 -8 21 -8 -4 -18 -14 -6 -18 -11
-9 -11 8 -1 20 4 27 11 14 14 16 54 3 62 -5 3 -8 -2 -7 -11 2 -25 -22 -27 -26
-1 -2 16 -6 19 -11 11z"/>
<path d="M2625 818 c5 -11 -2 -22 -19 -33 -34 -22 -33 -35 2 -34 18 1 21 3 9
6 -18 4 -17 6 4 29 18 19 20 27 10 37 -10 9 -11 9 -6 -5z"/>
<path d="M2681 808 c-13 -21 -13 -22 3 -8 16 13 18 12 16 -5 -4 -36 -1 -51 8
-37 9 14 4 72 -7 72 -3 0 -12 -10 -20 -22z"/>
<path d="M3830 795 c0 -8 7 -15 15 -15 22 0 29 -20 70 -200 20 -91 43 -187 49
-214 13 -52 37 -79 56 -60 6 6 29 109 51 230 32 177 44 222 60 233 38 27 23
41 -41 41 -47 0 -60 -3 -60 -15 0 -8 7 -15 15 -15 22 0 28 -22 16 -53 -10 -25
-15 -27 -65 -27 -54 0 -56 1 -64 33 -10 36 -7 47 14 47 8 0 14 7 14 15 0 12
-14 15 -65 15 -51 0 -65 -3 -65 -15z m209 -172 c-1 -49 -36 -209 -42 -193 -8
20 -47 194 -47 209 0 6 18 11 45 11 43 0 45 -1 44 -27z"/>
</g>
</svg>
