<?xml version="1.0" standalone="no"?>
<!DOCTYPE svg PUBLIC "-//W3C//DTD SVG 20010904//EN"
 "http://www.w3.org/TR/2001/REC-SVG-20010904/DTD/svg10.dtd">
<svg version="1.0" xmlns="http://www.w3.org/2000/svg"
 width="2000.000000pt" height="3000.000000pt" viewBox="0 0 2000.000000 3000.000000"
 preserveAspectRatio="xMidYMid meet">

<g transform="translate(0.000000,3000.000000) scale(0.100000,-0.100000)"
fill="#000000" stroke="none">
<path d="M1500 29989 c-714 -82 -1308 -618 -1460 -1317 -10 -48 -24 -136 -30
-197 -8 -80 -10 -3822 -8 -13550 4 -12689 5 -13445 21 -13525 56 -273 158
-509 310 -716 74 -101 278 -299 387 -376 227 -161 508 -266 792 -297 132 -15
16843 -15 16973 -1 284 32 532 122 771 281 134 89 338 290 437 429 164 233
268 514 297 805 8 80 10 3822 8 13550 -4 12689 -5 13445 -21 13525 -56 273
-158 509 -310 716 -87 118 -289 312 -410 392 -241 160 -487 250 -772 282 -113
12 -16875 11 -16985 -1z m17142 -77 c651 -151 1127 -629 1271 -1276 l22 -101
0 -13530 c0 -13192 0 -13532 -19 -13620 -137 -660 -623 -1152 -1280 -1298
l-101 -22 -8530 0 c-8303 0 -8532 0 -8620 19 -659 137 -1152 623 -1298 1280
l-22 101 0 13535 0 13535 22 101 c151 680 679 1182 1358 1289 64 11 1754 13
8590 11 l8510 -1 97 -23z"/>
<path d="M3340 28335 l0 -55 2995 0 c1647 0 2995 -2 2995 -4 0 -2 -9 -93 -20
-202 -66 -674 -110 -1303 -110 -1592 l0 -173 -122 -127 c-383 -400 -718 -798
-895 -1062 -336 -502 -696 -1339 -856 -1990 -80 -326 -176 -847 -217 -1184
-24 -196 -63 -701 -85 -1086 -8 -157 -19 -310 -23 -341 l-7 -55 -935 -884
c-514 -485 -969 -916 -1011 -957 l-76 -74 -118 133 c-140 156 -291 306 -430
426 -55 47 -108 93 -118 102 -17 16 -14 17 65 17 93 1 337 42 468 80 167 47
304 127 412 240 116 122 168 234 202 432 23 136 22 167 -9 187 -24 16 -29 14
-183 -59 -194 -93 -214 -100 -385 -127 -76 -12 -166 -31 -200 -42 -82 -26
-219 -95 -293 -146 -115 -80 -158 -129 -243 -277 l-51 -90 0 60 c0 76 21 539
25 543 2 2 37 -4 79 -12 105 -22 274 -21 357 2 166 46 281 165 335 347 37 122
14 339 -49 466 l-23 46 167 138 c92 76 169 145 172 154 2 9 1 25 -3 35 -6 19
-330 206 -356 206 -17 0 -18 -5 7 60 27 70 36 190 19 261 -41 176 -217 363
-383 406 -135 35 -310 -1 -453 -92 -30 -19 -58 -35 -63 -35 -4 0 -50 56 -102
125 -92 122 -117 144 -156 131 -19 -7 -242 -324 -250 -357 -3 -11 -11 -18 -17
-15 -285 131 -464 123 -621 -25 -93 -88 -132 -210 -121 -384 7 -123 26 -198
75 -296 l38 -76 -146 -119 c-137 -112 -146 -122 -146 -154 l0 -34 175 -83 c96
-45 179 -83 183 -85 4 -2 -2 -30 -14 -63 -31 -86 -31 -201 -1 -280 27 -72 108
-183 162 -223 l40 -29 -213 -7 c-218 -7 -289 -1 -490 40 -172 34 -175 -1 -26
-296 63 -124 123 -203 216 -282 64 -55 165 -118 230 -143 l42 -17 -15 -40 c-8
-23 -17 -64 -20 -92 l-6 -51 -72 -27 c-140 -53 -205 -114 -241 -227 -24 -72
-16 -169 19 -246 14 -32 25 -59 24 -60 -44 -26 -119 -89 -162 -135 -102 -111
-99 -189 14 -313 l51 -56 -26 -39 c-29 -45 -65 -141 -65 -176 0 -43 36 -142
70 -191 43 -62 137 -155 195 -191 25 -16 45 -34 45 -40 0 -6 -68 -164 -152
-350 -92 -207 -151 -351 -151 -369 1 -47 54 -194 87 -244 48 -70 89 -94 158
-89 72 5 138 45 190 113 21 27 69 117 107 200 38 82 106 226 150 319 l81 168
37 -32 c42 -37 107 -68 224 -106 44 -14 77 -30 72 -34 -4 -5 -381 -351 -838
-769 l-830 -761 -3 3080 -2 3080 -55 0 -55 0 0 -10025 0 -10025 7525 0 7525 0
0 55 0 55 -2996 0 -2997 0 6 47 c10 75 64 677 82 898 29 370 45 679 45 854 l0
174 98 101 c271 279 608 664 788 901 232 306 475 752 677 1246 129 314 246
667 312 934 77 316 180 883 220 1215 19 164 60 702 80 1055 9 154 19 305 23
335 l7 56 840 794 c462 437 917 867 1011 957 l172 163 118 -132 c167 -187 341
-356 518 -504 l49 -40 -85 -1 c-94 -1 -338 -43 -468 -80 -224 -63 -413 -201
-519 -377 -55 -91 -94 -235 -108 -390 -6 -72 -5 -74 21 -91 26 -17 28 -17 184
57 214 102 194 95 387 128 179 30 225 44 357 110 195 98 271 171 384 368 l44
77 0 -60 c0 -76 -21 -539 -25 -543 -2 -2 -37 4 -79 12 -98 21 -270 21 -349 0
-170 -44 -288 -164 -343 -349 -37 -122 -14 -339 49 -466 l23 -46 -167 -138
c-92 -76 -169 -145 -172 -154 -2 -9 -1 -25 3 -35 6 -19 330 -206 356 -206 17
0 18 5 -8 -60 -18 -45 -22 -76 -23 -166 l0 -111 44 -88 c71 -143 210 -265 343
-301 138 -36 327 3 464 97 23 16 47 29 52 29 5 0 54 -59 108 -130 81 -106 104
-130 124 -130 14 0 30 4 36 8 19 13 244 344 244 360 0 8 6 12 13 9 291 -132
465 -125 622 24 93 88 132 210 121 384 -7 123 -26 198 -75 296 l-38 76 146
119 c137 112 146 122 146 154 l0 34 -175 83 c-96 45 -179 83 -183 85 -4 2 2
30 14 63 31 86 31 201 1 280 -27 72 -108 183 -162 223 l-40 29 213 7 c218 7
289 1 490 -40 172 -34 175 1 26 296 -63 124 -123 203 -216 282 -64 55 -165
118 -230 143 l-42 17 15 40 c8 23 17 64 20 92 l6 51 72 27 c140 53 205 114
241 227 24 72 16 169 -19 246 -14 32 -25 59 -24 60 44 26 119 89 162 135 102
111 99 189 -14 313 l-51 56 26 39 c29 45 65 141 65 176 0 43 -36 142 -70 191
-43 62 -137 155 -195 191 -25 16 -45 34 -45 40 0 6 68 164 152 350 92 207 151
351 151 369 -1 47 -54 194 -87 244 -75 110 -181 122 -296 31 -51 -41 -87 -99
-169 -276 -38 -82 -103 -220 -145 -308 l-76 -158 -37 32 c-42 37 -112 70 -226
107 -43 14 -77 27 -75 28 2 2 379 348 838 769 l835 766 3 -3080 2 -3080 55 0
55 0 0 10025 0 10025 -7525 0 -7525 0 0 -55z m6245 -102 c-15 -109 -39 -193
-76 -268 -38 -79 -106 -181 -115 -172 -5 4 33 425 41 465 5 20 11 22 81 22
l75 0 -6 -47z m325 38 c0 -5 -27 -89 -61 -187 -79 -232 -167 -414 -254 -521
-60 -76 -218 -223 -239 -223 -4 0 -6 19 -2 43 3 23 8 86 12 140 l7 98 60 57
c72 69 151 184 190 275 32 78 66 222 67 285 l0 42 110 0 c61 0 110 -4 110 -9z
m306 -43 c-26 -201 -135 -484 -259 -676 -127 -196 -377 -430 -587 -550 l-40
-23 0 53 c0 29 3 77 7 106 6 52 7 53 92 120 105 82 211 186 275 270 94 123
191 339 277 615 l43 137 99 0 100 0 -7 -52z m147 -11 c10 -34 36 -106 57 -159
l39 -97 -40 -113 c-68 -197 -280 -600 -392 -747 -101 -134 -283 -294 -456
-401 -95 -59 -261 -143 -262 -133 -2 33 3 207 7 243 6 45 7 45 105 102 220
129 449 333 582 519 150 210 275 515 317 777 7 39 15 72 18 72 4 0 15 -28 25
-63z m346 -71 c215 -409 443 -709 671 -880 227 -171 681 -392 1240 -605 118
-45 229 -88 246 -96 22 -9 56 -48 109 -125 42 -61 75 -113 74 -115 -7 -5 -347
91 -504 143 -454 150 -887 360 -1175 570 -329 240 -620 581 -793 927 -47 95
-117 274 -117 300 0 12 15 15 89 15 l89 0 71 -134z m346 -13 c137 -261 272
-458 407 -590 91 -90 162 -144 303 -229 131 -78 575 -298 768 -380 l139 -59
55 -78 c30 -43 53 -80 51 -82 -2 -1 -91 32 -198 74 -488 192 -850 367 -1085
525 -221 148 -469 460 -676 851 l-61 115 110 0 110 0 77 -147z m250 50 c112
-219 259 -405 404 -512 107 -79 242 -158 464 -271 l207 -106 85 -121 c47 -67
85 -124 85 -126 0 -8 -240 102 -423 194 -333 167 -458 248 -598 388 -121 122
-253 312 -364 524 l-67 127 79 0 79 0 49 -97z m667 -300 c152 -219 275 -399
273 -401 -2 -2 -38 15 -82 39 -341 183 -487 292 -606 452 -49 67 -177 283
-177 299 0 4 71 8 158 8 l157 0 277 -397z m1719 350 c-8 -103 57 -447 115
-609 6 -15 -441 597 -470 644 -6 9 32 12 176 12 l183 0 -4 -47z m242 20 c-28
-43 -25 -328 5 -438 45 -168 150 -332 271 -422 69 -53 253 -151 431 -232 222
-101 217 -92 45 -87 -167 5 -229 18 -340 71 -157 77 -279 199 -364 365 -95
186 -146 384 -185 723 l-6 47 80 0 80 0 -17 -27z m3057 15 c0 -7 -9 -74 -20
-148 -87 -599 -105 -1384 -45 -1950 18 -165 18 -187 0 -139 -35 95 -110 165
-209 194 -124 37 -226 -6 -287 -120 -13 -25 -27 -45 -30 -45 -3 0 -14 18 -24
40 -24 53 -101 129 -167 166 -107 59 -248 31 -331 -67 -20 -23 -43 -62 -51
-87 -34 -99 -11 -267 49 -354 14 -21 23 -38 20 -38 -31 0 -277 182 -336 248
-50 57 -69 117 -69 216 0 78 -1 81 -39 125 -227 271 -275 350 -297 492 -7 51
-12 94 -11 96 2 1 18 -29 36 -67 40 -84 133 -196 196 -238 97 -64 269 -78 369
-31 102 47 164 175 153 311 -7 86 -34 135 -117 211 l-61 56 53 27 c141 71 198
140 206 253 15 216 -163 411 -378 413 -115 1 -187 -47 -246 -164 l-26 -51 -34
64 c-39 75 -115 148 -194 187 -45 22 -69 27 -130 27 -67 0 -82 -4 -140 -36
-76 -42 -123 -97 -145 -171 -30 -102 -13 -251 40 -345 13 -24 22 -43 20 -43
-21 0 -245 95 -271 115 -57 44 -91 131 -124 319 -5 33 -10 61 -10 63 0 2 -30
36 -67 75 -112 123 -183 247 -183 322 0 17 -7 43 -14 59 l-15 27 1465 0 c1164
0 1464 -3 1464 -12z m1290 -3735 c0 -2060 -2 -3744 -3 -3742 -83 100 -2177
2862 -2174 2866 12 11 357 80 383 76 16 -2 97 9 179 26 313 63 508 81 885 84
l265 2 9 27 c8 23 4 35 -29 85 -386 579 -629 1233 -734 1973 -67 474 -85 1029
-50 1555 16 247 51 567 80 731 l11 64 589 0 589 0 0 -3747z m-7735 3267 c10
-32 165 -260 236 -346 402 -492 919 -815 1744 -1089 228 -76 578 -170 600
-161 8 3 28 -18 48 -49 l36 -53 -9 -208 c-19 -433 -8 -808 31 -1032 42 -250
127 -529 263 -869 42 -105 76 -195 76 -200 0 -15 -179 -279 -293 -433 -236
-317 -641 -656 -1147 -960 -386 -233 -782 -382 -1113 -420 -249 -29 -545 11
-765 103 -231 98 -478 335 -630 605 -128 227 -169 394 -228 922 -25 217 -27
276 -31 783 -3 301 -3 547 0 547 2 0 30 -11 60 -25 106 -49 239 -77 397 -82
160 -6 223 3 309 42 30 14 55 24 57 22 2 -2 -21 -40 -52 -85 -64 -94 -124
-150 -207 -195 -60 -33 -80 -65 -60 -96 17 -27 59 -24 122 9 84 45 160 117
227 215 32 47 59 83 61 81 9 -9 -81 -259 -113 -311 -136 -221 -154 -272 -135
-386 14 -87 44 -163 87 -222 41 -56 76 -79 161 -108 68 -22 91 -44 145 -135
34 -57 67 -76 97 -57 33 21 24 65 -27 143 -62 95 -72 103 -172 145 -102 42
-113 52 -152 134 -24 51 -32 83 -36 141 -4 85 0 95 101 254 91 142 182 447
202 676 6 74 -15 253 -34 287 -13 24 -180 139 -271 187 -47 24 -121 57 -165
72 -71 25 -95 28 -210 29 -146 0 -220 -17 -347 -81 -37 -19 -70 -34 -73 -34
-3 0 -5 37 -5 83 l0 82 128 63 c241 118 333 136 476 88 93 -32 166 -68 309
-154 94 -56 111 -63 132 -54 28 13 40 44 26 70 -15 28 -198 166 -303 228 -97
57 -168 87 -246 105 -88 19 -255 -21 -441 -107 -52 -24 -95 -43 -97 -42 -1 2
-5 118 -9 259 l-8 256 134 66 c315 154 575 371 736 612 101 152 264 466 329
633 29 75 38 85 49 52z m4823 -469 c20 -11 52 -35 71 -55 29 -29 35 -45 39
-91 6 -78 -19 -142 -64 -161 -43 -18 -98 -18 -134 1 -38 20 -96 93 -103 130
-3 17 -8 47 -12 67 -16 80 43 144 123 134 23 -3 59 -14 80 -25z m-1061 -292
c34 -15 94 -38 135 -49 77 -22 264 -40 336 -32 l43 4 -8 -93 c-4 -52 -7 -188
-6 -304 1 -168 5 -228 21 -300 11 -49 19 -91 18 -92 -1 -2 -102 136 -223 305
-121 169 -275 383 -342 475 -117 162 -120 168 -79 142 24 -15 71 -40 105 -56z
m671 -155 c25 -276 78 -530 140 -669 79 -176 309 -411 542 -553 46 -29 81 -52
77 -52 -16 0 -243 105 -340 157 -217 116 -350 228 -401 336 -62 133 -92 337
-83 567 8 193 27 362 41 357 6 -2 16 -63 24 -143z m-1534 -1116 c64 -92 116
-171 116 -174 0 -4 -32 -63 -72 -132 -83 -145 -115 -221 -149 -347 l-24 -90
-6 65 c-9 86 -11 774 -2 823 3 21 9 35 13 30 4 -4 60 -83 124 -175z m3601
-330 c113 -487 293 -935 538 -1343 47 -77 82 -141 78 -142 -3 -1 -113 -3 -244
-6 -190 -4 -234 -2 -221 8 38 27 -11 89 -153 190 -64 46 -154 217 -185 352
-15 64 -28 76 -198 168 -58 31 -120 71 -139 88 -74 70 -127 180 -162 337 -24
111 -24 117 7 80 68 -80 186 -126 304 -118 155 11 244 115 244 283 0 98 -17
135 -101 218 l-58 58 30 21 c17 12 55 47 85 77 58 59 79 105 81 177 0 22 13
-36 29 -128 16 -92 45 -236 65 -320z m-1644 202 c159 -81 310 -145 499 -211
152 -53 143 -40 116 -159 -27 -115 -33 -381 -11 -495 35 -187 105 -319 240
-451 89 -87 294 -246 463 -358 l104 -69 -143 -29 c-116 -23 -145 -26 -155 -16
-11 12 -1391 1929 -1407 1954 -3 6 30 -13 76 -43 45 -30 143 -85 218 -123z
m1039 130 c62 -32 83 -63 88 -129 6 -80 -16 -127 -68 -142 -21 -7 -51 -8 -66
-5 -34 9 -118 93 -121 121 -1 11 -5 41 -9 67 -15 104 66 144 176 88z m-6525
-222 c72 -20 241 -103 285 -139 20 -17 21 -20 5 -14 -137 46 -293 63 -431 46
-128 -16 -174 -32 -303 -106 -63 -36 -115 -64 -116 -63 -1 2 -5 37 -9 79 l-7
76 65 42 c80 52 189 91 281 101 88 9 142 4 230 -22z m3796 -165 c41 -59 75
-110 77 -113 1 -4 -34 -74 -79 -156 -137 -250 -175 -358 -218 -611 -11 -63
-22 -117 -24 -120 -5 -5 -46 125 -81 257 l-26 95 40 176 c53 236 73 298 130
404 71 135 94 175 101 175 3 0 39 -48 80 -107z m-3700 -85 c18 -34 24 -57 24
-108 -1 -78 -24 -129 -86 -184 -42 -38 -42 -38 -110 -34 -81 6 -133 35 -170
95 -21 33 -24 50 -24 135 0 53 5 102 10 107 16 16 110 29 226 30 l105 1 25
-42z m6214 -357 c31 -124 79 -248 126 -328 73 -124 347 -374 651 -595 l116
-85 -66 -6 c-37 -4 -89 -10 -116 -13 -45 -7 -49 -6 -42 11 13 35 -6 56 -127
136 -200 133 -346 247 -448 349 -80 80 -103 109 -137 180 -58 121 -72 185 -79
345 -4 106 -1 167 12 249 9 60 19 116 23 124 3 8 18 -47 33 -124 15 -76 39
-186 54 -243z m-5942 312 c18 -6 24 -23 7 -23 -5 0 -14 -19 -20 -42 -24 -99
-96 -184 -182 -217 l-28 -10 25 37 c50 76 68 176 50 275 l-7 38 68 -27 c38
-14 77 -28 87 -31z m-749 -85 c4 -49 16 -94 36 -135 16 -35 25 -63 20 -63 -18
0 -106 32 -167 61 l-63 30 0 50 c0 27 4 49 9 49 5 0 40 18 78 39 37 22 71 40
74 40 3 1 9 -32 13 -71z m4400 -106 l64 -94 -18 -31 c-38 -65 -159 -345 -184
-425 -34 -108 -69 -286 -97 -487 -12 -88 -25 -163 -28 -167 -4 -4 -35 63 -69
150 l-63 157 36 210 c40 233 64 334 101 434 29 78 176 352 186 348 4 -1 36
-44 72 -95z m-3619 -71 c-3 -12 -13 -21 -21 -21 -12 0 -12 4 2 25 19 29 29 27
19 -4z m3821 -218 c37 -54 67 -105 66 -113 0 -8 -37 -96 -80 -195 -158 -359
-191 -528 -192 -1005 l-1 -185 -28 55 c-16 30 -59 122 -96 203 -49 108 -64
151 -56 160 5 7 26 123 46 257 64 445 83 516 210 794 32 69 59 126 61 126 1 0
33 -44 70 -97z m294 -433 c0 -6 -36 -79 -79 -163 -148 -282 -167 -403 -158
-996 4 -229 3 -400 -2 -395 -5 5 -42 69 -82 143 l-73 134 2 336 c4 547 22 659
150 951 30 69 63 145 73 169 l20 44 74 -106 c41 -58 75 -111 75 -117z m159
-218 c39 -56 71 -108 71 -115 0 -7 -23 -65 -50 -130 -67 -158 -114 -294 -136
-397 -29 -129 -26 -507 4 -725 58 -417 71 -519 67 -523 -4 -4 -139 196 -205
303 -33 55 -40 73 -34 97 3 17 0 209 -7 427 -10 312 -10 428 0 542 13 165 40
304 73 382 36 84 132 257 139 249 3 -4 38 -53 78 -110z m233 -334 l76 -111
-14 -46 c-25 -77 -72 -289 -96 -426 -19 -112 -22 -165 -22 -385 0 -279 1 -293
79 -760 24 -145 43 -266 41 -267 -2 -2 -54 60 -115 137 l-113 141 -3 102 c-2
56 -15 188 -30 292 -48 347 -54 399 -66 553 -13 179 -1 366 32 495 22 86 137
387 148 387 3 -1 40 -51 83 -112z m-1064 -404 c86 -184 197 -400 294 -571 23
-40 27 -54 16 -58 -7 -2 -56 -20 -108 -39 -51 -20 -95 -34 -96 -33 -1 1 -74
195 -163 430 l-162 429 42 65 43 66 18 -39 c10 -22 62 -134 116 -250z m1315
41 l83 -118 -13 -84 c-69 -474 -27 -1062 126 -1758 17 -76 29 -140 27 -142 -2
-2 -64 66 -139 152 -108 124 -136 163 -141 193 -3 20 -30 186 -61 369 -85 513
-104 718 -85 941 18 221 91 595 111 575 5 -5 47 -63 92 -128z m-1458 -385 c80
-211 144 -388 142 -393 -4 -14 -129 -59 -138 -50 -8 9 -259 674 -259 687 0 12
101 148 106 143 3 -2 70 -176 149 -387z m-216 -167 c60 -161 111 -300 113
-309 2 -13 -19 -24 -91 -50 -52 -19 -94 -33 -95 -32 -1 2 -43 126 -94 276
l-92 274 67 74 c37 40 70 70 74 66 4 -4 57 -138 118 -299z m1968 130 l99 -142
-8 -83 c-15 -139 -14 -662 0 -758 38 -249 85 -434 224 -873 49 -158 88 -290
85 -293 -6 -6 -193 163 -263 238 -51 54 -52 55 -89 209 -148 618 -220 1203
-196 1605 14 228 20 269 37 252 7 -7 57 -77 111 -155z m-2223 -311 l83 -242
-61 -19 c-34 -11 -64 -16 -68 -13 -3 4 -43 99 -88 212 l-82 205 63 58 c35 32
65 55 66 50 2 -4 41 -117 87 -251z m-226 -115 c39 -100 72 -185 72 -189 0 -6
-150 -42 -154 -36 -7 8 -136 302 -133 304 14 13 133 104 137 104 3 0 38 -82
78 -183z m2790 -63 l139 -201 -9 -59 c-14 -82 -3 -468 17 -589 50 -317 170
-712 304 -1009 17 -38 30 -71 27 -73 -6 -7 -145 65 -208 108 -56 38 -57 41
-83 126 -15 49 -62 201 -105 338 -200 634 -240 830 -240 1189 0 170 9 381 15
374 2 -2 66 -94 143 -204z m-1509 47 c34 -55 61 -103 61 -108 0 -20 -750 -329
-971 -401 -483 -157 -1142 -269 -1784 -303 -547 -29 -1102 35 -1725 197 -163
43 -336 101 -568 191 l-173 68 88 82 c48 45 93 80 98 78 6 -2 54 -22 108 -44
129 -54 256 -87 418 -111 72 -11 140 -25 149 -32 280 -207 463 -276 817 -309
257 -23 544 26 898 155 71 26 154 43 400 80 981 149 1109 181 1790 440 165 63
307 115 317 115 10 1 38 -35 77 -98z m-4622 -4 c29 -45 79 -116 112 -157 51
-63 57 -76 41 -78 -47 -8 -420 105 -420 128 0 8 200 190 209 190 3 0 29 -37
58 -83z m3093 -96 c29 -66 53 -123 53 -128 1 -11 -135 -35 -144 -25 -4 4 -26
49 -50 101 -35 77 -40 95 -28 101 8 5 32 22 54 39 22 17 45 31 51 31 6 0 35
-54 64 -119z m-203 -177 c-5 -5 -384 -64 -412 -64 -11 0 39 35 110 78 72 43
153 92 180 110 l50 31 38 -75 c21 -42 36 -78 34 -80z m1968 -85 c42 -60 75
-112 73 -114 -7 -7 -357 -164 -488 -218 -737 -306 -1635 -487 -2607 -526 -362
-15 -622 2 -1068 70 -626 95 -1052 216 -1439 410 -198 99 -188 86 -119 152 71
67 108 97 122 97 5 0 86 -30 178 -66 486 -190 961 -314 1478 -383 245 -34 395
-43 680 -42 515 1 1035 59 1553 172 363 80 565 143 935 291 183 74 610 257
623 267 1 1 36 -49 79 -110z m1637 -209 c110 -159 114 -167 116 -220 2 -90 31
-389 47 -482 36 -207 96 -336 412 -891 2 -4 -24 3 -59 17 -35 13 -102 39 -150
57 l-87 33 -65 135 c-196 411 -321 863 -346 1250 -10 152 -5 290 10 274 4 -4
59 -82 122 -173z m-11603 18 c80 -38 178 -134 215 -209 53 -109 52 -218 -2
-333 -38 -80 -88 -135 -216 -236 -89 -71 -106 -89 -106 -112 0 -30 -2 -29 133
-104 107 -59 203 -144 240 -211 43 -80 70 -212 64 -316 -4 -75 -10 -99 -40
-160 -50 -99 -87 -141 -160 -177 -82 -40 -162 -54 -267 -46 -153 11 -219 38
-354 143 -37 29 -78 53 -91 53 -16 0 -43 -24 -93 -83 -75 -88 -146 -152 -208
-189 -114 -67 -436 23 -571 160 -78 80 -108 148 -108 247 0 79 2 84 64 212 47
97 76 142 108 173 49 46 77 101 69 134 -3 13 -35 38 -83 65 -164 93 -220 153
-271 289 -20 54 -26 91 -30 189 -6 163 10 216 87 294 117 117 271 120 491 9
102 -51 165 -103 262 -215 80 -92 104 -107 134 -87 6 4 37 58 68 121 129 256
179 317 311 377 132 61 247 65 354 12z m10177 -340 c80 -161 147 -294 149
-296 1 -1 52 18 113 43 61 25 113 45 115 45 3 0 65 -69 139 -152 73 -84 191
-212 261 -284 l128 -132 -53 -20 c-29 -11 -136 -52 -237 -91 -101 -39 -188
-71 -195 -71 -6 0 -67 146 -135 325 -69 179 -129 325 -135 325 -9 0 -598 -245
-622 -258 -8 -5 17 -101 81 -307 51 -165 92 -301 90 -303 -1 -1 -148 -51 -326
-111 l-324 -108 -83 291 c-46 160 -85 301 -88 313 -6 20 13 27 321 128 312
101 326 107 319 128 -4 12 -51 146 -105 297 -55 151 -99 279 -99 285 0 6 87
48 193 93 105 46 224 98 262 117 39 18 73 34 78 34 4 1 73 -131 153 -291z
m-5871 -129 c28 -64 44 -114 39 -119 -9 -9 -200 -70 -219 -70 -10 0 -95 194
-95 216 0 6 51 26 113 46 61 20 113 36 113 37 1 0 23 -49 49 -110z m8073 -664
c280 -401 505 -731 502 -733 -7 -3 -333 109 -478 163 -69 26 -75 31 -99 79
-14 28 -87 158 -161 290 -238 420 -275 532 -306 921 l-4 60 19 -25 c10 -14
248 -353 527 -755z m-7558 670 c73 -25 176 -57 229 -71 53 -15 97 -28 99 -29
7 -7 -172 -565 -181 -565 -15 0 -571 172 -580 180 -4 3 43 121 104 261 61 140
115 264 120 276 8 21 10 22 42 8 19 -8 94 -35 167 -60z m4054 -42 c13 -45 136
-572 136 -585 0 -11 -78 -33 -307 -87 -170 -41 -312 -74 -318 -75 -5 0 -27
136 -50 304 l-41 305 -34 4 c-25 2 6 12 110 33 80 17 222 49 315 73 94 24 173
43 177 44 4 1 9 -7 12 -16z m-5099 -82 l-46 -90 -32 11 c-18 6 -34 13 -37 15
-4 4 149 152 158 153 2 0 -18 -40 -43 -89z m5567 0 c54 -18 100 -36 102 -40 6
-10 -106 -181 -119 -181 -19 0 -216 73 -213 79 16 37 115 180 123 178 6 -2 54
-19 107 -36z m-5309 -232 c166 -67 306 -125 310 -129 5 -5 -240 -603 -259
-628 -2 -4 -607 239 -618 249 -8 7 251 629 262 629 2 0 139 -55 305 -121z
m1464 39 c46 -46 83 -87 83 -93 -1 -9 -169 -146 -187 -152 -5 -2 -45 37 -89
85 l-82 88 92 76 c50 42 93 77 96 77 2 1 42 -36 87 -81z m506 58 c95 -14 222
-30 282 -36 61 -7 111 -13 112 -14 5 -4 -73 -566 -80 -572 -5 -5 -615 64 -625
71 -1 1 23 129 53 284 30 154 55 283 55 286 0 8 25 6 203 -19z m1641 -58 c3
-35 10 -155 16 -268 6 -113 13 -233 16 -267 l6 -63 -317 0 -317 0 6 53 c3 28
11 162 17 297 6 135 14 248 18 252 3 4 98 14 211 23 169 14 293 26 332 34 3 0
9 -27 12 -61z m454 -173 c39 -27 72 -54 72 -59 0 -5 -35 -47 -77 -95 -42 -47
-78 -87 -79 -89 -3 -5 -189 132 -193 141 -1 5 32 49 74 98 l77 90 27 -18 c15
-10 59 -40 99 -68z m-1263 -8 l88 -82 -91 -78 c-50 -42 -94 -77 -98 -77 -10 0
-174 151 -174 160 0 10 169 160 180 160 4 0 47 -37 95 -83z m3306 -23 l107
-25 -45 -87 c-25 -48 -51 -92 -57 -99 -9 -9 -35 -6 -119 15 -60 15 -108 31
-108 35 -1 18 93 187 103 187 6 0 60 -12 119 -26z m-6885 -259 c92 -41 169
-76 171 -79 4 -4 -235 -556 -247 -569 -4 -5 -134 56 -289 134 -270 137 -281
143 -264 160 20 20 457 427 460 428 0 1 76 -33 169 -74z m2073 -21 c179 -37
329 -69 332 -73 7 -6 -105 -619 -114 -627 -5 -5 -726 141 -733 149 -3 2 34
137 81 298 100 343 93 319 101 319 4 0 154 -30 333 -66z m-650 -64 c34 -56 61
-104 61 -109 0 -8 -200 -101 -218 -101 -12 0 -126 199 -118 207 7 7 198 101
208 102 4 1 34 -44 67 -99z m6668 -6 c48 -37 120 -85 160 -108 40 -22 73 -43
73 -46 0 -3 -37 -24 -83 -47 l-83 -41 -81 154 c-44 85 -79 154 -78 154 2 0 43
-30 92 -66z m-2944 -259 c21 -170 41 -312 43 -314 2 -3 177 29 389 69 211 41
386 72 388 69 5 -6 127 -564 127 -582 0 -9 -8 -18 -17 -21 -97 -29 -576 -126
-765 -154 -53 -8 -57 -7 -61 12 -3 12 -20 149 -38 306 -18 157 -35 288 -38
292 -3 4 -154 -20 -336 -53 -181 -32 -340 -59 -352 -59 -15 0 -23 6 -23 18 0
9 -9 149 -21 310 -12 161 -19 295 -15 299 8 8 636 122 661 120 18 -2 22 -25
58 -312z m2276 -12 c50 -154 91 -286 91 -291 0 -6 -57 -33 -127 -61 -136 -53
-505 -183 -508 -179 -9 12 -236 610 -233 613 11 11 674 212 679 206 4 -3 48
-133 98 -288z m391 223 c56 -13 104 -26 106 -29 3 -2 -18 -48 -47 -101 -38
-73 -55 -95 -68 -92 -9 3 -54 14 -101 26 -47 11 -91 23 -98 25 -15 5 76 195
94 195 7 0 58 -11 114 -24z m-4056 -16 c4 -5 -42 -651 -47 -657 -3 -2 -690 18
-693 21 -1 0 11 138 27 306 15 168 28 313 29 323 0 18 15 19 339 15 187 -1
342 -5 345 -8z m1829 -59 c63 -29 86 -44 81 -53 -18 -29 -127 -158 -134 -158
-4 0 -54 21 -109 48 l-102 47 67 87 c58 74 70 85 88 78 12 -4 61 -26 109 -49z
m-2773 -136 c73 -73 82 -87 70 -98 -41 -38 -170 -137 -177 -137 -5 0 -46 38
-92 83 l-83 84 92 76 c51 43 95 77 99 77 3 0 44 -38 91 -85z m5691 24 c41 -17
157 -62 259 -101 102 -38 187 -72 190 -75 3 -3 -4 -3 -16 1 -15 5 -163 -63
-540 -248 -387 -190 -623 -298 -928 -426 -395 -165 -450 -189 -433 -190 4 0
-89 -65 -207 -144 -405 -272 -544 -380 -810 -625 -249 -229 -475 -477 -638
-702 -395 -542 -699 -1370 -803 -2184 -76 -605 -12 -1255 184 -1845 79 -236
193 -544 236 -633 l22 -48 -61 -54 c-33 -30 -64 -55 -67 -55 -16 0 -257 552
-334 766 -126 347 -183 710 -192 1229 -6 307 4 529 33 755 136 1071 621 2055
1399 2836 173 174 308 283 547 443 59 39 112 80 118 90 14 27 -6 70 -37 77
-27 7 -142 -67 -393 -254 -378 -282 -836 -827 -1135 -1350 -340 -597 -538
-1210 -622 -1927 -22 -190 -26 -893 -5 -1075 34 -303 82 -556 139 -735 64
-200 196 -522 331 -807 l61 -128 -52 -45 -52 -45 -54 107 c-151 300 -335 714
-415 937 -113 312 -164 619 -173 1046 -8 397 1 494 107 1100 l93 525 169 420
c179 443 226 545 328 715 230 381 387 570 859 1038 237 235 319 321 299 316
-24 -5 -28 -3 -28 15 0 21 -27 41 -56 41 -9 0 -40 -22 -68 -48 l-51 -48 -157
-33 c-319 -66 -428 -79 -918 -111 -173 -12 -394 -27 -490 -36 -268 -22 -638
-28 -1030 -15 -628 21 -851 47 -1425 166 -405 84 -518 115 -898 243 -267 90
-350 114 -356 104 -13 -21 -534 184 -785 310 -123 61 -636 337 -636 342 0 2
58 57 129 124 l128 121 214 -111 c281 -147 455 -227 745 -342 810 -321 1416
-484 2134 -575 470 -60 976 -75 1600 -47 515 23 726 43 1240 116 601 86 1146
221 1850 458 383 130 570 209 881 373 96 50 242 127 324 171 83 43 154 85 160
93 5 8 10 15 11 15 1 0 34 -14 75 -31z m-4317 -67 c47 -40 86 -77 86 -82 0 -4
-40 -44 -88 -88 l-89 -81 -93 82 -93 81 89 83 c49 45 92 81 96 80 4 -1 45 -35
92 -75z m-3639 -58 c28 -58 51 -109 53 -114 2 -4 -51 -26 -116 -48 l-120 -40
-50 111 -51 112 112 42 c62 23 114 42 117 42 3 0 28 -47 55 -105z m642 -38
c178 -59 325 -111 328 -115 2 -4 -34 -134 -81 -288 l-86 -280 -117 34 c-164
48 -600 195 -617 208 -11 8 10 61 109 282 67 150 127 271 132 269 6 -2 155
-51 332 -110z m5287 -131 c53 -24 96 -47 96 -51 0 -10 -131 -164 -140 -164 -4
0 -53 21 -109 48 l-101 47 65 83 c36 45 71 82 79 82 7 0 57 -20 110 -45z
m-10248 -16 l54 -42 -5 -101 c-3 -55 -10 -197 -15 -315 -5 -118 -11 -215 -13
-217 -3 -4 -205 110 -217 122 -4 5 1 114 12 244 l21 235 49 58 c28 31 52 57
54 57 3 0 30 -19 60 -41z m1379 -190 c-23 -114 -38 -151 -90 -229 -98 -147
-259 -259 -445 -309 -220 -59 -475 -87 -529 -57 -23 13 -22 14 61 69 141 94
174 106 334 117 163 11 218 25 303 80 116 75 181 133 181 161 0 60 -58 66
-122 13 -69 -58 -159 -117 -202 -132 -22 -7 -101 -17 -177 -22 -153 -11 -201
-25 -313 -90 -38 -22 -70 -39 -72 -37 -6 6 62 101 97 136 70 68 205 148 338
198 35 13 123 33 195 44 157 23 230 44 356 103 52 24 96 43 98 41 2 -2 -4 -40
-13 -86z m5043 30 c180 -16 329 -32 331 -35 4 -4 -45 -408 -66 -546 l-6 -38
-56 0 c-137 0 -691 68 -697 85 -3 6 25 134 61 284 36 150 65 275 65 277 0 7
39 4 368 -27z m-7693 -37 c346 6 404 -1 585 -64 120 -43 169 -69 233 -128 50
-45 137 -160 137 -179 0 -4 -64 5 -143 20 -78 15 -210 35 -292 44 -181 19
-260 39 -389 99 -102 48 -134 54 -154 34 -18 -18 -14 -56 8 -75 30 -26 218
-109 287 -127 33 -9 121 -23 194 -31 187 -21 393 -57 377 -65 -32 -18 -265
-52 -388 -57 -147 -6 -248 7 -351 46 -132 50 -298 190 -369 311 -30 52 -100
195 -100 205 0 1 48 -7 108 -17 81 -14 144 -18 257 -16z m991 -14 c-3 -24 -8
-74 -12 -111 l-6 -69 -66 65 c-37 35 -78 70 -92 78 -24 13 -24 13 28 20 29 4
74 18 100 32 26 14 48 26 50 26 2 1 1 -18 -2 -41z m5983 -60 l82 -87 -102 -75
-102 -75 -47 52 c-77 85 -110 124 -110 131 0 8 184 146 191 143 3 -1 43 -41
88 -89z m2544 -192 c10 -153 17 -280 15 -282 -10 -9 -776 -51 -783 -42 -1 2 4
122 11 268 7 146 13 277 13 291 l1 26 333 10 c182 6 346 9 362 9 l30 -1 18
-279z m446 144 c61 -28 99 -50 96 -57 -6 -18 -127 -163 -135 -163 -4 0 -53 22
-109 48 l-101 48 67 87 c37 48 71 86 74 85 4 -2 52 -23 108 -48z m-1475 -130
c47 -41 85 -78 85 -82 1 -4 -40 -43 -90 -87 l-91 -81 -90 83 -91 82 89 82 c49
46 92 82 96 80 4 -1 46 -36 92 -77z m-7316 -294 c72 -37 274 -175 387 -265
168 -134 353 -312 529 -509 l119 -133 -29 -30 c-118 -124 -1368 -1315 -1382
-1317 -24 -4 -202 53 -263 84 -53 27 -109 86 -109 116 0 11 13 35 29 54 50 56
66 165 37 245 l-13 37 38 11 c79 24 128 94 116 167 -3 19 -19 61 -36 94 l-30
59 83 -6 c104 -7 160 14 194 76 38 68 26 191 -25 251 -14 17 -24 32 -22 34 2
1 20 9 39 17 46 18 111 84 138 140 31 63 45 147 33 198 -5 22 -8 41 -6 41 1 0
31 -13 66 -29 35 -16 99 -36 141 -46 l77 -17 -13 -31 c-8 -18 -23 -52 -34 -77
-31 -68 -36 -138 -22 -303 11 -121 17 -154 32 -169 23 -23 50 -23 72 1 16 18
17 29 6 136 -18 175 -11 266 28 339 34 62 40 110 21 165 -7 19 -20 33 -32 36
-206 45 -344 100 -452 182 -101 78 -208 239 -221 335 l-6 44 98 17 c55 10 146
33 204 52 58 18 113 34 123 34 10 1 48 -14 85 -33z m11158 -230 c-1 -5 -92
-66 -201 -135 -661 -419 -931 -635 -1245 -996 -532 -612 -885 -1380 -984
-2140 -55 -421 -46 -972 24 -1403 53 -329 120 -554 306 -1044 l18 -48 -49 -50
c-39 -39 -51 -47 -57 -35 -23 41 -159 408 -228 615 -208 623 -264 1262 -169
1920 88 616 325 1313 604 1775 159 265 314 461 575 728 315 324 552 515 1029
834 l215 143 81 -77 c45 -43 82 -82 81 -87z m-11898 140 l132 0 0 -35 c1 -76
77 -220 173 -326 l59 -65 -49 0 c-111 0 -208 -46 -253 -120 -48 -78 -43 -77
-75 -18 -15 29 -69 107 -118 173 -50 66 -100 143 -113 170 -28 60 -31 136 -8
195 l16 40 52 -7 c28 -5 111 -8 184 -7z m4959 -208 c-3 -8 -6 -5 -6 6 -1 11 2
17 5 13 3 -3 4 -12 1 -19z m-2209 -116 c611 -461 904 -734 1153 -1077 106
-146 406 -601 482 -732 4 -7 -44 -55 -125 -125 -384 -328 -761 -680 -925 -860
-403 -444 -819 -1057 -1153 -1702 -305 -588 -543 -1250 -624 -1736 -31 -184
-95 -701 -136 -1099 -16 -156 -31 -285 -33 -287 -2 -2 -630 598 -1395 1334
l-1392 1337 3 665 2 665 871 800 c561 515 1178 1094 1730 1626 986 948 1366
1308 1377 1309 4 0 78 -53 165 -118z m2198 74 c-6 -23 0 -26 137 -74 78 -27
287 -98 465 -157 204 -67 322 -111 319 -119 -2 -6 -33 -98 -68 -205 -35 -106
-69 -195 -75 -198 -13 -5 -924 235 -936 246 -8 7 151 531 160 531 2 0 1 -11
-2 -24z m7129 -49 l79 -74 -44 -25 c-25 -14 -141 -81 -259 -148 -459 -261
-761 -468 -1031 -705 -283 -248 -522 -613 -773 -1180 -244 -553 -331 -926
-344 -1475 -13 -562 48 -930 275 -1652 l49 -157 -58 -57 c-32 -32 -61 -56 -64
-53 -8 9 -109 284 -163 444 -146 438 -212 920 -199 1465 12 481 65 794 202
1200 166 487 419 939 738 1314 284 333 503 524 938 816 179 120 557 360 568
360 4 0 42 -33 86 -73z m-12407 11 c12 -24 62 -96 110 -160 48 -64 110 -159
137 -210 28 -51 72 -116 100 -144 l50 -52 -48 -16 c-57 -20 -89 -63 -111 -150
-9 -32 -18 -61 -21 -64 -10 -11 -152 95 -231 173 -131 129 -228 273 -255 378
-16 64 8 145 59 195 31 31 141 88 177 91 6 1 20 -18 33 -41z m7275 -135 c-1
-11 -45 -114 -98 -229 -53 -115 -115 -251 -137 -301 -23 -51 -44 -93 -47 -92
-16 2 -183 201 -175 208 5 5 69 35 142 67 72 32 132 62 132 65 0 4 -45 47 -99
96 -55 48 -100 90 -100 93 -1 8 361 119 374 116 6 -2 9 -12 8 -23z m350 -9
c95 -9 173 -17 175 -19 2 -2 -28 -72 -66 -156 -254 -562 -449 -1085 -626
-1678 -31 -101 -57 -185 -58 -187 -3 -3 -440 66 -445 70 -3 3 215 615 292 820
81 216 131 333 342 799 151 331 170 367 191 367 13 0 101 -7 195 -16z m437
-93 l135 -69 -35 -14 c-19 -8 -89 -36 -155 -63 -66 -27 -123 -51 -127 -54 -4
-3 31 -58 78 -121 46 -63 84 -115 84 -116 0 -1 -69 -19 -152 -39 -84 -21 -156
-41 -161 -44 -4 -4 38 -65 93 -136 55 -70 100 -131 100 -135 0 -6 -148 -37
-267 -56 -25 -4 -43 -12 -43 -19 0 -7 32 -79 70 -160 39 -81 70 -151 70 -155
0 -4 -75 -35 -167 -70 -93 -35 -170 -65 -172 -66 -3 -3 27 -74 126 -303 2 -3
-49 -33 -112 -66 -63 -33 -115 -64 -115 -68 0 -4 30 -62 66 -128 36 -67 63
-123 60 -126 -2 -3 -66 5 -140 18 -114 18 -136 25 -131 38 2 9 27 93 55 186
173 576 368 1095 634 1684 31 69 56 130 56 138 0 7 3 13 8 12 4 0 68 -31 142
-68z m-7337 -12 c64 -18 80 -42 74 -110 -10 -108 -82 -194 -162 -194 -42 0
-129 38 -179 78 l-28 23 17 59 c25 90 64 128 146 144 62 12 89 12 132 0z
m13441 -1509 l1326 -1275 0 -662 0 -661 -127 -119 c-71 -65 -454 -418 -853
-783 -422 -387 -1055 -982 -1515 -1425 -844 -812 -1470 -1408 -1485 -1413 -10
-4 -268 189 -470 351 -445 357 -644 554 -852 842 -110 153 -407 604 -481 732
-4 7 60 69 165 159 478 411 813 733 1023 984 463 555 912 1278 1208 1945 206
464 356 920 421 1275 32 176 113 822 151 1210 8 85 17 174 21 198 l5 43 69
-63 c38 -35 666 -637 1394 -1338z m-14322 1129 c67 -78 164 -163 260 -227 37
-25 68 -46 68 -47 0 -2 -16 -26 -35 -55 -35 -51 -55 -106 -55 -147 0 -13 -2
-23 -4 -23 -8 0 -203 117 -267 161 -122 82 -259 228 -259 275 0 28 54 90 130
151 l55 44 25 -33 c14 -18 51 -62 82 -99z m10188 75 c0 -3 -33 -45 -74 -93
-83 -98 -233 -301 -267 -361 l-23 -40 -150 0 c-83 0 -316 3 -517 7 l-366 6 95
239 96 238 510 3 c281 1 553 3 604 5 50 1 92 -1 92 -4z m-9504 -145 c79 -24
120 -60 130 -113 15 -82 -28 -112 -134 -96 -61 10 -202 47 -202 53 0 24 25
128 36 149 13 24 21 28 58 28 24 0 74 -9 112 -21z m6450 -101 c-7 -18 -36 -86
-64 -150 -59 -136 -146 -363 -241 -632 -38 -105 -94 -264 -126 -354 -46 -129
-61 -161 -74 -158 -9 3 -54 10 -101 17 -47 6 -91 15 -99 19 -10 5 21 32 102
89 64 45 119 87 123 92 3 5 -26 66 -64 134 -39 69 -67 127 -64 129 4 2 78 27
165 56 l157 52 -82 90 c-124 133 -142 157 -126 162 7 3 86 28 176 56 l162 51
-19 27 c-11 15 -51 67 -89 117 -39 49 -69 91 -68 93 2 2 327 136 344 141 1 1
-4 -14 -12 -31z m-6648 -217 c50 -52 94 -134 90 -168 -5 -41 -62 -60 -136 -45
-30 6 -66 19 -80 28 -23 15 -24 20 -18 71 10 82 50 153 88 153 10 0 35 -18 56
-39z m-596 -27 c31 -23 113 -74 182 -115 l125 -73 -34 -37 c-41 -46 -70 -101
-86 -163 -6 -25 -15 -46 -19 -46 -20 0 -136 86 -189 141 -68 69 -111 146 -111
197 0 44 48 154 64 145 6 -4 37 -26 68 -49z m494 -300 c25 -14 47 -36 55 -56
20 -47 16 -114 -8 -146 -18 -23 -28 -27 -69 -26 -27 1 -82 11 -122 23 l-72 22
6 42 c9 59 40 122 76 152 36 30 67 28 134 -11z m-266 -275 c30 -12 96 -31 145
-44 60 -15 91 -28 93 -38 2 -9 -43 -113 -99 -232 l-103 -217 -31 6 c-91 17
-193 18 -249 2 -32 -10 -61 -15 -63 -12 -7 6 238 556 246 556 3 0 31 -9 61
-21z m5248 -170 c248 -61 452 -115 452 -120 0 -4 -6 -6 -12 -4 -7 3 -211 52
-453 111 -375 90 -497 124 -449 124 5 0 213 -50 462 -111z m-235 -544 c353
-750 439 -1073 454 -1705 9 -394 -2 -501 -112 -1125 -64 -365 -105 -571 -126
-635 -156 -475 -462 -1064 -732 -1404 -161 -203 -286 -337 -595 -643 l-317
-313 45 4 c25 3 90 16 145 29 364 92 581 123 1110 157 176 11 398 27 495 36
268 22 638 28 1030 15 629 -21 863 -48 1430 -167 416 -87 492 -107 878 -237
273 -91 365 -118 371 -109 6 9 55 -5 197 -59 280 -106 446 -179 669 -293 190
-98 555 -295 555 -301 0 -1 -58 -57 -129 -123 l-128 -121 -154 81 c-445 235
-882 419 -1432 602 -684 228 -1306 349 -2042 396 -318 20 -1129 4 -1545 -30
-362 -30 -935 -109 -1240 -170 -565 -114 -1381 -359 -1840 -552 -183 -77 -873
-434 -896 -464 -9 -12 -29 -7 -120 31 -60 25 -185 74 -279 110 -93 36 -156 63
-140 59 17 -4 35 -7 40 -7 6 0 238 111 515 247 383 188 609 291 934 427 236
99 434 186 440 193 6 8 101 74 211 148 385 258 541 378 791 609 254 234 497
503 663 732 333 461 615 1176 741 1877 111 616 102 1106 -30 1746 -44 210
-250 817 -345 1017 l-22 48 61 54 c33 30 64 55 67 55 8 0 122 -247 215 -466
151 -355 213 -561 258 -859 45 -287 51 -389 50 -795 0 -335 -3 -409 -22 -569
-137 -1120 -611 -2098 -1407 -2897 -173 -173 -304 -280 -547 -442 -116 -78
-135 -100 -118 -132 13 -24 11 -24 79 -5 80 21 337 198 528 364 89 77 309 310
435 461 583 695 969 1532 1107 2400 48 301 55 407 56 830 0 477 -13 632 -86
993 -53 269 -179 606 -405 1084 l-53 113 52 45 52 45 49 -97 c27 -54 89 -183
139 -288z m-5064 79 c38 -8 37 -19 -20 -116 -45 -76 -102 -118 -161 -118 -42
0 -58 16 -92 90 -41 92 -42 91 49 122 79 27 158 35 224 22z m4551 -255 c238
-612 331 -1016 360 -1556 37 -702 -155 -1578 -500 -2288 -219 -450 -506 -816
-978 -1248 -165 -151 -223 -198 -416 -339 -176 -128 -547 -378 -562 -378 -6 0
-48 34 -93 76 -66 62 -80 79 -69 89 7 7 74 49 148 95 175 109 495 322 635 423
370 268 714 628 985 1032 335 497 580 1137 654 1710 55 418 45 974 -24 1403
-53 329 -120 554 -306 1044 l-18 48 49 50 c35 36 51 46 57 37 4 -7 39 -96 78
-198z m-227 -91 c112 -297 176 -503 216 -694 139 -653 135 -1399 -10 -1979
-220 -878 -755 -1697 -1451 -2221 -76 -57 -221 -159 -321 -226 -198 -132 -556
-358 -566 -358 -3 1 -41 34 -85 74 l-78 74 43 25 c24 13 130 73 234 132 477
271 804 496 1080 742 263 234 505 608 748 1158 183 414 275 731 324 1110 25
196 25 734 0 950 -34 285 -124 658 -270 1117 l-34 106 56 56 c31 31 59 56 62
56 4 0 27 -55 52 -122z m4654 -975 c-3 -10 -5 -4 -5 12 0 17 2 24 5 18 2 -7 2
-21 0 -30z m-3244 -910 c-13 -2 -33 -2 -45 0 -13 2 -3 4 22 4 25 0 35 -2 23
-4z m180 -10 c-7 -2 -21 -2 -30 0 -10 3 -4 5 12 5 17 0 24 -2 18 -5z m8920
-1051 c19 -20 64 -118 69 -147 2 -17 -10 -24 -77 -47 -79 -27 -158 -35 -224
-22 -38 8 -36 19 20 116 28 47 52 75 82 92 50 31 107 34 130 8z m-7616 -242
c70 -12 128 -22 130 -23 4 -4 -99 -344 -164 -542 -141 -432 -323 -894 -527
-1343 -31 -68 -56 -130 -56 -138 0 -8 -3 -14 -7 -13 -5 0 -69 31 -143 69 -128
65 -134 69 -108 79 110 42 284 115 290 120 4 3 -31 58 -78 121 -46 63 -84 115
-84 116 0 1 69 19 153 39 83 21 155 41 160 44 4 4 -38 65 -93 136 -55 70 -100
131 -100 135 0 4 70 20 155 35 99 18 155 33 155 41 0 6 -31 78 -70 159 -38 81
-70 150 -70 154 0 4 75 36 168 71 92 35 169 65 171 66 2 2 -25 70 -60 150 -35
81 -65 150 -66 153 -2 3 49 33 112 66 63 33 115 64 115 68 0 4 -29 61 -65 127
-36 66 -65 122 -65 125 0 8 10 7 147 -15z m496 -81 c170 -27 197 -34 192 -48
-4 -9 -49 -137 -102 -286 -208 -590 -281 -771 -498 -1245 -62 -135 -131 -289
-155 -342 -29 -65 -48 -98 -59 -98 -26 0 -376 32 -379 35 -2 2 28 72 66 156
246 546 447 1079 607 1618 31 102 61 201 67 219 9 29 13 32 36 28 15 -3 116
-20 225 -37z m7147 3 c0 -8 -239 -544 -245 -551 -3 -2 -28 6 -57 18 -29 11
-96 32 -148 45 -64 16 -96 29 -98 39 -2 9 43 113 99 232 l103 217 31 -6 c80
-16 201 -17 245 -3 53 18 70 20 70 9z m-6720 -72 c63 -11 117 -20 119 -20 2 0
-53 -41 -122 -90 -70 -50 -127 -94 -127 -98 0 -4 31 -62 70 -130 66 -119 68
-123 47 -131 -12 -4 -86 -30 -165 -56 l-143 -48 39 -41 c125 -133 182 -200
175 -206 -4 -4 -78 -29 -163 -55 -85 -26 -160 -50 -167 -54 -8 -4 17 -45 77
-121 49 -63 87 -116 86 -118 -2 -1 -80 -33 -174 -71 l-172 -69 14 31 c8 18 37
85 65 150 65 150 168 426 311 830 62 174 113 317 114 317 0 0 53 -9 116 -20z
m1175 -275 c242 -58 444 -110 450 -116 5 -5 5 -9 0 -9 -5 0 -210 50 -457 110
-247 61 -451 110 -453 110 -3 0 -5 4 -5 10 0 5 6 7 13 5 6 -2 210 -52 452
-110z m4622 44 c123 -39 168 -62 216 -107 45 -44 47 -73 8 -118 -50 -56 -66
-165 -37 -245 l13 -37 -37 -11 c-79 -24 -126 -85 -118 -156 3 -23 19 -69 36
-103 l31 -61 -83 6 c-104 7 -160 -14 -194 -76 -38 -67 -26 -191 24 -250 l24
-29 -46 -24 c-110 -55 -191 -221 -165 -337 5 -22 8 -41 6 -41 -1 0 -31 13 -66
29 -35 16 -99 36 -141 46 l-77 17 13 31 c8 18 23 52 34 77 31 68 36 138 22
303 -11 121 -17 154 -32 169 -23 23 -50 23 -72 -1 -16 -18 -17 -29 -6 -135 18
-173 11 -257 -28 -336 -18 -37 -32 -80 -32 -101 0 -54 19 -98 43 -104 206 -45
347 -102 452 -182 102 -79 208 -239 221 -335 l6 -44 -108 -20 c-60 -11 -157
-36 -217 -54 l-107 -34 -73 36 c-149 74 -415 275 -628 475 -123 115 -171 165
-334 346 l-79 88 80 79 c312 310 1322 1270 1336 1270 10 0 62 -14 115 -31z
m491 -298 l72 -22 -6 -42 c-9 -59 -40 -122 -76 -152 -35 -30 -66 -28 -131 8
-79 44 -98 155 -39 221 21 23 74 19 180 -13z m250 -110 c126 -82 232 -219 232
-300 0 -20 -12 -62 -28 -94 l-27 -58 -68 50 c-37 27 -124 82 -192 122 l-124
73 34 37 c41 46 70 101 86 163 6 25 15 46 19 46 4 0 34 -18 68 -39z m-390
-228 c37 -18 37 -19 35 -75 -3 -79 -45 -158 -84 -158 -42 0 -149 146 -149 203
0 56 111 72 198 30z m250 -142 c151 -89 220 -138 296 -210 84 -81 126 -136
126 -168 0 -28 -75 -111 -143 -161 l-44 -31 -64 80 c-75 97 -177 191 -279 261
-41 28 -79 55 -84 59 -4 4 4 23 19 43 31 40 65 125 65 161 0 14 2 25 4 25 2 0
49 -26 104 -59z m-9042 -28 l381 -6 -95 -237 -95 -238 -601 -4 c-331 -2 -603
-3 -605 -2 -1 2 33 45 77 98 83 99 207 267 258 348 l29 48 135 0 c74 0 306 -3
516 -7z m8494 -133 c60 -10 200 -47 200 -53 0 -24 -25 -128 -36 -149 -13 -24
-21 -28 -58 -28 -55 0 -165 33 -199 60 -55 43 -61 150 -9 168 35 13 28 13 102
2z m390 -162 c182 -127 364 -355 401 -501 16 -64 -8 -145 -59 -195 -32 -32
-177 -103 -186 -91 -1 2 -14 25 -29 50 -14 25 -64 96 -109 157 -46 61 -105
153 -133 204 -27 51 -72 116 -100 145 l-50 52 39 11 c67 20 104 75 130 193 4
15 10 27 15 27 4 0 41 -23 81 -52z m-6767 -89 c49 -54 86 -102 84 -106 -3 -5
-66 -35 -141 -68 -75 -33 -136 -63 -136 -66 0 -4 45 -46 99 -95 55 -49 100
-92 100 -95 2 -11 -373 -119 -382 -110 -6 6 16 65 55 153 163 360 222 488 227
487 3 0 46 -45 94 -100z m1321 -61 c254 -67 463 -123 464 -124 5 -3 -158 -527
-165 -534 -3 -3 -3 7 1 23 4 18 2 29 -6 32 -7 2 -215 72 -463 155 -247 84
-451 153 -452 154 -2 2 112 352 132 404 2 6 10 12 17 12 6 0 219 -55 472 -122z
m5040 -72 c28 -14 64 -36 80 -49 l28 -23 -17 -61 c-27 -95 -73 -133 -181 -148
-60 -8 -126 7 -155 36 -36 36 -19 143 34 212 54 71 115 80 211 33z m228 -261
c11 -22 61 -94 111 -160 49 -66 100 -142 113 -170 28 -60 31 -136 8 -195 l-16
-40 -52 7 c-28 5 -111 8 -183 7 l-133 0 0 35 c-1 75 -79 224 -172 326 l-57 62
74 6 c120 9 199 57 246 150 23 44 23 44 61 -28z m-4975 -357 c-3 -8 -6 -5 -6
6 -1 11 2 17 5 13 3 -3 4 -12 1 -19z m3802 -242 c23 -13 22 -14 -61 -69 -141
-94 -174 -106 -334 -117 -163 -11 -218 -25 -303 -80 -116 -75 -181 -133 -181
-160 0 -61 58 -67 122 -14 69 58 159 117 202 132 22 7 101 17 177 22 153 11
201 25 313 90 38 22 70 39 72 37 2 -2 -15 -31 -39 -65 -54 -78 -139 -146 -263
-209 -120 -62 -203 -87 -354 -108 -129 -19 -215 -45 -340 -104 -47 -22 -86
-38 -88 -36 -5 5 28 162 44 207 45 128 194 283 340 354 189 92 611 165 693
120z m-7163 -38 c-3 -24 -8 -113 -11 -198 -3 -85 -8 -198 -11 -251 l-6 -97
-307 -7 c-168 -3 -331 -7 -361 -8 l-55 -2 -18 279 c-10 153 -17 280 -14 282 8
9 491 37 725 42 l63 2 -5 -42z m1099 12 c279 -28 447 -53 451 -65 4 -10 -123
-555 -131 -563 -5 -5 -688 58 -694 64 -4 4 45 412 66 547 l6 37 56 0 c31 0
142 -9 246 -20z m7417 -44 c40 -8 99 -24 130 -36 133 -50 297 -188 368 -310
30 -52 100 -195 100 -205 0 -1 -48 7 -107 17 -83 15 -143 19 -263 17 -344 -7
-410 1 -599 70 -103 38 -162 72 -224 129 -43 41 -127 154 -127 171 0 4 64 -5
143 -20 78 -15 210 -35 292 -44 181 -19 260 -39 389 -99 102 -48 134 -54 154
-34 18 18 14 56 -8 75 -30 26 -218 109 -287 127 -33 9 -121 23 -194 31 -184
21 -393 57 -377 66 11 6 165 34 288 52 64 10 255 6 322 -7z m-7983 -185 c-1
-7 -165 -155 -177 -158 -4 -2 -47 34 -96 80 l-89 82 93 83 93 82 88 -81 c49
-45 89 -84 88 -88z m7039 84 c56 -31 104 -60 106 -64 2 -3 -4 -100 -15 -216
-10 -115 -19 -221 -19 -235 0 -16 -21 -47 -53 -84 l-53 -59 -58 43 -58 44 6
85 c3 47 8 151 11 231 8 207 16 320 24 316 3 -1 52 -29 109 -61z m-9077 -285
c18 -157 35 -288 38 -292 4 -4 156 20 339 52 183 33 341 60 352 60 12 0 20 -7
20 -17 0 -10 9 -150 21 -312 16 -216 19 -295 10 -300 -14 -9 -670 -126 -674
-120 -2 2 -20 144 -41 314 -21 171 -39 312 -42 314 -2 2 -171 -28 -376 -68
-205 -39 -380 -71 -388 -71 -12 0 -30 66 -78 288 -34 158 -63 292 -62 299 0
13 3 15 125 43 179 42 333 73 520 105 l190 33 7 -22 c3 -11 21 -149 39 -306z
m438 162 l102 -47 -66 -85 c-37 -47 -69 -85 -73 -85 -4 0 -53 20 -109 45 -63
28 -101 50 -98 57 6 18 127 163 135 163 4 0 53 -21 109 -48z m3911 -109 c140
-47 257 -87 258 -88 3 -3 -233 -537 -243 -553 -3 -4 -659 219 -667 227 -4 4
31 133 78 288 l86 280 117 -34 c64 -18 231 -72 371 -120z m-822 -14 c18 -20
32 -39 32 -42 0 -8 -173 -140 -185 -141 -6 -1 -48 38 -93 85 l-82 87 101 75
101 76 48 -52 c26 -29 61 -68 78 -88z m5912 -120 c24 -13 24 -13 -28 -20 -30
-4 -76 -19 -103 -33 l-50 -26 5 43 c3 23 8 73 12 110 l6 69 66 -65 c37 -35 78
-70 92 -78z m-10987 -295 c65 -168 117 -308 114 -310 -11 -11 -673 -212 -678
-206 -8 8 -189 565 -189 580 0 13 221 100 455 181 94 32 172 59 175 60 3 0 58
-137 123 -305z m440 198 l97 -47 -65 -82 c-36 -46 -70 -83 -76 -83 -14 0 -191
79 -203 90 -10 10 120 170 137 169 7 0 56 -21 110 -47z m3084 12 l223 -7 -5
-36 c-5 -37 -55 -583 -55 -602 0 -11 -673 -10 -684 1 -3 3 6 147 19 320 14
173 25 321 25 329 0 11 23 12 128 7 70 -3 227 -9 349 -12z m7673 -71 c172 -50
299 -142 357 -261 24 -48 28 -70 28 -138 0 -81 -1 -83 -68 -217 -49 -99 -77
-143 -102 -162 -41 -32 -79 -106 -71 -138 4 -14 32 -37 83 -66 164 -93 220
-153 271 -289 20 -54 26 -91 30 -189 6 -163 -10 -216 -87 -294 -117 -117 -271
-120 -491 -9 -102 51 -165 103 -262 215 -80 92 -104 108 -134 87 -6 -4 -43
-70 -83 -147 -105 -206 -152 -270 -231 -317 -87 -52 -187 -82 -276 -82 -94 -1
-178 40 -267 128 -103 101 -145 215 -125 340 20 126 81 211 252 346 89 71 106
89 106 112 0 30 2 29 -133 104 -107 59 -203 144 -240 211 -43 80 -70 212 -64
316 4 75 10 99 40 160 50 99 87 141 160 177 82 40 162 54 267 46 153 -11 219
-38 354 -143 37 -29 78 -53 90 -53 16 0 44 24 92 81 101 118 193 194 257 210
47 12 150 0 247 -28z m-6356 -77 c196 -41 359 -76 362 -79 5 -5 -166 -598
-176 -610 -6 -7 -659 121 -672 132 -3 3 20 146 53 316 32 171 59 311 59 313 0
5 27 0 374 -72z m1646 -202 c7 -19 -1 -24 -107 -62 -64 -23 -117 -41 -117 -40
-1 2 -25 52 -54 112 -29 59 -52 109 -50 111 2 1 55 21 118 43 l115 40 43 -91
c24 -51 48 -101 52 -113z m566 103 c93 -47 211 -107 262 -134 l92 -50 -239
-221 -239 -221 -168 75 c-93 41 -170 77 -172 78 -1 2 45 113 104 247 58 134
115 263 125 286 22 51 3 56 235 -60z m-4283 -1 l77 -69 -22 -25 c-13 -13 -53
-51 -90 -84 l-68 -60 -90 77 c-49 43 -90 80 -90 84 0 3 39 43 87 88 72 66 91
79 103 70 8 -7 50 -43 93 -81z m-5591 64 c13 -5 106 -39 208 -74 318 -111 297
-100 327 -159 14 -29 84 -155 156 -282 234 -412 271 -515 301 -832 8 -81 13
-149 11 -151 -1 -2 -177 248 -391 555 -214 307 -450 647 -526 756 -78 112
-131 197 -123 197 8 0 24 -4 37 -10z m6967 -114 l83 -84 -91 -76 c-51 -42 -95
-76 -99 -76 -15 0 -176 170 -168 177 27 28 173 142 181 142 6 1 48 -37 94 -83z
m-3265 -319 c47 -166 86 -305 86 -309 0 -4 -146 -55 -325 -113 -310 -101 -326
-107 -319 -128 4 -12 51 -146 105 -297 55 -151 99 -280 99 -286 0 -6 -57 -35
-127 -64 -71 -29 -191 -82 -267 -117 -77 -34 -141 -63 -143 -63 -2 0 -69 132
-149 293 -80 160 -147 293 -148 295 -2 1 -52 -18 -112 -43 -60 -25 -112 -45
-115 -45 -3 0 -68 71 -145 158 -76 86 -194 214 -261 283 l-123 126 238 92
c130 50 242 91 247 91 6 0 66 -146 134 -325 69 -179 130 -325 135 -325 11 0
594 242 620 257 11 6 -6 71 -79 308 -51 165 -92 301 -90 303 6 6 621 210 636
211 13 1 35 -63 103 -302z m459 195 l99 -47 -67 -85 c-37 -47 -72 -84 -78 -82
-28 8 -198 86 -202 92 -6 10 125 170 139 169 6 0 55 -21 109 -47z m-3285 -84
l82 -32 46 -95 c157 -327 273 -682 334 -1021 24 -135 42 -410 32 -494 l-7 -58
-120 172 c-113 163 -120 176 -122 224 -2 93 -33 403 -48 487 -8 46 -27 121
-41 167 -31 98 -143 329 -241 497 -38 66 -84 146 -102 178 l-33 57 69 -25 c37
-14 105 -40 151 -57z m989 46 c54 -14 104 -27 111 -29 16 -6 -77 -195 -96
-195 -15 0 -215 50 -220 55 -3 3 98 195 103 195 2 0 47 -12 102 -26z m-359
-161 c44 -84 79 -153 77 -153 -2 0 -43 30 -92 66 -48 37 -120 85 -160 108 -40
22 -73 43 -73 46 0 5 163 90 166 86 1 0 38 -70 82 -153z m7555 36 c166 -67
306 -125 311 -130 6 -6 -242 -611 -258 -626 -6 -7 -621 246 -621 256 0 11 258
621 263 621 2 0 139 -55 305 -121z m-679 -18 c31 -54 56 -102 56 -105 0 -4
-206 -106 -216 -106 -4 0 -124 200 -124 208 0 8 198 101 216 102 7 0 37 -45
68 -99z m-7060 -116 c30 -19 58 -40 61 -45 4 -6 33 -95 65 -198 31 -103 87
-282 123 -398 145 -466 178 -639 184 -974 2 -135 0 -284 -4 -332 l-8 -87 -141
203 -141 203 9 59 c14 82 3 468 -17 589 -23 144 -70 347 -122 520 -44 148
-152 434 -199 528 l-25 48 81 -41 c44 -22 104 -56 134 -75z m4462 3 c-3 -29
-11 -163 -17 -298 -7 -135 -15 -248 -18 -252 -3 -3 -94 -14 -201 -23 -107 -8
-229 -19 -270 -24 -41 -5 -76 -7 -78 -6 -2 2 -10 115 -17 252 -8 136 -17 283
-20 326 l-5 77 316 0 316 0 -6 -52z m1064 -14 c162 -20 296 -38 298 -39 1 -1
-23 -131 -54 -288 -43 -220 -60 -287 -71 -287 -8 0 -92 11 -186 25 -95 13
-221 29 -282 36 -60 6 -111 12 -112 13 -3 3 65 521 72 554 3 12 13 22 23 22 9
0 150 -16 312 -36z m-2345 -367 l41 -302 34 -4 c25 -2 -5 -11 -106 -32 -78
-16 -222 -49 -320 -73 -99 -25 -181 -43 -183 -41 -5 6 -141 577 -141 595 0 12
71 33 313 91 171 41 314 74 317 71 3 -2 23 -139 45 -305z m-4362 -1184 c592
-777 1075 -1413 1073 -1413 -2 0 -84 -17 -183 -39 -99 -21 -193 -36 -209 -34
-16 3 -86 -7 -154 -22 -296 -62 -534 -85 -910 -88 l-265 -2 -9 -27 c-8 -23 -1
-39 61 -135 422 -654 657 -1364 737 -2223 59 -630 33 -1404 -65 -1987 l-11
-63 -589 0 -589 0 0 3746 c0 3649 0 3746 19 3723 10 -13 502 -660 1094 -1436z
m2677 1417 c47 -11 90 -23 97 -25 8 -3 -3 -33 -34 -92 -25 -48 -49 -92 -54
-96 -4 -5 -59 3 -122 18 l-115 27 40 76 c61 115 67 124 86 118 9 -3 55 -14
102 -26z m2110 -52 l99 -71 -76 -89 c-42 -49 -79 -91 -83 -93 -8 -5 -199 127
-200 139 0 7 150 183 158 185 2 1 48 -31 102 -71z m1268 -4 c45 -42 82 -79 82
-84 0 -9 -169 -160 -179 -160 -3 0 -46 37 -94 83 l-89 82 89 77 c48 42 93 77
98 77 6 1 47 -33 93 -75z m-4469 -132 l130 -127 36 -155 c151 -639 220 -1210
195 -1609 -14 -228 -19 -266 -35 -249 -7 7 -58 77 -112 155 l-99 141 9 89 c4
48 9 221 10 383 1 239 -2 316 -16 405 -38 237 -91 435 -238 899 -38 120 -69
223 -69 228 0 17 58 -32 189 -160z m6436 52 c154 -48 283 -90 288 -93 4 -4
-43 -122 -104 -262 -61 -140 -115 -264 -119 -276 l-9 -22 -75 29 c-90 35 -296
102 -386 126 -36 9 -67 18 -69 20 -7 6 174 564 183 564 6 0 137 -39 291 -86z
m-628 -102 l81 -88 -95 -78 -95 -79 -84 84 c-46 46 -84 88 -84 94 1 10 179
155 191 155 3 0 42 -40 86 -88z m-3911 -168 c54 -19 100 -37 102 -39 2 -2 -97
-164 -113 -183 -3 -4 -209 68 -217 77 -9 8 103 181 118 181 7 0 56 -16 110
-36z m-1472 -240 c122 -140 136 -160 141 -202 4 -26 27 -165 51 -308 115 -683
125 -882 64 -1241 -30 -172 -71 -336 -81 -326 -5 5 -47 63 -92 128 l-83 118
12 82 c52 353 44 729 -26 1216 -24 169 -101 573 -126 667 -4 12 -4 22 -1 22 3
0 67 -70 141 -156z m4336 125 c161 -13 565 -71 795 -114 479 -91 879 -222
1193 -393 56 -30 102 -58 101 -61 -1 -11 -156 -146 -171 -149 -8 -1 -89 27
-181 62 -531 208 -1059 340 -1598 401 -769 86 -1871 -34 -2664 -292 -156 -51
-556 -210 -831 -331 l-182 -79 -77 109 c-42 60 -75 111 -73 113 6 7 335 153
472 211 584 246 1288 415 2056 493 464 48 824 57 1160 30z m2673 4 c9 -3 17
-9 17 -13 0 -4 -37 -41 -82 -81 l-81 -74 48 93 c37 73 51 92 64 86 9 -3 24 -9
34 -11z m-395 -107 c42 -104 48 -126 35 -126 -5 0 -56 -15 -115 -34 l-106 -34
-48 110 c-27 63 -43 113 -38 118 10 9 190 68 214 69 11 1 29 -32 58 -103z
m-2218 -311 c325 -34 721 -109 1049 -200 135 -37 487 -162 632 -223 l40 -17
-90 -83 -89 -82 -65 29 c-144 65 -286 104 -470 131 -72 11 -138 25 -147 32
-277 205 -458 274 -810 309 -250 24 -548 -26 -875 -146 -55 -21 -122 -41 -150
-45 -27 -5 -228 -36 -445 -69 -827 -128 -953 -161 -1643 -421 -159 -61 -295
-110 -302 -110 -11 0 -135 187 -135 204 0 26 784 348 1028 422 476 145 1092
249 1675 284 199 12 613 4 797 -15z m-3989 -192 l98 -123 -5 -47 c-6 -47 10
-190 61 -558 53 -385 54 -639 4 -829 -23 -88 -138 -386 -148 -386 -3 1 -40 51
-82 112 l-77 111 20 66 c103 352 140 731 104 1068 -13 119 -75 524 -112 728
l-5 30 22 -25 c12 -14 66 -80 120 -147z m4129 -28 c311 -45 520 -145 726 -350
214 -212 354 -455 418 -726 31 -130 49 -250 82 -549 24 -217 27 -277 31 -782
3 -302 3 -548 0 -548 -2 0 -31 12 -63 26 -116 52 -236 76 -405 81 -165 6 -223
-3 -312 -49 -21 -10 -41 -18 -43 -15 -2 2 21 40 52 85 64 94 124 150 207 195
60 33 80 65 60 96 -17 27 -59 24 -122 -9 -84 -45 -160 -117 -227 -215 -32 -47
-59 -83 -61 -82 -5 6 68 230 90 272 11 22 38 66 59 98 22 32 54 88 71 125 27
57 32 79 31 142 0 134 -69 290 -152 347 -18 12 -62 31 -97 43 -70 23 -92 44
-147 136 -34 57 -67 76 -97 57 -33 -21 -24 -65 27 -143 62 -95 72 -103 172
-145 46 -19 91 -42 102 -52 33 -29 80 -141 85 -203 8 -87 -2 -120 -67 -219
-81 -123 -91 -145 -143 -308 -83 -258 -109 -446 -83 -606 16 -99 29 -137 46
-137 5 0 52 -29 105 -65 113 -77 206 -125 312 -162 69 -24 93 -27 208 -28 146
0 220 17 347 81 37 19 70 34 73 34 3 0 5 -37 5 -82 l0 -83 -138 -67 c-156 -76
-254 -109 -328 -109 -99 -2 -237 53 -437 173 -103 62 -121 69 -142 60 -28 -13
-40 -44 -26 -70 15 -28 190 -159 299 -225 97 -58 170 -90 249 -108 90 -20 260
22 452 112 46 22 85 38 86 37 2 -2 6 -118 10 -259 l7 -257 -133 -65 c-310
-150 -576 -372 -736 -612 -101 -152 -264 -466 -329 -632 -15 -40 -31 -73 -34
-73 -4 0 -12 12 -19 27 -24 52 -137 220 -215 318 -151 190 -371 400 -566 540
-298 214 -731 420 -1215 578 -217 71 -560 161 -580 153 -8 -3 -28 18 -48 49
l-36 53 9 208 c19 433 8 808 -31 1032 -42 250 -127 529 -263 869 -42 105 -76
195 -76 200 0 15 201 312 304 448 148 197 400 436 666 632 403 297 825 530
1147 633 128 41 320 87 408 99 111 14 311 12 425 -4z m-1546 -313 c-71 -43
-151 -92 -179 -110 l-50 -31 -38 75 c-21 42 -36 78 -34 80 5 6 364 62 401 63
24 1 2 -16 -100 -77z m-2286 -64 c49 -73 101 -154 116 -179 l26 -47 8 -298
c21 -871 4 -991 -180 -1311 l-25 -43 -76 111 c-42 61 -77 116 -77 122 0 7 27
76 59 154 114 271 141 384 148 613 7 216 -12 423 -92 973 -3 20 -3 37 0 37 2
0 44 -60 93 -132z m1917 -34 c25 -53 45 -99 45 -103 -1 -8 -106 -81 -118 -81
-8 0 -114 225 -116 247 -1 7 87 28 132 32 7 1 33 -42 57 -95z m2946 47 c113
-28 279 -88 279 -100 0 -9 -199 -191 -208 -191 -4 0 -22 24 -40 54 -27 46
-100 147 -175 243 -18 23 -18 23 6 23 14 0 76 -13 138 -29z m-3181 -148 c36
-82 65 -151 65 -155 0 -8 -134 -112 -139 -107 -9 12 -148 370 -144 374 4 5
117 32 138 34 10 1 36 -47 80 -146z m-240 -133 l82 -205 -63 -58 c-35 -32 -65
-55 -66 -50 -2 4 -41 117 -87 251 l-83 242 61 19 c34 11 64 16 68 13 3 -4 43
-99 88 -212z m-223 -126 l93 -276 -67 -74 c-37 -40 -70 -70 -74 -66 -8 8 -226
582 -231 608 -2 12 19 24 87 49 50 18 92 33 95 34 3 0 47 -124 97 -275z m-255
-180 c70 -186 128 -343 128 -348 0 -11 -101 -148 -106 -143 -10 10 -294 771
-291 780 3 11 117 57 131 53 6 -1 67 -155 138 -342z m-214 -175 l163 -431 -42
-65 -43 -66 -18 39 c-10 22 -59 127 -109 234 -90 195 -194 398 -275 540 -23
41 -44 81 -46 88 -2 9 32 27 97 52 55 21 102 39 105 39 3 1 79 -193 168 -430z
m-407 182 l73 -133 -3 -332 c-3 -552 -21 -664 -149 -956 -30 -69 -63 -145 -73
-169 l-20 -44 -74 106 c-41 58 -75 110 -75 114 -1 4 38 85 85 178 144 285 160
388 151 979 -3 230 -2 405 3 400 5 -5 42 -69 82 -143z m309 -615 c45 -99 59
-140 51 -149 -5 -7 -26 -123 -46 -257 -65 -448 -88 -533 -222 -819 l-48 -103
-70 98 c-38 54 -68 106 -68 114 1 8 37 96 81 195 91 205 136 337 157 463 21
122 35 336 35 547 l1 180 34 -66 c19 -37 62 -128 95 -203z m-2009 -1286 c390
-541 709 -985 709 -986 0 -1 -33 20 -72 46 -183 121 -466 253 -753 350 -125
42 -118 29 -89 160 29 130 26 444 -4 554 -30 107 -90 228 -152 303 -86 106
-287 270 -528 431 l-114 76 129 26 c70 15 137 27 147 26 13 -1 239 -307 727
-986z m2235 753 c34 -86 35 -95 25 -145 -6 -29 -22 -123 -37 -208 -29 -178
-54 -284 -90 -379 -29 -78 -176 -352 -186 -348 -4 1 -36 43 -71 94 l-63 91 52
109 c153 320 196 470 249 863 9 69 19 132 21 140 5 15 35 -49 100 -217z
m-3320 151 c-13 -33 7 -55 117 -128 190 -125 358 -256 458 -356 80 -79 103
-109 137 -180 57 -120 72 -185 79 -341 6 -132 -4 -246 -29 -348 l-11 -45 -28
140 c-55 282 -108 448 -180 571 -73 124 -369 395 -656 600 l-112 80 87 10
c138 16 145 15 138 -3z m-301 -27 c-30 -22 -11 -60 57 -118 35 -28 79 -62 99
-75 56 -38 140 -198 178 -342 20 -73 36 -87 201 -176 58 -31 120 -71 139 -89
74 -71 127 -180 162 -337 24 -111 24 -117 -7 -80 -68 80 -186 126 -304 118
-154 -11 -244 -115 -244 -283 -1 -97 16 -134 101 -218 l58 -58 -30 -21 c-16
-12 -56 -47 -87 -79 -59 -59 -77 -99 -79 -174 0 -22 -13 35 -29 127 -108 625
-304 1164 -606 1667 l-82 136 192 5 c105 3 215 7 245 8 48 2 53 0 36 -11z
m3758 -509 c14 -46 37 -126 51 -178 l26 -95 -40 -176 c-53 -236 -73 -298 -130
-404 -71 -135 -94 -175 -101 -175 -5 0 -148 201 -157 220 -1 4 34 74 79 156
134 246 169 341 214 587 14 76 25 140 25 143 0 19 12 -8 33 -78z m3353 -535
c-51 -77 -69 -177 -51 -276 l7 -38 -68 27 c-38 14 -77 28 -86 31 -20 6 -24 19
-8 25 6 2 17 27 25 57 7 29 25 70 39 91 30 45 116 108 164 119 1 1 -9 -16 -22
-36z m-212 2 c-19 -29 -29 -27 -19 4 3 12 13 21 21 21 12 0 12 -4 -2 -25z
m561 -5 c59 -37 87 -89 93 -173 2 -40 0 -88 -5 -107 -9 -34 -12 -36 -74 -47
-35 -7 -109 -12 -165 -13 l-100 0 -25 43 c-18 33 -24 56 -24 107 1 78 24 129
86 184 41 38 42 38 109 34 47 -4 80 -12 105 -28z m202 14 c26 -9 76 -29 111
-46 l63 -30 -3 -45 c-3 -45 -3 -46 -78 -89 -41 -24 -78 -43 -81 -43 -4 -1 -10
32 -14 73 -4 50 -16 94 -35 135 -16 34 -25 61 -20 61 5 0 31 -7 57 -16z
m-3769 -544 c0 -201 -3 -378 -7 -394 -6 -26 -14 -17 -126 144 -66 95 -121 177
-123 181 -2 5 29 66 69 136 84 146 116 222 150 348 l24 90 6 -70 c4 -38 7
-234 7 -435z m3952 226 c0 -18 3 -53 6 -78 l6 -44 -63 -41 c-115 -74 -214
-104 -352 -104 -113 0 -192 22 -327 92 -94 50 -167 98 -125 84 115 -39 175
-48 315 -48 208 0 279 20 460 132 36 22 68 40 73 41 4 0 7 -15 7 -34z m-7022
-200 c39 -20 97 -87 100 -116 1 -14 5 -46 8 -71 5 -39 3 -49 -19 -75 -21 -24
-32 -29 -69 -28 -49 1 -112 30 -147 68 -33 35 -41 127 -16 179 24 52 88 71
143 43z m770 -162 c339 -152 540 -297 606 -437 82 -175 104 -454 65 -814 -17
-152 -32 -141 -47 35 -23 268 -78 528 -140 667 -81 180 -319 422 -553 560 -51
30 -90 55 -86 55 4 0 74 -30 155 -66z m-255 -70 c54 -28 255 -184 296 -231 52
-58 71 -117 71 -217 l1 -81 100 -120 c171 -206 221 -293 234 -410 3 -33 8 -71
10 -85 3 -14 -12 8 -32 48 -44 88 -135 198 -198 240 -96 64 -274 79 -371 31
-100 -48 -162 -176 -151 -311 7 -86 34 -135 117 -211 l61 -56 -53 -27 c-141
-71 -198 -140 -206 -253 -15 -216 163 -411 378 -413 115 -1 187 47 246 164
l26 51 34 -64 c39 -75 115 -148 194 -187 78 -38 182 -38 257 1 113 58 164 140
171 272 5 92 -14 183 -53 253 -14 24 -19 42 -12 39 6 -2 58 -21 115 -42 56
-20 120 -50 142 -66 47 -34 81 -98 103 -194 14 -58 37 -180 37 -192 0 -2 30
-36 67 -75 115 -126 183 -247 183 -327 0 -20 7 -47 16 -59 l15 -22 -1467 0
-1467 0 7 43 c63 431 87 720 93 1147 6 375 -5 672 -32 918 -8 70 -14 138 -14
152 0 21 2 20 14 -11 35 -95 110 -165 209 -194 124 -37 219 2 284 116 15 27
30 49 33 49 3 0 14 -19 25 -42 24 -53 98 -126 166 -164 44 -24 64 -29 123 -29
59 0 79 5 124 30 65 36 115 92 135 153 34 99 11 267 -49 355 -29 42 -27 44 18
21z m1322 -864 c164 -228 316 -439 338 -469 l40 -54 -44 27 c-71 44 -163 84
-243 106 -85 24 -259 41 -331 32 l-47 -5 9 94 c14 164 9 483 -11 582 -9 48
-19 95 -23 105 -11 31 11 2 312 -418z m1890 165 c487 -151 945 -366 1255 -589
339 -243 637 -588 813 -941 47 -95 117 -274 117 -300 0 -12 -15 -15 -89 -15
l-89 0 -72 137 c-225 428 -475 747 -715 912 -237 163 -680 375 -1195 570 -118
45 -229 88 -246 96 -22 9 -56 48 -108 123 -42 61 -76 113 -76 115 0 8 231 -54
405 -108z m3336 -232 c-1 -54 -4 -118 -7 -143 -6 -45 -7 -45 -101 -100 -110
-64 -244 -162 -350 -258 -279 -249 -489 -643 -553 -1039 -7 -40 -15 -73 -19
-73 -3 0 -14 28 -24 63 -10 34 -35 106 -56 159 l-39 98 36 107 c40 119 191
428 290 593 162 271 387 475 703 640 63 32 115 57 118 55 2 -3 3 -48 2 -102z
m-3206 -148 c635 -253 1008 -456 1210 -659 167 -168 381 -476 509 -733 l36
-73 -109 0 -109 0 -75 144 c-169 323 -345 560 -518 693 -111 85 -272 178 -544
312 -154 77 -342 165 -418 197 l-139 59 -54 77 c-30 43 -54 80 -54 82 0 7 2 6
265 -99z m3180 -302 l-7 -73 -84 -65 c-109 -86 -218 -193 -283 -280 -92 -121
-205 -381 -287 -652 l-27 -93 -99 0 c-115 0 -109 -10 -78 138 41 195 135 423
243 589 126 195 335 394 557 530 l65 40 3 -31 c2 -17 1 -64 -3 -103z m-5945
92 c40 -21 96 -94 104 -135 17 -98 17 -115 -3 -146 -45 -72 -161 -63 -249 20
-43 41 -46 47 -50 105 -8 112 36 170 131 171 21 0 51 -7 67 -15z m3009 -144
c263 -123 509 -262 629 -355 161 -124 326 -341 477 -628 l67 -128 -79 0 -79 0
-49 97 c-114 222 -257 404 -404 512 -107 79 -242 158 -464 271 l-207 106 -85
121 c-47 67 -85 124 -85 127 0 6 53 -18 279 -123z m-2204 74 c145 -40 297
-140 395 -259 129 -156 229 -440 270 -766 6 -47 13 -102 15 -122 l5 -38 -80 0
-80 0 17 27 c28 43 25 328 -5 438 -45 168 -150 331 -271 422 -72 55 -238 144
-421 227 -233 107 -227 97 -55 92 97 -3 171 -10 210 -21z m5122 -277 c-3 -18
-9 -81 -13 -141 l-6 -107 -65 -63 c-75 -72 -145 -174 -185 -270 -33 -78 -67
-222 -68 -284 l0 -43 -110 0 c-60 0 -110 4 -110 9 0 5 27 89 61 187 97 288
180 445 306 581 55 59 173 163 187 163 4 0 6 -15 3 -32z m-2754 -179 c308
-166 467 -296 589 -479 56 -84 138 -228 138 -242 0 -5 -71 -8 -157 -8 l-158 0
-210 302 c-115 166 -241 346 -278 400 -38 54 -65 98 -62 98 4 0 66 -32 138
-71z m-1229 -716 c6 -10 -32 -13 -176 -13 l-183 0 4 51 c3 57 -10 164 -40 318
-18 87 -34 150 -75 286 -5 15 436 -588 470 -642z m3926 251 c-11 -121 -23
-229 -26 -241 -4 -21 -10 -23 -79 -23 -41 0 -75 3 -75 8 0 4 6 45 14 92 15 91
36 161 68 225 25 50 108 168 114 162 3 -2 -5 -103 -16 -223z"/>
<path d="M11520 26089 c-159 -20 -249 -58 -387 -162 -42 -31 -53 -45 -53 -67
0 -15 7 -33 16 -41 18 -14 35 -11 224 39 140 37 283 52 489 52 178 0 317 -18
429 -55 99 -34 330 -149 504 -253 75 -45 147 -82 160 -82 32 0 48 18 48 52 0
25 -12 36 -101 94 -245 158 -547 317 -689 362 -190 61 -450 85 -640 61z"/>
<path d="M11751 25719 c-196 -23 -402 -111 -587 -250 -99 -74 -108 -90 -99
-183 8 -78 23 -129 82 -283 83 -213 195 -350 352 -432 70 -36 87 -41 106 -33
28 13 40 44 26 70 -5 10 -40 34 -78 53 -73 37 -188 141 -216 196 l-17 31 60
-24 c107 -43 185 -57 290 -50 161 10 282 47 625 191 88 36 196 77 239 89 44
13 85 31 91 40 11 14 24 15 84 10 81 -8 101 2 101 48 0 24 -6 32 -30 41 -22 9
-30 18 -30 37 0 14 -4 30 -8 36 -22 33 -308 212 -457 286 -221 110 -374 146
-534 127z m289 -138 c118 -40 316 -141 463 -237 61 -41 110 -74 107 -74 -9 0
-167 45 -340 98 -211 64 -319 82 -490 82 -121 0 -424 -22 -490 -35 l-25 -6 25
21 c14 11 68 42 120 69 237 122 433 148 630 82z m-145 -239 c17 -6 21 -17 23
-68 9 -152 -93 -240 -288 -251 -76 -4 -90 -2 -130 19 -83 45 -121 128 -106
232 7 41 10 46 39 51 101 17 423 29 462 17z m282 -56 c214 -62 306 -93 297
-98 -5 -3 -27 -11 -49 -18 -22 -7 -125 -48 -228 -91 -254 -106 -480 -178 -352
-113 118 60 175 150 175 277 0 93 -8 91 157 43z m-892 -58 c0 -96 23 -154 85
-219 20 -22 34 -39 31 -39 -12 0 -87 53 -124 89 -48 44 -61 69 -86 160 l-20
71 22 5 c20 4 57 10 82 14 6 0 10 -32 10 -81z"/>
<path d="M11555 25318 c-62 -34 -95 -87 -97 -153 -1 -52 19 -87 65 -115 94
-58 222 18 222 130 0 99 -112 181 -190 138z"/>
<path d="M11002 24328 c-23 -23 -12 -58 38 -120 58 -72 110 -169 110 -206 0
-29 -59 -89 -96 -98 -68 -17 -210 37 -436 165 -95 54 -194 41 -238 -32 -24
-38 -26 -94 -5 -124 21 -30 79 -45 130 -33 94 22 196 5 360 -61 72 -28 87 -31
155 -26 163 11 231 72 231 209 0 59 -5 81 -30 132 -45 91 -139 200 -176 204
-17 2 -36 -3 -43 -10z"/>
<path d="M10870 23332 c-14 -1 -76 -12 -138 -24 -111 -21 -114 -21 -245 -4
-77 10 -151 14 -177 10 -57 -8 -123 -41 -195 -95 -44 -33 -55 -47 -55 -70 0
-50 30 -60 128 -42 91 15 103 13 312 -52 117 -37 184 -32 355 26 l130 44 184
-2 c123 -2 189 1 198 8 7 6 13 25 13 41 0 26 -6 32 -56 54 -138 61 -371 115
-454 106z"/>
<path d="M10880 22924 c-41 -13 -113 -31 -159 -40 -91 -17 -137 -13 -294 27
-83 21 -110 17 -122 -21 -15 -48 23 -69 193 -105 104 -21 192 -19 307 10 162
39 209 58 219 88 8 21 6 31 -9 47 -23 25 -41 24 -135 -6z"/>
<path d="M9762 25260 c-38 -24 -72 -75 -72 -111 0 -70 98 -139 176 -125 55 11
104 63 104 111 0 50 -33 101 -81 125 -49 25 -85 25 -127 0z"/>
<path d="M4178 21558 c-8 -7 -58 -68 -112 -136 l-96 -122 -50 25 c-152 77
-294 65 -420 -35 l-37 -29 -110 93 c-107 91 -141 116 -162 116 -19 0 -41 -32
-41 -58 0 -22 19 -43 100 -112 56 -47 110 -93 121 -102 20 -17 20 -18 -13 -85
-30 -61 -33 -76 -33 -153 0 -104 26 -166 103 -251 29 -31 52 -60 52 -63 0 -4
-40 -57 -88 -119 -116 -147 -125 -162 -117 -187 8 -25 40 -43 64 -35 15 4 120
131 227 273 9 13 17 13 45 3 141 -51 278 -18 385 90 27 27 52 49 56 49 5 0 65
-43 135 -95 69 -52 131 -95 137 -95 7 0 22 7 34 16 53 37 21 73 -226 253 l-24
17 22 64 c39 115 19 230 -55 318 l-26 31 105 132 c107 132 124 167 94 197 -16
16 -50 15 -70 0z"/>
<path d="M3485 19266 c-14 -22 -14 -28 5 -80 42 -110 110 -160 220 -161 50 0
78 6 123 27 51 24 57 30 57 57 0 19 -8 35 -21 45 -20 13 -27 13 -73 -5 -66
-25 -126 -25 -158 1 -14 10 -35 43 -48 72 -12 29 -28 56 -34 60 -22 15 -56 8
-71 -16z"/>
<path d="M5423 18393 c-575 -528 -975 -896 -1178 -1083 -99 -91 -628 -577
-1175 -1079 -547 -503 -1012 -930 -1033 -951 l-39 -37 16 -548 15 -549 1143
-1143 c647 -647 1151 -1143 1160 -1143 10 0 26 8 37 19 16 16 19 42 25 207 15
407 36 627 87 879 170 854 559 1722 1162 2595 369 534 644 860 1205 1431 163
166 262 274 262 286 0 32 -267 435 -448 678 -137 183 -774 795 -828 795 -15 0
-150 -117 -411 -357z m508 -508 c30 -81 33 -100 32 -195 0 -58 -8 -141 -17
-184 -9 -44 -14 -81 -12 -83 2 -2 32 9 67 25 154 69 183 76 352 80 86 2 157 0
157 -4 0 -12 -91 -176 -130 -234 -40 -59 -139 -156 -232 -229 l-57 -45 87 -42
c48 -23 99 -54 113 -70 34 -37 109 -153 109 -169 0 -6 -46 -34 -102 -61 l-103
-49 -112 0 c-62 0 -113 -3 -113 -7 0 -4 9 -44 20 -90 11 -46 20 -110 20 -143
0 -56 -33 -231 -46 -244 -9 -9 -133 61 -181 103 -25 22 -69 75 -99 120 -33 50
-55 74 -58 65 -3 -8 -20 -54 -37 -104 -55 -158 -92 -217 -224 -353 l-120 -124
-7 34 c-4 18 -14 108 -22 199 -16 167 -13 260 14 433 5 33 8 61 6 63 -1 2 -45
-16 -97 -40 -119 -56 -175 -73 -269 -86 -143 -19 -190 -21 -190 -11 0 5 14 54
31 107 53 167 77 205 211 335 l119 117 -43 11 c-75 19 -184 59 -225 82 -62 36
-212 142 -213 150 0 10 134 100 200 133 83 42 215 45 380 8 l25 -6 -23 25
c-39 43 -64 140 -65 253 0 83 4 114 27 185 16 47 30 86 31 88 6 6 166 -90 215
-129 26 -21 79 -76 116 -123 37 -47 71 -86 74 -86 4 0 20 28 36 62 53 112 104
182 202 275 111 107 97 111 153 -42z m-1536 -1734 c-39 -36 -1191 -1037 -1203
-1045 -9 -6 -12 45 -12 226 l0 234 78 13 c166 28 306 81 366 137 57 55 99 189
112 368 l7 86 336 0 c328 0 335 0 316 -19z m670 -812 c8 -113 15 -215 15 -226
0 -17 -13 -25 -72 -43 -180 -53 -289 -112 -325 -177 -32 -57 -44 -114 -57
-258 l-11 -129 -245 -51 c-135 -28 -247 -50 -248 -49 -2 1 205 262 459 579
255 318 464 573 466 569 1 -5 9 -102 18 -215z m-863 125 c56 -9 124 -57 148
-103 24 -48 27 -148 6 -189 -32 -61 -92 -92 -178 -92 -130 0 -217 92 -218 230
0 98 34 143 120 161 34 7 48 6 122 -7z m-879 -911 c90 -273 89 -484 -3 -681
l-29 -62 46 35 c120 92 246 130 408 122 110 -4 395 -54 395 -68 0 -13 -82
-153 -128 -219 -63 -88 -171 -200 -251 -259 -58 -43 -170 -108 -212 -123 -10
-4 0 -20 37 -59 100 -105 165 -209 220 -356 26 -69 77 -261 72 -273 -4 -11
-164 31 -223 60 -34 16 -96 68 -191 162 l-142 140 9 36 c18 76 39 266 39 351
0 81 -3 94 -34 157 -60 119 -185 225 -283 240 -84 12 -266 -68 -321 -142 l-21
-29 -136 135 c-134 133 -138 137 -197 258 -33 67 -58 126 -56 131 2 5 54 -2
117 -15 176 -35 286 -98 373 -213 l26 -35 6 40 c30 197 94 362 194 498 56 76
232 276 243 276 3 0 23 -48 42 -107z m-218 -931 c37 -20 104 -97 131 -151 26
-52 27 -59 21 -165 -6 -111 -24 -226 -36 -226 -3 0 -103 97 -221 216 l-215
215 45 41 c96 86 198 112 275 70z"/>
<path d="M5483 17399 c-102 -13 -212 -103 -266 -217 -28 -58 -32 -78 -32 -147
0 -72 4 -89 34 -150 41 -83 131 -177 211 -219 43 -23 71 -31 133 -34 74 -4 82
-3 152 32 86 42 155 112 200 202 25 49 29 71 30 134 0 66 -4 84 -34 144 -82
167 -265 276 -428 255z m155 -134 c61 -28 149 -113 177 -170 46 -92 17 -195
-80 -284 -57 -52 -100 -71 -162 -71 -132 0 -297 187 -279 318 10 78 63 158
134 203 60 38 134 40 210 4z"/>
<path d="M10295 18816 c-37 -37 -42 -72 -15 -101 30 -32 74 -41 105 -21 44 29
45 87 2 126 -28 27 -63 25 -92 -4z"/>
<path d="M10151 18463 c-44 -40 -49 -76 -17 -107 34 -35 98 -36 120 -4 26 37
20 83 -15 112 -39 33 -52 33 -88 -1z"/>
<path d="M9979 18091 c-35 -35 -38 -72 -8 -100 70 -65 164 -6 129 80 -24 56
-76 65 -121 20z"/>
<path d="M9855 17736 c-13 -13 -27 -37 -31 -52 -6 -23 -2 -32 25 -56 46 -41
95 -38 120 9 18 35 13 72 -14 98 -31 32 -69 32 -100 1z"/>
<path d="M9737 17389 c-17 -10 -47 -59 -47 -79 0 -26 49 -60 88 -60 47 0 72
24 72 67 0 63 -61 102 -113 72z"/>
<path d="M9624 17039 c-27 -10 -64 -56 -64 -81 0 -59 111 -94 144 -46 22 31
20 70 -4 100 -23 30 -47 38 -76 27z"/>
<path d="M15632 18122 c-17 -17 -20 -43 -26 -203 -15 -421 -36 -631 -87 -884
-141 -705 -447 -1457 -882 -2165 -251 -409 -660 -969 -922 -1265 -134 -151
-503 -540 -679 -715 -96 -95 -146 -152 -146 -166 0 -33 265 -434 448 -679 138
-184 775 -795 828 -795 16 0 320 274 1021 918 549 504 1407 1292 1906 1751
l907 834 0 51 c0 28 -7 276 -15 550 l-14 500 -1143 1143 c-647 647 -1151 1143
-1160 1143 -10 0 -26 -8 -36 -18z m683 -779 c64 -24 82 -39 216 -170 l147
-144 -9 -37 c-18 -76 -39 -266 -39 -351 0 -81 3 -94 34 -157 60 -119 185 -225
283 -240 85 -13 246 58 316 139 l27 32 136 -135 c133 -132 137 -137 196 -258
33 -67 58 -126 56 -131 -5 -13 -223 35 -285 64 -77 35 -145 87 -189 145 -41
54 -54 52 -54 -11 0 -111 -93 -344 -188 -473 -56 -76 -232 -276 -243 -276 -11
0 -76 209 -93 299 -33 172 -14 344 53 486 l28 61 -77 -52 c-119 -79 -187 -99
-345 -99 -103 0 -161 6 -277 29 -82 16 -148 32 -148 37 0 13 82 153 128 218
105 148 257 281 404 354 l76 38 -44 41 c-90 83 -174 216 -230 365 -22 57 -74
249 -74 271 0 14 107 -11 195 -45z m685 -639 l215 -215 -45 -41 c-87 -79 -199
-110 -266 -75 -45 24 -110 97 -140 156 -25 52 -26 59 -21 165 5 110 24 226 36
226 3 0 103 -97 221 -216z m-1581 -1689 c-255 -318 -464 -573 -466 -569 -3 11
-33 413 -33 442 0 17 11 24 58 37 98 27 212 74 266 110 86 57 112 121 130 329
l11 130 245 51 c135 28 247 50 248 49 2 -2 -205 -262 -459 -579z m497 -114
c82 -37 123 -108 124 -211 0 -48 -5 -74 -20 -98 -66 -108 -314 -74 -373 51
-21 43 -22 148 -3 185 19 37 58 71 92 82 51 15 137 11 180 -9z m904 -233 l0
-233 -115 -22 c-130 -26 -255 -70 -309 -111 -70 -52 -120 -198 -133 -389 l-6
-83 -336 0 c-326 0 -335 0 -316 18 11 11 175 154 365 319 190 165 457 397 594
516 136 120 250 217 252 217 2 0 4 -105 4 -232z m-2036 -749 c16 -167 13 -260
-14 -433 -5 -33 -8 -61 -6 -63 1 -2 45 16 97 40 119 56 175 73 269 86 143 19
190 21 190 11 0 -5 -14 -54 -31 -107 -53 -167 -77 -205 -211 -335 l-119 -117
43 -11 c108 -27 208 -69 277 -115 118 -78 160 -109 161 -118 0 -13 -179 -125
-235 -146 -67 -25 -155 -27 -275 -6 -47 8 -87 15 -89 15 -3 0 6 -11 18 -24 37
-39 63 -139 64 -246 0 -77 -5 -112 -27 -185 -15 -49 -29 -91 -31 -93 -6 -6
-164 89 -215 129 -26 21 -79 76 -116 123 -37 47 -70 86 -74 86 -3 0 -27 -43
-54 -95 -58 -112 -115 -185 -213 -272 l-71 -64 -31 81 c-67 173 -73 244 -36
437 8 42 13 78 11 80 -2 2 -32 -9 -67 -25 -154 -69 -183 -76 -351 -80 -87 -2
-158 0 -158 4 0 13 91 176 130 234 40 59 153 170 237 234 l52 40 -87 41 c-61
29 -98 54 -122 82 -51 60 -103 150 -95 164 4 6 51 32 104 58 l96 46 112 0 c62
0 113 3 113 7 0 4 -9 44 -20 90 -11 46 -20 110 -20 143 0 56 33 231 46 244 9
9 133 -61 181 -103 25 -22 69 -75 99 -120 33 -50 55 -74 58 -65 3 8 20 55 37
104 55 158 92 217 224 353 l120 124 7 -34 c4 -18 14 -108 22 -199z"/>
<path d="M14283 13336 c-84 -43 -158 -118 -199 -204 -23 -46 -28 -71 -29 -132
0 -66 4 -84 34 -144 44 -89 127 -173 216 -217 55 -27 81 -33 151 -37 76 -4 89
-2 139 23 78 38 149 111 188 192 28 59 32 78 32 148 0 72 -4 89 -34 150 -41
83 -131 177 -211 220 -44 23 -70 30 -135 33 -76 4 -84 2 -152 -32z m242 -105
c92 -53 163 -148 180 -242 14 -78 -44 -190 -129 -246 -63 -43 -134 -45 -214
-8 -61 28 -149 113 -177 170 -29 59 -26 139 7 196 31 53 106 125 151 144 55
24 125 19 182 -14z"/>
<path d="M10296 13088 c-36 -51 0 -130 59 -130 33 0 85 50 85 83 0 59 -110 95
-144 47z"/>
<path d="M10167 12732 c-23 -25 -21 -74 4 -106 34 -43 95 -32 124 24 20 39 19
47 -10 75 -30 31 -93 34 -118 7z"/>
<path d="M10054 12392 c-18 -11 -34 -49 -34 -77 0 -33 42 -75 75 -75 31 0 72
38 81 76 6 23 2 32 -25 56 -30 27 -73 36 -97 20z"/>
<path d="M9915 12015 c-61 -60 10 -165 84 -124 62 35 66 105 7 133 -46 22 -63
20 -91 -9z"/>
<path d="M9746 11648 c-26 -37 -20 -83 15 -112 17 -14 37 -26 45 -26 22 0 73
52 80 82 14 63 -102 110 -140 56z"/>
<path d="M9602 11295 c-25 -31 -27 -53 -11 -88 15 -33 51 -51 84 -43 26 7 65
58 65 87 0 24 -44 59 -82 65 -30 5 -38 2 -56 -21z"/>
<path d="M16209 10966 c-81 -31 -99 -45 -99 -76 0 -18 8 -34 21 -44 20 -13 27
-13 73 5 106 40 178 15 206 -72 8 -23 20 -48 28 -55 21 -22 60 -17 77 10 14
22 14 28 -5 80 -26 69 -60 111 -113 138 -51 26 -140 32 -188 14z"/>
<path d="M16642 9683 c-11 -10 -61 -72 -112 -138 -51 -66 -96 -124 -101 -129
-4 -5 -22 -3 -41 3 -140 51 -277 18 -384 -90 -27 -27 -52 -49 -56 -49 -5 0
-65 43 -135 95 -69 52 -131 95 -137 95 -27 0 -57 -32 -54 -58 3 -25 53 -68
245 -210 l23 -17 -21 -65 c-37 -117 -17 -231 56 -318 l26 -31 -106 -132 c-89
-111 -106 -137 -103 -162 2 -17 10 -34 19 -40 34 -21 64 3 167 132 l103 130
63 -30 c151 -71 281 -57 408 43 l37 28 108 -93 c105 -91 141 -117 162 -117 19
0 41 32 41 59 0 22 -19 43 -106 116 -58 50 -113 95 -121 102 -13 10 -11 20 19
80 30 61 33 76 33 153 0 104 -26 166 -103 251 -29 31 -52 60 -52 63 0 4 40 57
88 119 138 176 136 173 102 207 -25 25 -42 25 -68 3z"/>
<path d="M9230 7216 c-30 -7 -97 -25 -149 -41 -73 -23 -95 -34 -104 -53 -7
-16 -8 -29 -1 -40 23 -36 38 -36 175 3 167 48 238 50 392 12 115 -29 139 -26
152 13 11 33 -12 59 -68 75 -158 45 -286 55 -397 31z"/>
<path d="M9285 6964 c-11 -3 -76 -24 -145 -47 l-125 -42 -186 2 c-204 3 -213
1 -207 -54 3 -24 12 -31 73 -56 236 -95 380 -114 570 -77 115 23 116 23 248 6
77 -10 151 -14 177 -10 57 8 123 41 195 95 44 33 55 47 55 70 0 49 -30 60
-125 43 -93 -17 -137 -10 -268 38 -80 29 -210 45 -262 32z"/>
<path d="M8925 6203 c-82 -18 -134 -52 -161 -105 -10 -19 -16 -57 -16 -100 0
-87 34 -161 120 -264 60 -71 96 -90 128 -63 26 21 15 58 -36 121 -58 72 -110
169 -110 206 0 29 59 89 98 99 64 16 224 -45 429 -163 100 -57 198 -45 243 29
24 38 26 94 5 124 -21 30 -79 45 -130 33 -94 -22 -196 -5 -357 59 -74 30 -150
38 -213 24z"/>
<path d="M8380 5450 c-39 -39 -22 -65 74 -114 83 -42 180 -125 226 -191 17
-24 30 -46 30 -49 0 -2 -26 9 -57 25 -100 50 -203 71 -319 65 -162 -9 -280
-45 -629 -191 -88 -36 -196 -77 -239 -89 -44 -13 -85 -31 -91 -40 -11 -14 -24
-15 -84 -10 -81 8 -101 -2 -101 -48 0 -24 6 -32 30 -41 22 -9 30 -18 30 -37 0
-35 5 -40 95 -102 269 -186 548 -318 731 -347 186 -29 458 49 676 192 116 76
155 109 190 162 29 44 30 47 18 98 -7 28 -28 102 -47 162 -70 220 -166 369
-303 470 -47 34 -180 105 -199 105 -6 0 -20 -9 -31 -20z m-225 -416 c-118 -60
-175 -150 -175 -276 0 -94 8 -92 -157 -43 -265 77 -309 93 -288 100 60 22 253
99 340 135 114 48 293 110 315 110 8 0 -7 -12 -35 -26z m490 -30 c98 -65 149
-131 175 -230 l17 -63 -26 -5 c-14 -2 -42 -7 -61 -10 l-35 -6 0 82 c0 96 -23
154 -85 219 -43 46 -39 49 15 13z m-144 -47 c82 -43 120 -128 105 -230 -6 -39
-10 -45 -37 -51 -59 -11 -396 -29 -440 -22 l-44 7 -3 63 c-7 160 105 253 309
255 51 1 76 -4 110 -22z m-1021 -251 c47 -13 159 -46 250 -74 211 -64 319 -82
490 -82 121 0 424 22 490 35 l25 6 -25 -21 c-34 -27 -183 -104 -250 -129 -114
-42 -183 -55 -295 -55 -99 0 -119 3 -205 32 -120 42 -318 144 -463 238 -61 41
-110 74 -107 74 3 0 43 -11 90 -24z"/>
<path d="M8330 4948 c-54 -37 -75 -73 -75 -128 0 -55 21 -91 75 -127 61 -42
136 -19 187 56 31 46 32 127 2 165 -46 59 -130 74 -189 34z"/>
<path d="M7062 4468 c-7 -7 -12 -25 -12 -40 0 -24 13 -36 103 -94 265 -172
557 -324 709 -368 328 -95 702 -84 885 26 123 74 173 117 173 148 0 15 -7 33
-16 41 -18 14 -35 11 -224 -39 -140 -37 -283 -52 -489 -52 -179 0 -312 17
-426 56 -104 34 -334 149 -507 252 -134 81 -172 94 -196 70z"/>
<path d="M10104 4966 c-100 -44 -96 -174 7 -226 45 -24 80 -25 117 -6 106 55
105 178 -1 226 -49 23 -80 24 -123 6z"/>
<path d="M1532 28310 c-95 -25 -162 -62 -236 -130 -74 -69 -118 -137 -151
-234 l-25 -76 2 -942 3 -943 22 -60 c84 -221 294 -364 537 -365 l61 -1 38 -55
c80 -115 228 -200 385 -219 l52 -7 0 134 0 135 -55 12 c-54 12 -140 62 -158
92 -7 12 3 28 45 70 62 61 100 122 137 218 l26 66 3 901 c3 1005 4 984 -64
1123 -88 178 -291 302 -494 300 -30 0 -88 -9 -128 -19z m254 -278 c62 -32 97
-65 129 -124 l30 -53 3 -875 c3 -843 -1 -981 -26 -980 -4 0 -20 29 -35 63 -77
173 -249 297 -437 316 l-65 6 -3 690 c-2 692 1 760 33 830 25 51 93 113 150
135 64 26 162 22 221 -8z m-286 -1940 c85 -35 154 -125 167 -218 l6 -47 -47 6
c-96 13 -182 81 -221 174 -11 26 -20 82 -16 104 1 8 79 -5 111 -19z"/>
<path d="M4990 27470 c0 -18 -140 -330 -244 -545 -170 -349 -340 -643 -507
-877 -183 -254 -512 -644 -764 -906 -69 -71 -125 -135 -125 -142 0 -7 56 -71
125 -142 254 -264 582 -653 766 -910 159 -222 294 -452 462 -788 108 -215 287
-608 287 -630 0 -5 5 -10 10 -10 6 0 10 5 10 10 0 22 179 415 287 630 174 348
303 567 474 803 197 273 502 634 761 902 l130 135 -130 135 c-259 268 -564
629 -761 902 -171 236 -300 455 -474 803 -108 215 -287 608 -287 630 0 5 -4
10 -10 10 -5 0 -10 -4 -10 -10z"/>
<path d="M1630 24902 c-70 -162 -218 -441 -295 -558 -110 -165 -313 -411 -439
-534 -25 -24 -46 -51 -46 -60 0 -9 21 -36 46 -60 126 -123 329 -369 440 -536
75 -113 225 -396 301 -569 30 -68 31 -69 41 -44 67 168 228 479 315 609 100
150 259 345 422 518 l78 83 -60 62 c-314 323 -506 603 -689 1000 -40 87 -74
160 -76 163 -3 2 -19 -31 -38 -74z"/>
<path d="M14990 7470 c0 -18 -140 -330 -244 -545 -170 -349 -340 -643 -507
-877 -183 -254 -512 -644 -764 -906 -69 -71 -125 -135 -125 -142 0 -7 56 -71
125 -142 254 -264 582 -653 766 -910 159 -222 294 -452 462 -788 108 -215 287
-608 287 -630 0 -5 5 -10 10 -10 6 0 10 5 10 10 0 22 179 415 287 630 174 348
303 567 474 803 197 273 502 634 761 902 l130 135 -130 135 c-259 268 -564
629 -761 902 -171 236 -300 455 -474 803 -108 215 -287 608 -287 630 0 5 -4
10 -10 10 -5 0 -10 -4 -10 -10z"/>
<path d="M18322 7460 c-5 -14 -36 -81 -67 -150 -170 -376 -350 -638 -672 -980
l-75 -80 100 -107 c317 -342 472 -571 648 -956 40 -87 74 -160 77 -163 2 -2
17 26 32 63 54 130 215 439 283 543 114 175 272 370 436 538 l81 82 -81 83
c-165 167 -350 398 -459 572 -47 74 -215 404 -277 545 l-16 35 -10 -25z"/>
<path d="M17780 4588 l0 -135 55 -12 c55 -12 140 -62 158 -92 8 -13 -3 -29
-49 -75 -60 -60 -111 -143 -141 -231 -16 -43 -18 -137 -20 -949 -4 -1005 -5
-984 63 -1123 94 -191 320 -317 534 -297 125 11 234 61 329 150 70 66 114 136
146 229 l25 76 0 925 0 925 -25 78 c-73 230 -286 382 -539 383 l-61 1 -38 55
c-81 116 -225 199 -384 219 l-53 7 0 -134z m693 -455 c77 -43 128 -124 139
-223 3 -21 -1 -25 -22 -22 -136 15 -239 110 -257 238 l-6 47 47 -6 c27 -4 71
-19 99 -34z m-351 -212 c80 -166 244 -281 428 -300 l65 -6 3 -690 c2 -693 -1
-760 -34 -830 -26 -55 -90 -112 -152 -136 -133 -50 -277 5 -347 133 l-30 53
-3 875 c-3 843 1 982 26 979 4 0 24 -35 44 -78z"/>
</g>
</svg>
