<?xml version="1.0" standalone="no"?>
<!DOCTYPE svg PUBLIC "-//W3C//DTD SVG 20010904//EN"
 "http://www.w3.org/TR/2001/REC-SVG-20010904/DTD/svg10.dtd">
<svg version="1.0" xmlns="http://www.w3.org/2000/svg"
 width="819.000000pt" height="1024.000000pt" viewBox="0 0 819.000000 1024.000000"
 preserveAspectRatio="xMidYMid meet">

<g transform="translate(0.000000,1024.000000) scale(0.100000,-0.100000)"
fill="#000000" stroke="none">
<path d="M300 10224 c-139 -38 -249 -149 -285 -290 -13 -54 -15 -560 -13
-4839 l3 -4780 22 -55 c43 -105 142 -201 245 -237 51 -17 192 -18 3823 -18
3631 0 3772 1 3823 18 106 37 212 143 249 249 17 51 18 223 18 4848 0 4625 -1
4797 -18 4848 -36 103 -132 202 -237 245 l-55 22 -3760 2 c-3286 2 -3767 0
-3815 -13z m7622 -102 c76 -37 120 -82 157 -162 l26 -55 0 -4785 0 -4785 -26
-55 c-37 -80 -81 -125 -157 -162 l-67 -33 -3760 0 -3760 0 -55 26 c-80 37
-125 81 -162 157 l-33 67 0 4785 0 4785 26 55 c47 99 116 159 218 186 36 10
844 12 3786 11 l3740 -2 67 -33z"/>
<path d="M293 9407 c-113 -56 -123 -64 -123 -89 0 -33 -2 -32 43 -13 20 8 48
15 62 15 l25 0 0 -339 c0 -384 3 -371 -76 -371 -42 0 -44 -1 -44 -30 l0 -30
200 0 200 0 0 30 c0 29 -1 30 -47 30 -84 0 -78 -32 -81 440 -3 389 -4 420 -20
419 -9 0 -72 -28 -139 -62z"/>
<path d="M942 9452 c-138 -50 -222 -219 -222 -446 0 -221 71 -383 194 -449 56
-29 173 -30 231 -2 126 62 198 226 198 450 -1 325 -180 525 -401 447z m155
-84 c60 -56 88 -199 81 -420 -6 -179 -27 -265 -78 -313 -38 -36 -96 -41 -130
-10 -63 57 -85 155 -85 375 1 188 14 269 57 338 38 61 107 75 155 30z"/>
<path d="M1860 8813 c-201 -245 -370 -454 -377 -463 -9 -13 47 -90 364 -495
206 -264 378 -481 382 -483 6 -2 723 944 755 996 5 8 -122 163 -370 452 -207
242 -380 440 -383 440 -3 0 -170 -201 -371 -447z"/>
<path d="M5538 8805 c-205 -252 -374 -461 -376 -465 -4 -11 748 -972 758 -968
4 2 176 229 383 505 l376 501 -376 439 c-206 241 -379 439 -384 441 -4 2 -176
-202 -381 -453z"/>
<path d="M721 8304 c-84 -102 -154 -191 -157 -198 -3 -8 64 -103 151 -215
l157 -201 159 211 c87 116 159 213 159 214 0 2 -71 87 -159 188 l-158 185
-152 -184z"/>
<path d="M3697 7717 c-208 -254 -377 -466 -376 -472 1 -11 736 -952 749 -960
5 -3 179 220 386 496 337 449 375 504 365 522 -9 14 -456 540 -740 869 -3 4
-176 -201 -384 -455z"/>
<path d="M1856 6630 c-206 -252 -377 -463 -378 -468 -3 -10 742 -971 753 -972
7 0 748 985 754 1003 3 7 -166 211 -374 454 l-379 443 -376 -460z"/>
<path d="M5540 6629 c-206 -253 -374 -466 -374 -473 1 -15 744 -966 753 -966
3 1 176 228 383 505 l378 504 -366 428 c-202 235 -374 435 -383 445 -15 15
-42 -16 -391 -443z"/>
<path d="M2163 4828 c-38 -46 -210 -255 -381 -465 l-312 -382 361 -463 c199
-255 371 -473 383 -485 l21 -23 379 505 c338 452 377 507 365 522 -11 14 -713
836 -739 866 -4 5 -39 -29 -77 -75z"/>
<path d="M5538 4448 c-208 -253 -378 -464 -378 -467 0 -5 728 -941 750 -965 7
-7 755 976 762 1002 2 7 -748 892 -755 892 -1 0 -172 -208 -379 -462z"/>
<path d="M3696 3361 c-245 -299 -376 -467 -372 -476 5 -13 710 -920 741 -953
9 -10 85 85 384 483 205 273 375 503 378 511 4 11 -297 369 -728 868 l-25 28
-378 -461z"/>
<path d="M1850 2268 c-206 -253 -374 -464 -372 -469 1 -5 171 -225 378 -489
l376 -481 379 506 c208 277 379 507 379 509 0 7 -750 881 -758 883 -4 1 -176
-205 -382 -459z"/>
<path d="M5541 2274 c-206 -251 -374 -462 -375 -469 -1 -9 672 -884 744 -968
4 -4 168 207 365 470 197 263 368 492 381 508 l23 30 -360 420 c-198 231 -370
430 -382 443 l-23 23 -373 -457z"/>
<path d="M7101 2251 c-85 -103 -153 -192 -152 -197 1 -8 103 -140 259 -337
l54 -68 159 212 c155 208 158 212 141 233 -54 69 -296 346 -301 346 -4 0 -76
-85 -160 -189z"/>
<path d="M7050 1551 c-52 -11 -114 -46 -144 -82 -73 -86 -116 -229 -116 -384
0 -222 79 -388 212 -445 43 -18 65 -21 120 -18 152 11 244 122 285 343 33 180
-22 418 -118 514 -58 58 -158 88 -239 72z m119 -97 c53 -44 73 -129 78 -329 5
-185 -7 -278 -48 -362 -53 -109 -162 -92 -208 32 -51 136 -54 432 -5 577 34
104 115 140 183 82z"/>
<path d="M7557 1533 c-4 -3 -7 -16 -7 -28 0 -20 6 -23 56 -27 33 -3 60 -11 65
-19 5 -8 9 -199 9 -425 0 -345 2 -413 14 -417 8 -3 71 24 140 59 116 60 126
67 126 94 l0 28 -51 -19 c-29 -11 -58 -18 -65 -15 -20 8 -20 663 -1 690 8 11
31 20 60 23 44 5 47 8 47 34 l0 29 -193 0 c-107 0 -197 -3 -200 -7z"/>
</g>
</svg>
