<?xml version="1.0" standalone="no"?>
<!DOCTYPE svg PUBLIC "-//W3C//DTD SVG 20010904//EN"
 "http://www.w3.org/TR/2001/REC-SVG-20010904/DTD/svg10.dtd">
<svg version="1.0" xmlns="http://www.w3.org/2000/svg"
 width="596.000000pt" height="768.000000pt" viewBox="0 0 596.000000 768.000000"
 preserveAspectRatio="xMidYMid meet">

<g transform="translate(0.000000,768.000000) scale(0.100000,-0.100000)"
fill="#000000" stroke="none">
<path d="M2359 6301 c-120 -26 -140 -37 -170 -96 -42 -83 -79 -133 -115 -154
-19 -11 -34 -26 -34 -33 0 -8 5 -6 11 5 12 20 49 23 67 5 19 -19 14 -45 -10
-62 -25 -18 -17 -21 13 -6 10 6 19 18 19 26 0 23 49 103 70 114 24 13 80 13
80 1 0 -6 10 -21 23 -35 13 -14 30 -44 37 -66 13 -39 12 -42 -12 -66 -24 -25
-60 -38 -147 -53 -51 -9 -77 -36 -117 -115 -13 -28 -24 -51 -24 -51 0 -1 11 0
24 2 33 7 41 -12 16 -37 -16 -16 -17 -20 -5 -20 9 0 20 10 25 23 l9 22 0 -22
c1 -30 -32 -47 -61 -33 -22 11 -22 10 -4 -4 26 -21 42 -20 65 3 17 17 18 24 9
55 -19 60 -6 65 130 59 l117 -6 50 -44 c28 -24 61 -46 75 -49 14 -4 46 -16 72
-28 35 -15 47 -27 48 -43 0 -26 -39 -59 -80 -68 -31 -7 -51 -25 -28 -25 7 0
30 4 50 9 20 5 39 7 41 4 3 -2 -21 -28 -52 -58 -41 -39 -69 -57 -104 -65 -45
-12 -50 -11 -88 14 -48 33 -43 48 15 40 24 -4 46 -2 49 3 4 6 -3 8 -17 6 -32
-6 -62 11 -78 45 -16 33 -61 42 -89 16 -40 -36 -11 -101 41 -90 27 5 70 -16
70 -35 0 -12 -45 -12 -90 0 -62 17 -253 21 -273 6 -15 -11 -16 -13 -2 -19 18
-6 21 -67 5 -97 -12 -21 -40 -25 -58 -7 -9 9 -12 8 -12 -4 0 -9 -3 -25 -6 -35
-5 -17 -5 -17 6 0 15 24 35 21 64 -8 15 -15 36 -25 54 -25 16 0 46 -7 65 -15
20 -8 58 -15 85 -15 28 0 64 -8 87 -20 22 -11 59 -20 83 -20 23 0 71 -7 105
-15 34 -8 82 -17 107 -20 56 -7 75 -18 67 -39 -4 -11 -19 -16 -45 -16 -25 0
-45 -7 -55 -18 -36 -40 -9 -102 45 -102 25 0 58 27 58 48 0 6 10 18 22 26 l22
16 -21 0 c-32 0 -38 18 -15 43 12 14 22 44 27 82 8 75 8 77 -6 153 -11 56 -13
60 -25 44 -24 -34 -85 -56 -174 -63 -47 -3 -92 -9 -102 -13 -11 -5 -18 -1 -23
15 -9 26 2 34 72 55 43 12 58 24 87 64 21 29 53 58 78 71 24 12 55 33 71 47
l27 26 0 -55 c0 -41 -3 -50 -11 -39 -8 12 -9 10 -5 -10 3 -14 6 -32 6 -40 1
-20 36 23 55 68 21 47 45 42 46 -10 l2 -43 6 35 7 35 11 -30 c11 -29 11 -29
13 -5 1 23 2 23 10 5 5 -11 9 -14 9 -7 1 18 31 48 31 31 0 -7 6 -5 13 6 14 18
77 29 77 14 0 -5 12 -25 26 -46 15 -21 23 -29 19 -18 -14 36 -19 88 -7 81 7
-4 14 4 18 21 9 35 30 58 37 40 3 -6 6 -1 7 13 l2 25 8 -25 c4 -14 8 -19 9
-12 1 7 6 10 11 7 6 -3 10 -1 10 5 0 21 20 -1 21 -23 1 -18 2 -16 10 7 4 17 7
31 6 32 -1 1 -20 11 -42 22 -42 22 -38 25 27 25 10 0 20 8 23 18 3 10 14 20
23 22 9 3 -1 6 -23 7 -22 1 -49 5 -60 10 -19 8 -19 9 2 9 28 1 53 11 53 21 0
4 -6 7 -12 7 -34 -1 -79 17 -74 29 4 10 -3 14 -20 14 -37 0 -25 24 17 32 28 6
25 6 -14 4 -38 -3 -50 0 -61 16 -8 11 -16 15 -19 11 -3 -5 3 -17 14 -26 33
-29 19 -125 -27 -168 -19 -18 -38 -24 -75 -25 -28 -1 -53 -5 -56 -8 -12 -12
-75 -6 -106 11 -18 9 -46 16 -63 14 -21 -1 -41 6 -61 23 -16 13 -41 28 -55 31
-28 7 -35 18 -48 73 -6 24 -3 50 11 89 10 31 19 67 19 79 0 13 12 37 28 53 32
35 205 131 236 131 31 0 122 -45 129 -64 8 -20 3 -20 -26 -2 -12 8 -43 17 -68
21 -40 6 -55 2 -110 -25 -35 -18 -77 -42 -93 -53 -33 -23 -62 -83 -70 -147 -5
-37 -2 -34 13 21 22 79 29 92 47 85 7 -3 16 -1 19 5 4 5 11 6 17 3 6 -4 8 1 4
13 -5 15 6 26 63 56 59 32 73 36 96 27 14 -5 37 -10 49 -10 13 0 28 -6 34 -13
9 -10 4 -16 -22 -25 -19 -7 -37 -19 -40 -27 -7 -19 -1 -19 29 1 14 9 34 14 44
11 20 -5 31 10 31 43 0 20 73 90 94 90 8 0 37 18 64 39 58 46 114 64 171 55
27 -4 46 -2 56 6 18 15 20 61 3 78 -17 17 -73 15 -89 -4 -11 -13 -26 -15 -85
-9 -54 5 -79 3 -101 -8 -15 -8 -57 -18 -92 -22 -35 -4 -78 -16 -95 -26 l-32
-19 -100 45 c-125 56 -212 65 -345 36z m915 -13 c-4 -13 -12 -26 -18 -30 -8
-6 -6 -11 4 -18 13 -8 13 -10 -2 -10 -19 0 -48 26 -48 44 0 19 22 36 48 36 20
0 22 -4 16 -22z m-234 -606 c0 -36 -28 -98 -57 -124 -61 -55 -174 -73 -242
-39 -42 22 -104 87 -96 101 3 5 26 -1 50 -14 24 -13 45 -20 47 -16 2 4 43 13
92 19 68 8 95 16 113 33 27 26 30 18 6 -20 -16 -24 -16 -25 -1 -14 23 18 48
75 48 109 0 16 3 33 7 37 11 11 32 -36 33 -72z"/>
<path d="M2875 5570 c-13 -6 -15 -9 -5 -9 8 0 22 4 30 9 18 12 2 12 -25 0z"/>
<path d="M2708 5983 c7 -3 16 -2 19 1 4 3 -2 6 -13 5 -11 0 -14 -3 -6 -6z"/>
<path d="M3598 5970 c-9 -6 -23 -23 -31 -39 -13 -26 -13 -31 1 -45 14 -14 10
-22 -49 -83 -35 -37 -72 -68 -82 -68 -10 0 -21 -5 -25 -12 -4 -6 -22 -14 -39
-18 -48 -10 -50 -23 -6 -41 31 -13 44 -14 70 -5 43 16 99 0 155 -42 49 -37 57
-64 18 -59 -14 2 -48 4 -77 5 -28 1 -49 5 -46 10 12 20 -17 3 -31 -18 -14 -21
-24 -25 -70 -25 -29 0 -68 -7 -85 -16 -26 -13 -38 -14 -59 -5 -26 10 -26 10
-7 -4 11 -9 36 -26 55 -38 52 -34 86 -112 94 -214 3 -53 2 -83 -5 -83 -14 0
-118 112 -119 128 0 7 -13 12 -33 12 -41 0 -83 41 -122 118 -14 30 -29 52 -31
49 -3 -3 7 -29 22 -58 23 -47 25 -59 19 -109 -8 -57 -10 -116 -4 -185 2 -29
-3 -50 -21 -77 -26 -39 -35 -44 -59 -29 -12 8 -13 14 -2 37 18 40 -2 80 -51
105 -25 13 -44 32 -52 52 -7 18 -17 41 -21 52 -7 18 -9 17 -15 -10 -10 -44
-26 -70 -63 -102 -18 -15 -44 -45 -57 -67 -12 -21 -37 -47 -54 -57 l-31 -19
30 6 c53 10 71 -16 103 -151 l28 -119 43 57 c24 31 48 57 54 57 5 0 30 -15 56
-33 77 -55 72 -56 65 16 -6 59 -5 66 14 76 45 24 86 6 61 -27 -11 -13 -9 -13
8 2 13 10 20 23 17 27 -7 12 65 99 81 99 8 0 42 15 78 34 l64 34 40 -18 c22
-10 43 -22 46 -27 4 -6 -7 -23 -24 -39 -17 -16 -40 -47 -51 -69 -22 -43 -47
-75 -59 -75 -4 0 -10 18 -14 40 -6 38 -8 40 -45 40 -29 0 -39 -5 -43 -19 -5
-21 29 -37 37 -17 2 6 7 -3 11 -20 5 -21 13 -31 23 -30 20 1 29 -59 31 -191 1
-69 -2 -84 -16 -91 -26 -13 -163 -24 -163 -13 0 5 8 11 18 14 9 2 6 4 -8 3
-15 0 -24 4 -23 12 2 6 -4 12 -12 12 -8 0 -15 3 -15 8 0 4 -11 12 -25 19 -20
9 -25 8 -25 -3 0 -8 11 -19 25 -24 39 -15 40 -35 10 -123 -31 -90 -54 -137
-68 -137 -5 0 -4 6 2 13 12 15 5 27 -16 27 -7 0 -12 -9 -10 -22 2 -19 -2 -23
-23 -20 -57 6 -73 13 -61 25 17 17 13 27 -9 27 -14 0 -20 -6 -18 -17 2 -12 -2
-17 -12 -15 -8 2 -19 4 -24 5 -5 1 -10 -2 -12 -8 -6 -16 62 -45 75 -32 14 14
14 8 0 -32 -10 -29 -29 -43 -29 -21 0 6 -7 10 -16 10 -9 0 -14 -7 -12 -17 2
-11 11 -17 21 -15 17 3 17 1 2 -34 -8 -20 -15 -39 -15 -42 0 -3 -5 -1 -11 5
-14 14 -39 6 -39 -12 0 -8 8 -15 18 -18 16 -4 15 -5 -2 -12 -11 -5 -31 -4 -47
2 -27 10 -29 9 -29 -11 0 -32 -24 -61 -44 -53 -21 8 -43 -11 -51 -46 -4 -14
-14 -27 -23 -29 -11 -2 -17 -15 -17 -41 -1 -20 2 -37 7 -37 18 0 7 -21 -17
-32 -31 -14 -32 -26 -1 -38 35 -13 42 -31 20 -47 -18 -13 -18 -15 -1 -24 9 -6
15 -14 12 -20 -11 -17 12 -9 29 10 16 17 16 19 0 25 -15 6 -12 12 19 37 20 17
37 37 37 46 0 11 7 14 23 11 19 -4 26 2 37 26 8 17 14 42 15 55 0 25 49 70 62
58 11 -12 -27 -208 -55 -277 -19 -47 -27 -88 -29 -149 -2 -47 -7 -89 -12 -95
-4 -6 -14 -45 -21 -86 -18 -105 -22 -112 -79 -143 l-51 -28 -1 23 c-1 13 -3
54 -4 92 -1 37 -7 71 -13 75 -6 3 -13 27 -15 51 -2 25 -4 -4 -3 -64 1 -79 -2
-110 -11 -113 -9 -3 -13 6 -13 26 0 17 -3 31 -7 31 -13 0 -32 50 -26 66 3 8
14 14 24 14 10 0 19 5 19 10 0 6 -7 10 -15 10 -8 0 -15 9 -15 19 0 11 -12 28
-27 39 l-28 20 37 7 c20 4 41 4 47 0 6 -3 11 -1 11 4 0 6 -13 11 -30 11 -23 0
-28 4 -24 18 2 9 -1 7 -7 -5 -13 -25 -38 -30 -59 -10 -12 10 -12 9 -3 -3 6 -8
14 -52 18 -97 8 -90 0 -115 -35 -106 -11 3 -20 1 -20 -5 0 -18 23 -62 32 -62
4 0 8 -9 8 -20 0 -15 7 -20 26 -20 23 0 26 3 21 26 -7 36 16 40 48 9 14 -15
25 -28 23 -30 -2 -1 -30 -12 -63 -23 -46 -16 -51 -20 -22 -16 30 5 36 3 32 -8
-3 -8 2 -21 12 -28 15 -12 16 -12 6 0 -20 22 -16 28 26 49 l40 19 10 -29 c5
-16 15 -29 20 -29 6 0 11 -7 11 -15 0 -8 -3 -15 -8 -15 -11 0 -6 -69 8 -94 15
-30 -2 -74 -32 -81 -164 -36 -329 -80 -398 -105 -116 -43 -302 -142 -408 -217
-48 -35 -90 -63 -93 -63 -3 0 -12 13 -20 29 -18 38 -202 191 -228 191 -12 0
-68 -23 -125 -52 -102 -51 -105 -53 -124 -102 -18 -49 -18 -50 4 -160 13 -61
23 -128 24 -148 0 -50 16 -87 52 -125 l31 -32 -27 -45 c-15 -25 -23 -46 -18
-46 5 0 12 -13 16 -30 9 -48 25 -35 21 18 l-4 47 14 -30 c8 -16 14 -41 15 -54
0 -19 3 -21 14 -12 10 8 16 9 21 1 3 -6 22 -17 41 -25 41 -17 42 -30 6 -71
-15 -18 -36 -43 -47 -58 -15 -19 -26 -25 -42 -20 -22 6 -38 40 -23 49 13 8 -1
44 -15 39 -14 -6 -30 56 -17 65 5 3 4 22 -3 41 l-12 34 -40 -69 c-49 -84 -103
-191 -103 -203 0 -9 44 -32 60 -32 6 0 10 13 10 29 0 30 30 61 58 61 27 0 62
-48 63 -87 1 -21 3 -30 6 -21 5 21 43 33 72 23 30 -9 54 -71 47 -120 -2 -22
-1 -56 3 -75 7 -32 8 -33 15 -13 11 34 54 63 93 63 26 0 43 -8 69 -34 19 -19
34 -44 34 -56 0 -11 4 -19 8 -16 20 12 71 -34 83 -74 7 -22 13 -40 14 -40 1 0
16 7 34 16 37 18 72 13 110 -17 l25 -20 9 23 c4 13 20 33 35 44 22 18 24 24
14 36 -17 21 -5 72 23 98 24 22 64 24 108 5 13 -5 16 -3 12 7 -9 22 39 59 83
65 35 5 44 1 67 -22 23 -22 27 -33 22 -65 -5 -38 -4 -38 20 -29 58 22 123 -32
123 -102 0 -49 -16 -83 -36 -75 -13 5 -13 2 1 -16 8 -13 15 -30 15 -39 0 -13
8 -10 32 14 18 18 33 39 33 47 0 8 16 25 35 38 19 12 40 34 46 48 21 50 84 73
138 50 38 -16 56 -42 56 -81 0 -21 4 -26 16 -21 18 7 70 -18 77 -36 3 -7 4 -1
3 15 -2 15 -6 30 -9 34 -19 19 21 63 58 63 18 0 25 5 25 19 0 10 11 35 25 55
29 42 30 47 11 40 -7 -3 -16 2 -19 10 -8 19 14 25 106 26 37 0 79 1 95 1 15 1
42 -4 60 -9 17 -6 32 -7 32 -2 0 12 146 43 170 37 11 -3 20 -1 20 3 0 5 18 11
40 15 22 4 40 11 40 17 0 6 -7 8 -15 4 -10 -3 -15 1 -15 13 0 11 -6 22 -12 25
-7 3 -2 3 12 -1 20 -5 23 -3 13 8 -9 12 -4 14 29 16 27 1 38 -3 35 -11 -3 -7
4 -23 14 -37 23 -30 24 -49 2 -49 -11 -1 -4 -8 17 -18 24 -12 38 -27 44 -49 8
-27 14 -31 32 -27 15 4 29 -1 42 -14 l21 -21 15 23 c8 13 29 29 46 36 28 11
34 11 58 -7 15 -11 29 -30 32 -41 3 -12 21 -30 40 -40 19 -9 44 -31 55 -49 27
-44 51 -44 25 0 -19 32 -19 33 0 64 22 37 69 51 114 33 33 -12 30 -14 43 25 6
19 22 36 43 46 20 10 29 19 22 23 -17 10 -15 41 4 57 12 9 20 10 33 2 15 -9
17 -7 13 17 -3 20 3 32 23 49 15 11 33 21 40 21 9 0 11 13 8 43 -6 52 10 70
59 65 23 -2 36 -10 43 -25 6 -15 19 -23 35 -23 31 -1 123 -32 144 -49 22 -18
20 -67 -3 -90 -17 -17 -18 -21 -4 -41 10 -14 13 -34 10 -56 l-6 -34 45 0 c38
0 51 -6 89 -41 25 -23 45 -36 45 -28 0 31 -86 261 -132 353 -51 102 -119 218
-170 290 -15 21 -28 44 -28 51 0 7 20 55 44 106 65 138 78 184 84 284 4 89 4
91 -35 166 -63 120 -274 389 -337 428 -38 24 -220 57 -362 66 l-101 7 -7 62
c-4 41 -1 88 9 137 11 52 13 88 7 120 -5 25 -7 82 -5 125 3 43 -2 117 -9 164
-12 76 -9 183 7 198 2 2 33 -21 69 -52 57 -50 64 -61 63 -92 -1 -21 6 -40 16
-49 9 -8 12 -10 7 -3 -20 24 -11 64 15 76 50 23 68 13 88 -48 4 -11 6 -10 6 3
1 28 -18 57 -44 67 -31 12 -59 67 -84 168 -11 45 -38 115 -61 155 -22 41 -37
77 -33 80 12 13 36 7 67 -17 56 -42 114 -66 160 -66 36 0 50 -6 74 -30 17 -16
40 -30 51 -30 21 0 61 32 61 50 0 5 -11 -2 -25 -15 -35 -36 -60 -32 -84 13
-16 30 -6 58 27 77 27 16 27 16 2 9 -48 -14 -58 -9 -143 73 -58 56 -89 94 -97
120 -7 21 -21 52 -31 69 -34 56 16 63 57 9 34 -46 59 -58 107 -57 31 2 43 -4
64 -28 43 -52 116 -29 116 37 0 39 -37 65 -87 61 -39 -3 -41 -1 -92 67 l-53
70 34 60 c31 56 36 60 75 66 64 9 81 59 35 104 -39 40 -85 29 -103 -25 -8 -23
-25 -36 -77 -61 -61 -28 -71 -30 -105 -20 -20 6 -46 11 -57 11 -11 0 -33 10
-48 22 -22 17 -39 21 -87 19 -56 -2 -59 -1 -56 20 2 15 24 35 68 61 36 21 94
68 130 104 36 36 83 73 106 83 69 31 164 171 150 224 -22 89 -177 156 -471
203 -60 10 -114 22 -120 26 -5 5 16 32 54 68 53 51 68 60 100 60 20 0 42 5 49
12 21 21 14 65 -14 87 -30 23 -41 25 -66 11z m-10 -577 c24 -6 29 -30 10 -56
-14 -18 -85 -57 -104 -57 -18 0 -39 73 -35 119 1 11 12 12 54 7 28 -4 62 -10
75 -13z m557 -343 c24 -26 13 -68 -20 -76 -33 -8 -48 -2 -64 30 -13 23 -12 28
4 46 23 25 57 26 80 0z m-549 -106 c7 -64 -122 -235 -215 -284 -23 -12 -24
-12 -16 26 4 22 11 42 17 45 6 4 38 34 72 67 55 54 89 108 111 176 8 26 27 7
31 -30z m602 -270 c45 -31 11 -103 -42 -90 -34 8 -49 37 -37 70 8 21 18 28 51
35 3 0 16 -6 28 -15z m-1410 -681 c17 -23 15 -58 -4 -77 -49 -50 -129 35 -83
90 16 19 68 12 87 -13z m577 -3 c19 -37 20 -35 -12 -65 l-28 -25 32 12 c29 11
35 10 58 -12 26 -25 33 -64 14 -76 -18 -10 -69 -7 -84 6 -8 6 -16 24 -18 38
-3 19 -4 17 -3 -8 1 -31 6 -37 42 -54 41 -19 41 -19 63 -115 12 -53 21 -115
21 -137 0 -23 7 -55 15 -70 8 -16 15 -40 15 -54 1 -14 7 -36 15 -50 8 -14 14
-46 15 -72 0 -45 -2 -49 -37 -67 -21 -10 -46 -28 -56 -39 -19 -21 -97 -193
-97 -215 0 -8 -18 -12 -53 -13 -35 -1 -46 1 -32 6 17 7 14 9 -12 9 -34 1 -66
33 -56 57 4 10 -3 14 -23 14 -16 0 -39 3 -51 6 -13 4 -23 2 -23 -4 0 -6 15
-14 33 -18 43 -9 64 -35 112 -132 46 -97 46 -96 -59 -141 -37 -16 -62 -31 -55
-33 8 -3 10 -13 5 -31 -6 -24 -10 -27 -45 -24 l-39 3 34 -44 c37 -48 43 -76
19 -86 -9 -3 -15 0 -15 9 0 19 -14 19 -30 0 -10 -12 -9 -15 5 -15 30 0 2 -22
-90 -70 l-86 -45 -39 45 c-22 25 -43 44 -49 43 -11 -3 3 63 17 80 6 7 11 17
11 22 1 6 9 11 19 11 9 1 23 2 30 3 6 1 12 9 13 19 0 10 3 12 6 5 3 -10 11 -9
34 2 16 9 29 17 29 18 0 2 -17 1 -37 0 l-38 -4 43 38 c41 37 52 65 32 78 -5 3
-9 20 -7 38 3 34 32 50 48 25 6 -10 9 -10 9 0 0 19 21 14 47 -10 21 -19 19
-13 -13 61 -27 63 -33 85 -24 96 9 11 6 14 -17 17 -44 5 -40 32 9 61 l43 25
13 -21 c8 -13 11 -15 8 -5 -3 9 4 47 15 85 21 76 23 84 10 64 -11 -17 -31 -6
-31 17 0 9 6 34 14 57 8 22 22 76 32 120 10 44 35 116 56 159 21 44 38 89 38
100 0 22 93 238 120 276 9 14 20 33 23 43 9 25 24 21 42 -13z m-298 -82 c7 -6
13 -26 13 -44 0 -27 -5 -37 -25 -46 -36 -16 -77 0 -89 35 -8 22 -6 31 14 52
25 27 58 28 87 3z m-369 -65 c-6 -7 -15 -10 -21 -6 -8 5 -7 8 1 11 7 2 12 11
12 20 0 14 2 15 10 2 5 -9 5 -19 -2 -27z m-186 -345 c-7 -7 -12 -8 -12 -2 0
14 12 26 19 19 2 -3 -1 -11 -7 -17z m27 -159 c-22 -13 -39 -11 -39 7 0 8 5 12
10 9 6 -3 10 1 10 10 0 15 1 15 17 0 14 -14 14 -18 2 -26z m1496 -64 c209 -24
200 -18 389 -255 168 -210 202 -295 175 -438 -32 -171 -168 -404 -252 -431
-17 -6 -81 -20 -142 -32 -60 -11 -130 -30 -155 -41 -25 -11 -88 -37 -140 -58
-53 -21 -178 -74 -278 -119 -101 -45 -215 -90 -254 -101 -105 -29 -321 -46
-407 -32 -75 13 -290 73 -361 102 -25 10 -88 32 -140 48 -52 17 -153 52 -225
77 -71 26 -170 55 -220 66 -49 10 -114 31 -143 45 -78 38 -167 124 -186 181
-9 25 -43 95 -77 155 -58 103 -65 111 -125 145 -34 20 -60 41 -57 46 3 4 12 6
20 3 8 -3 12 -2 9 3 -3 5 1 14 9 21 27 23 15 32 -14 11 -16 -12 -33 -21 -37
-21 -5 0 8 12 29 26 23 16 36 31 33 40 -3 7 -1 16 5 20 15 9 -23 42 -41 36 -8
-3 -26 -13 -39 -21 -14 -9 -33 -15 -42 -13 -10 2 -31 -4 -47 -12 -23 -12 -30
-24 -35 -58 -3 -23 -3 -54 0 -69 6 -34 394 -427 520 -528 70 -57 94 -82 99
-105 3 -17 17 -69 30 -115 28 -98 31 -186 8 -220 -22 -32 -90 -61 -142 -61
-36 0 -49 6 -87 41 -25 23 -62 69 -84 103 -47 75 -66 92 -112 100 -33 6 -37
10 -43 46 -10 62 1 90 34 90 75 0 116 -35 214 -185 40 -60 80 -116 89 -123 27
-23 60 -10 83 32 20 36 22 37 29 17 4 -14 1 -31 -9 -46 -9 -14 -12 -25 -7 -25
16 0 42 81 36 110 -7 34 -38 63 -135 127 -115 77 -257 190 -282 224 -13 17
-69 67 -125 110 -56 44 -107 88 -113 99 -6 11 -15 55 -20 98 -5 42 -16 113
-25 156 -16 81 -10 128 19 165 17 21 186 101 214 101 16 0 57 -27 117 -77 124
-104 136 -131 144 -337 l6 -149 64 -58 c70 -65 95 -74 34 -12 -22 21 -34 35
-29 30 35 -26 35 30 0 68 -14 15 -24 34 -22 43 10 53 297 31 492 -37 71 -25
77 -26 47 -5 -13 9 -19 19 -13 23 6 4 4 11 -4 19 -12 11 -15 10 -20 -2 -3 -9
-15 -16 -26 -16 -14 0 -18 5 -14 15 3 8 1 15 -4 15 -14 0 -41 44 -44 72 -2 12
-9 36 -15 52 -15 37 -7 45 22 19 35 -31 189 -64 202 -42 4 5 10 7 15 4 5 -3
20 0 32 6 13 7 30 13 38 14 8 1 25 5 38 9 25 8 27 4 10 -27 -16 -31 -38 -45
-62 -41 -15 3 -13 0 7 -9 15 -7 24 -17 20 -21 -4 -4 0 -4 10 0 14 5 16 2 11
-24 -6 -30 9 -52 22 -31 4 8 3 9 -4 5 -8 -5 -10 7 -8 41 4 52 43 112 64 99 9
-5 8 -11 -3 -22 -8 -9 -15 -22 -15 -30 0 -10 10 -4 26 15 23 27 30 30 62 25
21 -3 48 -5 61 -5 23 1 23 -1 18 -46 l-6 -48 16 43 15 42 81 -4 c49 -2 82 -8
83 -15 1 -6 3 -26 4 -43 3 -33 3 -33 9 6 5 33 11 41 35 47 41 11 47 4 30 -36
-8 -19 -14 -67 -14 -109 0 -59 4 -78 20 -97 l20 -24 -3 25 c-1 14 -8 31 -16
39 -19 21 -10 151 13 186 14 20 25 26 49 24 18 -1 43 -1 57 1 l25 2 -25 7
c-14 4 -25 14 -25 23 0 9 -3 20 -7 23 -22 23 52 63 92 50 19 -6 50 -52 50 -74
0 -5 -10 -12 -22 -14 -18 -3 -16 -5 7 -6 28 -1 34 -8 69 -78 21 -43 41 -72 43
-65 3 7 3 18 0 25 -2 7 -5 17 -6 22 -2 6 -8 17 -14 25 -15 19 -37 58 -37 65 0
3 8 2 18 -3 9 -5 22 -7 29 -5 7 2 22 -1 34 -7 12 -7 19 -8 16 -3 -10 15 121
12 134 -3 20 -25 28 -15 13 16 -9 17 -20 30 -25 30 -6 0 -7 5 -4 10 4 6 10 8
15 5 5 -3 20 0 34 7 24 11 29 8 77 -43 37 -38 44 -43 24 -17 -24 33 -25 39
-11 44 11 4 32 -8 61 -35 46 -43 72 -49 121 -31 37 15 58 -5 29 -27 -19 -15
-19 -15 8 -9 40 9 33 -9 -10 -27 -58 -24 -26 -20 54 8 39 13 107 31 150 40 43
9 128 28 188 43 87 21 103 27 76 30 -25 3 -52 19 -95 57 -43 38 -63 51 -69 42
-6 -9 -7 -8 -6 3 1 8 -1 24 -5 35 -37 100 -50 112 -110 101 -25 -5 -42 1 -86
30 -30 20 -81 49 -112 65 -31 16 -59 33 -62 37 -3 5 33 25 80 45 l85 36 111
-6 c108 -6 110 -6 100 14 -6 11 -19 26 -29 34 -16 12 -16 11 1 -9 11 -12 16
-25 13 -28 -3 -4 -45 -2 -94 3 -57 6 -100 6 -125 -1 -31 -8 -41 -8 -48 4 -5 8
-6 18 -3 24 3 5 2 7 -3 4 -5 -3 -22 10 -37 28 l-28 33 23 14 c20 13 64 29 117
44 8 2 11 6 8 9 -3 3 -38 -6 -79 -20 -89 -31 -98 -32 -98 -7 0 31 39 51 100
53 l55 1 -60 6 c-46 5 -59 9 -57 21 2 8 6 39 9 68 5 42 2 56 -12 72 -18 20
-17 20 36 20 30 0 113 -7 184 -15z m-1328 -32 c-9 -9 -20 -14 -24 -10 -3 4 2
14 13 21 25 19 33 10 11 -11z m1103 -3 c0 -11 -4 -20 -10 -20 -5 0 -10 9 -10
20 0 11 5 20 10 20 6 0 10 -9 10 -20z m-310 -14 c0 -2 -7 -20 -16 -41 -11 -27
-13 -52 -8 -91 6 -52 5 -56 -30 -94 -41 -45 -42 -50 -21 -90 18 -34 29 -40 20
-10 -8 26 2 25 26 -2 15 -19 18 -19 13 -4 -7 19 10 36 37 36 12 0 19 -12 23
-43 10 -64 2 -77 -50 -77 -56 0 -103 39 -134 112 -27 62 -24 86 22 193 24 56
41 83 63 96 27 17 55 25 55 15z m-453 -23 c5 -15 -31 -48 -76 -69 -35 -17 -36
-18 -11 -24 23 -6 21 -8 -19 -19 -30 -9 -78 -10 -155 -6 -61 4 -114 9 -118 11
-11 7 4 44 18 44 17 0 18 12 2 28 -29 29 10 27 210 -8 64 -11 98 -1 114 35 11
25 28 29 35 8z m463 -48 c0 -14 -4 -25 -10 -25 -11 0 -14 33 -3 43 11 11 13 8
13 -18z m274 -10 c-14 -21 -15 -28 -4 -35 23 -14 1 -29 -88 -56 -157 -48 -162
-48 -175 -35 -9 9 -9 16 1 31 16 26 15 27 -8 33 -38 10 -20 26 38 31 139 14
193 25 219 44 35 25 40 21 17 -13z m-273 -173 c10 -26 -20 -47 -51 -37 -26 8
-25 30 2 49 27 20 39 17 49 -12z m359 -67 c0 -7 -9 -15 -19 -18 -22 -5 -61 18
-61 36 0 7 7 4 14 -5 14 -18 56 -25 56 -9 0 5 -7 14 -15 21 -9 7 -25 27 -36
44 -15 23 -10 19 20 -13 23 -24 41 -49 41 -56z m-950 61 c0 -3 -4 -8 -10 -11
-5 -3 -10 -1 -10 4 0 6 5 11 10 11 6 0 10 -2 10 -4z m380 -16 c17 -5 19 -8 8
-9 -10 -1 -18 -6 -18 -12 0 -6 -11 -9 -25 -7 -14 2 -25 7 -24 12 0 5 -5 13
-13 17 -17 11 37 10 72 -1z m-760 -28 c0 -4 -9 -13 -20 -20 -17 -10 -20 -10
-20 2 0 8 8 17 18 19 9 3 18 5 20 6 1 0 2 -2 2 -7z m-59 -35 c-8 -8 -11 -7
-11 4 0 20 13 34 18 19 3 -7 -1 -17 -7 -23z m136 -28 c-8 -19 -21 -40 -29 -47
-9 -7 -14 -20 -11 -30 2 -9 -4 -26 -15 -37 -10 -12 -22 -32 -25 -45 -5 -17
-35 -43 -98 -83 -51 -32 -94 -55 -97 -52 -3 3 25 38 64 78 64 67 62 66 -16
-10 -47 -46 -91 -83 -97 -83 -6 0 -13 -6 -15 -12 -4 -10 -10 -10 -33 0 -15 7
-25 16 -21 19 3 4 -1 14 -10 24 -8 9 -14 28 -12 41 3 21 8 23 45 20 38 -3 43
-1 48 21 11 41 1 71 -27 86 -24 14 -30 14 -61 -1 -20 -9 -38 -26 -42 -37 -3
-12 -12 -21 -20 -21 -8 0 -16 -8 -19 -18 -12 -36 -40 -42 -89 -19 -53 25 -61
57 -17 64 13 2 28 9 32 16 4 6 8 8 8 2 0 -5 5 -2 11 8 6 9 14 15 20 12 5 -4 9
2 9 12 0 15 2 16 10 3 5 -8 10 -10 10 -4 0 6 7 11 16 11 12 0 15 -7 10 -31
l-6 -31 32 36 c42 46 67 59 96 48 12 -5 22 -12 22 -17 0 -4 15 -8 34 -9 26 -1
33 3 29 13 -3 8 3 17 13 20 11 4 39 16 64 28 25 11 48 20 53 18 4 -1 7 3 7 8
0 6 6 10 14 10 8 0 16 4 18 8 2 5 21 16 43 24 32 13 42 14 53 4 11 -11 11 -19
-1 -47z m387 29 c-9 -14 -23 2 -17 18 4 12 8 13 14 3 4 -7 5 -17 3 -21z m-79
1 c-3 -4 -12 -6 -20 -3 -8 4 -13 10 -10 15 3 4 12 6 20 3 8 -4 13 -10 10 -15z
m421 4 c11 -10 25 -30 33 -45 8 -16 23 -28 33 -28 10 0 18 -5 18 -11 0 -7 -10
-9 -27 -5 -27 6 -27 6 -9 -9 23 -17 36 -19 36 -5 0 6 25 10 55 10 42 0 57 -4
62 -16 8 -22 -25 -47 -54 -41 -12 2 -24 -2 -27 -8 -3 -8 2 -11 13 -8 10 2 32
-7 49 -22 28 -23 32 -33 32 -73 l0 -47 -20 25 -19 25 6 -23 c3 -13 12 -26 20
-29 7 -3 18 -14 24 -25 9 -16 7 -19 -8 -18 -40 5 -47 -1 -20 -16 34 -18 34
-21 -3 -26 -16 -3 -28 -2 -25 0 3 3 0 11 -6 18 -13 16 -4 34 17 34 9 0 14 6
12 12 -3 7 -15 13 -29 13 -13 0 -24 5 -24 10 0 6 -4 16 -9 24 -9 14 8 30 34
32 8 0 -2 8 -23 17 -22 10 -38 20 -37 22 4 13 -14 40 -27 40 -10 0 -13 -5 -8
-17 23 -56 75 -220 75 -235 0 -16 -10 -18 -90 -18 -90 0 -90 0 -109 31 -12 19
-20 26 -23 17 -3 -9 -9 -6 -17 10 -10 18 -9 22 3 22 9 0 12 7 9 21 -5 16 -8
18 -15 7 -7 -10 -11 -9 -23 6 -11 14 -12 23 -5 30 8 8 14 6 21 -4 11 -18 3 24
-16 80 -15 44 -10 60 21 60 14 0 22 4 19 10 -3 6 0 10 7 10 7 1 3 6 -9 13 -22
12 -23 13 -3 27 10 7 17 16 15 20 -10 16 14 32 39 26 15 -4 24 -11 20 -17 -4
-7 3 -9 17 -7 34 5 36 28 2 29 -24 0 -25 2 -8 8 16 6 10 10 -28 15 -37 6 -47
11 -47 27 0 25 49 26 76 2z m-376 3 c0 -11 -19 -15 -25 -6 -3 5 1 10 9 10 9 0
16 -2 16 -4z m-60 -26 c0 -5 -4 -10 -10 -10 -5 0 -10 5 -10 10 0 6 5 10 10 10
6 0 10 -4 10 -10z m-510 -15 c0 -8 -4 -15 -10 -15 -5 0 -7 7 -4 15 4 8 8 15
10 15 2 0 4 -7 4 -15z m-120 -20 c0 -8 -4 -15 -10 -15 -5 0 -7 7 -4 15 4 8 8
15 10 15 2 0 4 -7 4 -15z m66 -10 c-3 -9 -10 -14 -15 -11 -5 4 -12 0 -14 -6
-3 -8 -6 -7 -6 4 -1 9 7 21 16 27 22 12 28 7 19 -14z m-49 -7 c-3 -8 -6 -5 -6
6 -1 11 2 17 5 13 3 -3 4 -12 1 -19z m582 -16 c-5 -2 -7 -8 -3 -13 3 -5 0 -9
-6 -9 -6 0 -8 -4 -5 -10 3 -5 2 -10 -2 -10 -5 0 -10 -8 -11 -17 -6 -57 -13
-68 -37 -59 -14 5 -14 8 0 29 8 13 12 26 9 29 -6 7 21 63 40 84 9 9 12 8 17
-5 4 -9 2 -18 -2 -19z m-710 -26 c-9 -8 -10 -7 -5 7 3 10 7 24 7 30 1 7 3 4 6
-7 3 -10 -1 -23 -8 -30z m1661 9 c7 -8 19 -15 27 -15 7 0 16 -7 19 -15 4 -8
17 -15 30 -15 12 0 27 -6 31 -14 4 -8 17 -15 27 -17 10 -2 21 -14 22 -26 3
-17 -3 -23 -26 -28 -16 -4 -32 -11 -35 -16 -10 -16 -50 -10 -67 10 -9 11 -14
22 -11 25 4 3 0 6 -8 6 -31 1 -87 100 -57 100 5 0 6 5 3 10 -10 16 31 11 45
-5z m-905 -16 c0 -7 -8 -15 -17 -17 -12 -2 -15 2 -11 18 6 23 28 22 28 -1z
m299 -8 c3 -5 -1 -11 -9 -15 -9 -3 -15 -18 -15 -36 0 -27 -3 -31 -22 -28 -14
2 -24 13 -29 30 -6 24 -4 27 27 33 19 3 32 10 29 16 -4 5 -2 9 4 9 5 0 12 -4
15 -9z m-84 -71 c0 -5 -4 -10 -10 -10 -5 0 -10 5 -10 10 0 6 5 10 10 10 6 0
10 -4 10 -10z m-1146 -34 c14 -9 32 -16 41 -16 8 0 15 -9 15 -20 0 -18 3 -19
20 -10 15 8 21 8 24 -2 13 -41 14 -43 15 -25 1 19 16 23 27 6 3 -6 7 -42 8
-80 1 -65 -5 -85 -18 -56 -3 6 -5 3 -3 -8 1 -11 11 -21 21 -23 16 -4 17 1 11
47 -4 28 -5 51 -2 51 3 0 12 -24 21 -52 13 -47 13 -55 0 -75 -8 -13 -21 -23
-29 -23 -9 0 -12 -6 -8 -17 5 -13 2 -15 -18 -9 -13 4 -66 9 -117 13 -60 4 -99
11 -108 20 -7 8 -18 11 -24 8 -5 -3 -10 -2 -10 4 0 6 -7 8 -15 5 -25 -10 -17
12 10 26 14 7 25 17 25 22 0 4 7 8 15 8 9 0 18 8 22 18 3 9 20 33 37 51 l31
35 -35 -25 c-51 -37 -70 -42 -96 -24 -13 9 -24 13 -24 10 0 -3 -18 4 -40 15
-23 12 -38 25 -35 30 3 4 0 10 -6 12 -14 5 0 38 17 38 8 0 14 6 14 13 0 16 54
41 58 27 5 -14 28 -12 44 3 29 29 72 30 112 3z m1175 -20 c26 -41 26 -46 3
-46 -23 0 -76 55 -68 69 14 21 45 11 65 -23z m52 13 c9 -17 8 -25 -4 -36 -14
-14 -17 -12 -31 15 -20 39 -20 42 4 42 10 0 24 -10 31 -21z m-1778 -50 c80
-39 126 -79 127 -109 0 -22 -60 -92 -75 -88 -7 2 -54 43 -104 91 -63 60 -91
95 -91 111 0 49 35 48 143 -5z m2517 6 c7 -8 29 -15 49 -16 20 0 45 -4 56 -8
18 -7 17 -9 -12 -24 -42 -22 -75 -21 -103 3 -13 11 -29 20 -37 20 -15 0 -15 2
-7 24 8 20 38 21 54 1z m-782 -35 c18 0 32 -5 32 -11 0 -6 -17 -9 -42 -7 -24
2 -43 8 -43 13 0 6 -4 17 -9 25 -7 10 -3 10 11 -2 11 -10 34 -18 51 -18z
m1022 -37 c-1 -8 -70 -44 -70 -36 0 2 5 13 10 24 10 18 60 28 60 12z m-2418
-17 c8 -7 24 -17 36 -20 12 -4 22 -12 22 -17 0 -5 5 -8 11 -6 6 1 14 -4 17
-12 3 -10 0 -12 -12 -8 -9 4 -16 2 -16 -4 0 -14 -47 -59 -54 -52 -3 4 -6 -2
-7 -13 -1 -37 -16 17 -22 84 -7 62 -1 74 25 48z m1300 -4 c-7 -2 -10 -7 -7
-12 3 -5 -2 -16 -11 -24 -8 -9 -12 -16 -7 -16 4 0 1 -4 -6 -9 -9 -6 -22 -6
-35 1 -18 10 -18 12 -3 23 9 6 14 14 11 17 -3 3 7 8 21 12 14 4 25 11 25 17 0
6 5 7 12 3 9 -6 9 -9 0 -12z m1155 -15 c4 -8 17 -19 28 -25 17 -10 18 -11 3
-12 -10 0 -18 -4 -18 -9 0 -4 -20 -11 -45 -14 -24 -4 -53 -11 -62 -16 -10 -5
-56 -17 -102 -26 -47 -9 -91 -21 -98 -27 -9 -7 -13 -7 -13 0 0 6 6 13 13 15 6
3 0 6 -15 6 -15 1 -30 6 -34 12 -8 13 16 31 33 24 7 -2 15 0 18 5 7 11 35 2
35 -11 0 -5 -7 -9 -15 -9 -8 0 -15 -4 -15 -10 0 -16 9 -13 135 50 128 64 140
67 152 47z m-1483 -3 c16 -6 23 -44 8 -44 -4 0 -19 8 -32 17 -24 16 -24 16
-11 0 7 -9 10 -17 7 -17 -15 0 -46 21 -46 31 0 6 3 8 8 6 6 -4 18 -1 49 12 1
1 8 -2 17 -5z m242 -51 c-7 -7 -26 7 -26 19 0 6 6 6 15 -2 9 -7 13 -15 11 -17z
m109 17 c3 -5 -1 -10 -9 -10 -9 0 -16 5 -16 10 0 6 4 10 9 10 6 0 13 -4 16
-10z m-290 -10 c3 -5 2 -10 -4 -10 -5 0 -13 5 -16 10 -3 6 -2 10 4 10 5 0 13
-4 16 -10z m929 2 c3 -5 20 -8 38 -7 18 1 41 -3 51 -10 18 -13 18 -14 -1 -24
-35 -19 -67 -12 -97 19 -22 23 -25 30 -12 30 8 0 18 -4 21 -8z m-2144 -12 c0
-5 -2 -10 -4 -10 -3 0 -8 5 -11 10 -3 6 -1 10 4 10 6 0 11 -4 11 -10z m2410
-10 c0 -5 -4 -10 -10 -10 -5 0 -10 5 -10 10 0 6 5 10 10 10 6 0 10 -4 10 -10z
m-2460 -20 c0 -5 -2 -10 -4 -10 -3 0 -8 5 -11 10 -3 6 -1 10 4 10 6 0 11 -4
11 -10z m80 -31 c0 -16 -4 -29 -10 -29 -5 0 -10 16 -10 36 0 21 4 33 10 29 6
-3 10 -19 10 -36z m195 1 c3 -5 1 -10 -4 -10 -6 0 -11 5 -11 10 0 6 2 10 4 10
3 0 8 -4 11 -10z m376 -2 c1 -7 1 -17 0 -22 -1 -5 4 -13 11 -17 20 -13 2 -21
-31 -14 -28 6 -44 25 -22 25 5 0 11 9 14 20 6 22 26 27 28 8z m-604 -75 c-3
-10 -5 -4 -5 12 0 17 2 24 5 18 2 -7 2 -21 0 -30z m33 -9 c0 -21 -4 -33 -10
-29 -5 3 -10 19 -10 36 0 16 5 29 10 29 6 0 10 -16 10 -36z m31 2 c5 3 8 -7 8
-23 -1 -21 -3 -23 -7 -8 l-5 20 -8 -20 c-6 -16 -8 -12 -8 15 1 19 3 29 6 22 2
-6 9 -10 14 -6z m39 -88 c0 -19 -2 -20 -10 -8 -13 19 -13 30 0 30 6 0 10 -10
10 -22z m2540 -138 c0 -5 -4 -10 -10 -10 -5 0 -10 5 -10 10 0 6 5 10 10 10 6
0 10 -4 10 -10z m89 -9 c7 -5 10 -14 6 -20 -5 -8 1 -10 19 -5 20 5 26 2 26
-10 0 -9 6 -13 14 -10 8 3 12 13 9 22 -4 14 -3 15 5 2 9 -12 14 -12 37 0 25
13 29 13 46 -9 10 -13 19 -30 19 -39 0 -9 10 -26 22 -39 26 -27 9 -31 -36 -8
-15 8 -35 15 -42 15 -8 0 -14 4 -14 10 0 5 -16 9 -35 8 -19 -1 -35 -4 -35 -8
0 -4 -14 -10 -31 -14 -27 -5 -37 -1 -65 28 -37 38 -39 43 -24 66 8 12 13 13
30 2 17 -10 20 -10 20 3 0 17 9 19 29 6z m-184 -11 c3 -5 1 -10 -4 -10 -6 0
-11 5 -11 10 0 6 2 10 4 10 3 0 8 -4 11 -10z m385 -10 c0 -5 -5 -10 -11 -10
-5 0 -7 5 -4 10 3 6 8 10 11 10 2 0 4 -4 4 -10z m-390 -20 c0 -5 -2 -10 -4
-10 -3 0 -8 5 -11 10 -3 6 -1 10 4 10 6 0 11 -4 11 -10z m58 -25 c7 -6 -22
-54 -35 -59 -26 -10 -54 13 -51 42 2 15 8 27 15 27 6 0 15 3 18 7 6 6 37 -4
53 -17z m-2163 5 c3 -5 1 -10 -4 -10 -6 0 -11 5 -11 10 0 6 2 10 4 10 3 0 8
-4 11 -10z m2213 -2 c7 -7 12 -20 12 -30 0 -10 7 -18 15 -18 17 0 18 -4 9 -49
-5 -22 -11 -30 -21 -27 -7 3 -28 -3 -46 -14 -17 -11 -41 -20 -53 -20 -11 0
-24 -3 -27 -7 -7 -7 51 -63 65 -63 13 0 9 -17 -8 -35 -11 -10 -19 -13 -23 -6
-8 13 -57 31 -65 24 -3 -3 -2 -11 3 -17 5 -6 10 -15 11 -21 1 -5 10 -9 21 -7
18 2 18 0 7 -12 -22 -21 -106 -15 -124 9 -13 18 -14 18 -14 1 0 -14 -6 -17
-29 -14 -22 3 -33 -2 -51 -24 -28 -35 -35 -35 -69 2 -30 33 -78 52 -111 43
-17 -5 -19 -8 -8 -15 9 -7 1 -8 -22 -4 -47 8 -56 20 -42 51 7 16 20 25 34 25
13 0 30 5 38 11 11 8 7 9 -17 4 -18 -4 -33 -4 -33 0 0 16 22 45 30 40 6 -3 7
1 4 10 -5 11 -2 14 10 9 9 -4 16 -1 16 6 0 7 7 10 15 6 8 -3 15 -1 15 4 0 6 9
10 19 10 11 0 23 9 26 20 7 21 25 28 25 9 0 -5 4 -7 10 -4 13 8 63 -42 55 -55
-3 -5 4 -14 15 -20 27 -14 23 4 -7 38 -23 25 -32 59 -13 47 6 -3 10 -2 10 3 0
4 16 14 35 22 23 9 31 16 23 21 -21 13 -1 21 22 9 17 -9 24 -9 30 -1 3 7 15 9
26 6 19 -7 19 -6 0 9 -11 9 -17 19 -13 22 7 7 37 -20 37 -33 0 -14 64 -49 83
-45 9 2 17 10 17 19 0 17 31 73 40 73 3 0 11 -5 18 -12z m-2733 -18 c0 -8 -11
-17 -25 -19 -14 -1 -28 -8 -32 -15 -5 -7 -8 -7 -8 3 0 21 31 52 49 49 9 -2 16
-10 16 -18z m2425 10 c8 -5 12 -11 10 -14 -3 -2 -14 2 -24 10 -22 15 -10 19
14 4z m70 -1 c0 -5 5 -7 10 -4 6 3 10 -1 10 -9 0 -14 -3 -14 -20 -4 -21 14
-27 28 -10 28 6 0 10 -5 10 -11z m-2060 -18 c0 -10 54 -7 84 5 16 6 18 4 13
-9 -6 -15 -4 -16 14 -6 11 6 23 8 27 5 3 -3 -1 -6 -9 -7 -8 0 -3 -5 11 -11 14
-6 29 -10 34 -9 5 1 16 -5 25 -12 9 -8 30 -14 48 -14 24 0 30 4 25 16 -3 10 3
7 15 -6 11 -13 25 -23 32 -23 7 0 5 -14 -6 -41 -12 -32 -13 -43 -3 -49 8 -5 9
-9 1 -14 -6 -4 -11 -2 -11 4 0 6 -5 8 -12 3 -7 -4 -24 -6 -37 -4 -15 2 -21 -1
-17 -8 4 -6 14 -11 22 -11 8 0 14 -5 14 -11 0 -5 -5 -7 -12 -3 -8 5 -9 2 -5
-10 5 -13 2 -15 -18 -12 -15 3 -25 0 -25 -7 -1 -7 -11 1 -24 17 -13 15 -25 23
-27 17 -3 -7 -23 -7 -71 1 -70 11 -76 16 -82 71 -1 12 -7 31 -13 42 -6 11 -13
37 -17 58 -6 30 -4 37 9 37 8 0 15 -4 15 -9z m1890 -31 c0 -5 -2 -10 -4 -10
-3 0 -8 5 -11 10 -3 6 -1 10 4 10 6 0 11 -4 11 -10z m80 0 c8 -5 11 -13 6 -17
-5 -4 -11 -2 -13 5 -3 6 -9 10 -14 6 -5 -3 -9 0 -9 5 0 13 10 14 30 1z m-55
-10 c3 -5 1 -10 -4 -10 -6 0 -11 5 -11 10 0 6 2 10 4 10 3 0 8 -4 11 -10z
m-2408 -53 c4 -30 2 -37 -10 -37 -23 0 -30 17 -22 57 8 43 23 33 32 -20z m933
23 c0 -5 -5 -10 -11 -10 -5 0 -7 5 -4 10 3 6 8 10 11 10 2 0 4 -4 4 -10z
m1310 0 c0 -5 -5 -10 -11 -10 -5 0 -7 5 -4 10 3 6 8 10 11 10 2 0 4 -4 4 -10z
m120 -10 c0 -5 -4 -10 -10 -10 -5 0 -10 5 -10 10 0 6 5 10 10 10 6 0 10 -4 10
-10z m-128 -18 c24 -16 25 -19 11 -37 -15 -20 -15 -20 -8 3 5 16 2 22 -9 22
-9 0 -16 5 -16 11 0 5 -4 7 -10 4 -5 -3 -10 -1 -10 4 0 15 11 14 42 -7z m93 8
c3 -5 1 -10 -4 -10 -6 0 -11 5 -11 10 0 6 2 10 4 10 3 0 8 -4 11 -10z m-1431
-27 c17 3 25 3 19 0 -18 -7 -16 -26 1 -20 7 3 19 0 26 -6 13 -12 12 -8 -6 38
-4 9 -1 15 7 15 7 0 10 -3 6 -6 -3 -4 0 -13 8 -20 14 -14 44 -9 57 10 4 6 10
7 15 2 4 -4 1 -12 -7 -16 -44 -27 -44 -27 -27 -44 10 -11 18 -12 22 -6 5 8 11
7 21 -1 8 -6 17 -9 21 -6 3 4 12 2 19 -4 9 -7 19 -7 33 0 24 13 34 14 27 3 -5
-8 28 -52 39 -52 2 0 16 5 31 10 21 8 29 7 39 -6 6 -10 17 -14 23 -10 6 3 13
2 16 -3 8 -12 -27 -20 -71 -16 -19 2 -31 0 -27 -5 5 -4 45 -11 89 -14 66 -6
83 -11 97 -29 10 -12 18 -30 18 -39 0 -29 -12 -33 -142 -42 -63 -4 -69 -3 -88
21 -11 14 -20 32 -20 39 0 23 -17 16 -24 -10 -5 -21 -11 -23 -48 -21 -24 1
-43 3 -43 4 0 1 -16 4 -35 7 -67 8 -78 14 -105 59 -14 25 -30 43 -36 40 -5 -4
-10 0 -11 7 0 7 -2 18 -2 23 -1 6 -5 16 -9 23 -5 6 -5 32 -2 57 7 40 9 43 23
29 10 -11 26 -14 46 -11z m-614 -3 c0 -5 6 -9 12 -7 7 1 14 -9 16 -22 2 -15 0
-21 -7 -17 -6 4 -9 1 -5 -7 3 -8 1 -18 -4 -21 -6 -3 -13 6 -17 21 -3 16 -11
31 -17 34 -6 4 -7 12 -4 18 9 14 26 14 26 1z m1875 0 c3 -5 1 -10 -4 -10 -6 0
-11 5 -11 10 0 6 2 10 4 10 3 0 8 -4 11 -10z m62 -14 c-3 -7 -1 -18 4 -23 15
-15 -1 -43 -25 -44 -16 -1 -17 -2 -3 -6 21 -5 22 -17 2 -33 -16 -13 -38 -4
-32 13 2 7 -2 17 -8 22 -7 6 -16 23 -19 38 -6 25 -5 28 14 22 12 -4 20 -2 20
5 0 7 8 9 20 5 11 -4 20 -2 20 4 0 6 3 11 6 11 3 0 4 -6 1 -14z m-1197 -16 c0
-5 -4 -10 -10 -10 -5 0 -10 5 -10 10 0 6 5 10 10 10 6 0 10 -4 10 -10z m1070
0 c0 -5 -4 -10 -10 -10 -5 0 -10 5 -10 10 0 6 5 10 10 10 6 0 10 -4 10 -10z
m-1030 -10 c0 -5 -4 -10 -10 -10 -5 0 -10 5 -10 10 0 6 5 10 10 10 6 0 10 -4
10 -10z m40 -10 c0 -5 -4 -10 -10 -10 -5 0 -10 5 -10 10 0 6 5 10 10 10 6 0
10 -4 10 -10z m-676 -16 c25 -24 20 -86 -9 -118 -39 -42 -60 -35 -55 21 1 15
-5 22 -22 25 -27 4 -38 49 -17 74 15 19 84 18 103 -2z m756 6 c0 -5 -5 -10
-11 -10 -5 0 -7 5 -4 10 3 6 8 10 11 10 2 0 4 -4 4 -10z m23 -26 c-22 -16 -33
-18 -33 -4 0 6 7 10 15 10 8 0 15 5 15 11 0 5 5 7 11 4 6 -5 4 -12 -8 -21z
m-403 -22 c0 -15 -2 -15 -10 -2 -13 20 -13 33 0 25 6 -3 10 -14 10 -23z m534
16 c5 -10 7 -10 12 0 3 6 10 12 16 12 6 0 5 -6 -2 -15 -10 -12 -10 -19 -2 -27
17 -17 15 -28 -3 -22 -8 4 -12 10 -9 15 3 5 1 9 -3 9 -5 0 -14 9 -21 20 -7 11
-8 20 -3 20 5 0 12 -6 15 -12z m65 -18 c8 12 13 10 31 -10 20 -23 21 -23 35
-4 8 10 15 14 15 8 0 -6 -7 -17 -15 -24 -21 -17 -19 -30 5 -30 38 0 14 -45
-33 -63 -14 -5 -16 -11 -8 -26 9 -16 7 -18 -15 -18 -18 0 -22 3 -14 12 5 6 7
15 3 18 -3 4 -1 7 6 7 8 0 6 11 -8 34 -27 43 -27 46 9 46 34 0 37 5 14 27 -13
14 -17 14 -25 2 -8 -12 -10 -12 -19 1 -5 8 -10 20 -10 25 0 6 5 3 10 -5 9 -13
11 -13 19 0z m951 -70 c0 -5 -5 -10 -11 -10 -5 0 -7 5 -4 10 3 6 8 10 11 10 2
0 4 -4 4 -10z m-1366 -63 c4 4 4 0 0 -10 -5 -14 -9 -15 -20 -6 -8 6 -14 16
-14 21 0 7 5 6 13 -1 8 -6 17 -8 21 -4z"/>
<path d="M4120 5015 c0 -15 4 -24 10 -20 6 3 10 12 10 20 0 8 -4 17 -10 20 -6
4 -10 -5 -10 -20z"/>
<path d="M4185 4640 c3 -6 -4 -14 -17 -19 -21 -8 -21 -10 -4 -16 11 -5 21 -3
27 6 12 19 11 39 -2 39 -5 0 -7 -5 -4 -10z"/>
<path d="M2720 3950 c0 -15 31 -33 40 -24 5 5 -1 14 -16 21 -13 6 -24 8 -24 3z"/>
<path d="M3350 3866 c0 -16 28 -42 36 -33 3 3 -4 15 -15 26 -14 14 -21 17 -21
7z"/>
<path d="M3198 3353 c7 -3 16 -2 19 1 4 3 -2 6 -13 5 -11 0 -14 -3 -6 -6z"/>
<path d="M3273 3325 c7 -13 14 -20 15 -14 5 14 -6 39 -17 39 -5 0 -4 -11 2
-25z"/>
<path d="M3162 3322 c-17 -12 -4 -44 17 -40 17 4 22 39 6 45 -5 1 -16 -1 -23
-5z"/>
<path d="M3271 3274 c0 -11 3 -14 6 -6 3 7 2 16 -1 19 -3 4 -6 -2 -5 -13z"/>
<path d="M3113 3143 c-16 -6 -17 -25 -1 -41 8 -8 17 -8 30 -1 14 8 16 14 8 29
-11 20 -16 22 -37 13z"/>
<path d="M3047 2998 c-7 -26 -8 -24 19 -32 29 -9 41 30 14 44 -25 14 -27 13
-33 -12z"/>
<path d="M3097 2910 c-3 -11 -1 -20 3 -20 5 0 15 -3 24 -6 11 -4 16 0 16 14 0
11 -7 23 -16 26 -21 8 -21 8 -27 -14z"/>
<path d="M3142 2843 c3 -17 22 -43 31 -43 3 0 7 9 10 20 3 13 -1 24 -13 30
-26 14 -31 13 -28 -7z"/>
<path d="M2960 2723 c0 -17 4 -20 22 -15 16 4 18 7 8 10 -8 3 -18 10 -22 16
-5 6 -8 2 -8 -11z"/>
<path d="M2960 2645 c0 -8 4 -15 9 -15 5 0 14 7 21 15 10 13 9 15 -9 15 -12 0
-21 -6 -21 -15z"/>
<path d="M2817 2573 c-12 -11 -8 -23 7 -23 8 0 16 7 20 15 5 15 -14 21 -27 8z"/>
<path d="M2920 2565 c0 -8 4 -15 9 -15 5 0 14 7 21 15 10 13 9 15 -9 15 -12 0
-21 -6 -21 -15z"/>
<path d="M2875 2480 c-3 -5 3 -10 14 -10 12 0 21 5 21 10 0 6 -6 10 -14 10 -8
0 -18 -4 -21 -10z"/>
<path d="M2985 3880 c-9 -14 13 -40 34 -39 10 0 11 2 4 6 -7 2 -13 11 -13 18
0 18 -17 28 -25 15z"/>
<path d="M3990 3108 c19 -6 66 -21 103 -34 38 -13 80 -24 95 -23 15 0 -22 16
-83 34 -60 19 -119 34 -130 33 -11 0 -4 -5 15 -10z"/>
<path d="M4320 3072 c24 -28 46 -50 49 -47 3 3 -17 27 -44 53 l-48 47 43 -53z"/>
<path d="M4350 3072 c0 -4 19 -26 42 -47 l41 -40 -37 48 c-39 47 -46 54 -46
39z"/>
<path d="M4259 3030 c24 -11 46 -18 48 -16 7 7 -54 36 -74 36 -10 0 2 -9 26
-20z"/>
<path d="M4411 2934 c14 -16 40 -50 58 -77 72 -107 87 -177 52 -253 -23 -51
-87 -124 -110 -125 -11 0 -12 -2 -3 -6 21 -8 58 23 103 87 25 36 48 59 55 56
17 -7 28 51 19 96 -14 68 -81 160 -158 220 l-42 32 26 -30z"/>
<path d="M4526 2505 c-4 -15 -14 -34 -21 -42 -8 -8 -15 -26 -15 -40 l0 -26 20
26 c11 14 20 35 20 47 0 11 5 18 10 15 12 -8 13 15 1 33 -6 10 -10 7 -15 -13z"/>
<path d="M2435 2390 c-3 -5 -1 -10 4 -10 6 0 11 5 11 10 0 6 -2 10 -4 10 -3 0
-8 -4 -11 -10z"/>
<path d="M4460 2354 c0 -27 4 -43 10 -39 6 3 10 24 10 46 0 21 -4 39 -10 39
-5 0 -10 -21 -10 -46z"/>
<path d="M3131 2364 c0 -11 3 -14 6 -6 3 7 2 16 -1 19 -3 4 -6 -2 -5 -13z"/>
<path d="M3756 2371 c-4 -5 0 -11 6 -14 10 -3 10 -7 0 -19 -10 -13 -10 -17 0
-21 7 -3 -2 -10 -20 -17 -18 -7 -31 -14 -29 -16 2 -2 28 5 58 15 33 12 45 20
32 20 -21 1 -34 21 -14 21 5 0 7 9 4 20 -5 21 -27 27 -37 11z"/>
<path d="M4443 2345 c0 -22 2 -30 4 -17 2 12 2 30 0 40 -3 9 -5 -1 -4 -23z"/>
<path d="M2315 2360 c-3 -6 1 -7 9 -4 18 7 21 14 7 14 -6 0 -13 -4 -16 -10z"/>
<path d="M3142 2325 c0 -11 4 -33 8 -50 7 -27 8 -27 8 -5 0 14 -4 36 -8 50 -6
20 -8 21 -8 5z"/>
<path d="M3610 2306 c0 -8 -20 -19 -47 -27 l-48 -13 34 -4 c19 -2 37 2 41 8 7
11 40 4 40 -9 -1 -3 -42 -26 -92 -50 l-92 -44 -18 23 c-23 28 -23 47 0 53 9 3
-1 5 -22 6 l-40 1 22 -20 c12 -12 22 -25 22 -30 0 -4 3 -15 6 -23 3 -9 -3 -17
-18 -22 -35 -12 -201 -14 -215 -3 -8 6 -11 4 -9 -9 2 -14 11 -17 42 -14 79 6
87 6 92 -8 3 -10 0 -12 -12 -8 -9 4 -16 3 -16 -2 0 -4 -24 -13 -52 -19 -48
-10 -87 -9 -158 1 -14 2 -35 5 -47 5 -18 2 -23 8 -23 27 0 23 -2 24 -20 15
-17 -9 -20 -8 -20 9 0 11 -4 22 -9 26 -6 3 -7 -9 -4 -31 l6 -37 -34 6 c-19 3
-54 10 -78 16 -24 7 -51 10 -60 8 -9 -2 20 -11 64 -21 44 -9 94 -23 110 -29
18 -7 82 -12 160 -12 121 1 137 3 224 34 89 31 361 155 361 164 0 2 -12 2 -27
-1 -21 -4 -25 -2 -20 12 4 10 1 16 -8 16 -8 0 -15 5 -15 10 0 6 -4 10 -10 10
-5 0 -10 -6 -10 -14z"/>
<path d="M4422 2295 c0 -16 2 -22 5 -12 2 9 2 23 0 30 -3 6 -5 -1 -5 -18z"/>
<path d="M2463 2291 c-25 -21 -16 -43 15 -34 17 4 20 8 11 19 -6 7 -8 18 -4
24 9 14 3 12 -22 -9z"/>
<path d="M4397 2293 c-4 -3 -7 -13 -7 -22 1 -13 3 -13 11 2 11 19 8 33 -4 20z"/>
<path d="M2580 2250 c0 -5 12 -10 28 -9 24 0 25 1 7 9 -27 12 -35 12 -35 0z"/>
<path d="M3455 2250 c-7 -12 2 -12 30 0 19 8 19 9 -2 9 -12 1 -25 -3 -28 -9z"/>
<path d="M2425 2235 c17 -8 37 -14 45 -14 8 0 2 7 -15 14 -16 8 -37 14 -45 14
-8 0 -1 -7 15 -14z"/>
<path d="M2666 2220 c-7 -8 -11 -21 -8 -29 3 -11 -2 -12 -24 -7 -53 13 -100
17 -84 7 15 -8 189 -51 206 -51 5 1 -6 7 -24 15 l-34 15 22 30 c12 16 20 31
18 31 -19 8 -61 2 -72 -11z"/>
<path d="M3157 2227 c-3 -7 -2 -19 3 -26 5 -10 8 -9 13 2 3 7 2 19 -3 26 -5
10 -8 9 -13 -2z"/>
<path d="M3263 2233 c-50 -6 -39 -19 12 -15 25 2 42 8 39 13 -3 5 -8 8 -12 7
-4 0 -22 -3 -39 -5z"/>
<path d="M2800 2220 c0 -5 5 -10 10 -10 6 0 10 5 10 10 0 6 -4 10 -10 10 -5 0
-10 -4 -10 -10z"/>
<path d="M2935 2220 c-3 -6 1 -13 10 -16 19 -8 30 0 20 15 -8 14 -22 14 -30 1z"/>
<path d="M2843 2213 c9 -2 25 -2 35 0 9 3 1 5 -18 5 -19 0 -27 -2 -17 -5z"/>
<path d="M3071 2211 c-10 -7 -7 -9 12 -8 14 1 23 5 20 10 -6 9 -15 9 -32 -2z"/>
<path d="M3068 2148 c5 -5 16 -8 23 -6 8 3 3 7 -10 11 -17 4 -21 3 -13 -5z"/>
<path d="M2475 2730 c3 -5 13 -10 21 -10 8 0 14 5 14 10 0 6 -9 10 -21 10 -11
0 -17 -4 -14 -10z"/>
<path d="M3255 2680 c-4 -7 0 -19 9 -28 15 -15 18 -15 26 -2 5 8 8 20 7 25 -5
15 -34 18 -42 5z"/>
<path d="M3370 2676 c0 -7 6 -19 14 -25 11 -9 15 -7 19 8 3 11 2 22 -1 25 -11
11 -32 6 -32 -8z"/>
<path d="M3310 2506 c0 -7 6 -19 14 -25 11 -9 15 -8 20 5 3 9 4 20 0 25 -8 14
-34 11 -34 -5z"/>
<path d="M3422 2503 c5 -25 28 -28 28 -4 0 12 -6 21 -16 21 -9 0 -14 -7 -12
-17z"/>
<path d="M2112 2490 c0 -14 2 -19 5 -12 2 6 2 18 0 25 -3 6 -5 1 -5 -13z"/>
<path d="M2026 1841 c5 -5 20 -12 34 -16 22 -7 23 -6 11 9 -7 9 -23 16 -34 16
-13 0 -17 -4 -11 -9z"/>
<path d="M2100 1809 c0 -5 5 -7 10 -4 6 3 10 8 10 11 0 2 -4 4 -10 4 -5 0 -10
-5 -10 -11z"/>
<path d="M2515 1720 c4 -6 15 -8 25 -5 12 4 27 -2 39 -14 13 -13 21 -15 24 -8
9 24 1 30 -46 34 -34 3 -47 1 -42 -7z"/>
<path d="M1845 1717 c-4 -10 -5 -21 -1 -24 10 -10 18 4 13 24 -4 17 -4 17 -12
0z"/>
<path d="M2911 5960 c0 -8 4 -24 9 -35 5 -13 9 -14 9 -5 0 8 -4 24 -9 35 -5
13 -9 14 -9 5z"/>
<path d="M2797 5931 c3 -10 18 -34 35 -52 16 -19 27 -26 24 -17 -2 9 1 22 9
28 11 9 11 14 -5 30 -11 11 -26 17 -35 14 -8 -4 -15 -1 -15 5 0 6 -4 11 -9 11
-5 0 -7 -9 -4 -19z"/>
<path d="M2880 5930 c0 -5 5 -10 11 -10 5 0 7 5 4 10 -3 6 -8 10 -11 10 -2 0
-4 -4 -4 -10z"/>
<path d="M2685 5921 c-11 -5 -29 -19 -40 -31 l-20 -22 35 21 c19 11 43 21 53
21 9 0 17 5 17 10 0 12 -17 12 -45 1z"/>
<path d="M3420 5891 c-14 -3 -44 -16 -68 -29 -36 -19 -56 -22 -135 -21 -51 1
-103 -3 -117 -9 -31 -13 -15 -15 27 -3 18 5 35 6 38 2 9 -15 159 0 190 20 17
10 62 23 100 29 38 6 71 13 74 16 6 6 -80 3 -109 -5z"/>
<path d="M2559 5838 c0 -24 -1 -58 -1 -76 l-1 -33 -18 28 c-17 26 -19 26 -19
6 0 -14 10 -26 29 -34 16 -7 27 -18 24 -25 -5 -13 23 -44 39 -44 6 0 4 8 -6
18 -9 11 -16 34 -16 53 2 58 -12 149 -22 149 -5 0 -9 -19 -9 -42z"/>
<path d="M2681 5834 c-29 -36 -27 -48 6 -39 36 9 37 10 24 33 -6 11 -7 22 -4
26 3 3 4 6 0 6 -3 0 -15 -12 -26 -26z"/>
<path d="M2736 5846 c3 -9 11 -16 16 -16 13 0 5 23 -10 28 -7 2 -10 -2 -6 -12z"/>
<path d="M3425 5800 c-3 -5 -2 -10 4 -10 5 0 13 5 16 10 3 6 2 10 -4 10 -5 0
-13 -4 -16 -10z"/>
<path d="M2816 5791 c-4 -5 3 -7 14 -4 23 6 26 13 6 13 -8 0 -17 -4 -20 -9z"/>
<path d="M2853 5757 c-29 -17 -53 -34 -53 -38 0 -7 66 13 76 24 4 4 12 7 18 7
6 -1 0 -10 -13 -20 -16 -14 -19 -20 -8 -20 19 0 32 18 41 53 8 33 4 33 -61 -6z"/>
<path d="M2031 5684 c0 -11 3 -14 6 -6 3 7 2 16 -1 19 -3 4 -6 -2 -5 -13z"/>
<path d="M3225 5610 c-8 -13 5 -13 25 0 13 8 13 10 -2 10 -9 0 -20 -4 -23 -10z"/>
<path d="M1830 5380 c-8 -5 -10 -10 -5 -10 6 0 17 5 25 10 8 5 11 10 5 10 -5
0 -17 -5 -25 -10z"/>
<path d="M3230 5374 l-25 -15 25 5 c14 3 28 6 33 6 4 0 7 5 7 10 0 14 -10 12
-40 -6z"/>
<path d="M1759 5333 c-13 -16 -12 -17 4 -4 16 13 21 21 13 21 -2 0 -10 -8 -17
-17z"/>
<path d="M2901 5304 c0 -11 3 -14 6 -6 3 7 2 16 -1 19 -3 4 -6 -2 -5 -13z"/>
<path d="M2951 5294 c0 -11 3 -14 6 -6 3 7 2 16 -1 19 -3 4 -6 -2 -5 -13z"/>
<path d="M2796 5284 c-7 -18 0 -34 15 -34 5 0 9 11 9 25 0 28 -15 34 -24 9z"/>
<path d="M1675 5199 c4 -12 10 -46 14 -75 8 -54 7 -55 -28 -83 -20 -15 -64
-47 -98 -70 -35 -23 -63 -44 -63 -46 0 -2 44 24 98 59 53 35 99 62 101 60 2
-2 -8 -22 -23 -44 -14 -22 -24 -40 -22 -40 3 0 24 27 46 60 22 33 34 57 26 54
-21 -8 -32 41 -18 78 11 31 6 62 -9 52 -5 -3 -9 0 -9 5 0 6 -5 11 -11 11 -6 0
-8 -9 -4 -21z"/>
<path d="M1770 5148 c-36 -49 -39 -70 -6 -39 24 22 24 22 30 3 4 -11 13 -26
21 -32 13 -11 13 -9 0 16 -9 18 -13 41 -9 62 4 17 4 32 0 32 -3 0 -19 -19 -36
-42z"/>
<path d="M1874 5155 c-4 -8 -16 -15 -27 -15 -20 0 -20 0 -2 -14 16 -12 17 -16
6 -30 -18 -22 -5 -20 17 2 9 10 18 30 19 45 2 30 -4 35 -13 12z"/>
<path d="M1941 5047 c-1 -23 -129 -211 -154 -227 -15 -9 -24 -8 -43 5 -13 8
-24 11 -24 5 0 -5 5 -10 10 -10 6 0 10 -10 10 -23 0 -18 5 -23 21 -23 16 1 22
-6 25 -26 1 -16 5 -37 9 -48 5 -15 3 -18 -9 -14 -8 3 -17 13 -19 22 -3 12 -6
8 -12 -12 -5 -19 -4 -36 4 -48 17 -27 6 -34 -29 -21 -27 10 -30 9 -30 -8 0
-12 15 -26 40 -39 39 -20 40 -20 40 -1 0 11 6 22 13 24 10 4 10 6 0 6 -7 1
-13 6 -13 12 0 7 10 9 24 5 20 -5 25 -2 28 16 2 15 13 24 38 31 40 10 50 21
50 59 0 15 7 53 15 84 14 52 13 59 -2 76 -15 17 -15 18 3 18 15 1 13 4 -8 16
-16 8 -28 17 -28 20 0 2 12 22 26 44 14 21 24 47 21 57 -4 17 -5 17 -6 0z
m-43 -155 c2 -7 -6 -12 -17 -12 -21 0 -27 11 -14 24 9 9 26 2 31 -12z m32 -21
c0 -12 -20 -25 -27 -18 -7 7 6 27 18 27 5 0 9 -4 9 -9z m-60 -122 c0 -8 6 -7
17 2 15 13 16 12 11 -8 -4 -13 -2 -23 4 -23 6 0 5 -6 -2 -15 -7 -8 -16 -15
-20 -15 -11 0 -39 57 -32 64 9 10 22 7 22 -5z m-50 -89 c0 -5 -4 -10 -10 -10
-5 0 -10 5 -10 10 0 6 5 10 10 10 6 0 10 -4 10 -10z"/>
<path d="M1806 5013 c-3 -4 -6 -12 -6 -20 0 -14 36 -18 44 -5 6 10 -30 33 -38
25z"/>
<path d="M1634 4918 c3 -11 0 -15 -7 -12 -7 2 -13 -5 -13 -19 -2 -26 22 -32
42 -12 9 9 7 17 -8 36 -12 15 -18 18 -14 7z"/>
<path d="M1981 4844 c0 -11 3 -14 6 -6 3 7 2 16 -1 19 -3 4 -6 -2 -5 -13z"/>
<path d="M2937 4789 c-4 -15 -2 -19 10 -15 8 3 17 6 19 6 2 0 4 7 4 15 0 23
-27 18 -33 -6z"/>
<path d="M3165 4780 c-4 -6 -1 -18 6 -26 11 -14 13 -14 21 0 15 26 -12 51 -27
26z"/>
<path d="M1605 4755 c-22 -14 -36 -25 -31 -25 10 0 76 40 76 46 0 6 -2 5 -45
-21z"/>
<path d="M3046 4728 c-22 -31 -20 -45 7 -45 20 0 22 4 19 33 -5 40 -6 41 -26
12z"/>
<path d="M1685 4680 c-17 -7 -17 -9 -2 -9 9 -1 20 -1 24 -2 4 0 9 4 11 10 4
13 -5 13 -33 1z"/>
<path d="M1554 4666 c-3 -7 -4 -33 -1 -57 l4 -44 1 52 c1 30 7 53 15 56 9 4 9
6 -1 6 -7 1 -15 -5 -18 -13z"/>
<path d="M2817 4654 c-4 -4 -7 -16 -7 -26 0 -16 3 -17 21 -8 11 6 19 16 16 23
-4 14 -21 20 -30 11z"/>
<path d="M1596 4641 c-7 -11 3 -41 14 -41 11 0 21 30 14 41 -3 5 -9 9 -14 9
-5 0 -11 -4 -14 -9z"/>
<path d="M1882 4637 c-9 -11 -10 -17 -2 -22 15 -9 23 -1 18 21 -3 15 -4 16
-16 1z"/>
<path d="M2980 4614 c0 -9 7 -14 17 -12 25 5 28 28 4 28 -12 0 -21 -6 -21 -16z"/>
<path d="M1664 4596 c-7 -20 2 -46 16 -46 13 0 13 47 0 55 -6 3 -13 -1 -16 -9z"/>
<path d="M2730 4603 c-50 -18 -78 -37 -93 -62 -11 -18 -32 -34 -55 -41 -20 -7
-55 -26 -77 -43 -21 -17 -57 -34 -80 -38 -38 -6 -38 -7 -7 -8 44 -1 63 -38 38
-76 -33 -50 -103 -15 -90 44 4 20 3 23 -5 11 -17 -24 -13 -49 14 -75 32 -32
50 -31 86 4 36 36 90 55 138 48 25 -4 52 1 91 18 46 20 56 21 60 9 4 -10 13 1
28 31 24 49 32 52 76 30 16 -9 30 -14 31 -13 1 2 7 18 13 36 9 27 8 32 -4 32
-18 0 -91 49 -118 79 -20 22 -22 23 -46 14z"/>
<path d="M2917 4584 c-4 -4 -7 -19 -6 -33 l0 -26 10 24 c10 26 8 47 -4 35z"/>
<path d="M2960 4535 c0 -8 4 -15 9 -15 5 0 14 7 21 15 10 13 9 15 -9 15 -12 0
-21 -6 -21 -15z"/>
<path d="M1604 4527 c-3 -9 -1 -24 4 -33 9 -16 10 -16 21 3 8 16 7 24 -4 33
-12 10 -16 9 -21 -3z"/>
<path d="M1712 4528 c-8 -8 -9 -15 -1 -25 16 -19 29 -16 29 6 0 25 -13 34 -28
19z"/>
<path d="M1769 4460 l-4 -85 -40 -6 c-22 -3 -32 -7 -23 -8 10 0 19 -13 23 -31
l7 -31 21 28 c12 16 30 37 40 48 16 18 18 67 3 82 -3 3 1 18 10 34 14 27 13
29 -5 29 -11 0 -21 6 -24 13 -3 6 -7 -26 -8 -73z"/>
<path d="M3063 4528 c2 -7 10 -13 17 -13 7 0 15 6 18 13 2 7 -5 12 -18 12 -13
0 -20 -5 -17 -12z"/>
<path d="M1558 4452 c2 -42 7 -80 10 -84 4 -4 6 28 4 70 -2 42 -7 80 -10 84
-4 4 -6 -28 -4 -70z"/>
<path d="M1663 4479 c-14 -14 -6 -39 12 -39 15 0 24 19 17 38 -5 15 -15 15
-29 1z"/>
<path d="M1922 4460 c0 -14 2 -19 5 -12 2 6 2 18 0 25 -3 6 -5 1 -5 -13z"/>
<path d="M2932 4454 c4 -21 22 -23 26 -1 2 10 -3 17 -13 17 -10 0 -15 -6 -13
-16z"/>
<path d="M1867 4445 c-7 -16 8 -29 23 -20 10 6 2 35 -10 35 -4 0 -10 -7 -13
-15z"/>
<path d="M1712 4438 c-8 -8 -9 -15 -1 -25 16 -19 29 -16 29 6 0 25 -13 34 -28
19z"/>
<path d="M3040 4435 c0 -17 2 -18 24 -9 23 9 20 24 -4 24 -11 0 -20 -7 -20
-15z"/>
<path d="M1605 4430 c-4 -6 -1 -18 6 -26 11 -14 13 -14 21 0 15 26 -12 51 -27
26z"/>
<path d="M1931 4414 c0 -11 3 -14 6 -6 3 7 2 16 -1 19 -3 4 -6 -2 -5 -13z"/>
<path d="M4217 4390 c9 -11 19 -17 21 -15 6 6 -18 35 -29 35 -5 0 -1 -9 8 -20z"/>
<path d="M2805 4391 c-3 -5 -1 -12 5 -16 12 -7 30 2 30 16 0 12 -27 12 -35 0z"/>
<path d="M1941 4364 c0 -11 3 -14 6 -6 3 7 2 16 -1 19 -3 4 -6 -2 -5 -13z"/>
<path d="M4190 4362 c0 -13 -6 -22 -15 -22 -8 0 -15 -5 -15 -11 0 -16 31 -7
44 13 8 13 7 21 -2 30 -9 9 -12 7 -12 -10z"/>
<path d="M2380 4358 c0 -23 27 -42 47 -33 17 7 16 8 -2 12 -11 3 -26 12 -32
21 -12 14 -13 14 -13 0z"/>
<path d="M1895 4350 c-7 -12 2 -30 16 -30 12 0 12 27 0 35 -5 3 -12 1 -16 -5z"/>
<path d="M1786 4322 c-3 -6 -1 -14 5 -17 15 -10 25 3 12 16 -7 7 -13 7 -17 1z"/>
<path d="M2773 4312 c-7 -4 -9 -13 -4 -21 10 -16 31 -6 31 15 0 16 -9 18 -27
6z"/>
<path d="M1916 4263 c-12 -12 -6 -33 9 -33 8 0 15 6 15 14 0 17 -14 28 -24 19z"/>
<path d="M2800 4229 c0 -24 23 -21 28 4 2 10 -3 17 -12 17 -10 0 -16 -9 -16
-21z"/>
<path d="M1812 4226 c1 -10 8 -17 13 -17 15 1 12 24 -3 29 -9 3 -13 -2 -10
-12z"/>
<path d="M1971 4223 c-1 -14 -9 -23 -23 -26 l-23 -4 23 -2 c24 -1 38 19 29 41
-3 7 -6 3 -6 -9z"/>
<path d="M2733 4223 c-18 -6 -16 -33 1 -33 19 0 31 19 20 30 -5 4 -15 5 -21 3z"/>
<path d="M2670 4201 c0 -6 4 -13 10 -16 6 -3 7 1 4 9 -7 18 -14 21 -14 7z"/>
<path d="M1888 4183 c6 -2 18 -2 25 0 6 3 1 5 -13 5 -14 0 -19 -2 -12 -5z"/>
<path d="M1838 4173 c7 -3 16 -2 19 1 4 3 -2 6 -13 5 -11 0 -14 -3 -6 -6z"/>
<path d="M1513 4153 c9 -2 25 -2 35 0 9 3 1 5 -18 5 -19 0 -27 -2 -17 -5z"/>
<path d="M1524 4107 c-8 -21 2 -35 16 -21 5 5 6 15 0 24 -8 12 -10 12 -16 -3z"/>
<path d="M1693 4085 c0 -22 2 -30 4 -17 2 12 2 30 0 40 -3 9 -5 -1 -4 -23z"/>
<path d="M1645 4100 c-4 -6 -3 -16 3 -22 6 -6 12 -6 17 2 4 6 3 16 -3 22 -6 6
-12 6 -17 -2z"/>
<path d="M1570 4050 c0 -13 5 -20 13 -17 6 2 12 10 12 17 0 7 -6 15 -12 18 -8
2 -13 -5 -13 -18z"/>
<path d="M2630 4049 c0 -11 5 -17 10 -14 6 3 10 13 10 21 0 8 -4 14 -10 14 -5
0 -10 -9 -10 -21z"/>
<path d="M1681 4024 c0 -11 3 -14 6 -6 3 7 2 16 -1 19 -3 4 -6 -2 -5 -13z"/>
<path d="M1515 4020 c-4 -6 -3 -16 3 -22 6 -6 12 -6 17 2 4 6 3 16 -3 22 -6 6
-12 6 -17 -2z"/>
<path d="M1630 4009 c0 -18 2 -19 15 -9 15 12 12 30 -6 30 -5 0 -9 -10 -9 -21z"/>
<path d="M4000 3959 c0 -7 -11 -9 -26 -6 -22 4 -24 3 -12 -10 17 -16 48 -8 48
13 0 8 -2 14 -5 14 -3 0 -5 -5 -5 -11z"/>
<path d="M1504 3936 c-8 -22 3 -33 18 -18 9 9 9 15 0 24 -9 9 -13 7 -18 -6z"/>
<path d="M1615 3940 c-8 -13 4 -32 16 -25 12 8 12 35 0 35 -6 0 -13 -4 -16
-10z"/>
<path d="M2445 3940 c-3 -6 1 -7 9 -4 18 7 21 14 7 14 -6 0 -13 -4 -16 -10z"/>
<path d="M1544 3899 c-10 -17 13 -36 27 -22 12 12 4 33 -11 33 -5 0 -12 -5
-16 -11z"/>
<path d="M3973 3903 c9 -2 23 -2 30 0 6 3 -1 5 -18 5 -16 0 -22 -2 -12 -5z"/>
<path d="M2566 3884 c-15 -15 -20 -29 -17 -48 1 -4 -3 -14 -9 -21 -8 -10 -2
-18 25 -35 19 -12 32 -26 29 -32 -3 -5 3 -4 14 3 20 13 20 14 -9 26 -28 11
-29 15 -23 55 3 24 7 49 10 56 5 16 -1 15 -20 -4z"/>
<path d="M1605 3870 c-8 -13 4 -32 16 -25 12 8 12 35 0 35 -6 0 -13 -4 -16
-10z"/>
<path d="M1490 3850 c0 -13 5 -20 13 -17 6 2 12 10 12 17 0 7 -6 15 -12 18 -8
2 -13 -5 -13 -18z"/>
<path d="M1651 3828 c-1 -11 -14 -21 -33 -27 -31 -9 -31 -9 -7 -10 29 -1 54
21 46 41 -4 8 -6 7 -6 -4z"/>
<path d="M1483 3793 c15 -2 39 -2 55 0 15 2 2 4 -28 4 -30 0 -43 -2 -27 -4z"/>
<path d="M2376 3785 c-9 -26 -7 -32 5 -12 6 10 9 21 6 23 -2 3 -7 -2 -11 -11z"/>
<path d="M2726 3784 c-4 -10 -1 -14 6 -12 15 5 23 28 10 28 -5 0 -13 -7 -16
-16z"/>
<path d="M2489 3780 c-15 -9 -20 -58 -6 -52 4 1 14 5 22 8 16 6 21 39 7 48 -4
2 -14 0 -23 -4z"/>
<path d="M1773 3748 c-13 -16 -34 -80 -29 -85 2 -2 10 15 18 39 l15 43 98 3
98 3 -6 -38 c-5 -29 -4 -34 4 -20 6 10 9 28 7 40 -3 21 -8 22 -99 25 -69 2
-99 -1 -106 -10z"/>
<path d="M2356 3735 c-9 -26 -7 -32 5 -12 6 10 9 21 6 23 -2 3 -7 -2 -11 -11z"/>
<path d="M1836 3692 c-9 -14 12 -35 28 -29 23 9 20 37 -3 37 -11 0 -22 -4 -25
-8z"/>
<path d="M2336 3683 c-4 -9 -3 -20 1 -24 4 -4 9 3 9 17 2 28 -1 31 -10 7z"/>
<path d="M1810 3584 c0 -9 7 -14 17 -12 25 5 28 28 4 28 -12 0 -21 -6 -21 -16z"/>
<path d="M2415 3520 c-3 -5 -2 -10 4 -10 6 0 8 -6 5 -13 -2 -7 4 -22 16 -32
11 -10 20 -25 20 -34 0 -14 2 -14 10 -1 14 22 12 40 -4 40 -7 0 -16 14 -19 30
-7 30 -20 39 -32 20z"/>
<path d="M1782 3493 c2 -10 10 -18 18 -18 8 0 16 8 18 18 2 12 -3 17 -18 17
-15 0 -20 -5 -18 -17z"/>
<path d="M2708 3458 c-10 -9 -13 -21 -9 -36 l6 -24 18 20 c24 26 11 60 -15 40z"/>
<path d="M1860 3443 c-24 -12 -24 -13 -3 -13 12 0 25 5 28 11 11 16 2 17 -25
2z"/>
<path d="M1945 3360 c-9 -14 1 -68 36 -213 30 -127 34 -137 52 -137 8 0 8 3
-1 9 -10 6 -82 296 -82 331 0 5 10 11 23 13 22 4 22 4 0 6 -12 0 -25 -4 -28
-9z"/>
<path d="M2412 3345 c0 -16 2 -22 5 -12 2 9 2 23 0 30 -3 6 -5 -1 -5 -18z"/>
<path d="M2018 3353 c12 -2 32 -2 45 0 12 2 2 4 -23 4 -25 0 -35 -2 -22 -4z"/>
<path d="M2664 3346 c-3 -8 -2 -21 3 -30 7 -12 11 -12 27 -1 11 8 16 21 13 30
-8 19 -36 20 -43 1z"/>
<path d="M2113 3343 c34 -5 39 -16 68 -142 12 -57 24 -100 26 -94 7 19 -46
226 -59 234 -7 5 -24 8 -38 7 -24 -1 -24 -1 3 -5z"/>
<path d="M2060 3281 c0 -11 5 -23 11 -27 16 -9 30 18 17 33 -15 19 -28 16 -28
-6z"/>
<path d="M2424 3235 c1 -12 9 -21 21 -22 14 -1 15 0 3 3 -9 3 -19 13 -21 22
-3 12 -4 11 -3 -3z"/>
<path d="M1697 3213 c-4 -3 -7 -11 -7 -17 0 -7 3 -7 8 1 4 7 37 14 72 16 l65
3 -66 2 c-36 1 -69 -1 -72 -5z"/>
<path d="M1894 3194 c10 -10 16 -33 16 -62 0 -26 3 -98 7 -159 6 -112 6 -113
-18 -123 l-24 -10 25 3 25 2 -2 168 c-2 163 -8 197 -35 197 -5 0 -2 -7 6 -16z"/>
<path d="M1694 3027 c2 -124 6 -161 17 -168 8 -5 48 -8 89 -7 l75 2 -75 3
c-41 2 -79 8 -84 13 -5 5 -13 78 -17 162 l-7 153 2 -158z"/>
<path d="M2082 3164 c2 -11 11 -20 22 -22 13 -3 17 1 14 14 -2 11 -11 20 -22
22 -13 3 -17 -1 -14 -14z"/>
<path d="M1745 3130 c-8 -13 3 -30 20 -30 14 0 27 24 18 34 -10 9 -31 7 -38
-4z"/>
<path d="M1830 3131 c0 -14 28 -33 40 -26 20 12 10 35 -15 35 -14 0 -25 -4
-25 -9z"/>
<path d="M2105 3071 c-8 -15 3 -31 21 -31 9 0 14 7 12 17 -4 20 -24 28 -33 14z"/>
<path d="M1794 3049 c-9 -15 12 -33 30 -26 9 4 16 13 16 22 0 17 -35 21 -46 4z"/>
<path d="M2218 3020 c-3 -16 -1 -30 4 -30 4 0 8 14 8 30 0 17 -2 30 -4 30 -2
0 -6 -13 -8 -30z"/>
<path d="M2063 3003 c9 -2 25 -2 35 0 9 3 1 5 -18 5 -19 0 -27 -2 -17 -5z"/>
<path d="M2158 2993 c6 -2 18 -2 25 0 6 3 1 5 -13 5 -14 0 -19 -2 -12 -5z"/>
<path d="M1844 2939 c-7 -12 15 -41 27 -33 14 8 11 31 -6 37 -8 4 -17 2 -21
-4z"/>
<path d="M1742 2928 c7 -19 38 -22 38 -4 0 10 -9 16 -21 16 -12 0 -19 -5 -17
-12z"/>
<path d="M1177 1741 c-17 -6 -17 -8 -3 -20 13 -11 16 -11 16 2 0 8 6 18 13 20
6 3 8 5 2 6 -5 0 -18 -4 -28 -8z"/>
<path d="M1275 1703 c4 -10 10 -30 13 -45 4 -27 12 -34 24 -22 6 6 -29 84 -38
84 -4 0 -3 -8 1 -17z"/>
<path d="M3450 1682 c0 -4 5 -13 12 -20 6 -6 8 -15 3 -19 -4 -5 -10 -2 -12 5
-3 6 -11 12 -19 12 -9 0 -13 -3 -11 -7 3 -5 -8 -8 -23 -9 -49 -2 -62 -11 -50
-34 9 -16 8 -20 -6 -20 -13 0 -14 -3 -4 -15 8 -9 9 -15 2 -15 -6 0 -14 5 -17
11 -4 5 -18 14 -31 19 -14 6 -24 18 -24 30 0 11 -4 20 -10 20 -5 0 -10 -9 -10
-20 0 -17 -5 -20 -34 -17 -18 2 -44 14 -57 26 -13 12 -29 19 -36 17 -7 -3 -14
-2 -17 2 -6 9 -73 8 -82 -1 -4 -4 4 -7 17 -7 30 0 43 -9 58 -37 7 -13 21 -23
34 -23 12 0 28 -4 36 -9 10 -6 22 -5 35 5 11 8 28 14 37 14 29 0 78 -49 85
-84 5 -27 10 -33 25 -29 26 7 76 -15 94 -41 8 -11 15 -15 15 -9 0 6 -7 16 -16
24 -22 18 -44 64 -44 92 0 34 35 74 70 82 17 4 30 12 30 18 -1 14 -50 52 -50
39z"/>
<path d="M1380 1610 c0 -3 7 -25 14 -50 13 -41 15 -42 15 -14 1 16 -6 39 -14
50 -8 10 -14 17 -15 14z"/>
<path d="M4360 1600 c-10 -6 -3 -7 23 -3 30 5 45 1 69 -17 l31 -23 -19 26
c-14 20 -28 26 -54 27 -19 0 -42 -5 -50 -10z"/>
<path d="M4569 1588 c-7 -13 -19 -28 -27 -34 -19 -14 -8 -33 16 -29 9 2 20 4
24 4 3 1 4 11 0 23 -3 13 -1 19 5 15 6 -4 8 3 5 18 -5 31 -8 31 -23 3z"/>
<path d="M1588 1548 c12 -13 22 -30 22 -38 0 -7 3 -11 6 -7 11 11 -7 47 -29
58 l-22 12 23 -25z"/>
<path d="M2275 1560 c28 -12 37 -12 30 0 -3 6 -16 10 -28 9 -21 0 -21 -1 -2
-9z"/>
<path d="M3580 1514 c0 -10 -6 -14 -15 -10 -9 3 -19 -3 -25 -14 -8 -15 -8 -20
3 -20 7 0 18 5 25 12 6 6 35 12 64 12 l52 0 -39 18 c-50 22 -65 22 -65 2z"/>
<path d="M3826 1472 c12 -9 29 -30 37 -47 10 -19 16 -24 17 -13 0 20 -47 78
-63 78 -7 0 -2 -8 9 -18z"/>
<path d="M1671 1451 c13 -11 26 -17 28 -15 5 5 -30 33 -43 34 -4 0 2 -9 15
-19z"/>
<path d="M2902 1453 c-12 -22 -5 -43 14 -43 8 0 14 10 14 24 0 31 -16 42 -28
19z"/>
<path d="M3007 1409 c4 -13 9 -17 15 -11 11 11 3 32 -12 32 -4 0 -6 -9 -3 -21z"/>
<path d="M3300 1416 c0 -2 8 -10 18 -17 15 -13 16 -12 3 4 -13 16 -21 21 -21
13z"/>
<path d="M2440 1312 c0 -9 5 -10 18 -4 9 5 24 12 32 15 8 3 0 4 -17 4 -19 -1
-33 -7 -33 -15z"/>
</g>
</svg>
