<?xml version="1.0" standalone="no"?>
<!DOCTYPE svg PUBLIC "-//W3C//DTD SVG 20010904//EN"
 "http://www.w3.org/TR/2001/REC-SVG-20010904/DTD/svg10.dtd">
<svg version="1.0" xmlns="http://www.w3.org/2000/svg"
 width="2000.000000pt" height="3000.000000pt" viewBox="0 0 2000.000000 3000.000000"
 preserveAspectRatio="xMidYMid meet">

<g transform="translate(0.000000,3000.000000) scale(0.100000,-0.100000)"
fill="#000000" stroke="none">
<path d="M1500 29989 c-714 -82 -1308 -618 -1460 -1317 -10 -48 -24 -136 -30
-197 -8 -80 -10 -3822 -8 -13550 4 -12689 5 -13445 21 -13525 56 -273 158
-509 310 -716 74 -101 278 -299 387 -376 227 -161 508 -266 792 -297 132 -15
16843 -15 16973 -1 284 32 532 122 771 281 134 89 338 290 437 429 164 233
268 514 297 805 8 80 10 3822 8 13550 -4 12689 -5 13445 -21 13525 -56 273
-158 509 -310 716 -87 118 -289 312 -410 392 -241 160 -487 250 -772 282 -113
12 -16875 11 -16985 -1z m17142 -77 c651 -151 1127 -629 1271 -1276 l22 -101
0 -13530 c0 -13192 0 -13532 -19 -13620 -137 -660 -623 -1152 -1280 -1298
l-101 -22 -8530 0 c-8303 0 -8532 0 -8620 19 -659 137 -1152 623 -1298 1280
l-22 101 0 13535 0 13535 22 101 c151 680 679 1182 1358 1289 64 11 1754 13
8590 11 l8510 -1 97 -23z"/>
<path d="M3340 28335 l0 -55 1538 0 1537 -1 877 -1603 878 -1603 -64 -319
c-211 -1048 -331 -1428 -651 -2064 -134 -265 -305 -580 -316 -580 -4 0 -9 13
-12 30 -9 41 -76 111 -159 167 -209 138 -456 171 -630 82 -101 -52 -198 -180
-245 -326 -35 -107 -43 -274 -19 -374 10 -39 16 -72 14 -73 -1 -2 -64 -26
-138 -54 -513 -191 -1163 -473 -1640 -712 -933 -466 -1824 -1022 -2457 -1532
-67 -54 -124 -98 -128 -98 -3 0 -5 549 -5 1220 l0 1220 -55 0 -55 0 0 -10025
0 -10025 7525 0 7525 0 0 55 0 55 -1537 0 -1538 1 -565 1032 c-310 568 -705
1289 -877 1603 l-313 571 56 279 c171 859 295 1307 484 1739 104 238 471 945
490 945 4 0 10 -13 13 -30 20 -97 249 -245 439 -284 289 -60 494 64 594 359
36 108 45 271 19 374 -9 40 -16 73 -14 75 2 2 65 26 139 54 1186 442 2362
1040 3375 1715 276 185 461 320 722 529 67 54 124 98 128 98 3 0 5 -549 5
-1220 l0 -1220 55 0 55 0 0 10025 0 10025 -7525 0 -7525 0 0 -55z m12610 -60
c0 -3 -163 -253 -362 -556 l-362 -550 -24 31 c-13 17 -43 43 -66 58 -108 68
-319 -4 -380 -130 -25 -53 -46 -150 -46 -221 l0 -38 -43 53 c-75 93 -140 107
-245 54 -57 -29 -151 -126 -181 -188 -45 -95 -21 -198 68 -281 98 -92 199
-118 317 -82 64 19 61 20 67 -20 5 -30 -1 -46 -33 -98 -41 -63 -48 -69 -30
-23 8 22 -1 18 -56 -28 -162 -133 -349 -187 -490 -140 -38 13 -68 36 -136 105
l-87 87 -58 -35 c-118 -71 -132 -76 -201 -70 -42 3 -83 15 -125 35 -73 36
-185 126 -209 169 l-17 29 52 -25 c74 -37 188 -37 269 1 116 54 207 183 194
276 -12 90 -98 191 -203 239 -44 20 -66 24 -113 21 -40 -3 -57 -1 -53 6 4 6
24 36 44 66 69 102 107 270 80 353 -29 86 -148 181 -243 192 -51 6 -64 4 -120
-22 -130 -62 -208 -164 -208 -273 0 -31 9 -92 20 -135 11 -43 20 -80 20 -81 0
-2 -29 13 -66 32 -57 32 -72 36 -115 32 -64 -7 -121 -46 -171 -117 -84 -120
-105 -248 -56 -332 51 -87 181 -145 307 -137 36 2 81 11 100 21 53 27 50 20
-9 -23 -78 -56 -173 -105 -262 -134 -189 -61 -314 -39 -481 85 -76 57 -68 58
-178 -22 -101 -74 -149 -93 -244 -93 -95 0 -191 27 -308 85 -87 44 -144 95
-204 185 -59 88 -60 93 -12 47 63 -60 179 -113 247 -113 29 0 65 6 80 14 44
23 89 77 119 141 23 50 28 74 28 140 0 67 -5 90 -28 141 -32 70 -85 126 -139
148 -20 9 -73 20 -118 25 -45 5 -84 11 -86 14 -3 3 4 35 15 72 42 136 21 231
-71 324 -116 117 -254 119 -386 6 -61 -53 -94 -123 -100 -211 -6 -88 7 -129
59 -187 22 -25 36 -48 32 -50 -5 -2 -37 -8 -72 -11 -133 -15 -218 -66 -264
-159 -29 -60 -51 -182 -41 -225 20 -84 68 -138 160 -182 122 -59 220 -36 347
81 65 59 66 59 56 27 -13 -48 -74 -131 -135 -187 -69 -63 -235 -146 -334 -167
-123 -26 -203 -7 -325 76 -22 15 -55 35 -72 44 l-33 16 -67 -55 c-129 -107
-246 -145 -376 -125 -131 20 -299 90 -387 161 l-25 20 35 -18 c51 -26 186 -24
261 5 62 25 132 80 153 121 47 91 6 255 -91 362 -79 88 -170 103 -266 45 -31
-19 -57 -32 -57 -30 0 2 10 41 21 86 25 98 22 183 -9 244 -28 54 -107 125
-179 159 -49 23 -67 26 -116 22 -92 -8 -199 -85 -238 -171 -45 -99 -9 -264 87
-399 19 -26 34 -48 34 -50 0 -1 -29 0 -66 1 -87 5 -151 -26 -231 -111 -86 -92
-102 -161 -59 -252 39 -81 116 -152 197 -180 65 -23 178 -21 236 5 58 25 87
51 124 109 40 62 36 43 -8 -41 -49 -93 -116 -161 -198 -199 -126 -60 -237 -56
-374 14 -46 23 -87 43 -91 45 -4 1 -30 -31 -58 -71 -95 -137 -144 -163 -292
-154 -147 9 -252 56 -366 164 -41 39 -123 143 -112 143 2 0 25 -7 52 -15 27
-8 66 -15 87 -15 55 0 141 35 198 81 143 112 142 264 -3 417 -28 30 -73 65
-101 78 -92 44 -158 26 -229 -59 l-36 -42 0 96 c0 172 -47 258 -171 314 -120
54 -231 39 -296 -39 l-28 -34 -320 584 c-176 322 -321 589 -323 594 -2 7 1662
10 4702 10 2588 0 4706 -2 4706 -5z m2330 -5614 c0 -3091 -3 -5622 -7 -5624
-5 -2 -55 -1 -113 2 l-105 6 -5 4298 -5 4297 -354 370 c-195 203 -361 372
-368 374 -7 3 -21 2 -32 -2 -10 -4 -204 -173 -430 -376 l-411 -369 0 -2538 c0
-1397 -2 -2539 -5 -2539 -3 0 -126 80 -273 178 -147 98 -364 241 -482 319
-257 168 -1241 763 -1262 763 -16 0 -48 71 -48 105 0 11 13 79 29 151 58 254
73 360 78 559 4 150 2 213 -12 298 -32 207 -84 374 -189 605 -68 150 -162 322
-187 344 -17 14 -19 30 -19 142 0 81 4 133 12 145 9 15 9 25 0 46 -7 14 -12
60 -12 101 0 72 1 75 23 74 50 -4 57 0 81 52 29 63 27 70 -50 148 l-54 56 2
314 c2 215 6 314 14 313 5 -1 455 675 999 1503 l989 1504 1098 0 1098 0 0
-5619z m-7027 4419 c40 -44 37 -89 -8 -129 -42 -36 -81 -40 -118 -11 -48 38
-43 118 11 161 35 27 78 19 115 -21z m1956 -137 c13 -12 23 -35 27 -63 5 -37
2 -50 -17 -74 -19 -25 -27 -28 -61 -23 -40 5 -72 27 -89 59 -15 28 14 73 63
97 52 25 51 25 77 4z m-3942 -109 c92 -44 78 -140 -24 -160 -26 -5 -37 -1 -59
21 -23 23 -26 32 -21 71 5 46 29 84 55 84 7 0 30 -7 49 -16z m1947 -154 c40
-161 148 -313 288 -406 88 -59 248 -127 376 -161 134 -35 340 -43 467 -18 310
61 609 234 739 426 38 56 37 57 56 -28 14 -61 75 -185 125 -254 72 -98 208
-206 342 -273 197 -99 383 -109 605 -36 113 38 170 67 252 130 l65 50 -98
-151 -98 -150 -79 -35 c-291 -127 -415 -134 -709 -39 -230 74 -336 148 -482
332 -37 46 -69 83 -72 83 -4 0 -76 -35 -161 -78 -170 -85 -272 -123 -417 -152
-230 -48 -615 -53 -745 -11 -89 28 -188 96 -328 224 l-115 104 -88 -84 c-178
-168 -267 -219 -482 -273 -172 -44 -361 -63 -555 -57 -227 7 -333 37 -606 172
l-123 61 -73 -92 c-105 -132 -245 -256 -343 -305 -142 -70 -210 -82 -445 -83
l-205 -1 -150 39 c-82 22 -157 39 -166 40 -11 0 -71 100 -175 290 -87 159
-161 293 -162 298 -2 5 -1 21 3 36 6 25 8 23 38 -33 160 -299 414 -456 762
-472 224 -10 378 48 572 215 129 111 253 318 253 423 0 41 16 44 39 6 54 -89
218 -214 366 -281 233 -107 486 -149 695 -116 211 34 456 150 597 283 103 97
195 271 210 398 3 27 7 48 8 47 2 -2 10 -32 19 -68z m3648 27 c13 -21 8 -82
-8 -107 -28 -42 -42 -49 -75 -38 -61 21 -90 96 -50 132 38 34 115 42 133 13z
m-7234 -107 c26 -16 32 -26 32 -53 0 -52 -70 -108 -114 -91 -38 15 -63 123
-34 152 18 18 79 14 116 -8z m10145 -829 l177 -185 0 -4262 c0 -2345 -3 -4265
-7 -4267 -5 -3 -125 11 -268 30 -187 25 -263 39 -272 49 -17 23 -101 291 -145
463 -69 275 -74 579 -18 1101 23 218 24 222 106 595 88 404 98 480 97 770 0
246 -15 441 -53 687 -24 159 -41 227 -140 554 -112 371 -121 417 -127 669 -5
223 3 336 53 705 28 213 50 329 106 560 133 555 143 728 72 1324 -39 333 -51
398 -75 419 -27 21 -31 21 -60 -2 l-23 -18 27 -204 c54 -406 61 -496 61 -754
1 -278 -5 -324 -85 -654 -69 -284 -97 -429 -128 -656 -49 -361 -55 -440 -55
-665 0 -287 14 -367 139 -775 83 -271 109 -380 134 -545 38 -255 46 -373 46
-645 0 -313 -6 -360 -89 -732 -73 -323 -92 -431 -117 -673 -27 -260 -36 -685
-19 -842 13 -124 65 -341 130 -541 23 -71 39 -131 37 -133 -2 -3 -85 0 -183 6
-99 6 -260 14 -359 18 l-180 7 -2 4205 -3 4205 376 337 377 337 146 -152 c81
-84 227 -235 324 -336z m-5615 -148 c-10 -2 -28 -2 -40 0 -13 2 -5 4 17 4 22
1 32 -1 23 -4z m-1530 -10 c-10 -2 -28 -2 -40 0 -13 2 -5 4 17 4 22 1 32 -1
23 -4z m1770 0 c-21 -2 -55 -2 -75 0 -21 2 -4 4 37 4 41 0 58 -2 38 -4z
m-1925 -10 c-13 -2 -33 -2 -45 0 -13 2 -3 4 22 4 25 0 35 -2 23 -4z m2090 0
c-18 -2 -48 -2 -65 0 -18 2 -4 4 32 4 36 0 50 -2 33 -4z m-2210 -10 c-13 -2
-33 -2 -45 0 -13 2 -3 4 22 4 25 0 35 -2 23 -4z m2350 0 c-13 -2 -35 -2 -50 0
-16 2 -5 4 22 4 28 0 40 -2 28 -4z m-2455 -10 c-10 -2 -28 -2 -40 0 -13 2 -5
4 17 4 22 1 32 -1 23 -4z m2565 0 c-7 -2 -21 -2 -30 0 -10 3 -4 5 12 5 17 0
24 -2 18 -5z m-2665 -10 c-10 -2 -28 -2 -40 0 -13 2 -5 4 17 4 22 1 32 -1 23
-4z m4016 -20 c-59 -92 -104 -157 -104 -150 0 9 111 177 118 177 2 0 -4 -12
-14 -27z m-4116 10 c-10 -2 -26 -2 -35 0 -10 3 -2 5 17 5 19 0 27 -2 18 -5z
m-90 -10 c-10 -2 -26 -2 -35 0 -10 3 -2 5 17 5 19 0 27 -2 18 -5z m-90 -10
c-10 -2 -26 -2 -35 0 -10 3 -2 5 17 5 19 0 27 -2 18 -5z m-80 -10 c-10 -2 -26
-2 -35 0 -10 3 -2 5 17 5 19 0 27 -2 18 -5z m-85 -10 c-7 -2 -19 -2 -25 0 -7
3 -2 5 12 5 14 0 19 -2 13 -5z m2342 -3 c660 -28 1162 -72 1540 -136 191 -32
377 -72 388 -83 5 -5 6 -115 2 -255 l-7 -246 -39 31 c-21 16 -73 46 -116 67
l-78 37 -145 -1 c-115 -1 -171 -7 -269 -28 -156 -33 -183 -32 -306 4 -121 36
-140 37 -159 7 -14 -20 -12 -39 14 -186 17 -90 29 -165 28 -165 -2 -1 -12 -6
-23 -12 -19 -11 -20 -21 -19 -190 2 -208 14 -287 78 -497 49 -160 66 -238 96
-438 11 -74 29 -167 40 -205 23 -81 26 -161 6 -209 -17 -41 -63 -71 -181 -121
-78 -33 -100 -48 -167 -115 -81 -82 -92 -107 -61 -141 28 -31 52 -21 119 51
50 53 80 75 136 101 187 83 236 122 258 199 16 59 12 190 -9 266 -11 39 -31
147 -46 240 -14 94 -30 188 -35 210 -5 22 -8 40 -7 41 1 1 63 -42 137 -96 74
-55 142 -101 152 -103 27 -8 58 21 58 53 0 26 -17 41 -161 146 -151 110 -163
117 -189 107 l-28 -10 -32 106 c-17 58 -34 115 -37 126 -5 15 2 13 33 -13 146
-122 220 -157 358 -171 194 -19 377 21 517 115 l79 53 0 -157 c0 -317 -24
-798 -56 -1107 -37 -376 -86 -638 -160 -865 -134 -408 -358 -678 -684 -821
-93 -42 -223 -82 -300 -94 -25 -4 -56 -13 -70 -20 -14 -8 -33 -16 -42 -19 -11
-3 -92 -155 -212 -394 l-195 -388 -97 -94 c-105 -100 -148 -125 -234 -136 -30
-4 -59 -10 -65 -14 -24 -17 -173 8 -258 43 -249 101 -369 247 -463 561 -29 97
-29 99 -3 111 33 15 341 618 337 659 -4 42 -49 60 -77 31 -10 -11 -89 -157
-175 -325 -135 -262 -156 -310 -151 -337 l6 -33 -123 -59 c-168 -82 -260 -111
-345 -111 -183 1 -392 103 -508 248 -94 119 -135 238 -135 396 0 73 2 82 21
91 16 7 84 139 237 453 188 388 213 446 204 467 -13 28 -44 40 -70 26 -24 -13
-442 -874 -442 -911 0 -20 -6 -29 -22 -34 -174 -49 -227 -58 -348 -58 -143 0
-222 19 -303 73 -51 33 -147 136 -220 233 l-45 60 43 27 c23 15 59 48 78 74
l36 46 6 -38 c14 -83 47 -174 78 -215 84 -109 268 -144 457 -86 109 34 157 65
213 140 46 61 190 332 257 483 144 324 154 353 142 380 -14 29 -61 35 -83 9
-7 -8 -56 -116 -110 -240 -120 -278 -266 -550 -324 -603 -66 -61 -140 -85
-265 -85 -94 -1 -110 2 -150 24 -35 19 -51 38 -72 80 -15 30 -30 75 -33 99 -6
38 -5 43 9 38 9 -4 41 -1 71 5 46 9 58 8 73 -4 74 -66 174 -74 259 -22 58 36
168 169 216 262 19 37 90 205 157 374 131 328 136 351 83 364 -14 4 -33 3 -41
-3 -9 -5 -73 -151 -142 -324 -148 -368 -160 -393 -239 -493 -88 -109 -141
-132 -208 -90 -23 14 -22 14 47 120 161 243 291 536 448 1009 224 673 385
1548 442 2400 6 94 13 184 16 201 l4 31 133 8 c72 4 195 11 272 15 221 11 937
11 1200 0z m-2422 -7 c-7 -2 -19 -2 -25 0 -7 3 -2 5 12 5 14 0 19 -2 13 -5z
m-75 -10 c-10 -2 -26 -2 -35 0 -10 3 -2 5 17 5 19 0 27 -2 18 -5z m-80 -10
c-10 -2 -26 -2 -35 0 -10 3 -2 5 17 5 19 0 27 -2 18 -5z m-218 -33 c-190 -32
-341 -62 -489 -96 -57 -14 -105 -23 -107 -21 -7 6 219 66 331 87 148 28 352
58 395 58 19 0 -39 -12 -130 -28z m1075 -57 c-56 -748 -109 -1134 -230 -1698
-153 -713 -409 -1420 -643 -1776 -92 -141 -151 -181 -215 -148 -12 7 -23 13
-25 14 -2 2 17 39 42 82 189 328 408 908 546 1448 163 637 256 1216 309 1920
l16 220 50 6 c28 3 74 7 103 7 l53 2 -6 -77z m-309 0 c-3 -27 -8 -88 -11 -138
-55 -828 -227 -1737 -456 -2419 -140 -418 -306 -796 -440 -1001 -96 -148 -124
-182 -170 -205 -47 -24 -68 -25 -119 -3 -45 20 -47 25 -21 61 77 112 229 428
367 767 313 771 533 1696 649 2730 14 127 29 233 33 237 7 7 58 13 135 16 l39
2 -6 -47z m-286 -4 c0 -42 -52 -470 -81 -666 -115 -788 -314 -1558 -560 -2173
-162 -407 -283 -656 -416 -860 -143 -218 -212 -289 -286 -292 -36 -1 -100 20
-95 31 2 3 35 53 74 111 107 158 165 261 299 530 213 427 323 702 461 1155
176 580 298 1230 370 1975 9 96 19 177 21 179 3 5 150 27 191 30 16 1 22 -5
22 -20z m4317 5 c-3 -3 -12 -4 -19 -1 -8 3 -5 6 6 6 11 1 17 -2 13 -5z m-4672
-332 c-79 -722 -178 -1231 -355 -1820 -205 -688 -564 -1437 -865 -1810 -179
-223 -245 -268 -380 -263 -64 3 -62 14 10 98 323 369 703 1077 937 1748 219
625 355 1230 463 2049 19 148 37 271 38 273 2 1 41 9 88 16 l84 13 3 -33 c2
-18 -9 -140 -23 -271z m-265 250 c0 -18 -52 -407 -76 -567 -136 -915 -385
-1756 -719 -2430 -235 -473 -433 -785 -658 -1032 -109 -120 -138 -137 -227
-138 -62 0 -160 21 -160 34 0 3 28 24 61 46 130 86 332 323 524 615 221 338
384 692 565 1237 246 742 309 1013 430 1856 27 186 50 340 52 342 2 3 176 41
201 44 4 1 7 -3 7 -7z m-325 -84 c-2 -13 -21 -140 -40 -283 -96 -699 -165
-1014 -350 -1605 -226 -720 -417 -1142 -699 -1545 -289 -414 -468 -564 -706
-596 -95 -13 -178 5 -254 53 l-49 32 84 17 c106 22 153 39 256 94 286 152 537
452 767 920 371 752 644 1732 770 2763 8 62 16 115 18 117 5 6 178 53 196 54
8 1 11 -7 7 -21z m-320 -95 c-3 -16 -14 -100 -25 -188 -133 -1036 -485 -2178
-875 -2834 -228 -384 -516 -641 -788 -701 -79 -18 -246 -8 -324 20 -138 48
-233 137 -269 250 -22 67 -24 212 -5 290 39 159 143 299 248 334 156 52 395
-11 545 -144 54 -47 68 -83 68 -176 0 -61 0 -61 -55 -113 -136 -129 -336 -159
-390 -59 -18 33 -18 41 -6 101 14 73 9 103 -20 112 -53 17 -80 -24 -87 -136
-10 -168 78 -246 268 -237 125 6 215 50 325 162 73 74 91 101 210 316 540 981
674 1357 919 2570 l82 405 75 27 c98 35 110 35 104 1z m4605 -395 c89 -30 341
-32 510 -4 92 15 123 16 156 7 45 -12 139 -70 197 -120 32 -29 37 -39 37 -77
0 -24 -2 -44 -4 -44 -2 0 -43 18 -92 39 -88 39 -206 73 -294 86 -110 16 -294
-53 -488 -182 -90 -59 -128 -79 -134 -70 -4 6 -8 40 -8 73 0 56 3 63 26 79
l27 17 -6 109 c-4 60 -3 109 1 109 4 0 36 -10 72 -22z m613 -243 c47 -13 111
-36 143 -51 33 -14 77 -32 99 -39 39 -12 40 -13 43 -64 2 -28 0 -51 -3 -51 -3
0 -37 16 -75 35 -129 65 -212 87 -345 92 -148 6 -207 -4 -347 -61 -59 -24
-108 -43 -108 -41 0 9 174 113 239 143 151 70 217 77 354 37z m-13 -278 c33
-53 27 -93 -23 -142 -96 -97 -261 -96 -346 0 -29 33 -33 43 -28 78 3 23 15 50
29 64 l24 24 -4 -34 c-2 -18 3 -50 12 -70 40 -96 192 -104 252 -12 18 28 24
97 11 133 -9 23 -9 23 23 7 17 -9 40 -30 50 -48z m199 -1 l85 -43 -67 -50
c-38 -27 -81 -57 -97 -66 l-29 -18 14 35 c17 40 20 123 5 160 -5 14 -6 26 -2
25 4 0 45 -19 91 -43z m-694 -70 l0 -84 -25 19 c-14 10 -43 34 -65 52 l-39 34
59 31 c33 17 62 31 65 32 3 0 5 -38 5 -84z m959 -545 c112 -223 188 -434 227
-631 19 -93 23 -148 23 -290 0 -96 -5 -209 -12 -250 -23 -140 -65 -350 -71
-350 -4 0 -28 40 -54 90 l-48 89 32 153 c28 131 32 173 32 288 -2 313 -46 488
-163 644 l-38 51 6 158 c2 86 6 157 8 157 2 0 28 -49 58 -109z m-49 -435 c36
-82 54 -162 65 -293 14 -167 12 -258 -5 -354 -23 -123 -22 -123 -66 -37 -21
42 -48 83 -59 91 l-20 14 19 194 c11 107 23 249 27 317 4 67 9 122 11 122 2 0
15 -24 28 -54z m141 -1191 c115 -236 150 -385 141 -595 -13 -294 -99 -432
-302 -486 -80 -22 -83 -20 -101 42 -9 30 -14 57 -12 58 1 1 21 8 43 14 96 27
192 121 235 231 47 121 43 288 -10 455 -37 115 -222 489 -253 513 l-23 17 18
100 c9 56 17 103 18 106 1 11 186 -332 246 -455z m-228 -35 c123 -241 170
-398 159 -534 -10 -131 -62 -225 -151 -277 -73 -42 -92 -39 -116 17 -11 25
-20 47 -20 48 0 2 17 8 39 14 92 28 132 94 139 225 4 77 1 99 -23 174 -16 49
-55 130 -92 191 -34 58 -63 110 -63 116 -1 26 45 175 52 168 3 -4 38 -68 76
-142z m-115 -271 c59 -117 76 -195 58 -274 -13 -59 -33 -80 -87 -91 -29 -6
-31 -4 -64 68 -18 40 -43 96 -56 124 l-24 51 29 54 c15 30 39 80 52 112 12 31
28 56 33 54 6 -2 32 -46 59 -98z m-74 -612 c5 -18 21 -62 35 -98 35 -93 56
-205 56 -296 0 -147 -45 -251 -155 -359 -180 -178 -384 -196 -605 -53 -161
104 -218 200 -275 459 -20 91 -38 172 -41 181 -3 12 7 18 43 26 27 6 49 11 49
10 1 -1 18 -67 37 -146 61 -244 132 -363 253 -422 193 -95 455 -11 540 174 27
57 29 71 28 172 -1 91 -6 124 -28 194 -32 97 -156 392 -175 415 -10 12 -5 24
30 69 l43 55 78 -174 c42 -96 82 -189 87 -207z m-7207 170 c38 -46 119 -94
233 -137 l70 -27 71 -124 c39 -68 130 -227 203 -354 149 -259 462 -875 586
-1155 281 -634 478 -1402 665 -2600 35 -225 36 -227 58 -239 9 -5 162 -12 339
-16 253 -6 326 -5 338 5 50 42 -19 831 -130 1485 -179 1054 -406 1737 -914
2753 -67 133 -121 246 -121 251 0 5 26 24 58 41 31 18 72 43 90 57 18 14 36
23 38 20 12 -12 242 -447 315 -596 146 -297 235 -519 354 -878 144 -432 274
-933 380 -1458 105 -527 137 -778 185 -1465 11 -157 22 -313 26 -348 l6 -62
-579 2 -578 3 -17 130 c-76 576 -106 754 -194 1145 -140 625 -289 1135 -444
1524 -221 556 -557 1205 -982 1898 -59 97 -108 179 -108 182 0 16 19 2 52 -37z
m6961 -150 c84 -196 109 -287 109 -384 -1 -89 -25 -148 -80 -193 -89 -73 -247
-96 -339 -49 -57 30 -114 101 -144 179 -19 49 -89 303 -89 323 0 6 82 47 95
47 2 0 9 -26 15 -57 50 -253 126 -382 233 -398 64 -10 127 19 151 70 37 77 -2
339 -70 479 -19 39 -34 74 -34 79 0 14 74 77 81 69 3 -4 36 -78 72 -165z
m-7673 76 c28 -86 83 -223 90 -223 4 0 11 15 14 34 8 43 62 93 110 101 71 14
165 -45 208 -129 27 -53 47 -171 48 -279 0 -85 -17 -319 -25 -344 -6 -17 -270
73 -395 134 -168 83 -252 191 -237 305 11 81 77 134 155 123 25 -4 42 -2 42 4
0 5 -45 49 -99 98 -55 48 -100 91 -100 94 -1 3 18 14 41 25 23 10 62 36 87 56
25 21 46 38 48 38 1 0 7 -17 13 -37z m7460 -105 c16 -35 41 -118 55 -185 36
-176 34 -213 -15 -213 -42 0 -84 55 -114 147 -33 107 -62 256 -50 260 6 2 26
14 45 28 18 13 38 24 42 25 4 0 21 -28 37 -62z m-8344 -220 c827 -1144 1432
-2421 1663 -3513 134 -631 215 -1521 214 -2350 0 -583 -75 -1287 -182 -1721
-27 -107 -51 -197 -53 -200 -3 -2 -31 7 -62 21 -45 20 -56 29 -47 38 14 18 87
317 111 457 20 116 49 360 72 610 17 178 17 987 0 1310 -74 1422 -204 2109
-574 3025 -310 768 -728 1504 -1296 2283 -57 79 -102 145 -100 147 7 7 114 53
125 54 6 1 65 -72 129 -161z m9981 20 c-13 -288 -46 -430 -119 -513 -71 -80
-152 -104 -226 -66 -43 22 -72 66 -72 110 0 17 -4 31 -9 31 -5 0 -37 -57 -72
-126 l-64 -126 -35 40 c-19 22 -56 53 -83 70 l-47 30 92 66 c146 104 165 123
109 111 -35 -8 -87 13 -119 48 -51 55 -44 158 15 233 66 83 229 151 491 205
76 15 139 28 141 28 2 1 1 -63 -2 -141z m-5660 -13 c68 -20 155 -87 225 -173
87 -106 117 -161 162 -295 27 -79 47 -123 57 -125 8 -1 32 13 53 33 82 77 167
97 259 61 l48 -18 -84 -87 c-152 -155 -206 -267 -216 -446 l-6 -100 -87 175
c-94 190 -283 491 -360 576 -100 109 -179 119 -377 45 -62 -23 -115 -40 -118
-37 -3 2 -9 37 -14 78 -17 136 17 216 118 271 102 55 239 72 340 42z m6661
-119 c39 -27 72 -52 72 -55 0 -4 -96 -94 -212 -200 -517 -472 -764 -759 -1133
-1316 -284 -429 -458 -747 -735 -1347 -62 -137 -117 -248 -122 -248 -14 0
-168 80 -168 87 0 12 194 412 300 618 364 710 660 1155 1137 1711 264 308 757
819 777 806 6 -4 44 -29 84 -56z m-11155 -81 c26 -36 47 -69 47 -74 0 -4 -24
-11 -53 -15 -30 -3 -73 -12 -95 -20 l-42 -15 14 32 c50 116 69 157 75 157 4 0
28 -29 54 -65z m11467 -128 l135 -93 3 -247 2 -247 -177 2 -178 3 -30 273 -29
273 64 64 c36 35 67 63 70 64 3 0 66 -41 140 -92z m-11315 -89 c14 -25 15 -33
5 -36 -30 -10 -90 -77 -106 -118 -39 -103 16 -252 144 -385 89 -94 158 -132
312 -173 58 -16 110 -34 117 -40 7 -6 47 -75 90 -152 l78 -141 -18 -189 c-26
-267 -28 -750 -4 -924 48 -341 130 -579 295 -858 146 -244 280 -412 452 -566
58 -51 120 -106 137 -122 33 -29 33 -29 52 -204 11 -96 19 -176 17 -177 -1 -1
-37 25 -81 59 l-78 62 -34 -40 c-76 -87 -195 -252 -228 -315 -39 -75 -65 -164
-65 -224 1 -121 121 -218 270 -218 70 0 125 27 201 99 l56 54 7 -100 7 -100
-48 -68 c-97 -136 -167 -188 -271 -198 -157 -17 -326 69 -410 208 -34 57 -62
162 -62 236 0 78 30 195 76 290 41 84 58 107 214 270 128 133 170 183 170 202
0 49 -44 64 -98 36 -34 -18 -176 -164 -274 -281 -172 -206 -248 -254 -414
-263 -84 -4 -97 -2 -152 23 -40 18 -79 46 -112 81 -87 92 -151 261 -136 357
25 152 234 366 526 535 58 34 115 68 128 77 26 19 30 66 6 85 -31 26 -69 13
-199 -67 -275 -169 -430 -249 -508 -264 -74 -13 -179 2 -252 37 -185 87 -267
405 -149 576 39 56 138 128 256 187 81 40 314 123 488 173 49 14 68 44 56 91
-13 52 -12 52 -536 -95 -170 -48 -235 -51 -334 -18 -128 42 -208 121 -242 238
-23 77 -15 227 16 306 41 107 106 160 260 214 126 44 258 63 488 69 198 6 204
6 218 29 11 17 13 28 5 42 -22 41 -32 43 -272 47 -343 7 -447 17 -514 50 -73
35 -154 111 -190 176 -98 181 25 512 214 572 154 49 368 27 725 -73 59 -17
117 -28 128 -24 10 3 24 17 29 32 17 45 -12 68 -143 112 -317 106 -536 256
-619 426 -30 61 -34 78 -34 149 1 91 26 163 75 210 33 32 108 53 190 54 52 1
57 -1 75 -31z m10969 -318 c21 -187 32 -260 43 -272 14 -16 39 -18 230 -18
175 0 214 -2 211 -14 -2 -7 -88 -101 -193 -209 l-190 -195 -249 -26 c-137 -14
-251 -25 -253 -23 -2 2 -12 150 -23 328 l-19 324 27 27 c112 110 378 346 383
340 3 -4 18 -122 33 -262z m-11353 -145 c46 -77 135 -173 205 -221 l57 -39
-144 -6 c-185 -8 -248 -30 -341 -116 -26 -25 -48 -40 -48 -34 0 16 163 504
185 556 l18 40 17 -62 c9 -34 32 -87 51 -118z m8631 124 c45 -16 84 -32 86
-33 2 -2 -43 -73 -98 -157 -393 -592 -782 -1393 -1010 -2079 -127 -380 -201
-682 -294 -1189 -24 -134 -47 -246 -51 -249 -4 -4 -200 -8 -436 -10 l-429 -4
0 44 c0 61 26 339 51 538 42 341 156 832 345 1485 145 500 265 831 479 1317
l46 106 51 7 c27 4 74 20 104 36 30 15 54 27 54 25 0 -1 -38 -86 -84 -188
-186 -409 -348 -863 -500 -1403 -123 -438 -186 -735 -295 -1405 -44 -267 -49
-307 -37 -326 13 -19 26 -21 173 -27 252 -11 309 -9 327 9 9 8 16 18 16 21 0
12 106 474 141 618 172 691 568 1712 879 2269 86 154 384 626 395 626 2 0 41
-14 87 -31z m-6718 -11 c3 -13 12 -65 20 -115 9 -51 21 -105 27 -120 l10 -27
19 41 c45 101 164 110 249 18 92 -100 95 -271 9 -600 -17 -66 -32 -122 -34
-123 -4 -6 -201 98 -288 153 -203 127 -288 242 -270 364 10 66 64 121 125 128
27 3 55 0 68 -7 13 -6 25 -9 28 -6 6 6 -63 104 -126 181 l-41 49 63 21 c34 11
76 30 92 42 38 28 44 28 49 1z m3906 -103 c124 -44 156 -137 130 -380 -9 -87
-10 -119 -1 -124 6 -4 44 -2 84 5 187 33 291 10 334 -76 67 -131 43 -325 -48
-392 -33 -25 -146 -39 -223 -29 -33 4 -75 8 -95 7 l-36 -1 -11 -131 c-17 -187
-43 -239 -137 -270 -80 -27 -191 -16 -274 27 -98 50 -127 114 -140 302 -3 54
-10 100 -15 103 -5 3 -52 -2 -104 -11 -117 -21 -249 -17 -289 9 -15 10 -37 41
-51 69 -50 108 -22 283 60 373 l43 48 79 4 c48 3 119 -2 182 -13 67 -12 106
-15 113 -8 6 6 2 39 -11 94 -31 128 -36 219 -16 273 44 114 266 178 426 121z
m680 -26 c37 -8 62 -21 87 -47 43 -43 113 -149 113 -171 0 -17 -65 -85 -110
-115 -41 -27 -61 -20 -121 47 l-56 62 -99 -1 c-55 -1 -123 -8 -154 -17 -30 -8
-57 -14 -59 -12 -5 6 83 126 123 168 43 43 101 75 159 87 59 11 60 11 117 -1z
m3005 -11 c32 -140 51 -397 36 -501 -21 -152 -101 -247 -207 -247 -70 0 -114
36 -139 114 -10 33 -22 7 -60 -124 -20 -68 -38 -126 -40 -128 -2 -2 -23 12
-46 31 -23 20 -64 44 -90 52 l-49 17 93 99 c50 55 93 104 95 109 2 5 -20 6
-50 3 -45 -4 -58 -1 -87 19 -63 43 -86 121 -59 199 41 120 162 208 458 330 63
26 121 48 127 48 7 1 15 -9 18 -21z m1320 -363 c8 -154 18 -290 20 -302 9 -41
31 -43 231 -23 104 11 208 22 232 26 l43 5 -106 -123 c-84 -97 -278 -338 -305
-379 -7 -10 -450 -92 -458 -84 -4 3 -18 164 -33 358 l-27 352 71 95 c157 212
310 391 314 368 1 -7 9 -139 18 -293z m896 -390 c-440 -456 -840 -1062 -1190
-1803 -54 -114 -113 -241 -131 -282 -18 -41 -36 -79 -40 -83 -9 -10 -170 69
-170 83 0 17 92 264 157 420 289 694 727 1330 1373 1993 l115 119 3 -162 3
-162 -120 -123z m-14113 93 c382 -293 683 -558 1042 -917 640 -640 1041 -1180
1365 -1836 418 -846 658 -1741 691 -2582 4 -95 4 -173 0 -173 -4 0 -28 11 -55
25 l-48 24 -6 298 c-7 381 -28 536 -128 935 -202 808 -553 1553 -1078 2286
-542 757 -1135 1339 -1851 1814 -91 61 -164 112 -163 115 3 6 115 93 121 93 2
0 52 -37 110 -82z m12742 -383 c12 -159 26 -297 31 -307 7 -12 21 -18 45 -18
29 0 263 40 386 66 26 5 22 -2 -51 -113 -44 -65 -110 -170 -148 -233 l-70
-115 -228 -48 c-125 -26 -230 -46 -232 -43 -2 2 -25 153 -50 334 l-47 330 84
134 c46 73 120 187 164 253 l80 120 7 -35 c4 -19 17 -165 29 -325z m-12897
181 c390 -258 715 -522 1038 -845 592 -594 1074 -1266 1430 -1996 189 -388
338 -799 443 -1225 97 -390 130 -651 124 -972 l-3 -167 -280 131 c-154 71
-283 133 -287 136 -3 4 -8 44 -10 90 l-3 82 52 0 53 0 0 -78 c0 -48 5 -85 13
-96 8 -12 55 -28 132 -47 140 -34 166 -35 189 -10 16 17 15 34 -13 287 -16
148 -32 277 -36 286 -4 10 -15 20 -26 23 -17 6 -293 -17 -370 -30 -26 -4 -26
-3 -76 183 l-49 187 35 13 c19 7 38 9 42 5 3 -5 19 -46 34 -93 36 -112 48
-130 86 -130 33 0 222 46 250 61 10 5 20 17 23 27 7 21 -127 474 -150 510 -8
12 -22 22 -32 22 -10 0 -98 -27 -197 -60 -99 -33 -184 -60 -191 -60 -6 0 -50
82 -97 182 l-86 183 42 16 c91 36 83 39 124 -48 43 -92 59 -113 86 -113 27 0
248 69 265 82 24 21 8 78 -91 323 -101 248 -102 250 -133 253 -24 2 -78 -20
-214 -88 -101 -50 -186 -88 -191 -83 -12 12 -179 329 -179 339 0 11 95 80 106
77 4 0 28 -43 53 -95 58 -118 59 -118 223 -42 146 68 148 69 148 103 0 40
-269 474 -301 485 -21 7 -51 -7 -207 -102 l-182 -111 -101 136 c-55 74 -102
141 -104 147 -4 10 69 71 97 81 8 3 29 -21 50 -55 47 -76 62 -77 177 -8 100
60 131 85 131 109 0 17 -205 329 -267 407 -19 23 -42 42 -52 42 -10 0 -101
-66 -202 -146 -101 -80 -187 -148 -190 -150 -3 -2 -59 60 -124 137 l-118 141
57 56 57 57 32 -35 c18 -19 53 -59 79 -89 66 -76 80 -74 184 30 56 56 84 91
84 106 0 15 -61 94 -181 233 -170 197 -202 230 -228 230 -6 0 -86 -69 -177
-152 -91 -84 -169 -154 -173 -156 -4 -1 -68 55 -142 126 l-134 129 39 49 c22
27 43 53 48 58 4 6 49 -30 107 -87 57 -56 106 -97 118 -97 26 0 47 25 123 143
46 71 61 103 56 120 -5 20 -50 63 -318 300 -54 47 -97 77 -110 77 -16 0 -75
-52 -194 -171 l-172 -172 -133 103 c-74 57 -138 107 -144 112 -9 8 91 118 108
118 5 0 41 -25 80 -55 44 -34 80 -55 96 -55 36 0 221 172 221 204 0 30 -2 32
-228 185 -127 86 -202 131 -219 131 -20 0 -43 -17 -89 -67 l-63 -68 -1 96 0
96 78 61 c42 34 78 62 80 62 2 0 81 -51 175 -114z m2199 -129 c40 -84 178
-201 278 -236 l49 -17 -85 -39 c-137 -61 -214 -144 -254 -272 l-17 -55 -6 68
c-14 142 -4 584 13 584 3 0 13 -15 22 -33z m2781 -64 c9 -104 27 -203 38 -203
5 0 9 7 9 16 0 27 63 82 104 89 80 16 168 -47 201 -144 19 -58 19 -181 -1
-278 -17 -83 -78 -298 -97 -344 l-12 -29 -125 76 c-296 180 -403 295 -404 434
-1 74 25 118 88 149 48 24 50 24 95 8 25 -9 47 -14 49 -12 5 4 -134 211 -148
220 -21 13 -9 21 48 33 31 7 75 23 97 37 22 13 43 25 46 25 3 0 9 -35 12 -77z
m-5065 -55 c42 -28 105 -71 140 -96 l63 -45 -32 -33 c-18 -19 -37 -34 -42 -34
-5 0 -45 27 -89 60 -61 46 -85 59 -102 54 -11 -3 -58 -43 -103 -87 l-83 -82 0
74 0 74 78 83 c42 45 81 83 85 83 4 1 43 -22 85 -51z m8791 -14 c70 -77 98
-127 122 -224 24 -95 21 -154 -10 -224 -43 -98 -156 -184 -227 -173 -19 3 -61
25 -95 48 l-61 43 50 22 c57 25 111 76 136 128 43 91 57 255 32 374 -7 34 -9
62 -5 62 4 0 30 -25 58 -56z m-881 -116 c0 -86 5 -129 21 -180 19 -60 28 -73
95 -132 76 -68 106 -118 121 -200 6 -28 4 -41 -6 -47 -25 -16 -143 -9 -218 11
-122 34 -169 65 -205 138 -43 85 -24 269 36 354 24 34 147 168 154 168 1 0 2
-51 2 -112z m3501 -135 c60 -203 73 -267 75 -378 1 -89 -2 -106 -25 -156 -16
-34 -42 -68 -65 -85 -32 -25 -46 -29 -100 -29 -69 0 -93 14 -124 75 -13 24
-20 30 -23 20 -8 -21 -25 -133 -32 -211 l-7 -66 -65 33 c-35 19 -74 34 -86 34
-47 0 -52 15 -20 57 43 54 123 179 123 193 0 6 -12 4 -32 -6 -63 -33 -144 -2
-180 69 -25 49 -22 131 7 191 28 58 124 156 212 217 80 55 283 179 294 179 3
0 25 -62 48 -137z m1213 -590 c16 -20 52 -16 259 27 106 22 198 40 206 40 11
0 4 -19 -22 -67 -21 -38 -63 -124 -95 -193 l-58 -124 -248 -107 c-137 -59
-252 -104 -256 -100 -3 3 -41 142 -83 307 l-76 301 91 184 c51 101 113 222
138 269 l47 85 43 -304 c23 -168 48 -311 54 -318z m-11843 251 c11 -10 8 -20
-19 -59 l-32 -47 -92 90 c-87 86 -101 96 -137 93 -18 -1 -193 -217 -204 -251
-7 -21 13 -44 181 -207 104 -100 197 -185 207 -189 25 -8 45 7 217 166 124
115 155 139 165 128 7 -7 69 -79 138 -159 l126 -146 -29 -28 c-35 -33 -31 -35
-120 70 -90 105 -94 105 -232 -33 -89 -89 -108 -113 -108 -137 1 -23 26 -60
111 -160 204 -239 219 -255 244 -255 21 0 78 42 381 282 8 6 40 -33 103 -126
50 -74 94 -141 96 -148 3 -8 -12 -23 -35 -36 l-40 -22 -27 42 c-40 64 -64 88
-87 88 -29 0 -249 -164 -260 -194 -10 -27 -18 -14 182 -283 62 -83 121 -155
132 -158 23 -7 26 -6 223 113 95 58 161 92 166 86 15 -15 191 -303 191 -312 0
-5 -28 -22 -62 -38 -49 -23 -62 -26 -66 -15 -3 8 -26 55 -51 105 -62 123 -66
123 -214 15 -121 -89 -127 -94 -127 -123 0 -21 221 -449 248 -478 8 -10 26
-18 39 -18 13 0 105 41 204 91 100 49 183 89 184 87 5 -5 145 -358 145 -366 0
-4 -25 -14 -56 -23 l-56 -17 -39 80 c-39 82 -64 118 -82 118 -25 0 -274 -94
-284 -108 -7 -9 -13 -24 -13 -33 0 -21 217 -487 238 -511 8 -10 22 -18 31 -18
9 0 97 27 196 60 99 33 182 60 186 60 3 0 28 -71 54 -157 26 -87 50 -164 52
-170 5 -14 -22 -27 -78 -37 l-35 -6 -34 106 c-47 144 -48 144 -182 103 -105
-32 -138 -51 -138 -77 0 -34 132 -508 145 -521 13 -13 39 -13 205 3 105 10
193 17 195 15 5 -6 44 -363 39 -368 -2 -2 -29 1 -59 8 l-55 12 0 89 c0 115 -1
116 -170 125 -119 6 -126 6 -144 -14 -17 -19 -18 -31 -12 -120 l6 -100 -82 38
-83 38 -7 64 c-3 35 -11 111 -17 169 -31 297 -165 794 -312 1158 -63 155 -189
420 -260 545 -436 764 -1128 1501 -1809 1924 l-109 68 -1 108 c0 59 1 107 3
107 2 0 82 -61 178 -135 112 -87 183 -135 198 -135 19 0 67 42 195 169 l170
169 135 -121 c75 -66 142 -126 150 -133z m-915 -230 c616 -403 1230 -1053
1651 -1749 89 -147 251 -477 318 -650 139 -354 244 -736 291 -1056 15 -98 21
-209 12 -209 -2 0 -37 16 -78 35 l-75 34 -7 63 c-24 211 -93 547 -163 788
-204 707 -694 1499 -1312 2119 -80 81 -184 177 -231 215 -118 94 -301 214
-420 275 l-100 52 0 74 c0 41 3 75 6 75 4 0 52 -30 108 -66z m2572 -199 c72
-48 135 -72 231 -88 l76 -13 -52 -38 c-114 -84 -171 -200 -171 -349 -1 -55 -4
-77 -10 -66 -31 54 -190 600 -190 655 0 5 13 -8 30 -28 16 -20 55 -53 86 -73z
m9809 -173 c37 -145 65 -265 62 -268 -7 -8 -307 144 -307 156 0 11 172 381
175 378 2 -2 33 -121 70 -266z m-6697 -222 c31 35 45 43 83 47 91 10 169 -62
191 -175 11 -63 -13 -191 -59 -307 -43 -108 -140 -305 -151 -305 -4 0 -37 24
-74 54 -206 164 -334 309 -364 413 -37 126 19 236 126 250 29 4 49 0 76 -16
20 -12 38 -20 41 -18 5 6 -68 172 -96 217 -11 19 -21 38 -21 43 0 4 26 7 58 8
31 0 77 8 102 18 l45 19 3 -145 3 -145 37 42z m2804 67 c100 -49 163 -143 209
-312 19 -67 22 -108 23 -255 1 -175 1 -175 -38 -309 -55 -191 -46 -245 49
-305 25 -16 45 -33 45 -38 0 -17 -83 -150 -97 -155 -50 -19 -192 98 -236 194
-32 70 -29 163 8 283 26 83 30 110 30 215 0 139 -14 193 -73 270 -20 28 -54
58 -74 68 -33 16 -40 17 -72 3 -44 -19 -84 -78 -107 -162 -20 -70 -17 -104 17
-221 13 -45 15 -86 11 -207 -7 -222 -35 -290 -169 -409 -76 -67 -65 -68 -158
16 l-53 48 21 27 c12 15 37 50 57 79 106 156 111 208 34 398 l-52 128 0 131
c0 72 5 158 11 190 33 164 133 275 302 334 94 33 232 28 312 -11z m4468 -34
c-15 -38 -44 -116 -65 -175 -21 -60 -43 -108 -49 -107 -6 0 -81 35 -166 78
l-155 79 35 16 c83 39 406 175 416 175 7 1 1 -26 -16 -66z m-1954 -154 c147
-293 184 -462 126 -575 -35 -69 -88 -104 -155 -104 -44 0 -77 19 -104 59 -32
48 -37 26 -30 -130 3 -71 5 -129 3 -129 -1 0 -27 9 -59 20 -31 11 -77 20 -102
20 -25 0 -45 2 -45 4 0 1 22 50 49 108 27 57 53 117 57 132 l6 27 -33 -20
c-71 -43 -161 -15 -200 62 -17 32 -20 54 -17 112 4 90 39 151 153 273 75 80
271 252 287 252 4 0 33 -50 64 -111z m4059 -224 c332 -16 356 -19 745 -70 299
-40 455 -55 563 -55 l77 0 0 -129 0 -129 -117 -9 c-65 -4 -190 -8 -278 -7
-141 0 -186 5 -375 40 l-215 39 -300 -1 c-359 0 -648 -23 -678 -53 -18 -17
-18 -26 -7 -129 7 -61 10 -126 6 -145 -17 -89 -174 -157 -333 -143 -238 20
-351 173 -302 408 25 118 87 201 189 253 104 53 364 120 520 134 130 12 171
12 505 -4z m-3481 -132 c37 -18 52 -30 46 -38 -10 -12 -71 -250 -99 -390 -21
-106 -62 -434 -83 -675 -17 -188 -17 -1004 0 -1320 64 -1197 162 -1825 391
-2520 300 -905 786 -1823 1454 -2743 71 -98 127 -180 125 -182 -6 -6 -120 -55
-129 -55 -4 0 -63 78 -132 173 -408 568 -695 1045 -983 1632 -480 979 -708
1760 -814 2785 -65 638 -93 1473 -61 1885 25 334 80 800 122 1035 27 155 95
440 104 440 3 0 29 -12 59 -27z m-8563 -139 c46 -12 91 -15 161 -12 54 3 95 2
93 -2 -2 -4 -20 -30 -39 -58 -53 -79 -76 -151 -76 -238 0 -41 -4 -73 -9 -70
-11 7 -237 342 -275 408 l-27 47 54 -29 c29 -16 82 -37 118 -46z m12420 -280
c11 -3 15 -12 12 -29 -6 -27 35 -122 72 -171 53 -70 175 -81 326 -31 38 13 69
20 69 16 0 -4 -30 -34 -66 -68 -112 -103 -189 -119 -461 -96 l-103 8 -94 -57
c-112 -68 -212 -105 -281 -106 -63 0 -95 -21 -95 -60 0 -54 62 -64 193 -31 89
23 159 55 247 112 62 40 65 41 127 34 35 -4 63 -10 63 -15 0 -4 -53 -36 -117
-70 -65 -34 -132 -73 -149 -86 -79 -59 -98 -197 -40 -284 15 -23 26 -43 24
-44 -74 -45 -125 -116 -133 -187 -5 -35 -1 -53 17 -84 21 -35 93 -95 130 -107
8 -3 2 -16 -19 -36 -17 -18 -37 -48 -43 -68 -31 -92 73 -201 230 -244 25 -7
51 -14 59 -16 11 -4 10 -9 -6 -27 -33 -35 -43 -62 -43 -111 0 -37 6 -52 32
-82 18 -21 46 -45 63 -55 l29 -18 -34 -14 c-70 -29 -209 -49 -308 -45 -87 3
-105 7 -167 37 -48 24 -92 57 -141 105 -60 61 -81 91 -141 211 -79 156 -124
275 -148 392 -22 108 -36 440 -26 668 7 181 9 194 39 271 37 94 156 279 199
311 42 30 96 43 182 43 41 0 131 9 200 20 189 29 241 32 302 14z m-14403 -74
c63 -33 114 -85 146 -147 9 -18 16 -35 16 -38 0 -3 -26 16 -57 41 -101 83
-176 103 -307 85 -43 -6 -99 -20 -125 -32 -133 -59 -206 -219 -99 -219 19 0
33 8 45 28 57 92 107 116 239 117 l100 0 57 -43 c88 -66 110 -106 115 -210 l4
-87 -41 -47 c-26 -29 -67 -59 -107 -79 -57 -28 -76 -33 -144 -33 -68 0 -87 5
-144 33 -72 35 -131 95 -168 169 -20 40 -23 63 -23 152 0 96 3 110 28 158 45
86 124 153 217 183 14 5 61 7 105 6 69 -3 89 -8 143 -37z m14602 15 c42 -9 94
-11 150 -8 59 4 93 2 109 -7 19 -10 21 -14 10 -21 -34 -22 -175 -59 -225 -59
-46 0 -59 4 -79 26 -24 26 -50 84 -37 84 4 -1 36 -7 72 -15z m-9794 -162 c-3
-10 -9 -54 -15 -98 -23 -184 -22 -198 17 -145 41 55 133 59 196 9 38 -30 67
-94 73 -158 9 -102 -59 -270 -201 -498 -31 -51 -61 -93 -65 -93 -14 0 -237
234 -285 300 -124 168 -146 303 -64 396 50 57 149 66 188 18 16 -18 30 -18 30
1 0 13 -58 176 -85 238 -6 15 0 17 61 18 38 0 85 7 104 14 47 18 52 18 46 -2z
m10364 -15 c40 -44 49 -114 24 -199 -55 -185 -163 -279 -453 -393 -99 -39
-110 -38 -111 10 0 37 -30 108 -58 138 -15 16 -47 41 -70 57 l-44 28 79 39
c43 21 110 52 148 68 39 16 95 45 125 65 57 38 158 137 178 176 13 24 32 30
109 32 42 1 56 -3 73 -21z m-3287 -63 l47 -20 0 -230 c0 -370 27 -582 119
-960 232 -942 654 -1793 1300 -2615 491 -626 1002 -1104 1626 -1522 94 -63
170 -118 170 -123 0 -9 -69 -68 -102 -89 -14 -8 -51 19 -303 220 -804 642
-1495 1387 -1936 2088 -448 710 -798 1660 -923 2501 -42 285 -78 783 -55 774
5 -2 31 -13 57 -24z m472 -220 c138 -64 253 -120 257 -123 3 -4 8 -44 10 -89
l3 -83 -52 0 -53 0 0 78 c0 48 -5 85 -13 96 -8 12 -55 28 -132 47 -140 34
-166 35 -189 10 -16 -17 -15 -34 13 -287 16 -148 32 -277 36 -286 4 -10 15
-20 26 -23 17 -6 293 17 370 30 26 4 26 3 76 -183 34 -129 46 -189 38 -194 -6
-4 -23 -8 -39 -10 -28 -3 -29 0 -65 101 -20 57 -44 109 -53 115 -18 11 -127
-7 -236 -40 -83 -25 -83 -24 -2 -294 75 -246 89 -280 118 -280 10 0 98 27 197
60 99 33 184 60 191 60 6 0 50 -82 97 -182 l86 -183 -42 -16 c-91 -36 -83 -39
-124 48 -43 92 -59 113 -86 113 -27 0 -248 -69 -264 -82 -25 -21 -9 -78 90
-323 101 -248 102 -250 133 -253 24 -2 78 20 214 88 101 50 186 88 191 83 12
-12 179 -329 179 -339 -1 -12 -92 -77 -105 -75 -5 1 -30 43 -55 94 -57 117
-59 117 -222 41 -146 -68 -148 -69 -148 -103 0 -40 269 -474 301 -485 21 -7
51 8 207 102 l183 110 100 -135 c55 -75 102 -141 104 -147 4 -10 -69 -71 -97
-81 -8 -3 -29 21 -50 55 -47 75 -63 77 -167 14 -107 -64 -141 -92 -141 -113 0
-19 203 -328 267 -408 19 -24 42 -43 52 -43 10 0 99 64 197 141 99 78 184 146
190 150 7 6 52 -41 129 -132 l118 -141 -57 -56 -57 -57 -32 35 c-18 19 -53 59
-79 89 -66 76 -80 74 -184 -30 -56 -56 -84 -91 -84 -106 0 -15 61 -94 181
-233 170 -197 202 -230 228 -230 6 0 88 70 181 156 l170 156 48 -40 c26 -22
87 -81 136 -131 l89 -90 -38 -48 c-21 -26 -42 -52 -47 -57 -4 -6 -49 30 -107
87 -57 56 -106 97 -118 97 -26 0 -47 -25 -123 -143 -46 -72 -61 -103 -56 -120
3 -13 54 -65 113 -117 59 -52 149 -132 200 -177 57 -50 103 -83 116 -83 15 0
76 54 193 171 l172 172 133 -103 c74 -57 138 -107 144 -112 9 -8 -91 -118
-108 -118 -5 0 -40 25 -79 55 -45 36 -79 55 -97 55 -37 -1 -221 -172 -221
-206 0 -27 15 -38 269 -210 96 -65 163 -104 179 -104 19 0 42 18 88 68 l63 67
1 -96 0 -96 -62 -49 c-34 -27 -70 -55 -80 -62 -16 -12 -38 0 -190 101 -390
258 -714 522 -1043 851 -880 880 -1533 1972 -1829 3056 -123 452 -166 739
-166 1113 l0 187 33 -14 c17 -7 145 -66 282 -131z m-9492 -37 c-19 -80 -13
-274 10 -335 9 -24 14 -43 12 -43 -25 0 -435 374 -423 386 2 1 34 -2 71 -9 84
-14 197 1 283 37 32 13 60 25 60 25 1 1 -5 -27 -13 -61z m6835 -72 c162 -262
212 -412 178 -527 -27 -89 -86 -139 -165 -139 -37 0 -49 6 -82 39 -22 21 -41
36 -43 32 -5 -7 11 -174 23 -236 9 -50 10 -49 -39 -35 -19 6 -66 11 -103 11
-62 0 -68 1 -62 17 23 53 85 235 85 248 0 11 -8 9 -33 -10 -44 -34 -110 -35
-157 -3 -51 34 -75 90 -74 167 1 77 17 117 88 224 57 86 292 340 306 331 5 -3
40 -56 78 -119z m-2474 -80 c246 -244 385 -501 403 -747 13 -187 -47 -372
-190 -584 -65 -95 -334 -375 -361 -375 -19 0 -112 105 -194 218 -87 121 -186
324 -219 447 -36 138 -38 339 -5 463 35 127 92 250 175 375 75 113 247 307
272 307 7 0 61 -47 119 -104z m7194 10 c77 -39 112 -91 112 -168 0 -23 -6 -29
-42 -39 -61 -17 -216 -17 -256 0 -35 15 -62 55 -62 93 0 37 31 77 85 108 61
36 102 37 163 6z m-2052 -7 l44 -11 0 -89 c0 -114 1 -115 170 -124 119 -6 126
-6 144 14 17 19 18 31 12 120 l-6 100 82 -38 83 -38 7 -79 c25 -266 71 -508
152 -790 96 -333 192 -582 337 -874 404 -810 1157 -1647 1898 -2110 l120 -75
0 -108 1 -108 -27 19 c-16 11 -95 72 -178 136 -95 73 -159 116 -174 116 -19 0
-67 -42 -195 -169 l-171 -169 -95 86 c-52 48 -119 108 -149 133 l-53 47 32 47
32 47 92 -90 c87 -86 101 -96 137 -93 18 1 193 217 204 251 7 22 -12 44 -181
207 -104 101 -197 186 -207 189 -26 8 -46 -8 -217 -167 -126 -117 -154 -139
-165 -128 -7 8 -69 80 -138 160 l-126 146 29 28 c35 33 31 35 120 -70 90 -105
94 -105 232 33 89 89 108 113 108 138 -1 22 -26 59 -111 159 -204 239 -219
255 -244 255 -15 0 -85 -49 -197 -136 -95 -75 -178 -141 -184 -146 -8 -6 -40
33 -103 126 -50 74 -94 141 -96 148 -3 8 12 23 35 36 l40 22 27 -42 c41 -64
64 -88 87 -88 31 1 255 168 262 196 7 26 10 21 -184 281 -102 137 -137 172
-159 160 -5 -2 -86 -50 -181 -107 -104 -62 -176 -100 -182 -94 -14 15 -190
303 -190 312 0 5 28 22 62 38 49 23 62 26 66 15 3 -8 26 -55 51 -105 62 -123
66 -123 214 -15 121 89 127 94 127 123 0 21 -221 449 -248 479 -8 9 -26 17
-39 17 -13 0 -105 -41 -204 -91 -100 -49 -183 -89 -184 -87 -5 5 -145 358
-145 366 0 4 25 14 56 23 l56 17 40 -83 c61 -127 56 -126 191 -80 61 21 127
45 144 52 60 24 57 41 -67 306 -117 250 -132 277 -159 277 -9 0 -98 -27 -199
-61 -101 -34 -185 -59 -187 -58 -10 11 -103 335 -97 340 6 5 92 29 104 29 2 0
20 -48 38 -106 47 -144 48 -145 182 -104 105 33 138 51 138 78 0 34 -132 508
-145 521 -13 13 -39 13 -205 -3 -105 -10 -193 -17 -195 -15 -2 2 -11 72 -19
154 -9 83 -18 165 -21 183 -7 37 0 39 71 21z m2895 -58 c18 -18 29 -40 29 -56
0 -28 -58 -193 -90 -255 -41 -81 -108 -110 -365 -160 -113 -22 -213 -40 -223
-40 -16 0 -17 8 -14 69 5 78 -8 128 -44 171 l-25 29 43 11 c141 35 381 134
465 190 45 31 143 69 176 70 10 0 32 -13 48 -29z m-2159 -105 l75 -34 7 -64
c24 -217 100 -580 172 -823 203 -683 696 -1473 1298 -2079 216 -218 432 -380
659 -497 l97 -50 0 -74 c0 -41 -3 -75 -6 -75 -11 0 -169 106 -296 198 -402
293 -812 704 -1153 1157 -197 262 -336 488 -475 770 -193 392 -325 781 -415
1225 -31 156 -57 380 -43 380 3 0 39 -15 80 -34z m-12777 -105 c48 -24 92 -57
141 -105 60 -61 81 -91 141 -211 79 -156 124 -275 148 -392 21 -102 35 -419
28 -653 -5 -177 -7 -189 -37 -270 -37 -99 -128 -250 -186 -307 -47 -48 -96
-63 -202 -63 -40 0 -129 -9 -198 -21 -129 -21 -259 -28 -296 -16 -16 6 -20 14
-17 32 6 27 -35 122 -72 171 -53 70 -175 81 -326 31 -38 -13 -69 -21 -69 -17
0 3 24 29 53 57 94 93 199 130 331 119 39 -3 110 -9 159 -12 l87 -6 95 57
c108 65 216 105 284 105 59 0 91 21 91 60 0 54 -62 64 -193 31 -89 -23 -159
-55 -247 -112 -62 -40 -65 -41 -127 -34 -35 4 -63 10 -63 15 0 4 53 36 118 70
64 34 131 73 148 86 79 59 98 197 40 284 -15 23 -26 43 -24 44 2 1 17 12 35
24 43 31 91 106 99 157 5 35 1 52 -18 87 -20 38 -91 97 -130 110 -8 3 -2 16
19 36 111 112 22 252 -201 317 l-58 17 20 21 c31 35 42 63 42 111 0 37 -6 52
-32 82 -18 21 -46 45 -62 55 -28 17 -28 17 -7 28 51 28 196 50 306 48 103 -2
115 -4 180 -36z m14111 -97 c57 -47 71 -89 54 -167 l-11 -57 -89 0 c-138 0
-280 53 -288 108 -5 31 32 87 74 112 24 15 60 24 122 29 48 5 88 9 90 10 2 0
23 -15 48 -35z m-15007 -4 c13 0 16 -12 16 -67 0 -56 4 -74 24 -102 l24 -34
-134 5 c-109 4 -142 9 -175 26 -62 32 -71 47 -47 80 48 66 144 105 232 96 24
-2 51 -4 60 -4z m326 -14 c28 -13 58 -33 69 -44 18 -20 18 -23 2 -47 -31 -47
-95 -85 -143 -85 -38 0 -49 6 -93 48 -28 27 -50 55 -50 63 0 8 9 28 19 46 20
32 35 37 116 41 17 1 53 -9 80 -22z m4004 -279 l1 -89 -107 58 c-60 31 -142
75 -183 98 l-75 41 56 6 c85 9 159 48 231 122 l63 64 6 -106 c4 -58 7 -146 8
-194z m11424 74 c28 -11 57 -66 57 -110 0 -48 -37 -134 -72 -168 -59 -56 -65
-57 -315 -58 -128 -1 -233 0 -233 1 0 1 7 19 16 40 19 46 13 110 -16 165 l-19
38 27 5 c15 3 104 19 197 36 94 17 202 37 240 45 88 17 89 17 118 6z m-15543
-87 c0 -1 -7 -19 -16 -40 -19 -46 -13 -110 16 -166 l19 -37 -37 -7 c-20 -3
-104 -19 -187 -34 -322 -60 -331 -61 -357 -51 -29 11 -58 66 -58 110 0 49 37
134 74 170 53 52 81 57 325 57 121 0 221 -1 221 -2z m245 -16 c65 -14 145 -51
174 -82 34 -37 21 -60 -57 -97 -37 -18 -74 -39 -83 -46 -13 -11 -22 -11 -53 2
-20 9 -42 15 -49 13 -38 -8 -97 67 -97 123 0 20 10 50 25 71 28 41 24 41 140
16z m14509 7 c20 -9 41 -13 46 -10 30 18 100 -71 100 -126 0 -48 -44 -111 -73
-104 -12 2 -49 9 -82 16 -73 14 -153 50 -184 83 -35 38 -21 60 64 102 41 19
77 39 80 45 8 12 6 12 49 -6z m-9697 -126 c15 -6 59 -10 96 -10 62 0 68 -1 62
-17 -23 -54 -85 -235 -85 -248 0 -12 8 -9 31 10 23 20 42 26 78 26 96 0 157
-74 155 -190 -1 -77 -16 -116 -88 -224 -57 -86 -292 -340 -306 -331 -5 3 -40
56 -78 119 -162 262 -212 412 -178 527 27 89 86 139 165 139 37 0 49 -6 82
-39 22 -21 41 -36 43 -32 5 7 -11 174 -23 236 -9 50 -4 53 46 34z m6113 -203
l55 -31 -56 -6 c-85 -9 -159 -48 -232 -122 l-64 -65 -6 135 c-4 75 -7 163 -7
195 l0 59 128 -67 c70 -37 152 -81 182 -98z m-10782 -17 c78 -26 126 -58 130
-87 5 -31 -32 -87 -73 -112 -25 -15 -60 -23 -127 -29 l-93 -7 -42 34 c-56 45
-69 88 -53 165 l11 57 93 0 c67 0 109 -6 154 -21z m-366 -68 c-5 -78 8 -128
44 -171 l25 -29 -43 -11 c-138 -35 -381 -133 -462 -188 -48 -33 -106 -57 -159
-66 -33 -6 -41 -3 -67 23 -19 18 -30 40 -30 56 0 38 78 243 107 283 43 57 123
88 340 131 270 54 250 56 245 -28z m15414 41 c62 -32 71 -47 47 -80 -51 -69
-150 -106 -254 -95 l-54 5 0 67 c0 54 -4 72 -24 100 l-24 34 134 -5 c109 -4
142 -9 175 -26z m-405 -31 c54 -52 56 -65 24 -117 -15 -24 -94 -39 -142 -28
-41 10 -95 39 -117 63 -18 19 -18 22 -2 46 31 47 95 85 143 85 38 0 49 -6 94
-49z m-5095 -133 c231 -238 303 -382 257 -512 -35 -98 -140 -142 -212 -88 -36
26 -41 27 -41 7 0 -13 58 -176 85 -237 6 -16 0 -18 -58 -18 -35 0 -84 -7 -107
-15 -24 -8 -44 -14 -46 -13 -1 2 2 26 7 53 15 83 27 219 20 228 -4 4 -17 -6
-29 -22 -59 -80 -191 -51 -243 52 -63 122 -12 294 175 595 31 50 61 92 65 92
5 0 62 -55 127 -122z m1386 61 c119 -25 224 -99 286 -201 34 -57 62 -162 62
-236 0 -78 -30 -195 -76 -290 -41 -84 -58 -107 -214 -270 -128 -133 -170 -183
-170 -202 0 -49 44 -64 98 -36 34 18 176 164 274 281 172 206 248 254 414 263
84 4 97 2 152 -23 40 -18 79 -46 112 -81 87 -92 151 -261 136 -357 -25 -153
-231 -363 -526 -535 -58 -33 -115 -68 -127 -77 -27 -19 -31 -66 -7 -85 31 -26
69 -13 199 67 275 169 430 249 508 264 119 21 271 -24 341 -101 101 -112 145
-328 91 -457 -36 -85 -147 -177 -308 -253 -69 -33 -294 -111 -467 -162 -49
-14 -68 -45 -56 -91 13 -52 12 -52 536 95 161 45 242 51 325 22 119 -40 182
-90 227 -182 32 -64 33 -71 33 -187 -1 -101 -5 -129 -24 -179 -43 -107 -108
-160 -261 -214 -126 -44 -258 -63 -488 -69 -198 -6 -204 -6 -218 -29 -16 -24
-10 -49 19 -72 10 -8 90 -14 248 -17 346 -7 447 -17 514 -50 73 -35 154 -111
190 -176 98 -181 -25 -512 -214 -572 -154 -49 -368 -27 -725 73 -59 17 -117
28 -128 24 -10 -3 -24 -17 -29 -32 -18 -47 11 -68 161 -118 306 -103 518 -252
603 -424 28 -57 32 -75 32 -145 -1 -91 -26 -163 -75 -210 -32 -31 -117 -55
-195 -55 -46 0 -52 3 -70 32 -14 25 -15 33 -5 36 30 10 90 77 106 118 39 103
-16 252 -144 385 -89 94 -158 132 -312 173 -58 16 -110 34 -117 40 -7 6 -47
75 -90 152 l-78 141 18 189 c26 267 28 750 4 924 -59 418 -183 721 -445 1088
-104 144 -181 230 -311 345 -58 50 -118 103 -133 117 -26 24 -28 33 -47 200
-11 96 -19 176 -17 177 1 1 37 -25 81 -59 l79 -61 33 39 c76 87 195 252 228
315 39 75 65 164 65 224 -1 121 -122 220 -270 219 -70 -1 -126 -29 -201 -100
l-56 -54 -7 100 -7 100 48 68 c127 178 226 226 395 191z m520 -291 c97 -78
324 -296 316 -303 -2 -2 -34 1 -71 8 -83 14 -197 0 -284 -36 l-59 -24 14 66
c17 83 11 268 -11 329 -9 23 -14 42 -12 42 2 0 50 -37 107 -82z m-11445 49
c49 -26 66 -84 38 -136 -18 -35 -114 -91 -155 -91 -37 0 -117 39 -148 72 -24
27 -42 77 -42 120 0 23 6 29 38 37 91 24 220 23 269 -2z m-412 -64 c25 -120
52 -162 133 -214 l44 -28 -54 -27 c-29 -15 -96 -46 -148 -68 -152 -66 -247
-139 -326 -250 -18 -26 -28 -29 -91 -33 -64 -5 -72 -3 -92 18 -41 45 -50 114
-25 200 55 184 152 270 434 385 58 24 108 43 112 44 4 0 10 -12 13 -27z
m14942 -134 c69 -33 128 -93 164 -167 20 -40 24 -63 24 -147 0 -88 -3 -107
-26 -156 -33 -69 -91 -129 -161 -166 -47 -25 -64 -28 -148 -28 -89 0 -99 2
-158 34 -63 34 -115 87 -146 148 -9 18 -16 35 -16 38 0 3 26 -16 57 -41 101
-83 176 -103 307 -85 43 6 99 20 125 32 133 59 206 219 99 219 -19 0 -33 -8
-45 -27 -57 -93 -107 -117 -239 -118 l-101 0 -58 45 c-89 68 -108 104 -113
210 l-4 88 40 44 c106 115 259 145 399 77z m-7128 -341 c36 -33 50 -51 44 -61
-4 -7 -27 -37 -50 -67 -22 -30 -56 -84 -74 -119 -48 -96 -45 -142 21 -305 l53
-129 0 -131 c0 -72 -5 -158 -11 -191 -43 -220 -235 -364 -472 -353 -187 9
-287 106 -351 343 -19 67 -22 108 -23 255 -1 175 -1 175 38 309 55 191 46 245
-49 305 -25 16 -45 33 -45 38 0 17 83 150 97 155 50 19 192 -98 236 -194 31
-69 28 -161 -9 -283 -25 -82 -29 -111 -29 -215 0 -139 15 -193 73 -270 20 -27
54 -58 74 -68 33 -16 40 -17 72 -3 46 19 90 89 109 171 15 67 12 107 -18 208
-19 65 -20 278 -1 368 24 113 63 172 169 260 66 56 57 57 146 -23z m-6164
-149 c149 -55 213 -196 174 -381 -25 -118 -87 -201 -189 -253 -120 -61 -405
-128 -590 -140 -166 -10 -718 21 -990 56 -129 16 -305 39 -390 50 -85 11 -219
22 -297 26 l-143 6 0 128 0 127 118 9 c64 4 189 8 277 7 141 -1 186 -5 375
-40 l215 -39 300 1 c359 0 648 23 678 53 18 17 18 26 7 129 -15 131 -9 170 28
204 91 86 282 111 427 57z m-1580 -85 c13 -14 28 -38 34 -54 11 -32 15 -32
-93 -10 -21 5 -78 6 -126 3 -60 -4 -93 -2 -110 7 -22 12 -22 13 -4 23 45 25
164 56 217 57 50 0 61 -4 82 -26z m6431 -95 c-12 -196 -48 -506 -76 -678 -71
-422 -289 -1243 -478 -1801 -84 -248 -112 -320 -235 -611 -137 -323 -121 -296
-180 -304 -27 -4 -73 -20 -103 -36 -30 -15 -54 -27 -54 -25 0 1 38 86 84 187
183 402 344 853 491 1373 132 468 194 762 304 1436 44 266 48 307 36 326 -12
19 -26 21 -172 27 -252 11 -309 9 -327 -9 -9 -8 -16 -18 -16 -21 0 -13 -107
-480 -146 -635 -183 -733 -607 -1804 -930 -2350 -77 -130 -311 -497 -328 -516
-10 -10 -28 -7 -96 18 -47 17 -86 33 -88 34 -2 2 43 73 98 157 309 466 635
1099 866 1682 196 495 325 958 434 1567 22 124 43 235 45 247 7 29 11 29 489
31 l389 2 -7 -101z m2726 -54 c75 -568 106 -754 189 -1125 142 -634 293 -1155
447 -1541 225 -563 557 -1205 985 -1902 107 -175 130 -234 60 -149 -42 51
-122 99 -228 138 -43 16 -82 36 -87 44 -279 468 -659 1187 -833 1575 -229 510
-380 1015 -530 1770 -53 265 -153 842 -181 1039 -11 83 -8 82 -275 89 -365 11
-424 9 -439 -8 -10 -12 -12 -61 -7 -218 12 -385 77 -922 178 -1466 173 -930
384 -1550 846 -2484 84 -170 153 -313 153 -317 0 -4 -26 -23 -57 -40 -32 -18
-73 -43 -91 -57 -18 -14 -35 -23 -38 -21 -27 28 -372 704 -447 878 -223 517
-445 1275 -602 2055 -108 538 -144 833 -195 1600 -5 83 -12 178 -16 213 l-6
62 579 -2 578 -3 17 -130z m-4339 105 c31 -11 77 -20 102 -20 25 0 45 -2 45
-4 0 -1 -22 -50 -49 -108 -27 -57 -53 -117 -57 -132 l-6 -27 33 20 c71 43 161
15 200 -62 17 -32 20 -54 17 -112 -4 -90 -39 -152 -153 -273 -77 -82 -270
-252 -287 -252 -9 0 -95 169 -145 285 -39 91 -73 221 -73 280 0 122 80 225
174 225 53 0 85 -17 113 -59 32 -48 37 -26 30 130 -3 71 -5 129 -3 129 1 0 27
-9 59 -20z m7792 -209 c80 -120 145 -220 145 -223 0 -3 -24 7 -53 23 -84 45
-167 62 -279 57 -54 -3 -98 -3 -98 0 0 2 14 21 30 42 56 71 83 146 88 242 3
48 8 85 13 82 5 -3 74 -103 154 -223z m-2683 -83 c284 -233 392 -383 374 -517
-16 -117 -126 -184 -215 -130 -18 11 -35 18 -38 16 -5 -6 68 -172 96 -217 11
-19 21 -38 21 -42 0 -5 -26 -8 -57 -8 -36 0 -75 -8 -102 -20 -24 -11 -45 -20
-47 -20 -2 0 -4 66 -4 146 l0 147 -37 -43 c-32 -35 -46 -43 -84 -47 -91 -10
-169 62 -191 175 -11 63 13 191 59 307 46 115 140 305 152 305 5 0 38 -23 73
-52z m-7362 -338 c44 -22 80 -44 80 -49 0 -15 -74 -219 -131 -357 -251 -619
-590 -1155 -1098 -1733 -76 -86 -201 -221 -279 -301 l-141 -145 -1 164 0 163
118 122 c445 461 842 1064 1201 1825 56 117 101 214 101 216 0 8 61 135 65
135 3 0 41 -18 85 -40z m-3192 5 c9 -4 12 -872 12 -4297 l0 -4293 354 -369
c195 -203 361 -373 370 -378 8 -4 23 -5 34 -1 11 5 205 174 431 376 l411 369
0 2539 c0 1396 3 2539 6 2539 4 0 405 -264 506 -334 258 -178 1479 -926 1511
-926 11 0 22 -19 33 -54 l17 -54 -36 -164 c-65 -293 -72 -351 -72 -598 0 -181
4 -242 18 -310 43 -197 89 -333 182 -540 62 -139 161 -321 186 -342 17 -14 19
-30 19 -142 0 -81 -4 -133 -12 -145 -9 -15 -9 -25 0 -46 7 -14 12 -60 12 -101
0 -72 -1 -75 -22 -74 -51 4 -58 0 -82 -52 -29 -63 -27 -70 50 -148 l54 -56 -2
-314 c-2 -214 -6 -314 -14 -313 -5 1 -455 -675 -999 -1503 l-989 -1504 -1098
0 -1098 0 0 5618 c0 3090 2 5621 5 5624 6 6 192 -1 213 -7z m412 -45 c171 -23
238 -35 247 -46 18 -24 101 -291 145 -463 69 -274 74 -579 18 -1099 -23 -212
-35 -280 -100 -572 -69 -302 -88 -418 -101 -598 -16 -230 3 -572 51 -884 24
-157 50 -260 140 -553 38 -126 82 -284 97 -350 26 -114 27 -134 28 -380 0
-213 -5 -293 -23 -440 -52 -408 -64 -472 -161 -885 -62 -262 -80 -374 -87
-550 -7 -152 11 -404 51 -730 37 -301 43 -328 71 -347 22 -14 26 -14 50 2 31
20 32 -15 -15 355 -43 340 -54 505 -48 707 5 202 19 284 102 631 69 293 89
397 125 679 83 651 70 822 -105 1393 -79 257 -100 342 -125 514 -38 262 -45
370 -45 651 1 318 3 331 91 730 31 138 64 299 75 359 54 310 85 893 59 1142
-13 128 -63 340 -130 547 -23 71 -40 131 -37 133 2 2 125 -3 273 -11 148 -8
310 -15 360 -15 l91 0 2 -4207 1 -4208 -373 -334 c-206 -184 -378 -333 -383
-331 -5 1 -152 152 -326 334 l-318 330 0 4261 c0 2344 3 4264 6 4268 4 3 18 4
33 2 14 -3 132 -19 261 -35z m3140 -139 l155 -79 -35 -16 c-60 -28 -425 -183
-427 -181 -1 0 17 50 41 111 23 60 53 139 65 177 13 37 28 67 34 66 7 0 82
-35 167 -78z m10089 -177 c49 -147 136 -482 128 -490 -2 -3 -12 7 -21 21 -25
38 -129 111 -192 135 -31 11 -90 26 -131 33 l-75 13 54 41 c113 86 168 197
168 346 1 100 4 95 69 -99z m-9695 -21 l154 -77 -54 -115 c-30 -64 -71 -152
-92 -195 l-38 -79 -67 264 c-68 269 -71 279 -62 279 3 0 74 -35 159 -77z
m-179 -328 l76 -300 -71 -145 c-39 -80 -101 -201 -138 -270 l-66 -125 -43 304
c-24 168 -49 311 -55 318 -16 20 -52 16 -259 -27 -106 -22 -198 -40 -205 -40
-8 0 19 66 70 168 45 92 87 178 92 191 9 20 57 45 260 131 137 59 252 104 255
101 4 -3 41 -141 84 -306z m525 155 c44 -22 80 -43 80 -47 0 -27 -346 -716
-493 -983 -377 -682 -819 -1255 -1505 -1952 l-204 -207 -84 56 c-46 31 -84 59
-84 64 0 4 17 22 38 41 135 117 516 474 612 574 206 214 454 535 695 899 283
426 455 743 725 1328 67 147 127 267 132 267 4 0 44 -18 88 -40z m843 -200
c47 0 52 -15 20 -57 -43 -54 -123 -179 -123 -193 0 -6 12 -4 32 6 63 33 144 2
180 -69 25 -49 22 -131 -7 -191 -30 -63 -129 -160 -238 -234 -109 -74 -266
-167 -271 -161 -2 2 -20 56 -40 119 -59 191 -78 286 -80 395 -1 89 2 106 25
156 16 34 42 68 65 85 32 25 46 29 100 29 69 0 93 -14 124 -75 13 -24 20 -30
23 -20 8 21 25 133 32 211 l7 66 65 -33 c35 -19 74 -34 86 -34z m5777 -265
c121 -71 245 -162 303 -224 71 -74 101 -137 101 -211 1 -74 -25 -118 -88 -149
-48 -24 -50 -24 -95 -8 -25 9 -47 14 -49 12 -5 -4 134 -211 148 -220 21 -13 9
-23 -35 -29 -24 -4 -69 -20 -99 -37 -31 -16 -57 -29 -59 -29 -2 0 -7 35 -10
78 -9 103 -27 202 -38 202 -5 0 -9 -7 -9 -16 0 -27 -63 -82 -104 -89 -51 -10
-118 17 -156 63 -49 59 -63 119 -58 236 6 105 24 191 84 384 l35 113 32 -19
c18 -10 61 -36 97 -57z m-7526 -42 c3 -16 24 -166 47 -334 l43 -307 -49 -78
c-27 -44 -101 -158 -164 -254 l-115 -175 -7 35 c-4 19 -17 165 -29 325 -12
159 -26 297 -31 307 -7 12 -21 18 -45 18 -29 0 -264 -40 -387 -66 -27 -6 -25
-2 42 98 38 56 105 162 149 233 l79 130 219 47 c120 25 224 47 231 47 6 1 14
-11 17 -26z m4785 -43 c162 -45 217 -102 228 -238 11 -138 -36 -247 -156 -366
l-59 -59 0 114 c0 88 -5 129 -21 181 -19 60 -28 73 -95 132 -76 68 -106 118
-121 200 -6 28 -4 41 6 47 25 16 143 9 218 -11z m-658 -90 l63 -43 -51 -23
c-72 -31 -127 -91 -153 -167 -27 -80 -37 -234 -21 -317 7 -34 10 -65 7 -68 -9
-8 -53 36 -102 100 -84 114 -114 287 -67 390 27 60 93 131 146 158 58 29 101
22 178 -30z m6338 -366 c1 -180 -9 -374 -19 -374 -3 0 -13 15 -22 33 -40 84
-178 201 -278 236 l-49 17 86 39 c139 63 235 171 260 294 7 35 8 34 14 -24 4
-33 7 -132 8 -221z m-5932 -5 c98 -50 127 -113 140 -302 3 -54 10 -100 15
-103 5 -3 52 2 104 11 115 21 249 17 288 -8 70 -46 96 -197 57 -325 -15 -51
-33 -83 -65 -118 l-44 -49 -83 -4 c-54 -2 -119 3 -182 15 -65 11 -101 14 -108
7 -6 -6 -3 -38 11 -94 42 -174 36 -273 -18 -325 -68 -66 -215 -104 -325 -85
-180 32 -224 116 -198 385 9 93 10 131 2 135 -6 4 -44 2 -84 -5 -187 -33 -291
-10 -334 76 -67 131 -43 325 48 392 34 25 143 40 220 29 34 -4 78 -8 98 -7 35
1 36 2 38 41 20 317 64 379 265 372 76 -3 96 -7 155 -38z m8346 -183 c-43 -44
-81 -82 -85 -84 -7 -3 -103 59 -226 146 l-63 45 32 33 c18 19 37 34 42 34 5 0
45 -27 89 -60 61 -46 85 -59 102 -54 11 3 57 42 101 85 l80 79 3 -71 3 -72
-78 -81z m-13282 102 c1 -2 14 -163 29 -358 l28 -355 -56 -75 c-83 -112 -276
-352 -306 -379 l-26 -24 0 34 c0 59 -30 553 -35 576 -9 41 -31 43 -231 23
-104 -11 -209 -22 -232 -26 l-44 -6 89 104 c90 103 227 271 293 360 l35 47
120 22 c66 12 161 30 210 39 87 18 124 23 126 18z m1431 -393 c23 -19 63 -42
89 -50 l49 -17 -93 -99 c-50 -55 -93 -104 -95 -109 -2 -5 20 -6 50 -3 45 4 58
1 87 -19 115 -79 85 -241 -64 -355 -113 -86 -457 -242 -474 -214 -11 17 -40
229 -47 342 -16 243 59 404 194 417 82 7 130 -27 157 -112 3 -12 9 -16 14 -10
9 8 46 127 71 222 6 23 13 42 16 42 3 0 24 -16 46 -35z m6917 -105 c204 -102
361 -212 421 -294 71 -96 73 -210 5 -276 -38 -37 -106 -51 -144 -30 -13 6 -25
9 -28 6 -6 -6 63 -104 126 -181 l41 -49 -63 -21 c-34 -11 -77 -31 -95 -44 -18
-13 -36 -21 -38 -18 -3 3 -14 54 -24 114 -11 60 -24 122 -30 138 l-11 29 -19
-41 c-30 -68 -101 -98 -173 -74 -51 17 -112 88 -131 152 -18 60 -21 188 -6
275 13 69 82 354 87 354 2 0 39 -18 82 -40z m-8819 -167 c0 -5 9 -152 20 -328
l20 -320 -53 -50 c-204 -192 -353 -323 -358 -317 -3 4 -18 122 -33 262 -21
187 -32 260 -43 273 -14 15 -39 17 -230 17 -175 0 -214 2 -211 14 2 7 89 101
193 209 l190 195 230 25 c269 29 275 29 275 20z m11136 -454 c-46 -140 -92
-272 -101 -294 l-18 -40 -17 62 c-32 116 -140 259 -256 339 l-57 39 144 6
c113 5 156 11 200 28 65 25 124 65 160 108 14 17 25 24 27 17 2 -6 -35 -126
-82 -265z m-6655 149 l56 -63 99 1 c55 1 123 8 154 17 30 8 57 14 59 12 2 -2
-17 -32 -42 -67 -99 -138 -181 -191 -297 -191 -42 0 -79 6 -102 17 -49 23
-158 166 -158 206 0 16 66 84 110 114 41 27 61 20 121 -46z m1293 -166 c95
-222 307 -586 394 -674 55 -57 117 -88 175 -88 24 0 100 19 174 44 l131 44 6
-30 c11 -54 6 -178 -8 -211 -21 -52 -98 -113 -174 -138 -99 -34 -227 -32 -304
4 -71 32 -143 98 -218 199 -73 97 -96 146 -135 282 -23 80 -37 112 -49 114 -9
2 -35 -13 -58 -33 -83 -76 -183 -94 -268 -50 l-33 17 72 69 c173 168 240 304
241 484 0 43 4 65 9 60 6 -6 26 -47 45 -93z m-6279 -380 l29 -273 -67 -65 -67
-65 -137 93 -138 93 -3 248 -2 247 177 -2 178 -3 30 -273z m4385 241 c30 -8
91 -32 135 -54 193 -94 302 -229 384 -477 45 -137 47 -155 20 -167 -33 -15
-341 -617 -337 -659 4 -42 49 -60 77 -31 10 11 89 157 175 325 135 262 156
310 151 337 l-6 33 133 64 c165 79 249 106 337 106 181 -1 390 -103 506 -248
95 -120 135 -239 135 -402 0 -67 -2 -76 -21 -85 -31 -14 -453 -886 -444 -916
9 -28 47 -44 72 -31 25 14 443 873 443 912 0 26 4 28 96 54 238 68 468 50 596
-48 48 -37 154 -154 210 -231 l36 -50 -39 -23 c-21 -12 -57 -45 -79 -73 l-39
-50 -6 38 c-14 83 -47 174 -78 215 -96 126 -326 151 -532 58 -97 -44 -125 -77
-241 -285 -78 -142 -143 -277 -249 -527 -51 -120 -57 -141 -47 -163 14 -29 61
-35 83 -9 7 8 56 116 110 240 120 278 266 550 324 603 66 61 140 85 265 85 94
1 110 -2 150 -24 35 -19 51 -38 72 -80 15 -30 30 -75 33 -99 6 -38 5 -43 -9
-38 -9 4 -41 1 -71 -5 -46 -9 -58 -8 -73 4 -35 31 -102 58 -144 58 -87 -1
-159 -51 -251 -175 -77 -104 -92 -135 -237 -497 -131 -328 -136 -351 -83 -364
14 -4 33 -3 41 3 9 5 72 151 142 324 149 369 160 393 239 493 88 109 141 132
208 90 l23 -14 -59 -88 c-154 -230 -247 -431 -403 -862 -266 -741 -438 -1643
-506 -2667 -5 -68 -11 -125 -13 -127 -13 -11 -445 -29 -834 -33 -835 -10
-1733 46 -2310 143 -191 32 -377 72 -389 84 -5 5 -5 112 -1 253 l7 245 48 -34
c85 -61 176 -97 261 -102 88 -5 244 11 368 39 116 25 159 24 276 -11 121 -36
140 -37 159 -7 14 20 12 39 -14 186 -17 90 -29 165 -28 165 2 1 12 6 23 12 19
11 20 21 19 190 -2 208 -14 287 -78 497 -49 160 -66 238 -96 438 -11 74 -29
167 -40 205 -23 81 -26 161 -6 209 17 41 63 71 181 121 78 33 100 48 168 115
80 82 91 107 60 141 -28 31 -52 21 -119 -51 -57 -61 -77 -75 -162 -112 -123
-53 -169 -84 -206 -137 -28 -39 -31 -51 -34 -141 -3 -76 0 -114 16 -172 11
-41 32 -150 46 -244 15 -93 31 -188 36 -210 5 -22 8 -40 7 -41 -1 -1 -63 42
-137 96 -74 55 -142 101 -152 103 -27 7 -58 -21 -58 -53 0 -25 18 -41 161
-146 151 -110 163 -117 189 -107 l28 10 32 -106 c17 -58 34 -115 37 -126 5
-16 -4 -12 -38 17 -160 137 -250 170 -454 170 -181 -1 -317 -43 -447 -139
l-48 -35 0 164 c0 601 64 1343 146 1718 54 245 155 499 260 655 173 258 425
427 745 499 58 13 114 28 125 34 10 6 27 13 36 16 11 3 92 154 212 393 l194
388 96 93 c104 101 151 128 240 138 31 4 58 10 61 14 6 10 125 0 185 -17z
m-1604 -227 c90 -33 166 -81 240 -152 87 -84 123 -162 169 -374 20 -91 38
-172 41 -181 3 -12 -7 -18 -43 -26 -27 -6 -49 -11 -49 -10 -1 1 -18 67 -37
146 -61 244 -132 363 -253 422 -193 95 -455 11 -540 -174 -27 -57 -29 -71 -28
-172 1 -91 6 -124 28 -194 32 -97 156 -392 175 -415 10 -12 5 -24 -30 -69
l-43 -55 -78 174 c-42 96 -82 189 -87 207 -5 18 -21 62 -35 98 -35 93 -56 205
-56 296 0 146 45 250 154 359 144 144 298 183 472 120z m-1033 -84 l47 -30
-92 -66 c-146 -104 -165 -123 -109 -111 35 8 87 -13 119 -48 48 -52 46 -146
-6 -221 -67 -98 -266 -177 -591 -234 l-54 -10 6 142 c13 286 46 429 119 511
71 80 152 104 226 66 43 -22 72 -66 72 -110 0 -17 4 -31 9 -31 5 0 37 57 72
126 l64 126 35 -40 c19 -22 56 -53 83 -70z m8271 -136 c239 -97 351 -214 333
-348 -11 -81 -77 -134 -154 -123 -26 4 -43 2 -43 -4 0 -5 45 -49 99 -98 55
-48 100 -91 100 -94 1 -3 -18 -15 -41 -25 -23 -10 -62 -36 -86 -56 -24 -21
-45 -38 -47 -38 -2 0 -9 17 -15 38 -28 85 -83 222 -90 222 -4 0 -11 -15 -14
-34 -8 -43 -62 -93 -110 -101 -71 -14 -165 45 -208 129 -28 54 -47 172 -48
286 0 90 16 311 25 337 4 13 159 -33 299 -91z m-7214 -50 c54 -27 112 -99 141
-176 19 -49 89 -303 89 -323 0 -6 -82 -47 -95 -47 -2 0 -9 26 -15 58 -50 252
-126 381 -233 397 -63 10 -127 -20 -150 -68 -38 -79 0 -340 69 -481 19 -39 34
-75 34 -81 0 -7 -18 -26 -40 -44 l-40 -32 -9 23 c-5 13 -36 87 -70 166 -34 79
-71 177 -82 219 -25 90 -28 203 -7 253 59 140 263 208 408 136z m8524 -138
c-20 -46 -38 -89 -41 -95 -3 -7 -8 -13 -12 -13 -9 0 -101 127 -101 139 0 4 24
11 53 14 29 4 71 13 93 21 21 8 40 15 41 15 1 1 -14 -36 -33 -81z m-8606 -93
c19 -21 41 -66 56 -112 25 -81 62 -251 55 -256 -34 -23 -90 -57 -94 -57 -17 0
-68 141 -90 246 -36 174 -34 214 15 214 19 0 37 -11 58 -35z m-633 -251 c9
-31 15 -57 13 -58 -2 -1 -21 -8 -43 -14 -61 -17 -132 -68 -175 -126 -108 -143
-123 -339 -45 -574 41 -121 217 -475 249 -499 l22 -17 -18 -100 c-9 -56 -17
-103 -18 -106 0 -10 -196 351 -251 465 -110 227 -145 378 -136 585 8 186 47
307 126 393 40 43 95 72 181 96 71 19 77 16 95 -45z m75 -210 c11 -25 20 -47
20 -48 0 -2 -17 -8 -39 -14 -92 -28 -132 -94 -139 -225 -4 -76 -1 -100 23
-172 15 -48 55 -130 92 -192 l65 -108 -23 -92 c-13 -51 -26 -90 -30 -85 -17
17 -149 285 -177 358 -89 232 -78 435 31 546 46 47 99 77 135 78 18 0 27 -10
42 -46z m6581 -16 c22 -6 39 -14 39 -17 0 -3 -20 -17 -43 -31 -71 -42 -268
-247 -367 -380 -374 -506 -569 -924 -840 -1795 -165 -533 -237 -871 -335
-1580 -19 -143 -38 -272 -41 -286 -5 -25 -12 -28 -107 -47 -56 -11 -103 -19
-105 -17 -4 4 33 286 69 535 174 1185 503 2154 1021 3009 176 291 430 595 516
620 42 12 136 7 193 -11z m-453 -8 c9 0 23 -4 31 -9 12 -7 2 -24 -47 -78 -274
-310 -608 -898 -842 -1483 -270 -675 -448 -1413 -570 -2359 -16 -129 -31 -235
-33 -237 -1 -2 -42 -9 -90 -17 l-87 -14 0 41 c0 23 14 163 30 311 82 725 190
1264 375 1860 162 521 454 1159 700 1530 126 190 286 377 360 421 43 25 119
45 143 38 8 -2 21 -4 30 -4z m917 -35 c33 -9 82 -30 110 -48 l49 -32 -69 -12
c-98 -18 -157 -39 -260 -91 -436 -224 -803 -809 -1135 -1811 -193 -581 -326
-1178 -409 -1839 -11 -85 -21 -155 -23 -157 -6 -7 -199 -57 -203 -53 -5 5 82
605 120 824 66 383 119 597 256 1039 154 493 262 776 410 1075 109 221 191
359 316 534 279 392 457 544 673 575 84 13 101 12 165 -4z m-6945 -167 c18
-40 43 -96 56 -124 l24 -51 -29 -54 c-15 -30 -39 -80 -52 -112 -12 -31 -28
-56 -33 -54 -22 7 -107 194 -118 259 -17 95 3 166 52 190 56 29 64 24 100 -54z
m5473 -40 c15 -6 27 -12 27 -14 0 -2 -22 -35 -50 -74 -172 -241 -444 -776
-600 -1181 -281 -725 -461 -1544 -556 -2522 -16 -165 -19 -178 -38 -182 -58
-11 -189 -26 -194 -21 -7 7 30 340 69 616 114 812 317 1608 569 2239 172 430
286 662 436 888 164 247 226 293 337 251z m1864 -18 c138 -48 233 -137 269
-250 22 -67 24 -212 5 -290 -38 -157 -143 -298 -245 -333 -62 -21 -191 -22
-271 -2 -84 21 -211 87 -273 141 -58 51 -72 85 -72 180 0 61 0 61 55 113 136
129 336 159 390 59 18 -33 18 -41 6 -101 -14 -73 -9 -103 20 -112 53 -17 80
24 87 136 10 168 -78 246 -268 237 -125 -6 -215 -50 -325 -162 -73 -74 -92
-102 -210 -316 -173 -314 -386 -738 -469 -935 -171 -406 -288 -830 -450 -1635
l-82 -405 -86 -30 c-48 -16 -89 -27 -91 -25 -7 8 39 345 78 575 120 706 319
1393 573 1980 300 694 625 1077 1012 1191 71 21 269 12 347 -16z m-2367 -197
c45 -20 47 -25 21 -61 -80 -116 -240 -453 -379 -797 -311 -774 -528 -1700
-642 -2740 -11 -104 -24 -193 -28 -196 -4 -4 -44 -10 -90 -14 l-83 -7 6 63 c3
35 12 147 20 249 55 675 174 1363 336 1940 156 551 373 1084 555 1364 91 138
120 173 163 196 45 24 70 25 121 3z m-417 -144 c12 -7 23 -13 25 -14 2 -2 -17
-39 -42 -82 -104 -181 -221 -448 -341 -778 -205 -563 -382 -1347 -464 -2055
-25 -211 -61 -625 -61 -697 0 -28 -4 -54 -8 -57 -4 -2 -52 -8 -106 -12 l-98
-7 6 79 c23 292 39 482 57 639 73 660 222 1369 398 1885 157 463 273 726 420
951 91 141 150 181 214 148z m-5010 -399 l49 -90 -27 -123 c-14 -67 -30 -158
-36 -202 -11 -94 4 -351 27 -465 18 -89 76 -216 131 -291 l40 -54 -6 -160 -7
-160 -76 155 c-113 231 -178 418 -215 613 -20 111 -23 403 -5 517 23 140 65
350 71 350 4 0 28 -41 54 -90z m227 -403 c20 -14 20 -16 5 -158 -9 -79 -22
-223 -29 -319 l-13 -175 -26 57 c-38 82 -56 161 -67 295 -14 167 -12 258 5
354 23 123 22 123 66 37 21 -42 48 -83 59 -91z m611 -1438 c37 -8 64 -22 93
-49 36 -34 41 -44 41 -84 0 -35 -6 -51 -26 -71 l-25 -26 4 34 c2 18 -3 50 -12
70 -40 96 -192 104 -252 12 -18 -28 -24 -97 -11 -133 9 -23 9 -23 -23 -7 -39
20 -70 70 -70 113 0 48 59 108 130 132 65 23 82 24 151 9z m-367 -64 c-16 -39
-19 -122 -4 -159 5 -14 6 -26 2 -25 -4 0 -44 19 -90 42 -78 40 -82 44 -65 59
18 16 164 118 169 118 2 0 -4 -16 -12 -35z m691 -58 l39 -34 -62 -32 c-34 -17
-63 -31 -64 -31 -2 0 -3 38 -3 84 l0 84 25 -19 c14 -10 43 -34 65 -52z m-805
-192 c38 -19 104 -47 147 -62 73 -26 89 -28 238 -27 173 0 193 4 360 79 33 15
56 22 50 17 -27 -27 -193 -123 -271 -157 -152 -65 -252 -58 -469 34 -49 22
-99 40 -110 42 -16 4 -21 13 -23 57 -2 28 0 52 3 52 3 0 37 -16 75 -35z m934
-51 c3 -9 6 -42 6 -74 0 -51 -3 -60 -26 -75 l-27 -17 6 -109 c4 -60 3 -109 -1
-109 -4 0 -36 10 -72 22 -89 29 -340 32 -510 5 -92 -15 -124 -17 -156 -8 -45
12 -139 70 -197 120 -32 29 -37 39 -37 77 0 24 2 44 4 44 3 0 40 -16 82 -35
79 -36 224 -79 304 -90 111 -16 306 58 490 184 63 44 118 80 121 80 4 1 10 -6
13 -15z m4266 -970 c-148 -48 -443 -107 -590 -118 l-65 -5 80 14 c188 35 445
87 515 105 88 22 125 24 60 4z m-5421 -131 c-52 -78 -89 -125 -53 -67 50 81
99 152 102 149 2 -2 -20 -39 -49 -82z m88 81 c-3 -3 -12 -4 -19 -1 -8 3 -5 6
6 6 11 1 17 -2 13 -5z m4661 -81 c-10 -2 -26 -2 -35 0 -10 3 -2 5 17 5 19 0
27 -2 18 -5z m-70 -10 c-10 -2 -26 -2 -35 0 -10 3 -2 5 17 5 19 0 27 -2 18 -5z
m-80 -10 c-10 -2 -26 -2 -35 0 -10 3 -2 5 17 5 19 0 27 -2 18 -5z m-75 -10
c-7 -2 -21 -2 -30 0 -10 3 -4 5 12 5 17 0 24 -2 18 -5z m-80 -10 c-7 -2 -21
-2 -30 0 -10 3 -4 5 12 5 17 0 24 -2 18 -5z m-85 -10 c-10 -2 -26 -2 -35 0
-10 3 -2 5 17 5 19 0 27 -2 18 -5z m-80 -10 c-10 -2 -26 -2 -35 0 -10 3 -2 5
17 5 19 0 27 -2 18 -5z m-90 -10 c-10 -2 -26 -2 -35 0 -10 3 -2 5 17 5 19 0
27 -2 18 -5z m-90 -10 c-10 -2 -26 -2 -35 0 -10 3 -2 5 17 5 19 0 27 -2 18 -5z
m-90 -10 c-10 -2 -28 -2 -40 0 -13 2 -5 4 17 4 22 1 32 -1 23 -4z m1952 -38
c80 -21 152 -38 161 -39 11 0 71 -100 175 -290 87 -159 161 -293 162 -298 2
-5 1 -21 -3 -36 -6 -25 -8 -23 -38 33 -160 299 -414 456 -762 472 -220 10
-378 -48 -563 -206 -134 -115 -262 -326 -262 -432 0 -42 -16 -43 -40 -5 -33
55 -160 166 -246 218 -181 109 -404 177 -607 185 -196 9 -340 -22 -533 -112
-290 -135 -446 -331 -487 -610 -1 -11 -10 12 -20 50 -30 124 -89 228 -181 320
-93 92 -180 145 -336 204 -279 105 -538 109 -815 11 -242 -86 -438 -221 -539
-371 -38 -56 -37 -57 -56 28 -14 63 -78 190 -130 259 -95 126 -284 259 -446
314 -91 31 -109 34 -219 34 -214 0 -400 -67 -563 -201 -27 -22 -14 4 66 126
l99 152 79 35 c294 128 413 135 712 38 226 -73 334 -147 479 -331 37 -46 69
-83 73 -83 4 0 77 36 164 79 300 151 535 199 921 189 261 -8 332 -39 566 -252
l117 -105 23 26 c55 59 228 207 274 234 178 103 512 166 825 156 99 -3 191
-12 230 -21 90 -22 230 -79 377 -151 l123 -61 62 80 c64 82 197 216 265 266
140 103 297 141 568 136 171 -3 187 -5 325 -41z m-4627 28 c-7 -2 -21 -2 -30
0 -10 3 -4 5 12 5 17 0 24 -2 18 -5z m2575 0 c-10 -2 -28 -2 -40 0 -13 2 -5 4
17 4 22 1 32 -1 23 -4z m-2440 -10 c-16 -2 -40 -2 -55 0 -16 2 -3 4 27 4 30 0
43 -2 28 -4z m2340 0 c-10 -2 -28 -2 -40 0 -13 2 -5 4 17 4 22 1 32 -1 23 -4z
m-2191 -10 c-20 -2 -52 -2 -70 0 -17 2 0 4 38 4 39 0 53 -2 32 -4z m2061 0
c-10 -2 -28 -2 -40 0 -13 2 -5 4 17 4 22 1 32 -1 23 -4z m-1890 -10 c-21 -2
-55 -2 -75 0 -21 2 -4 4 37 4 41 0 58 -2 38 -4z m1740 0 c-10 -2 -28 -2 -40 0
-13 2 -5 4 17 4 22 1 32 -1 23 -4z m-1530 -10 c-10 -2 -28 -2 -40 0 -13 2 -5
4 17 4 22 1 32 -1 23 -4z m4079 -406 c80 -28 133 -62 209 -134 41 -39 123
-143 112 -143 -2 0 -25 7 -52 15 -27 8 -66 15 -87 15 -55 0 -141 -35 -198 -81
-143 -112 -142 -264 3 -417 28 -30 73 -65 101 -78 92 -44 158 -26 229 59 l36
42 0 -96 c0 -172 47 -258 170 -313 122 -55 218 -43 290 35 l35 38 320 -585
c176 -321 322 -589 323 -594 3 -7 -1614 -10 -4702 -10 -2588 0 -4706 2 -4706
5 0 3 163 253 362 556 l362 550 24 -31 c13 -17 43 -43 66 -58 108 -68 319 4
380 130 25 53 46 150 46 221 l0 38 43 -53 c75 -93 140 -107 245 -54 57 29 151
126 181 188 45 95 21 198 -68 281 -98 92 -199 118 -317 82 -64 -19 -61 -20
-67 20 -5 30 1 46 33 98 41 63 48 69 30 23 -8 -22 1 -18 56 28 162 133 349
187 490 140 38 -13 68 -36 136 -105 l87 -87 58 35 c118 71 132 76 201 70 42
-3 83 -15 125 -35 73 -36 185 -126 209 -169 l17 -29 -52 25 c-74 37 -188 37
-269 -1 -116 -54 -207 -183 -194 -276 12 -90 98 -191 203 -239 44 -20 66 -24
113 -21 40 3 57 1 53 -6 -4 -6 -24 -36 -44 -66 -69 -102 -107 -270 -80 -353
29 -86 148 -181 243 -192 51 -6 64 -4 121 23 36 16 83 47 106 68 108 97 124
194 65 402 -6 22 -3 21 60 -14 59 -32 73 -36 117 -32 64 7 121 46 171 117 84
120 105 248 56 332 -63 108 -272 174 -392 124 -20 -8 -36 -13 -36 -10 0 13
156 106 226 135 219 91 367 75 546 -60 77 -59 69 -60 179 21 102 75 150 93
244 93 95 0 192 -27 308 -85 87 -44 144 -95 204 -185 59 -88 60 -93 12 -47
-84 79 -221 132 -293 112 -55 -15 -119 -79 -152 -152 -24 -52 -29 -75 -29
-142 0 -67 5 -90 28 -141 32 -70 85 -126 139 -148 20 -9 73 -20 118 -25 45 -5
84 -11 86 -14 3 -3 -4 -35 -15 -72 -43 -139 -21 -233 76 -327 88 -86 173 -107
277 -68 118 45 195 149 204 276 6 88 -7 129 -59 188 -23 25 -39 46 -37 47 1 1
40 7 85 14 46 7 107 25 139 40 97 47 154 154 157 292 2 110 -42 176 -157 233
-119 60 -222 36 -349 -81 -59 -54 -65 -57 -58 -31 17 56 45 98 115 168 57 57
92 80 176 122 215 106 326 107 482 6 131 -84 116 -83 205 -11 165 133 295 153
512 81 75 -25 192 -86 241 -125 l25 -20 -35 18 c-51 26 -186 24 -261 -5 -62
-25 -132 -80 -153 -121 -47 -91 -6 -255 91 -362 79 -88 170 -103 266 -45 31
19 57 32 57 30 0 -2 -10 -41 -21 -86 -25 -98 -22 -183 9 -244 28 -54 107 -125
179 -159 101 -48 201 -24 297 72 75 74 93 160 60 286 -18 71 -43 123 -90 190
-19 26 -34 48 -34 50 0 1 29 1 64 -1 82 -5 136 18 212 90 62 58 104 133 104
188 0 43 -38 124 -76 165 -79 84 -152 116 -261 116 -114 0 -185 -38 -244 -130
-40 -62 -36 -43 8 41 49 93 116 161 198 199 126 60 237 56 374 -14 46 -23 87
-43 91 -45 4 -1 30 30 58 70 97 140 135 161 282 154 67 -3 116 -11 167 -29z
m488 -423 c37 -15 61 -124 33 -152 -18 -18 -79 -14 -115 8 -44 26 -46 74 -5
112 37 35 58 43 87 32z m-7218 -114 c88 -53 58 -151 -47 -154 -47 -1 -60 12
-60 64 0 35 19 74 48 98 20 16 21 15 59 -8z m5580 -126 c22 -22 25 -32 20 -71
-9 -87 -70 -106 -137 -43 -50 47 -37 102 30 129 40 16 59 13 87 -15z m-3905
-124 c26 -28 27 -32 15 -62 -9 -22 -28 -40 -60 -56 -44 -23 -48 -24 -71 -8
-44 28 -45 128 -2 159 24 17 90 -1 118 -33z m1961 -120 c33 -26 42 -69 23
-113 -30 -73 -101 -85 -151 -25 -37 44 -34 88 10 127 42 36 81 40 118 11z"/>
<path d="M11200 24994 c-14 -2 -70 -11 -125 -20 -204 -32 -374 -102 -497 -205
-84 -70 -96 -88 -79 -125 10 -23 16 -25 49 -21 20 2 93 29 162 59 276 123 463
165 680 155 93 -4 138 -12 235 -41 198 -60 380 -69 613 -31 48 8 90 15 93 15
3 0 4 -11 1 -25 -2 -14 -1 -63 3 -110 7 -91 20 -115 59 -115 41 0 51 25 56
145 5 105 7 115 38 165 36 58 37 91 3 110 -15 7 -46 2 -130 -25 -216 -67 -290
-69 -478 -11 -62 19 -174 45 -250 56 -129 21 -377 34 -433 24z"/>
<path d="M11310 24646 c-177 -38 -382 -146 -583 -309 -59 -48 -138 -102 -176
-122 -81 -40 -100 -65 -77 -99 13 -20 27 -25 92 -31 43 -4 128 -5 189 -4 l111
4 55 -49 c141 -128 236 -182 348 -198 114 -17 462 3 551 31 35 11 66 19 67 17
2 -2 -51 -51 -117 -110 -91 -81 -120 -113 -120 -131 0 -24 32 -55 57 -55 22 0
323 272 330 299 5 19 0 30 -20 46 l-25 22 61 46 c91 68 157 132 157 153 0 31
-12 41 -80 72 l-65 29 91 46 c131 68 159 101 118 141 -19 19 -36 20 -103 4
-64 -15 -89 -4 -186 81 -121 105 -173 121 -425 126 -133 3 -203 1 -250 -9z
m360 -100 c113 -7 163 -26 236 -89 33 -29 73 -62 90 -74 57 -42 18 -45 -191
-19 -161 21 -375 17 -487 -8 -37 -8 -141 -44 -230 -79 -90 -35 -185 -69 -213
-75 -74 -16 -157 -23 -153 -12 6 16 192 160 258 199 98 58 200 107 271 131 65
22 207 39 289 33 25 -1 83 -5 130 -7z m-234 -328 c-26 -36 -20 -101 11 -139
96 -114 305 -51 290 89 -5 51 4 53 37 9 56 -73 17 -156 -92 -197 -74 -29 -206
-25 -267 7 -127 66 -131 174 -10 237 41 22 49 20 31 -6z m-211 -25 c-30 -74
-18 -163 29 -212 14 -15 26 -30 26 -34 0 -11 -49 3 -94 25 -58 30 -176 118
-176 133 0 6 198 103 214 104 4 1 5 -7 1 -16z m808 -38 c9 -4 17 -11 17 -15 0
-8 -145 -120 -155 -120 -3 0 -1 10 6 21 12 22 8 119 -6 152 -7 18 16 11 138
-38z"/>
<path d="M12085 23274 c-49 -25 -102 -83 -126 -138 -38 -89 -12 -211 65 -303
67 -80 205 -113 331 -78 54 14 72 26 117 71 55 57 98 78 219 109 79 21 91 30
87 68 -5 45 -26 53 -99 38 -121 -25 -197 -60 -264 -123 -52 -48 -72 -60 -114
-68 -116 -22 -213 33 -245 140 -20 68 -11 104 40 158 36 38 47 43 70 38 57
-15 98 49 56 87 -24 22 -97 22 -137 1z"/>
<path d="M13511 22856 c-7 -8 -11 -27 -9 -43 2 -23 15 -34 75 -66 61 -32 75
-44 94 -83 27 -57 37 -174 20 -227 -20 -59 -52 -77 -135 -77 -67 0 -77 3 -151
46 -44 25 -162 88 -262 140 -156 81 -188 94 -230 94 -67 0 -122 -33 -150 -89
-26 -52 -22 -86 14 -118 30 -28 48 -29 112 -4 63 25 77 21 264 -73 267 -136
370 -164 480 -132 72 21 118 61 148 128 20 46 23 69 24 173 0 78 -5 134 -14
159 -20 57 -87 125 -156 157 -66 32 -106 36 -124 15z"/>
<path d="M11367 22836 c-38 -13 -79 -31 -92 -40 -57 -37 -100 -123 -111 -221
-12 -98 51 -240 130 -293 63 -42 152 -65 256 -66 89 0 104 3 240 50 80 28 186
69 235 90 l90 39 145 -2 c168 -3 221 9 276 63 64 65 37 153 -51 170 -112 21
-300 -23 -444 -102 -316 -175 -343 -187 -451 -198 -86 -9 -162 7 -223 46 -126
81 -124 295 3 348 26 11 45 10 118 -5 146 -30 138 -30 158 -1 25 39 8 66 -64
104 -83 44 -131 48 -215 18z"/>
<path d="M12235 22183 c-44 -14 -136 -42 -205 -62 -112 -32 -125 -39 -134 -63
-25 -71 80 -90 229 -42 92 30 114 29 314 -13 103 -21 155 -26 286 -26 142 -1
167 1 219 21 76 28 122 28 198 -3 34 -14 69 -25 78 -25 26 0 53 36 47 62 -12
44 -198 150 -292 165 -54 9 -101 -5 -145 -42 -27 -23 -52 -35 -72 -35 -37 0
-160 31 -253 65 -92 32 -166 32 -270 -2z"/>
<path d="M10508 21988 c-36 -30 -251 -438 -301 -573 -33 -87 -64 -204 -72
-270 -12 -104 42 -231 141 -331 95 -96 215 -144 359 -144 188 0 317 75 428
246 89 137 237 460 237 516 0 31 -18 48 -51 48 -33 0 -39 -7 -73 -100 -49
-129 -193 -401 -249 -470 -37 -45 -69 -73 -107 -92 -104 -53 -257 -54 -367 -3
-105 48 -199 173 -210 279 -12 117 80 361 247 658 55 97 100 186 100 197 0 41
-49 65 -82 39z"/>
<path d="M12810 21822 c-93 -46 -97 -47 -190 -47 -87 1 -102 4 -180 38 -91 40
-112 44 -127 25 -38 -49 -13 -79 101 -127 159 -66 282 -63 442 13 56 27 99 54
109 70 16 24 16 28 1 51 -23 35 -45 31 -156 -23z"/>
<path d="M10693 21852 c-16 -10 -218 -312 -247 -370 -37 -74 -59 -160 -58
-235 0 -120 62 -211 181 -265 105 -48 212 -28 278 53 62 75 233 458 233 521 0
14 -10 30 -25 40 -41 27 -66 2 -103 -104 -50 -143 -167 -376 -204 -407 -28
-23 -39 -27 -81 -22 -63 6 -125 48 -155 107 -20 38 -23 55 -18 109 8 87 48
170 174 356 56 82 102 159 102 172 0 39 -44 66 -77 45z"/>
<path d="M11588 21233 c-57 -67 -201 -362 -228 -469 -61 -238 28 -470 232
-604 151 -99 366 -90 491 20 104 92 252 371 353 664 22 64 23 72 9 93 -18 27
-56 30 -77 6 -8 -10 -38 -81 -67 -158 -86 -224 -206 -448 -278 -517 -78 -75
-220 -94 -326 -45 -83 38 -168 127 -214 223 -33 69 -37 86 -37 158 0 57 7 104
23 156 19 64 107 245 192 396 20 36 22 46 11 68 -14 31 -60 36 -84 9z"/>
<path d="M11753 21118 c-21 -27 -112 -238 -138 -319 -66 -207 -19 -362 128
-424 49 -20 140 -19 185 2 57 27 125 103 165 184 34 70 117 332 117 370 0 10
-11 26 -25 35 -41 27 -69 0 -95 -88 -68 -234 -100 -308 -160 -368 -50 -50 -92
-59 -153 -32 -57 25 -77 56 -84 129 -7 77 21 178 92 335 56 124 64 155 43 176
-16 16 -63 15 -75 0z"/>
<path d="M4825 19436 c-74 -19 -99 -31 -138 -66 -50 -43 -71 -104 -65 -183 7
-83 36 -146 95 -205 95 -94 201 -121 406 -103 66 7 131 14 143 17 26 7 25 2
49 288 12 144 13 181 3 188 -19 11 -212 56 -293 68 -90 12 -138 11 -200 -4z"/>
<path d="M5075 18509 c-200 -19 -309 -56 -388 -128 -57 -53 -70 -86 -65 -160
8 -109 91 -201 216 -237 105 -31 240 -3 445 90 l73 33 -30 204 -31 204 -65 1
c-36 1 -105 -2 -155 -7z"/>
<path d="M5330 17696 c-257 -89 -367 -162 -421 -280 -32 -72 -19 -141 42 -210
49 -56 122 -88 215 -94 91 -6 158 14 259 77 87 54 214 152 215 165 0 8 -209
377 -213 375 -1 0 -45 -15 -97 -33z"/>
<path d="M5719 16948 c-215 -149 -311 -259 -339 -384 -31 -136 83 -248 250
-248 118 1 177 29 275 128 44 45 107 119 139 164 l59 83 -44 47 c-94 101 -254
262 -260 262 -3 0 -39 -23 -80 -52z"/>
<path d="M10218 19497 c-135 -38 -216 -155 -206 -296 6 -76 25 -120 77 -174
50 -53 104 -79 178 -85 80 -6 137 10 199 57 136 103 147 310 22 427 -72 69
-178 96 -270 71z"/>
<path d="M9885 15608 c-104 -107 -165 -212 -211 -364 -38 -128 -46 -344 -16
-461 38 -148 121 -301 234 -427 78 -86 88 -84 213 46 165 170 252 324 282 498
39 224 -71 499 -291 728 -50 52 -76 72 -94 72 -19 0 -50 -25 -117 -92z m161
-88 c221 -257 287 -501 197 -726 -34 -85 -122 -218 -202 -304 l-61 -65 -26 30
c-87 102 -160 242 -189 362 -14 58 -17 99 -12 195 6 144 30 236 88 349 40 77
144 213 158 207 5 -2 26 -23 47 -48z"/>
<path d="M9977 15378 c-20 -15 -77 -137 -106 -227 -31 -94 -41 -173 -31 -234
17 -106 106 -298 145 -313 41 -16 63 5 113 108 93 193 114 285 88 388 -29 114
-137 290 -178 290 -8 0 -22 -6 -31 -12z m75 -235 c43 -90 42 -149 -3 -267 -19
-48 -38 -88 -44 -87 -5 1 -20 27 -32 59 -36 93 -29 193 24 325 8 20 17 37 20
37 2 0 18 -30 35 -67z"/>
<path d="M14280 13675 c-30 -9 -73 -27 -96 -40 -51 -30 -150 -136 -228 -244
l-58 -81 90 -98 c50 -53 118 -124 151 -156 l60 -60 68 46 c321 213 437 428
305 564 -70 72 -184 99 -292 69z"/>
<path d="M14691 12870 c-85 -31 -330 -197 -331 -224 0 -5 47 -91 105 -192
l106 -182 112 37 c158 54 257 103 321 161 56 52 106 135 106 178 0 89 -75 185
-173 221 -74 27 -172 27 -246 1z"/>
<path d="M14950 12015 c-60 -17 -215 -77 -271 -106 l-35 -18 30 -203 31 -203
30 -3 c44 -5 278 17 359 34 125 26 234 92 272 165 23 45 18 127 -12 187 -63
127 -242 192 -404 147z"/>
<path d="M14852 11120 c-41 -4 -89 -11 -107 -14 -39 -8 -35 11 -60 -290 -12
-144 -13 -181 -3 -188 22 -13 223 -58 314 -70 225 -29 383 65 384 228 0 140
-94 271 -231 319 -52 19 -202 26 -297 15z"/>
<path d="M9614 11048 c-17 -6 -53 -27 -80 -47 -136 -103 -147 -310 -22 -427
88 -84 213 -103 320 -51 66 32 101 70 136 146 21 45 24 64 20 125 -8 113 -67
200 -168 245 -49 23 -151 27 -206 9z"/>
<path d="M8048 9891 c-102 -33 -151 -74 -233 -196 -65 -97 -175 -326 -230
-479 -43 -121 -45 -130 -30 -152 18 -28 56 -31 77 -6 8 9 32 64 53 122 77 213
220 483 292 552 78 75 220 94 327 45 74 -34 171 -132 209 -210 86 -178 52
-321 -174 -723 -20 -36 -22 -46 -11 -68 14 -31 60 -36 84 -8 23 27 114 190
163 295 110 232 113 420 10 592 -122 204 -339 299 -537 236z"/>
<path d="M8073 9625 c-54 -23 -128 -105 -166 -186 -35 -71 -117 -333 -117
-370 0 -10 11 -26 25 -35 41 -27 69 0 95 88 72 250 114 339 182 388 47 35 77
37 135 11 54 -25 74 -57 80 -128 7 -77 -21 -178 -92 -335 -56 -124 -64 -155
-43 -176 16 -16 63 -15 75 1 21 26 112 237 138 318 66 206 19 363 -128 424
-45 19 -141 19 -184 0z"/>
<path d="M9235 9316 c-165 -40 -264 -143 -402 -421 -73 -144 -133 -294 -133
-327 0 -31 18 -48 51 -48 33 0 39 7 73 100 49 129 193 401 249 470 62 76 129
114 224 129 78 12 180 -1 250 -34 105 -48 199 -173 210 -279 12 -117 -80 -361
-247 -658 -55 -97 -100 -186 -100 -197 0 -41 49 -65 82 -38 47 38 266 468 318
626 55 162 66 243 46 322 -46 177 -196 321 -374 358 -68 14 -183 13 -247 -3z"/>
<path d="M9256 9038 c-66 -18 -123 -86 -195 -233 -70 -144 -141 -325 -141
-361 0 -14 10 -30 25 -40 41 -27 66 -2 103 104 50 143 167 376 204 407 28 23
39 27 81 22 63 -6 125 -48 155 -107 20 -38 23 -55 18 -107 -7 -86 -52 -177
-174 -358 -56 -82 -102 -159 -102 -172 0 -39 45 -66 76 -45 15 9 193 272 232
342 78 140 96 286 48 385 -59 119 -213 195 -330 163z"/>
<path d="M7297 8329 c-76 -11 -240 -88 -262 -123 -16 -24 -16 -28 -1 -51 9
-14 25 -25 35 -25 11 0 63 21 117 48 95 45 102 47 189 47 82 0 99 -4 182 -38
51 -21 100 -37 110 -35 25 5 44 47 32 70 -11 20 -89 62 -165 88 -66 23 -163
31 -237 19z"/>
<path d="M6745 8010 c-11 -12 -15 -28 -12 -42 12 -44 198 -150 292 -165 54 -9
101 5 145 42 27 23 52 35 72 35 37 0 160 -31 253 -65 103 -36 157 -33 327 19
78 25 172 53 208 63 53 15 66 23 74 45 25 71 -80 90 -229 42 -92 -29 -112 -28
-315 13 -102 21 -155 26 -285 26 -142 1 -167 -1 -219 -21 -76 -28 -122 -28
-198 3 -74 30 -90 31 -113 5z"/>
<path d="M6352 7772 c-66 -24 -104 -60 -133 -126 -20 -43 -23 -69 -24 -171 0
-78 5 -134 14 -159 20 -57 87 -125 156 -157 93 -45 140 -35 133 28 -2 23 -15
34 -75 66 -61 32 -75 44 -94 83 -27 57 -37 174 -20 227 20 59 52 77 135 77 67
0 77 -3 151 -46 44 -25 162 -88 262 -140 156 -81 188 -94 230 -94 67 0 122 33
150 89 26 52 22 86 -14 119 -30 27 -48 28 -112 3 -63 -25 -77 -21 -264 73
-273 139 -384 167 -495 128z"/>
<path d="M8325 7771 c-85 -23 -228 -76 -350 -128 l-90 -38 -160 0 c-147 0
-164 -2 -207 -23 -62 -31 -88 -64 -88 -114 0 -28 7 -46 24 -63 69 -69 314 -34
505 71 316 175 343 187 451 198 134 14 254 -37 293 -123 26 -57 27 -153 4
-198 -19 -36 -60 -71 -93 -79 -13 -3 -61 2 -106 11 -140 30 -134 30 -154 1
-25 -39 -8 -66 67 -106 82 -44 144 -46 242 -6 106 44 158 120 173 252 12 97
-52 240 -130 292 -92 62 -262 86 -381 53z"/>
<path d="M7632 7242 c-36 -12 -69 -34 -110 -74 -50 -48 -70 -60 -138 -81 -43
-14 -93 -28 -111 -31 -40 -9 -55 -27 -51 -62 5 -42 27 -50 99 -35 121 25 197
60 264 122 50 47 72 61 114 70 112 24 213 -34 245 -141 20 -69 11 -104 -40
-158 -37 -38 -47 -44 -72 -39 -58 12 -96 -48 -54 -86 21 -19 86 -23 126 -7 45
17 113 88 136 142 54 125 -12 292 -142 363 -68 37 -184 45 -266 17z"/>
<path d="M8125 6273 c-95 -84 -158 -147 -162 -162 -5 -18 0 -30 20 -46 l25
-22 -61 -46 c-91 -68 -157 -132 -157 -153 0 -31 12 -41 80 -72 l65 -29 -91
-46 c-131 -68 -159 -101 -118 -141 19 -19 36 -20 103 -4 64 15 89 4 186 -81
117 -102 172 -119 405 -128 196 -7 293 7 423 59 129 52 289 148 421 254 65 52
149 110 187 129 79 40 98 65 75 99 -12 20 -27 25 -91 31 -42 4 -127 5 -189 4
l-113 -3 -54 48 c-30 27 -81 69 -114 94 -144 106 -215 121 -516 105 -174 -9
-215 -14 -279 -36 l-74 -25 40 37 c22 20 79 71 127 114 63 57 87 85 87 102 0
23 -33 55 -57 55 -6 0 -82 -62 -168 -137z m671 -237 c66 -31 194 -124 194
-141 0 -6 -204 -105 -216 -105 -4 0 -3 8 1 18 30 73 18 162 -29 211 -46 48
-29 54 50 17z m-211 -23 c80 -42 114 -101 91 -157 -15 -35 -65 -79 -105 -91
-23 -7 -23 -7 -7 16 26 37 21 102 -11 140 -96 114 -305 51 -290 -88 5 -52 -4
-54 -37 -10 -60 78 -11 168 114 208 14 5 66 7 115 6 68 -3 100 -8 130 -24z
m-485 -52 c-13 -25 -13 -102 0 -137 6 -15 9 -28 8 -30 -7 -6 -159 59 -156 68
4 11 139 117 151 117 4 1 3 -8 -3 -18z m1178 -150 c-6 -18 -195 -163 -268
-206 -114 -67 -240 -123 -315 -140 -48 -11 -116 -16 -224 -16 -233 1 -288 15
-381 97 -31 27 -69 59 -85 71 -58 42 -22 45 195 19 164 -21 368 -17 482 8 37
8 141 44 230 79 150 59 224 81 303 91 58 6 67 6 63 -3z"/>
<path d="M7569 5454 c-9 -11 -16 -55 -19 -129 -5 -105 -7 -115 -38 -165 -36
-58 -37 -91 -3 -110 15 -7 46 -2 130 25 216 67 290 69 476 11 245 -76 588
-103 805 -63 125 23 278 71 362 113 71 36 207 143 222 175 15 31 -8 69 -41 69
-16 0 -89 -27 -165 -60 -288 -125 -471 -167 -688 -157 -93 4 -138 12 -235 41
-198 60 -380 69 -613 31 -48 -8 -90 -15 -93 -15 -3 0 -4 11 -1 25 8 45 -9 194
-25 210 -19 20 -57 19 -74 -1z"/>
<path d="M1110 26945 l0 -1385 140 0 140 0 0 416 0 416 82 190 c49 115 84 185
88 176 4 -7 92 -280 195 -605 l188 -593 139 0 c128 0 139 1 134 18 -4 9 -116
358 -250 775 l-244 758 242 592 c133 326 245 600 249 610 6 16 -4 17 -132 17
l-138 0 -276 -662 -276 -663 -1 663 0 662 -140 0 -140 0 0 -1385z"/>
<path d="M4818 27278 c-450 -552 -676 -852 -924 -1228 -144 -218 -214 -345
-319 -575 -197 -429 -239 -584 -238 -875 0 -317 67 -560 204 -742 168 -225
498 -313 720 -192 162 89 324 321 425 609 42 120 65 154 85 125 11 -17 11 -27
-31 -395 -59 -521 -93 -705 -216 -1194 -41 -163 -74 -299 -74 -302 0 -3 37 5
81 18 246 71 692 71 938 0 44 -13 81 -22 81 -19 0 3 -34 139 -75 304 -124 494
-156 675 -215 1193 -42 367 -42 378 -31 395 20 29 43 -5 85 -125 78 -224 199
-424 322 -533 110 -99 223 -139 359 -128 251 20 427 141 545 376 83 165 122
357 123 610 1 295 -46 462 -256 916 -123 266 -258 486 -546 888 -219 306 -826
1073 -858 1083 -6 2 -90 -92 -185 -209z"/>
<path d="M1634 24962 c-421 -512 -604 -784 -727 -1082 -57 -137 -70 -201 -70
-330 0 -193 46 -326 142 -413 61 -54 123 -77 205 -77 81 1 129 24 194 94 53
58 126 192 138 254 7 37 29 60 37 39 6 -15 -34 -362 -57 -493 -13 -75 -83
-376 -102 -436 -4 -15 -1 -15 53 0 79 23 376 22 446 0 26 -9 47 -14 47 -11 0
2 -20 86 -45 186 -52 214 -68 302 -95 532 -23 194 -24 228 -10 223 6 -2 25
-39 43 -83 61 -152 132 -246 214 -286 37 -18 57 -21 121 -17 197 12 311 165
329 439 11 162 -19 279 -132 516 -98 205 -237 409 -522 766 -96 119 -175 217
-176 217 -1 0 -16 -17 -33 -38z"/>
<path d="M14450 7491 c0 -3 33 -139 74 -302 123 -489 157 -676 216 -1194 42
-367 42 -378 31 -395 -20 -29 -43 5 -85 125 -101 288 -263 520 -425 609 -107
58 -248 70 -388 32 -341 -91 -535 -441 -536 -966 -1 -291 41 -446 238 -875
140 -306 262 -508 564 -929 244 -341 833 -1081 861 -1081 28 0 617 740 861
1081 288 402 423 622 546 888 210 454 257 621 256 916 -2 322 -67 559 -205
744 -167 223 -497 310 -719 190 -162 -89 -324 -321 -425 -609 -42 -120 -65
-154 -85 -125 -11 17 -11 28 31 395 59 518 93 707 216 1196 41 162 74 298 74
301 0 3 -37 -6 -81 -19 -246 -71 -692 -71 -938 0 -44 13 -81 21 -81 18z"/>
<path d="M18060 7493 c0 -2 20 -86 45 -186 52 -214 68 -302 95 -532 23 -194
24 -228 10 -223 -6 2 -25 39 -43 83 -61 152 -132 246 -214 286 -37 18 -57 21
-121 17 -197 -12 -311 -165 -329 -439 -11 -162 19 -279 132 -516 98 -205 237
-409 523 -767 139 -174 178 -216 186 -204 6 7 74 92 151 188 290 361 428 562
531 775 142 292 168 440 118 663 -30 135 -120 252 -221 286 -59 20 -153 21
-201 1 -80 -34 -169 -149 -223 -289 -38 -99 -40 -102 -49 -85 -10 17 33 387
61 529 17 88 77 343 95 402 4 15 1 15 -53 0 -78 -22 -364 -22 -440 0 -29 8
-53 13 -53 11z"/>
<path d="M17784 4423 c4 -10 116 -359 250 -776 l244 -758 -242 -592 c-133
-326 -245 -600 -249 -609 -6 -17 4 -18 132 -18 l138 0 276 662 276 663 1 -662
0 -663 140 0 140 0 0 1385 0 1385 -140 0 -140 0 0 -416 0 -416 -82 -190 c-49
-115 -84 -185 -88 -176 -4 7 -92 280 -195 606 l-188 592 -139 0 c-128 0 -139
-1 -134 -17z"/>
</g>
</svg>
