<?xml version="1.0" standalone="no"?>
<!DOCTYPE svg PUBLIC "-//W3C//DTD SVG 20010904//EN"
 "http://www.w3.org/TR/2001/REC-SVG-20010904/DTD/svg10.dtd">
<svg version="1.0" xmlns="http://www.w3.org/2000/svg"
 width="2000.000000pt" height="2900.000000pt" viewBox="0 0 2000.000000 2900.000000"
 preserveAspectRatio="xMidYMid meet">

<g transform="translate(0.000000,2900.000000) scale(0.100000,-0.100000)"
fill="#000000" stroke="none">
<path d="M712 28989 c-356 -59 -647 -356 -702 -715 -7 -48 -10 -4279 -8
-13834 l3 -13765 28 -88 c77 -247 227 -423 455 -535 l97 -47 9392 -3 9392 -2
68 25 c254 96 452 320 525 595 l23 85 0 13780 c0 13103 -1 13783 -18 13848
-69 272 -233 472 -482 588 -50 24 -126 49 -179 60 -89 18 -314 19 -9316 18
-5316 -1 -9248 -5 -9278 -10z m18623 -72 c322 -97 543 -353 585 -677 8 -61 10
-3897 8 -13810 l-3 -13725 -22 -80 c-77 -274 -270 -473 -548 -567 l-70 -23
-9255 -3 c-8440 -2 -9262 -1 -9335 14 -266 53 -492 246 -585 501 -15 43 -33
112 -39 153 -9 57 -11 3456 -9 13830 3 13159 4 13758 21 13815 90 304 319 519
617 580 54 11 1653 13 9320 11 8896 -1 9257 -2 9315 -19z"/>
<path d="M1200 28135 l0 -145 250 0 250 0 0 -842 c0 -921 0 -920 -58 -1035
-41 -80 -101 -139 -180 -176 -62 -30 -74 -32 -172 -31 -143 0 -201 23 -290
113 -75 75 -121 160 -146 267 -8 38 -17 70 -18 71 -3 4 -336 -54 -341 -59 -3
-3 6 -49 20 -104 74 -292 254 -483 525 -555 114 -31 357 -33 465 -5 307 81
498 305 544 639 7 52 11 404 11 1043 l0 964 -430 0 -430 0 0 -145z"/>
<path d="M3185 26365 c-262 -48 -464 -248 -548 -541 l-22 -79 -3 -11235 c-2
-10004 0 -11245 13 -11323 49 -287 224 -503 480 -594 l80 -28 6775 -3 c5937
-2 6785 0 6854 13 126 23 233 81 331 178 96 96 151 184 197 317 l33 95 3
11255 c2 8504 0 11273 -9 11330 -44 287 -244 525 -509 608 -52 16 -472 17
-6830 19 -5522 1 -6788 -1 -6845 -12z m3710 -171 c25 -6 44 -36 275 -429 341
-579 846 -1473 875 -1548 13 -34 16 -62 12 -102 -12 -116 -170 -457 -395 -850
-366 -641 -445 -898 -373 -1216 l24 -105 -22 -64 c-12 -35 -28 -69 -35 -74 -7
-6 -43 -50 -80 -99 -37 -48 -80 -94 -96 -102 -17 -9 -56 -15 -97 -15 -80 0
-172 -22 -222 -52 -58 -36 -141 -119 -183 -182 -62 -96 -80 -169 -80 -318 0
-71 3 -150 7 -176 l6 -49 -53 -22 c-29 -13 -213 -90 -408 -171 -195 -81 -395
-165 -445 -186 -223 -93 -538 -267 -942 -517 -137 -84 -273 -167 -303 -184
l-55 -31 -210 98 c-263 121 -462 202 -680 275 -197 65 -496 157 -573 175 -42
10 -55 18 -63 37 -6 16 -8 1052 -6 2731 2 2584 3 2710 21 2767 48 160 155 294
287 359 41 20 94 40 119 45 48 9 3661 14 3695 5z m9897 -5 c96 -20 177 -66
253 -143 81 -82 127 -163 155 -272 20 -76 20 -127 20 -4081 l0 -4004 -27 19
c-16 11 -98 62 -183 115 -241 148 -822 523 -847 545 -13 11 -23 32 -23 46 0
53 137 132 324 186 146 41 182 67 232 168 28 55 28 53 8 207 -6 49 -5 52 45
113 88 109 94 131 71 267 l-13 80 38 100 c57 153 49 204 -56 327 -31 36 -31
36 -30 150 1 104 -1 118 -22 149 -12 19 -47 48 -77 66 -125 72 -114 59 -121
149 -7 89 -12 100 -81 163 -27 24 -48 52 -48 62 0 11 31 38 88 75 200 131 362
342 376 492 3 29 10 69 17 89 31 94 -14 310 -86 414 -19 28 -35 54 -36 58 -3
25 -14 47 -64 131 -32 52 -69 108 -82 124 -14 17 -29 40 -34 52 -4 13 -40 72
-79 133 -39 60 -73 124 -76 143 -5 31 7 48 163 243 92 116 190 243 216 282 26
40 52 75 57 78 13 8 13 52 0 68 -48 59 -308 419 -376 521 -70 105 -69 108 47
276 164 236 251 388 300 528 15 41 22 93 26 189 5 124 4 137 -22 220 -42 136
-85 209 -197 331 -81 89 -112 115 -158 136 -147 66 -412 54 -564 -27 -124 -66
-283 -268 -293 -374 -3 -26 -12 -64 -21 -83 -13 -26 -17 -61 -16 -140 1 -124
18 -197 74 -309 22 -44 40 -89 40 -99 0 -11 11 -31 25 -46 13 -14 29 -45 35
-67 6 -23 22 -51 34 -63 13 -11 26 -33 29 -47 4 -15 20 -41 37 -59 17 -18 33
-44 37 -57 3 -14 13 -28 22 -30 9 -2 45 -46 79 -98 l64 -94 -28 -63 c-37 -84
-75 -139 -144 -207 -31 -31 -67 -72 -80 -91 -13 -19 -56 -70 -96 -112 -65 -70
-134 -161 -134 -178 0 -17 86 -144 242 -358 185 -255 234 -336 223 -371 -3
-11 -13 -21 -21 -21 -8 0 -21 -15 -29 -32 -7 -18 -37 -60 -66 -93 -89 -102
-259 -379 -259 -423 0 -10 -12 -39 -26 -65 -14 -27 -23 -54 -21 -61 3 -6 -4
-27 -14 -46 -10 -19 -23 -46 -30 -60 -7 -15 -12 -65 -12 -120 2 -230 117 -420
346 -569 69 -45 99 -71 104 -89 13 -53 -18 -72 -177 -107 -62 -14 -153 -41
-203 -61 -119 -47 -383 -178 -469 -232 -130 -83 -242 -227 -413 -532 -149
-264 -173 -293 -237 -277 -14 4 -68 35 -119 69 -52 34 -357 229 -679 434 -736
468 -850 542 -930 607 l-65 53 2 55 c2 30 3 124 3 209 1 168 7 193 68 282 41
61 42 67 32 160 -9 91 0 127 40 163 46 41 50 63 50 257 l0 184 65 64 c35 35
106 96 157 134 51 39 105 90 121 112 67 96 49 164 -154 602 -219 470 -242 534
-242 662 0 69 5 98 27 155 107 269 123 356 106 558 l-11 129 63 67 c35 37 113
139 175 226 61 88 154 219 206 290 51 72 244 348 427 615 390 567 463 668 493
680 34 13 2363 13 2429 -1z m-365 -1044 c29 -8 86 -38 127 -66 130 -87 208
-196 246 -345 26 -99 28 -319 5 -409 -31 -117 -152 -336 -274 -495 -103 -133
-141 -193 -141 -220 0 -31 43 -95 250 -371 84 -112 162 -223 172 -247 l19 -42
-26 -48 c-14 -26 -95 -135 -181 -242 -165 -207 -254 -332 -254 -356 0 -22 24
-65 88 -156 160 -229 301 -477 344 -608 29 -84 32 -108 32 -210 0 -100 -3
-125 -26 -189 -81 -224 -251 -391 -436 -430 -121 -25 -276 -4 -399 56 -77 37
-188 144 -239 229 -69 118 -87 170 -92 267 -10 204 56 358 337 786 78 117 141
220 141 228 0 17 -51 90 -214 308 -175 232 -236 325 -236 355 0 28 58 113 150
220 132 155 320 413 320 441 0 9 -28 48 -63 86 -112 122 -276 367 -327 490
-57 136 -82 240 -87 369 -6 141 3 197 53 300 42 87 119 175 196 224 136 88
362 121 515 75z m-4272 -639 c432 -42 693 -102 760 -176 19 -21 20 -36 20
-264 l0 -241 -38 -85 c-75 -166 -81 -187 -81 -295 -1 -93 2 -106 38 -195 21
-52 108 -237 192 -410 153 -317 185 -388 210 -468 23 -75 18 -82 -234 -310
-51 -46 -104 -103 -118 -128 -25 -42 -26 -49 -19 -142 6 -89 5 -99 -14 -124
-12 -15 -43 -34 -74 -44 -28 -9 -131 -45 -228 -80 -250 -89 -295 -96 -416 -59
-30 9 -65 -45 -61 -95 l3 -35 60 1 c33 1 146 5 250 9 202 8 279 0 344 -33 34
-18 36 -22 39 -74 2 -47 -2 -64 -34 -124 l-37 -69 -8 -170 c-9 -195 -22 -252
-75 -313 -128 -150 -612 -227 -1034 -163 -187 28 -414 74 -518 105 -309 93
-595 259 -875 510 -139 123 -307 344 -307 402 0 31 18 42 118 70 120 32 156
48 228 100 197 140 285 365 229 585 -24 94 -81 205 -129 254 -69 69 -187 130
-289 150 -15 3 -37 15 -48 26 -17 17 -20 29 -15 61 17 108 84 276 212 535 168
339 326 695 410 923 83 223 134 352 146 365 18 20 134 23 678 20 401 -3 600
-8 715 -19z m-1503 -14 c37 -37 -161 -533 -480 -1202 -141 -298 -228 -510
-252 -616 -16 -68 -21 -75 -117 -147 -140 -103 -156 -100 -134 32 30 176 142
460 344 866 164 331 328 715 402 945 23 70 51 127 67 134 22 10 158 0 170 -12z
m-308 -7 c19 -19 9 -53 -74 -269 -103 -268 -213 -518 -385 -871 -134 -276
-166 -349 -220 -507 -52 -150 -81 -280 -101 -443 -33 -281 -4 -415 113 -526
77 -73 144 -101 243 -101 115 0 172 22 240 91 82 82 94 114 87 228 -7 102 -19
132 -69 179 -44 42 -85 62 -144 69 -60 7 -98 -13 -144 -77 -61 -83 -12 -120
65 -49 29 27 54 41 71 41 42 0 94 -39 115 -84 23 -51 25 -155 4 -197 -33 -62
-147 -119 -240 -119 -53 0 -138 50 -181 107 -105 137 -93 283 31 407 135 135
309 171 462 96 109 -54 184 -169 205 -318 32 -224 -113 -453 -338 -533 -83
-30 -238 -37 -323 -15 -71 18 -101 38 -204 135 -110 104 -109 100 -122 421
l-11 275 -38 83 c-36 79 -37 87 -27 128 14 56 94 238 206 469 121 251 328 707
385 850 26 66 76 199 110 295 34 96 67 188 72 203 13 37 37 46 125 46 51 1 76
-3 87 -14z m-343 -15 c28 -15 24 -63 -12 -177 -77 -242 -247 -635 -458 -1062
-64 -130 -143 -296 -176 -370 -32 -74 -68 -146 -80 -159 l-21 -24 -51 22 c-68
29 -108 70 -99 104 9 35 99 231 241 521 206 422 287 609 383 881 70 196 99
261 121 267 33 9 133 7 152 -3z m-323 -26 c15 -10 22 -25 22 -46 0 -74 -179
-528 -355 -898 -53 -113 -113 -241 -132 -285 -19 -44 -75 -158 -125 -254 -103
-195 -105 -196 -234 -236 -107 -33 -106 -33 -98 18 11 68 49 161 141 337 323
624 359 699 511 1102 87 230 95 246 135 263 43 19 108 19 135 -1z m-311 -40
c16 -21 7 -67 -37 -205 -75 -229 -147 -391 -381 -854 -130 -258 -256 -513
-279 -565 -23 -52 -66 -148 -96 -213 -35 -74 -58 -139 -62 -175 -31 -241 144
-461 381 -479 99 -8 149 11 210 76 76 81 90 118 85 230 -3 64 -10 107 -21 128
-22 41 -99 100 -149 114 -71 19 -167 -31 -207 -108 -19 -37 -13 -114 12 -157
24 -43 78 -81 102 -72 22 8 18 40 -6 62 -52 47 -62 108 -25 150 20 23 31 28
73 28 71 0 108 -29 129 -101 30 -102 1 -181 -87 -242 -30 -21 -42 -23 -109
-18 -97 6 -150 23 -195 59 -48 41 -74 94 -87 186 -22 155 12 247 122 323 80
55 148 72 261 67 149 -7 233 -58 294 -178 97 -190 65 -461 -70 -595 -83 -84
-259 -143 -390 -132 -142 11 -396 188 -424 294 -31 121 -53 454 -35 539 24
118 116 324 400 894 207 418 223 453 309 680 61 161 95 231 127 257 20 17 88
32 118 27 14 -3 30 -12 37 -20z m-343 -60 c9 -3 16 -17 16 -31 0 -74 -163
-467 -312 -753 -148 -282 -182 -353 -306 -625 -138 -305 -172 -365 -203 -365
-30 0 -99 72 -99 102 0 70 90 275 354 808 113 228 234 478 267 555 126 285
130 294 158 304 30 11 102 14 125 5z m-323 -54 c52 -28 -2 -167 -318 -810 -93
-190 -218 -449 -278 -577 l-108 -231 -101 -26 c-55 -13 -102 -23 -104 -21 -15
15 45 148 264 582 247 489 399 808 424 888 36 114 51 144 86 165 58 37 103 46
135 30z m-313 -102 c2 -20 -8 -70 -22 -112 -51 -149 -245 -559 -417 -877 -105
-195 -311 -609 -360 -724 -41 -95 -43 -105 -44 -200 0 -115 16 -163 81 -234
103 -115 262 -140 387 -62 52 34 92 107 103 186 6 47 4 53 -35 101 -77 97
-158 129 -212 85 -33 -27 -17 -50 52 -74 100 -33 133 -100 88 -174 -37 -59
-119 -89 -198 -72 -138 29 -210 164 -166 314 22 78 105 163 184 190 117 39
281 -1 383 -93 70 -64 83 -100 83 -237 -1 -159 -20 -212 -114 -306 -103 -103
-194 -139 -349 -139 -141 1 -232 36 -334 129 -109 100 -158 221 -158 394 0
115 22 220 72 337 64 152 250 512 353 685 121 203 222 403 316 625 42 100 86
189 104 209 35 40 139 93 175 89 21 -3 25 -9 28 -40z m12 -2310 c38 -38 37
-54 -9 -173 -54 -140 -86 -174 -183 -194 -86 -19 -94 -5 -66 110 28 114 43
143 117 221 73 78 94 84 141 36z m-956 -81 c32 -30 46 -51 46 -69 0 -32 -93
-173 -132 -202 -33 -23 -55 -16 -124 40 l-43 35 51 87 c102 174 120 184 202
109z m1967 -37 c72 -61 83 -93 69 -197 -27 -206 -164 -567 -308 -810 l-67
-113 -78 0 c-74 0 -117 11 -117 29 0 4 27 50 60 102 134 207 251 507 325 829
36 155 50 200 62 200 5 0 29 -18 54 -40z m-826 -30 c29 -17 58 -37 65 -45 26
-32 -10 -155 -59 -199 -20 -18 -21 -18 -74 3 -85 35 -99 48 -92 83 15 66 78
188 97 188 6 0 34 -14 63 -30z m645 -40 c0 -105 -117 -475 -214 -675 -78 -159
-149 -267 -230 -348 -110 -109 -211 -147 -396 -147 -117 0 -184 14 -259 56
-114 62 -209 197 -232 333 -32 181 80 395 248 474 55 25 83 32 154 35 187 9
298 -60 375 -234 46 -105 27 -199 -61 -293 -91 -97 -182 -116 -293 -60 -70 34
-97 64 -113 121 -25 96 56 184 152 163 34 -8 63 -47 79 -106 14 -53 34 -66 54
-37 49 70 14 163 -79 210 -138 71 -303 -42 -305 -207 -1 -122 187 -285 329
-285 39 0 73 8 111 26 120 55 189 141 249 305 21 57 61 155 90 216 28 62 72
174 97 248 26 75 55 146 65 160 21 26 132 85 161 85 14 0 18 -8 18 -40z
m-1502 -36 c13 -9 22 -26 22 -40 0 -69 -203 -374 -249 -374 -13 0 -27 21 -48
68 -50 112 -51 103 13 203 31 50 71 106 89 125 30 31 37 34 91 34 38 0 68 -6
82 -16z m309 -20 c33 -86 -274 -654 -445 -824 -109 -109 -255 -196 -401 -240
-58 -18 -90 -22 -162 -18 -83 4 -96 8 -185 53 -157 79 -235 178 -269 340 -19
90 -19 128 1 222 19 95 52 161 111 224 67 72 136 102 244 107 180 9 292 -31
365 -131 107 -144 111 -288 14 -425 -69 -98 -159 -140 -277 -128 -108 11 -147
35 -188 116 -58 115 -53 185 20 257 40 41 45 43 102 43 46 0 68 -5 94 -23 65
-44 64 -105 -3 -167 -50 -46 -47 -70 9 -70 48 0 97 30 118 71 19 36 22 111 6
152 -33 87 -135 155 -216 144 -60 -9 -111 -36 -164 -89 -101 -101 -118 -211
-51 -342 43 -86 129 -167 194 -186 67 -19 199 -9 258 19 63 30 168 128 196
182 13 24 74 115 136 202 62 87 142 208 179 270 36 62 80 136 98 166 23 39 43
58 73 72 52 24 134 26 143 3z m845 -15 c51 -13 57 -42 30 -128 -32 -98 -104
-235 -125 -239 -26 -5 -56 25 -83 83 -30 63 -30 98 0 180 40 111 77 133 178
104z m806 -110 c65 -32 77 -50 67 -102 -33 -165 -215 -595 -294 -695 -44 -55
-81 -72 -158 -72 -50 0 -73 8 -73 25 0 7 36 87 80 177 120 243 250 587 250
659 0 14 3 29 7 32 14 15 63 5 121 -24z m201 -176 c11 -10 45 -52 76 -93 79
-108 268 -295 430 -425 77 -62 153 -126 168 -143 l28 -29 -24 -7 c-126 -31
-1013 -33 -1044 -2 -10 10 9 60 122 306 56 124 115 259 130 300 38 103 42 110
69 110 13 0 33 -8 45 -17z m-3173 -752 c28 -16 65 -46 82 -66 30 -33 32 -40
32 -113 0 -154 -43 -353 -98 -455 -32 -60 -69 -87 -118 -87 -31 0 -44 7 -81
45 -27 28 -43 55 -43 70 0 13 14 59 31 102 57 141 77 231 88 394 5 64 11 122
15 128 11 18 38 13 92 -18z m-424 1 c10 -10 28 -172 28 -248 0 -94 28 -231 60
-299 16 -33 51 -90 78 -125 27 -36 81 -108 121 -160 90 -120 154 -247 186
-374 34 -134 50 -353 36 -506 -9 -108 -12 -121 -56 -207 -59 -116 -83 -143
-129 -143 -27 0 -41 7 -64 36 -59 72 -60 74 -21 187 l34 102 -1 215 c0 196 -2
221 -23 280 -30 87 -111 230 -239 419 -120 178 -183 303 -207 411 -17 80 -25
297 -13 342 17 58 170 109 210 70z m1011 -197 c9 -119 0 -1689 -11 -2077 -9
-272 -5 -262 -98 -284 -74 -17 -225 -19 -242 -2 -23 23 -10 2341 13 2401 11
27 214 78 295 74 l35 -2 8 -110z m9106 104 c69 -15 101 -41 101 -85 0 -52 -42
-92 -115 -110 -119 -28 -220 -10 -301 51 -43 33 -53 27 -27 -17 30 -51 98 -87
193 -102 45 -8 89 -20 97 -29 57 -57 -103 -141 -357 -187 -140 -26 -232 -52
-285 -83 -45 -26 -45 -27 -25 -147 17 -102 7 -320 -20 -425 -23 -91 -24 -105
-10 -105 18 0 39 58 60 166 31 163 40 197 56 222 13 19 18 21 37 11 35 -19 37
-28 35 -144 -2 -106 -1 -112 32 -180 29 -61 34 -83 40 -175 5 -92 10 -115 43
-188 21 -48 41 -113 47 -152 17 -121 32 -146 140 -228 16 -13 30 -30 30 -37 0
-20 -61 -64 -97 -71 -72 -14 -128 18 -753 422 -406 262 -526 343 -586 396 -35
31 -36 34 -31 83 8 73 40 163 112 311 105 212 271 414 430 519 189 126 522
263 661 273 68 4 72 3 92 -23 12 -15 22 -34 22 -41 0 -26 18 -14 25 16 4 17
16 35 26 41 47 25 246 36 328 18z m-10470 -60 c12 -35 14 -1639 3 -1739 -7
-51 -9 -55 -35 -58 -37 -4 -96 32 -181 112 -63 59 -68 67 -61 93 20 76 24 123
25 308 0 313 21 1172 28 1218 7 40 8 41 82 68 102 38 125 37 139 -2z m7057
-130 c84 -48 154 -107 154 -130 0 -28 -30 -83 -135 -249 -50 -80 -143 -226
-205 -325 -114 -181 -260 -408 -555 -865 -87 -135 -219 -339 -293 -455 -74
-115 -240 -370 -367 -565 -128 -195 -269 -413 -314 -485 -99 -156 -118 -177
-144 -169 -26 8 -215 130 -244 157 -13 11 -23 28 -23 37 0 29 204 347 810
1265 66 99 147 223 180 275 34 52 178 275 321 495 143 220 347 534 452 699
106 164 204 312 220 329 33 36 61 33 143 -14z m-2491 -25 c550 -3 1018 -8
1040 -10 22 -2 162 -4 310 -5 313 -2 368 -6 373 -32 2 -9 -11 -42 -29 -74
l-32 -56 -1666 7 c-916 3 -1729 8 -1806 11 -77 3 -299 7 -494 10 -222 3 -359
9 -367 16 -18 15 -27 80 -15 112 10 26 12 26 113 30 105 4 809 2 2573 -9z
m6134 -94 c70 -35 102 -147 65 -226 -20 -43 -114 -129 -188 -173 -112 -67
-257 -104 -287 -74 -7 7 -15 41 -17 75 l-5 62 -31 -64 c-35 -72 -63 -97 -125
-111 -84 -19 -166 25 -196 106 -36 92 7 130 145 130 69 0 93 -5 128 -23 23
-12 47 -22 52 -22 17 0 11 36 -10 60 -25 29 -14 51 43 87 23 14 92 59 152 99
61 40 121 77 135 83 41 16 98 12 139 -9z m-3186 -176 c42 -21 87 -64 87 -82 0
-23 -103 -191 -438 -712 -168 -261 -401 -623 -517 -805 -117 -181 -320 -499
-452 -705 -549 -858 -659 -1026 -689 -1051 -13 -11 -19 -9 -35 11 -10 14 -33
58 -51 99 l-32 74 24 41 c32 57 152 249 242 386 84 130 192 298 563 880 668
1048 781 1224 960 1495 193 291 264 385 291 385 8 0 29 -7 47 -16z m-4643
-154 l0 -150 -114 0 c-189 0 -206 15 -206 183 0 57 3 107 7 110 3 4 75 7 160
7 l153 0 0 -150z m808 27 c-2 -97 -7 -129 -21 -150 -17 -27 -18 -27 -138 -27
-119 0 -121 0 -149 28 -52 52 -55 206 -5 250 25 21 35 22 171 22 l146 0 -4
-123z m786 94 c24 -20 30 -78 17 -164 -7 -43 -15 -85 -18 -93 -4 -11 -33 -14
-140 -14 -128 0 -135 1 -158 24 -31 31 -48 97 -43 164 6 65 23 84 85 93 72 11
240 4 257 -10z m1497 -1 c24 -13 32 -75 24 -181 l-7 -89 -154 0 -154 0 -6 25
c-3 14 -4 68 -2 120 4 105 12 121 69 136 40 10 205 2 230 -11z m-3836 -45 c8
-59 0 -133 -18 -172 -13 -29 -43 -38 -129 -38 -101 0 -106 9 -100 193 l2 72
119 0 120 0 6 -55z m3099 39 c12 -11 16 -36 16 -93 0 -162 -11 -173 -168 -174
-59 0 -119 5 -134 11 l-28 12 0 107 c0 166 -13 153 155 153 117 0 146 -3 159
-16z m5593 -183 c64 -30 75 -64 52 -173 -15 -74 -81 -135 -226 -210 -101 -53
-299 -128 -337 -128 -24 0 -45 41 -44 90 0 25 -12 76 -26 114 -29 76 -32 108
-13 124 7 6 66 28 132 50 66 22 176 65 245 96 69 31 136 56 150 56 14 0 44 -9
67 -19z m-12711 -42 c84 -35 114 -60 114 -97 0 -15 -16 -97 -36 -182 -134
-591 -185 -1059 -170 -1575 14 -473 62 -823 167 -1225 104 -396 234 -713 479
-1165 196 -362 313 -537 560 -835 262 -316 445 -498 811 -807 224 -188 286
-232 549 -391 446 -269 712 -393 1080 -507 157 -48 409 -113 639 -166 79 -18
149 -39 156 -45 15 -15 57 -232 48 -247 -9 -15 -213 -1 -323 22 -150 32 -462
118 -622 171 -181 60 -492 183 -643 255 -233 109 -687 390 -945 584 -338 254
-561 461 -800 740 -469 550 -667 840 -940 1376 -204 402 -293 672 -409 1251
-89 444 -106 649 -97 1149 9 562 21 709 96 1190 45 293 68 392 110 484 l30 63
37 -7 c21 -4 70 -20 109 -36z m2274 -137 c59 -57 60 -65 25 -205 -31 -127 -49
-280 -43 -376 9 -132 75 -282 233 -531 151 -237 275 -471 275 -518 0 -25 -101
-93 -149 -99 -45 -6 -58 7 -102 107 -39 88 -142 270 -263 465 -103 166 -166
292 -197 395 -30 104 -40 442 -15 539 18 69 87 224 113 253 29 32 68 23 123
-30z m5073 -29 c394 -6 397 -6 397 -27 0 -12 -11 -39 -23 -61 l-23 -40 -1594
1 c-877 1 -1760 5 -1962 9 l-368 7 0 59 0 59 1588 0 c873 0 1766 -3 1985 -7z
m4719 -77 c25 -12 40 -28 47 -49 14 -44 -1 -117 -29 -139 -29 -24 -113 -24
-160 0 -71 35 -107 161 -57 197 29 22 147 16 199 -9z m648 -166 c24 -24 26
-76 6 -123 -30 -74 -180 -171 -357 -233 -122 -43 -165 -30 -178 51 l-7 50 -20
-35 c-49 -89 -103 -111 -170 -70 -31 20 -74 90 -74 122 0 8 9 27 21 42 29 37
88 36 164 -4 31 -16 58 -30 60 -30 1 0 0 20 -2 44 -5 43 -5 45 35 65 22 11 76
30 119 42 43 12 112 35 153 51 106 43 119 46 178 47 39 1 57 -4 72 -19z
m-11613 -256 c38 -27 65 -55 69 -70 3 -13 -3 -75 -15 -137 -150 -811 -46
-1826 254 -2482 236 -516 498 -894 874 -1264 493 -484 1101 -857 1745 -1069
129 -43 172 -61 183 -79 9 -13 18 -55 21 -94 4 -58 2 -73 -14 -90 -16 -18 -26
-20 -73 -15 -113 13 -470 145 -761 280 -649 303 -1196 741 -1654 1325 -284
362 -490 721 -611 1066 -214 606 -299 1092 -281 1610 8 229 30 497 51 626 8
52 15 122 15 156 0 106 33 248 67 285 19 22 46 12 130 -48z m4353 22 c81 -53
90 -137 30 -266 -22 -47 -40 -94 -40 -105 0 -55 54 -58 170 -10 47 19 98 35
113 35 71 0 150 -67 162 -138 15 -93 -36 -170 -132 -198 -64 -19 -89 -15 -183
26 -77 34 -102 37 -120 15 -19 -23 -7 -95 24 -142 49 -74 47 -138 -6 -198 -64
-74 -149 -94 -223 -52 -89 50 -109 139 -56 245 36 74 44 107 30 134 -11 19
-17 20 -98 15 -47 -4 -117 -9 -154 -13 l-68 -7 -49 51 c-60 62 -71 104 -43
159 11 21 39 52 62 68 37 26 51 30 109 30 47 0 82 -7 119 -22 73 -32 111 -31
119 4 4 15 1 40 -5 57 -53 129 -62 166 -51 207 14 52 64 106 115 125 54 19
128 11 175 -20z m3678 -135 c56 -29 102 -70 102 -91 0 -27 -17 -54 -296 -470
-138 -206 -309 -467 -379 -580 -158 -252 -673 -1057 -768 -1200 -150 -224
-198 -268 -276 -255 -53 9 -99 40 -107 71 -13 51 16 101 533 899 181 281 434
674 563 875 276 432 456 701 503 753 38 41 41 41 125 -2z m3471 -40 c53 -50
39 -125 -35 -191 -68 -59 -201 -97 -289 -82 -39 7 -54 24 -79 87 -2 6 -18 -7
-36 -27 -25 -30 -38 -38 -65 -38 -42 0 -105 51 -105 85 0 63 81 90 139 47 41
-30 51 -28 51 11 0 51 28 68 168 104 165 42 210 42 251 4z m-11216 -100 c2
-10 -2 -36 -10 -57 -8 -21 -15 -72 -16 -113 l-2 -73 53 -49 c29 -27 71 -54 93
-60 38 -12 44 -10 122 30 78 40 130 53 156 37 38 -24 -22 -106 -107 -148 -62
-30 -163 -36 -230 -14 -61 20 -135 83 -165 140 -29 55 -31 193 -3 246 39 74
97 106 109 61z m154 -92 c39 -14 93 -69 93 -94 0 -82 -127 -99 -180 -25 -27
38 -25 76 5 105 27 28 40 30 82 14z m8002 -104 c37 -18 45 -51 23 -90 -34 -59
-152 -95 -314 -95 -71 0 -80 2 -110 29 -30 27 -31 30 -19 59 8 18 28 41 46 52
83 51 310 79 374 45z m-7535 -297 l56 -41 -7 -246 c-7 -273 2 -397 44 -631 59
-335 149 -589 303 -856 244 -423 576 -815 886 -1045 134 -99 343 -232 504
-319 74 -41 149 -84 167 -97 58 -45 81 -129 45 -173 l-18 -22 -80 31 c-114 46
-330 161 -472 252 -588 376 -1062 929 -1321 1544 -96 226 -142 381 -185 615
-42 232 -51 341 -51 625 0 266 9 358 37 392 17 21 32 16 92 -29z m7291 32
c161 -23 231 -66 284 -172 56 -112 37 -156 -63 -144 -80 9 -184 66 -274 151
-44 41 -85 75 -90 75 -6 0 1 -26 15 -57 31 -68 35 -171 9 -243 -45 -122 -121
-107 -195 41 -38 77 -47 135 -31 209 25 116 65 148 139 110 42 -21 61 -20 61
4 0 20 22 36 50 36 14 0 57 -5 95 -10z m-7007 -49 c16 -16 35 -44 42 -61 17
-42 -3 -65 -48 -55 -32 7 -102 75 -102 99 0 55 60 64 108 17z m7681 -48 c6
-21 18 -132 26 -248 49 -666 144 -1202 296 -1655 195 -587 501 -1183 828
-1615 89 -118 328 -406 431 -520 133 -147 394 -406 505 -502 292 -252 740
-564 1035 -720 l75 -40 3 -157 3 -157 -140 71 c-321 163 -736 436 -1046 689
-170 139 -557 525 -721 721 -379 451 -646 851 -889 1335 -123 243 -182 384
-274 645 -120 346 -181 571 -261 970 -61 304 -85 400 -99 400 -21 0 -266 -361
-671 -990 -268 -415 -287 -440 -338 -440 -38 0 -120 31 -155 59 l-36 28 315
504 c506 806 913 1438 1026 1592 27 37 56 67 63 67 8 0 19 -17 24 -37z m-8356
-35 c58 -37 113 -99 128 -146 15 -45 7 -178 -13 -217 -27 -51 -109 -125 -153
-136 -62 -17 -202 -7 -250 18 -105 55 -149 161 -125 303 10 58 17 75 49 108
61 63 199 116 276 106 22 -3 61 -19 88 -36z m8710 -35 c98 -59 136 -97 121
-121 -6 -9 -22 -20 -35 -23 -37 -11 -165 -10 -193 1 -58 21 -89 139 -49 183
24 26 61 17 156 -40z m-8073 -103 c63 -55 70 -65 70 -98 1 -124 22 -452 34
-532 42 -271 207 -684 389 -975 210 -335 641 -761 952 -941 142 -81 164 -100
191 -158 13 -30 25 -71 27 -92 2 -34 -1 -39 -21 -42 -35 -5 -247 103 -387 196
-263 176 -496 379 -650 567 -488 595 -723 1210 -726 1900 -1 176 3 212 25 227
18 13 23 10 96 -52z m6793 -279 c56 -21 44 -93 -23 -137 -51 -34 -129 -47
-250 -42 -160 7 -216 47 -151 107 44 42 106 69 181 80 74 11 203 7 243 -8z
m-6507 -45 c50 -49 55 -72 20 -86 -59 -22 -116 21 -116 89 0 57 38 56 96 -3z
m8500 -57 c82 -43 141 -93 152 -132 6 -17 13 -68 17 -112 13 -168 98 -506 199
-801 224 -653 693 -1385 1195 -1866 151 -144 360 -317 479 -394 l91 -59 0
-167 1 -167 -85 59 c-439 307 -851 695 -1203 1134 -503 626 -897 1610 -951
2376 -12 172 -1 185 105 129z m-301 -9 c35 -13 55 -65 55 -142 0 -83 -8 -108
-36 -118 -35 -14 -469 -53 -499 -46 -51 13 -86 116 -66 193 11 42 42 66 100
78 27 6 305 36 403 44 9 0 28 -3 43 -9z m-9051 -154 c65 -32 88 -58 117 -134
26 -70 23 -166 -9 -227 -42 -83 -152 -155 -237 -155 -43 0 -141 32 -185 60
-68 44 -93 95 -98 202 -6 121 1 149 50 198 72 72 122 91 229 86 59 -2 90 -9
133 -30z m1018 -6 c50 -53 108 -140 108 -162 0 -21 -68 -72 -117 -89 -56 -18
-135 -7 -178 26 -99 75 -76 189 50 246 64 29 93 25 137 -21z m5907 9 c27 -20
31 -20 52 -5 46 32 180 12 287 -41 89 -45 172 -142 172 -202 0 -12 -11 -33
-25 -46 -20 -21 -34 -25 -82 -25 -87 0 -149 34 -254 137 l-89 86 2 -139 c0
-79 -4 -150 -10 -166 -15 -36 -51 -68 -77 -68 -31 0 -48 23 -96 125 -50 107
-61 185 -35 263 32 96 92 128 155 81z m-5670 -337 c43 -46 125 -188 118 -205
-8 -20 -178 -117 -236 -134 -63 -18 -111 -8 -160 32 -42 36 -75 108 -67 149
10 53 66 108 156 154 106 55 141 55 189 4z m8982 -69 c36 -22 44 -44 29 -88
-27 -82 -7 -157 53 -194 55 -34 101 -35 210 -7 117 31 118 31 151 5 21 -16 24
-24 16 -39 -23 -42 -274 -140 -359 -140 -193 0 -344 194 -287 368 32 96 114
138 187 95z m-1110 -43 c23 -7 40 -19 48 -36 17 -38 25 -106 17 -149 -7 -33
-13 -39 -71 -66 -35 -16 -144 -52 -241 -80 -198 -57 -209 -57 -238 6 -24 50
-44 155 -36 185 4 15 22 34 44 46 54 31 319 94 426 103 8 0 31 -4 51 -9z
m-2300 -86 c19 -11 35 -29 37 -41 5 -31 -50 -88 -116 -120 -50 -24 -69 -28
-147 -28 -74 0 -97 4 -132 23 -77 40 -76 77 2 139 57 45 90 53 211 50 89 -3
117 -7 145 -23z m-6662 -99 c62 -21 97 -50 128 -103 25 -42 28 -56 28 -142 0
-105 -11 -137 -69 -198 -54 -59 -100 -77 -192 -77 -73 0 -88 4 -150 35 -98 50
-128 95 -133 202 -2 59 1 91 14 126 23 58 88 129 140 153 50 23 175 25 234 4z
m1334 -97 c59 -80 120 -195 113 -213 -8 -23 -125 -105 -195 -138 -80 -38 -155
-41 -218 -8 -53 26 -70 52 -78 116 -10 71 9 128 57 181 50 54 184 124 237 124
34 0 42 -5 84 -62z m5099 -48 c191 -61 268 -139 268 -271 0 -44 -3 -49 -26
-55 -14 -4 -55 -4 -90 -1 -89 7 -162 44 -222 114 l-47 55 -6 -89 c-3 -48 -11
-107 -17 -130 -16 -54 -57 -103 -87 -103 -29 0 -70 47 -104 120 -22 47 -26 68
-25 150 0 161 28 210 117 210 19 0 50 7 68 15 48 20 67 19 171 -15z m4308 -55
c21 -25 -36 -66 -221 -160 -111 -57 -176 -96 -187 -113 -11 -17 -17 -45 -16
-79 0 -62 23 -99 75 -125 33 -17 40 -17 95 -3 32 9 163 68 290 131 165 83 244
118 279 121 61 7 58 -6 -17 -67 -78 -62 -491 -319 -558 -347 -145 -60 -298 0
-360 140 -27 61 -35 131 -21 182 20 73 118 158 263 231 176 89 345 128 378 89z
m-1583 -217 c23 -26 38 -70 48 -140 8 -60 12 -57 -240 -154 -266 -102 -252
-98 -282 -68 -32 32 -75 126 -81 180 -4 41 -3 43 36 63 108 55 381 140 453
141 35 0 50 -5 66 -22z m-7628 -34 c36 -30 103 -139 126 -203 15 -43 15 -45
-7 -69 -34 -37 -165 -120 -210 -134 -35 -10 -45 -9 -76 8 -69 37 -114 143 -98
229 12 62 160 194 218 195 9 0 30 -12 47 -26z m9721 -89 c19 -23 4 -59 -42
-97 -24 -19 -110 -81 -193 -138 -195 -134 -288 -204 -318 -240 -54 -63 -40
-152 28 -184 85 -41 171 -2 450 204 50 37 102 74 118 84 l27 18 -1 -63 0 -64
-52 -40 c-290 -222 -414 -305 -492 -326 -28 -8 -63 -9 -118 -1 -96 12 -139 41
-180 123 -55 110 -31 235 64 324 98 92 558 375 657 405 38 12 38 12 52 -5z
m-10934 -82 c22 -12 57 -40 76 -61 43 -48 53 -93 46 -219 l-5 -87 -46 -42
c-134 -121 -324 -126 -423 -10 -67 79 -81 205 -33 315 42 100 108 133 254 128
68 -3 100 -9 131 -24z m5639 -63 c321 -71 465 -113 725 -213 677 -260 1087
-495 1580 -906 245 -203 582 -536 754 -744 72 -87 322 -427 406 -552 145 -215
386 -680 495 -954 223 -563 357 -1206 396 -1893 18 -318 -9 -823 -60 -1118
-11 -63 -23 -142 -26 -175 -8 -70 -93 -417 -128 -520 -19 -57 -29 -72 -51 -80
-54 -19 -200 51 -212 102 -7 28 -5 44 44 238 77 310 111 578 134 1052 32 689
-61 1368 -271 1985 -356 1044 -1031 1973 -1906 2626 -291 217 -500 343 -840
507 -424 205 -811 344 -1185 424 -182 39 -185 42 -195 170 -4 49 -4 94 0 100
12 20 68 12 340 -49z m-8868 -251 c485 -289 858 -564 1161 -854 192 -183 443
-473 649 -748 253 -340 430 -622 602 -962 298 -586 556 -1524 562 -2044 2
-125 8 -156 34 -156 24 0 57 48 302 445 478 772 639 1025 678 1064 24 24 58
20 138 -17 100 -47 104 -53 71 -119 -36 -71 -157 -266 -444 -713 -130 -203
-304 -476 -385 -605 -186 -295 -288 -449 -380 -570 -93 -123 -120 -148 -143
-134 -32 20 -43 85 -53 309 -11 263 -36 489 -89 801 -115 679 -223 1018 -515
1609 -185 375 -328 607 -585 950 -200 266 -313 399 -520 606 -378 379 -774
683 -1174 902 -61 33 -114 65 -118 71 -4 6 -8 73 -8 150 0 115 2 137 14 133 8
-3 99 -56 203 -118z m4653 91 c24 -24 82 -138 104 -207 13 -39 15 -57 6 -72
-24 -46 -151 -52 -206 -9 -56 44 -80 150 -50 221 17 42 70 87 102 87 13 0 33
-9 44 -20z m7623 -117 c39 -39 97 -140 97 -167 0 -22 -80 -72 -260 -161 -192
-95 -218 -103 -254 -80 -30 20 -94 142 -102 196 -6 33 -3 39 28 62 71 55 373
185 429 187 18 0 39 -12 62 -37z m-8633 -207 c78 -48 123 -113 128 -186 15
-202 -188 -369 -369 -304 -214 77 -254 367 -66 477 111 65 215 70 307 13z
m10590 -33 c0 -42 -3 -73 -6 -70 -9 9 -178 -147 -220 -202 -75 -97 -25 -211
93 -211 37 0 103 31 103 49 0 5 7 11 15 15 13 5 15 -12 15 -112 l0 -117 -78
-23 c-144 -41 -242 -21 -324 64 -113 118 -103 279 23 386 30 25 117 93 194
150 77 58 149 115 159 127 11 11 21 21 23 21 1 0 3 -34 3 -77z m-9425 -77 c0
-26 -19 -31 -39 -11 -20 21 -11 37 17 33 14 -2 22 -10 22 -22z m-4906 -66 c38
-35 35 -43 -43 -165 -63 -97 -63 -97 -70 -65 -8 41 -8 247 0 277 l6 23 39 -22
c21 -11 51 -33 68 -48z m12699 -144 c45 -41 86 -118 77 -146 -18 -56 -376
-300 -440 -300 -40 0 -165 153 -165 202 0 41 39 66 368 240 40 21 84 38 98 38
13 0 40 -15 62 -34z m-8461 -114 c89 -46 117 -109 111 -253 -3 -90 -6 -102
-34 -141 -39 -57 -121 -105 -191 -114 -109 -13 -243 47 -283 127 -47 91 -35
251 23 307 37 35 116 77 173 91 59 15 154 7 201 -17z m-3797 -22 c22 -11 68
-47 102 -79 75 -71 78 -60 -57 -221 -134 -160 -263 -290 -288 -290 -31 0 -98
36 -141 75 -34 31 -38 39 -32 67 8 40 45 99 163 259 95 129 171 209 198 209 9
0 34 -9 55 -20z m8602 -319 c264 -89 375 -135 623 -258 340 -170 500 -275 805
-527 460 -380 907 -950 1161 -1481 209 -439 353 -929 413 -1405 32 -257 45
-768 26 -1065 -10 -154 -47 -392 -75 -476 -9 -25 -25 -55 -35 -64 -19 -17 -22
-16 -74 15 -29 18 -68 46 -86 63 -29 27 -31 34 -26 71 57 393 72 1117 31 1466
-40 339 -151 758 -278 1050 -64 148 -191 403 -275 550 -289 512 -851 1077
-1437 1446 -297 187 -591 319 -909 410 -94 26 -178 56 -187 65 -37 37 -51 157
-23 197 27 39 85 30 346 -57z m3995 -10 c44 -32 103 -114 103 -143 0 -10 -7
-30 -16 -43 -30 -47 -287 -250 -368 -292 -22 -11 -34 -12 -52 -4 -38 17 -103
81 -130 128 l-26 43 19 32 c11 18 50 59 89 91 88 75 301 217 324 217 9 0 35
-13 57 -29z m-8227 -21 c131 -67 183 -190 141 -335 -21 -70 -96 -145 -176
-175 -137 -51 -289 3 -362 127 -38 65 -44 169 -13 241 64 148 263 217 410 142z
m-3829 -85 c45 -34 99 -103 99 -128 0 -56 -373 -427 -429 -427 -46 0 -151 108
-151 156 0 32 96 148 233 282 107 104 158 141 198 142 8 0 31 -11 50 -25z
m6696 -13 c72 -4 135 -10 138 -14 4 -3 11 -57 17 -120 11 -117 25 -158 57
-158 10 0 88 34 172 76 194 96 225 108 233 87 15 -37 -2 -550 -19 -604 -10
-30 -79 -1 -250 107 -56 34 -113 68 -128 75 -45 20 -58 -2 -64 -107 -3 -49 -9
-103 -14 -120 l-10 -32 -152 -7 c-84 -4 -404 -5 -712 -3 -497 3 -564 5 -597
20 -20 9 -41 25 -46 35 -5 10 -12 64 -14 120 -5 114 -16 137 -56 126 -14 -3
-89 -36 -166 -74 -165 -79 -209 -91 -225 -61 -12 23 -14 519 -2 561 3 13 14
29 24 35 20 13 50 -3 239 -121 155 -97 167 -102 183 -80 7 10 16 63 20 120 8
111 15 133 48 148 24 10 1095 3 1324 -9z m-7660 -221 c423 -320 897 -821 1175
-1242 216 -327 495 -920 592 -1256 41 -141 119 -487 146 -649 26 -151 28 -332
3 -341 -22 -8 -131 48 -184 96 l-41 36 -23 190 c-25 201 -64 371 -135 590
-119 367 -326 812 -507 1090 -176 269 -419 581 -592 759 -105 107 -366 346
-513 469 l-58 49 0 149 c0 89 4 149 10 149 5 0 62 -40 127 -89z m5228 56 c27
-20 13 -58 -45 -122 -46 -51 -50 -59 -50 -105 0 -93 41 -151 138 -197 59 -28
68 -52 27 -79 -17 -11 -35 -14 -57 -10 -49 9 -139 54 -170 83 -39 37 -61 113
-62 208 -1 68 3 87 24 124 29 51 59 76 116 96 49 18 56 18 79 2z m3668 -40
c77 -40 129 -100 152 -176 45 -149 -22 -294 -159 -346 -46 -18 -48 -18 -68 2
-28 29 -16 59 35 84 85 43 120 94 120 175 0 39 -7 64 -27 98 -32 54 -61 76
-149 111 -89 36 -105 66 -47 88 27 10 83 -5 143 -36z m4548 -126 c59 -37 119
-99 119 -123 0 -48 -114 -202 -251 -340 -91 -92 -113 -100 -171 -65 -58 34
-158 136 -158 161 0 28 64 106 192 233 116 114 178 163 207 163 10 0 37 -13
62 -29z m-4631 -46 c35 -18 63 -66 53 -92 -11 -32 -46 -63 -70 -63 -33 0 -59
30 -66 78 -13 81 18 110 83 77z m-3524 -34 c15 -30 8 -51 -17 -51 -23 0 -53
44 -45 66 9 23 48 13 62 -15z m4220 -28 c68 -23 145 -102 169 -172 21 -65 17
-169 -9 -224 -44 -90 -126 -138 -247 -145 -190 -11 -309 91 -309 267 0 31 5
72 10 92 41 146 230 235 386 182z m-8089 -41 c30 -23 103 -122 103 -140 0 -27
-42 -72 -143 -153 -149 -120 -302 -219 -340 -219 -33 0 -93 54 -122 111 -14
27 -14 33 1 65 35 74 399 354 459 354 11 0 30 -8 42 -18z m12480 -223 c40 -15
111 -76 129 -110 12 -24 13 -37 5 -62 -23 -69 -269 -364 -326 -391 -52 -25
-106 -2 -197 83 -57 52 -61 78 -21 136 54 79 264 325 291 339 32 18 80 20 119
5z m-3832 -120 c49 -12 120 -75 141 -125 7 -17 16 -72 20 -122 6 -74 4 -100
-10 -136 -20 -52 -70 -100 -135 -129 -64 -29 -179 -29 -242 0 -62 28 -123 84
-148 137 -24 48 -28 145 -10 209 12 43 64 105 123 149 36 26 46 28 128 28 49
0 109 -5 133 -11z m-1004 -178 c107 -45 361 -187 509 -286 305 -204 611 -493
836 -790 159 -211 390 -660 474 -920 71 -223 138 -555 161 -797 13 -147 7
-494 -10 -550 -15 -48 -44 -65 -74 -45 -35 23 -87 79 -88 96 -1 9 -2 122 -3
251 -2 181 -7 267 -23 375 -91 595 -231 960 -557 1445 -113 168 -200 273 -347
417 -252 248 -481 412 -783 563 l-191 95 -28 56 c-15 30 -30 72 -34 94 l-6 38
44 -5 c24 -3 78 -19 120 -37z m-7243 6 c8 -6 27 -30 44 -54 78 -114 59 -144
-174 -287 -136 -83 -261 -146 -291 -146 -12 0 -33 7 -45 16 -26 18 -82 111
-82 137 0 33 83 107 229 206 225 151 268 169 319 128z m-1762 -42 c90 -37 129
-110 129 -240 0 -70 -4 -86 -29 -129 -38 -65 -262 -286 -290 -286 -3 0 -6 35
-6 78 0 75 2 81 39 134 21 31 51 77 66 102 25 42 26 50 15 77 -14 32 -60 72
-97 84 -22 6 -23 12 -23 99 0 51 3 96 8 100 11 13 145 -1 188 -19z m14227
-582 c-39 -32 -76 -29 -147 12 -97 54 -120 77 -113 107 11 42 100 168 194 274
l88 98 3 -235 3 -234 -28 -22z m-3690 323 c65 -31 110 -86 132 -160 46 -155
-19 -276 -175 -326 -278 -89 -487 185 -323 423 50 72 113 98 229 94 64 -3 93
-9 137 -31z m-1428 -61 c354 -171 703 -458 947 -780 142 -187 347 -526 414
-684 82 -195 178 -519 215 -726 22 -123 39 -504 25 -559 -17 -67 -118 5 -146
105 -6 19 -17 113 -25 209 -30 341 -74 540 -180 810 -88 223 -160 357 -318
595 -157 236 -264 360 -446 519 -170 148 -259 210 -528 364 -61 36 -75 49 -97
94 -14 28 -26 65 -26 81 0 28 1 29 38 22 20 -4 78 -26 127 -50z m-8698 -172
c92 -43 155 -239 110 -345 -20 -48 -91 -124 -159 -170 -85 -58 -531 -318 -545
-318 -17 0 -18 85 0 100 6 5 86 62 177 126 292 206 312 225 312 287 0 43 -35
112 -68 134 -50 32 -125 -3 -322 -148 -50 -38 -97 -69 -102 -69 -6 0 -10 28
-10 64 l0 65 93 82 c165 147 232 190 321 209 56 12 150 4 193 -17z m1682 -52
c44 -44 67 -104 57 -145 -8 -32 -67 -71 -243 -161 -227 -116 -282 -128 -327
-74 -31 37 -56 92 -56 123 0 13 10 32 23 43 30 27 197 127 330 197 134 70 161
72 216 17z m7072 -51 c28 -15 24 -49 -7 -60 -34 -13 -47 -13 -69 4 -17 12 -18
18 -7 40 13 28 47 35 83 16z m156 -151 c71 -26 110 -97 98 -177 -10 -66 -75
-132 -130 -132 -31 0 -45 7 -74 38 -37 39 -81 144 -81 193 0 25 39 71 70 82
26 9 87 7 117 -4z m1635 -37 c57 -28 124 -95 139 -139 16 -49 7 -189 -15 -235
-10 -21 -32 -52 -50 -69 -56 -55 -82 -64 -186 -64 -84 0 -101 3 -146 27 -92
48 -163 141 -164 214 -1 117 86 235 207 280 53 20 159 13 215 -14z m-10205
-231 c40 -20 111 -90 134 -132 7 -14 13 -57 13 -100 0 -144 -54 -205 -288
-321 -243 -122 -366 -148 -366 -79 0 18 20 32 185 129 207 121 255 170 241
247 -4 19 -18 48 -32 64 -51 61 -127 50 -282 -40 -97 -56 -335 -174 -393 -194
-30 -11 -41 -11 -54 -1 -40 29 13 72 335 268 243 148 254 154 322 173 64 18
133 13 185 -14z m8923 -51 c39 -28 71 -94 71 -152 1 -52 -11 -84 -46 -126 -35
-42 -171 -132 -200 -132 -51 0 -175 188 -175 266 0 27 9 40 53 77 114 97 221
121 297 67z m-7337 -57 c20 -23 57 -134 57 -173 0 -27 -6 -33 -57 -56 -80 -36
-364 -130 -441 -145 -78 -16 -90 -10 -119 62 -23 55 -29 114 -15 137 16 24
479 191 533 192 14 0 33 -8 42 -17z m2472 -183 c55 -38 90 -96 105 -177 31
-157 -41 -308 -124 -263 -14 7 -42 38 -63 69 l-38 56 -5 -60 -5 -60 -85 0
c-107 0 -167 27 -269 121 -106 98 -133 154 -94 196 21 23 92 24 176 2 93 -24
136 -50 210 -128 l67 -71 -6 43 c-4 24 -7 88 -8 142 -1 96 0 99 28 129 37 39
56 39 111 1z m6450 -83 c97 -49 161 -146 152 -227 -10 -86 -46 -161 -106 -220
-48 -48 -66 -59 -124 -74 -58 -16 -75 -17 -110 -6 -87 25 -184 105 -223 182
-69 135 26 313 196 369 49 16 162 4 215 -24z m-5849 -29 c23 -11 25 -17 21
-50 -3 -20 -22 -65 -43 -100 -101 -169 -402 -645 -579 -918 -109 -168 -322
-498 -473 -735 -352 -551 -434 -673 -471 -709 l-30 -29 -43 17 c-72 28 -138
74 -138 96 0 30 33 89 120 220 147 220 907 1401 1269 1972 l156 247 92 0 c52
1 104 -4 119 -11z m4550 -30 c60 -53 94 -106 94 -147 0 -44 -32 -116 -68 -154
-31 -33 -131 -86 -212 -112 l-54 -18 -43 48 c-51 56 -143 202 -143 226 0 19
119 114 200 158 46 26 66 31 122 31 62 0 70 -3 104 -32z m-4375 -192 c21 -46
39 -89 39 -94 0 -9 -329 -527 -701 -1102 -264 -407 -351 -544 -454 -710 -239
-385 -309 -495 -467 -735 -90 -137 -227 -347 -303 -465 -139 -217 -187 -280
-213 -280 -34 0 -132 73 -132 98 0 28 166 297 600 972 147 228 393 613 547
855 439 691 877 1362 960 1473 30 39 61 72 70 72 8 0 30 -34 54 -84z m-4607 0
c87 -51 126 -132 126 -260 0 -152 -93 -251 -188 -202 -15 8 -35 23 -45 34 -17
18 -16 21 8 73 39 85 31 142 -30 199 -22 21 -36 25 -83 24 -31 -1 -86 -11
-121 -23 -98 -33 -181 -25 -181 17 0 27 133 103 260 149 89 32 188 28 254 -11z
m1525 -105 c23 -23 51 -110 51 -156 0 -61 -33 -75 -310 -130 -277 -54 -300
-50 -321 58 -17 82 -6 123 34 136 107 34 445 109 500 110 15 1 36 -8 46 -18z
m2118 -81 c104 -12 143 -30 143 -69 0 -31 -52 -86 -108 -115 -110 -57 -402
-21 -402 49 0 40 94 103 191 129 66 18 74 18 176 6z m5552 -49 c81 -41 99
-130 44 -219 -23 -38 -43 -54 -103 -85 -42 -21 -94 -41 -118 -44 -41 -6 -45
-4 -92 45 -58 60 -113 162 -108 200 2 22 16 33 78 64 136 68 223 79 299 39z
m-4295 -132 c80 -55 197 -150 203 -166 3 -7 -11 -41 -29 -75 -87 -157 -542
-874 -1120 -1763 -61 -93 -207 -321 -326 -505 -256 -399 -512 -784 -546 -822
-14 -16 -31 -28 -38 -28 -38 1 -264 152 -274 184 -4 12 9 48 35 98 52 100 376
608 954 1500 128 197 313 483 412 635 99 153 226 350 284 438 58 88 151 237
209 330 108 178 136 215 160 215 8 0 42 -19 76 -41z m5521 -20 c75 -23 134
-70 168 -133 17 -32 22 -58 22 -116 0 -66 -5 -83 -31 -130 -39 -70 -118 -135
-187 -155 -47 -13 -59 -13 -110 0 -80 21 -127 47 -170 94 -45 49 -57 93 -57
202 0 79 2 89 29 125 93 127 188 159 336 113z m-7136 -53 c60 -31 117 -158
128 -282 9 -111 -22 -184 -79 -184 -109 0 -199 229 -159 403 17 71 53 92 110
63z m-357 -158 c80 -24 216 -160 240 -242 17 -55 -4 -69 -92 -63 -192 13 -436
253 -320 315 27 14 107 10 172 -10z m6405 -29 c23 -11 54 -35 69 -52 23 -28
26 -37 22 -94 -5 -76 -25 -108 -94 -144 -87 -47 -90 -47 -141 8 -63 68 -133
167 -133 189 0 24 53 60 132 90 78 29 91 29 145 3z m-7696 -129 c34 -40 32
-199 -2 -221 -23 -14 -129 -28 -294 -39 -88 -5 -174 -13 -191 -15 -71 -12
-104 26 -119 130 -5 43 -3 55 14 77 26 32 33 34 296 69 223 29 270 29 296 -1z
m1604 -246 c52 -25 56 -53 14 -88 -82 -69 -200 -103 -325 -93 -88 7 -167 40
-172 73 -4 28 41 71 113 106 59 29 63 29 195 26 108 -3 144 -8 175 -24z m7272
-56 c63 -30 149 -111 164 -155 15 -47 6 -150 -19 -206 -55 -124 -217 -188
-355 -141 -57 19 -131 83 -160 138 -17 32 -22 58 -22 122 0 80 1 82 40 130 67
82 115 118 180 135 44 11 121 1 172 -23z m-1102 -8 c40 -25 58 -61 45 -94 -5
-13 -15 -26 -22 -29 -33 -11 -108 65 -108 110 0 36 38 42 85 13z m-10304 -280
c440 -275 619 -400 619 -430 0 -37 -210 -171 -301 -192 -30 -7 -94 -33 -144
-58 -82 -41 -92 -49 -114 -93 -24 -49 -24 -47 -18 -228 2 -40 -4 -56 -45 -115
-69 -101 -75 -133 -53 -254 l18 -100 -28 -56 c-21 -41 -29 -75 -33 -129 -6
-96 -1 -111 55 -180 l47 -57 7 -128 c10 -177 29 -213 140 -256 24 -9 50 -22
57 -28 6 -7 16 -44 21 -84 13 -104 36 -143 96 -162 26 -9 58 -29 72 -44 21
-25 22 -30 10 -50 -8 -11 -51 -40 -96 -63 -186 -95 -346 -253 -343 -338 1 -24
-5 -41 -18 -53 -18 -15 -20 -25 -14 -112 6 -87 5 -93 -9 -75 -15 20 -16 19
-22 -8 -29 -114 94 -517 157 -517 17 0 19 -4 14 -26 -7 -27 31 -97 164 -299
36 -55 74 -119 84 -143 19 -43 19 -43 -2 -87 -31 -65 -121 -201 -230 -349
-233 -319 -228 -304 -145 -407 140 -174 371 -488 377 -512 9 -35 -10 -70 -153
-292 -138 -214 -231 -395 -256 -494 -38 -156 -6 -364 83 -536 46 -88 163 -207
249 -253 308 -163 724 -52 863 231 70 143 103 319 81 432 -32 162 -158 436
-315 685 -44 69 -88 144 -98 167 -18 40 -18 44 -2 75 21 42 102 155 280 391
78 103 150 204 159 223 23 48 6 94 -55 153 -109 105 -400 495 -400 536 0 23
26 66 135 230 176 263 285 548 285 746 0 77 -26 201 -52 254 -61 119 -173 243
-304 334 -39 27 -74 57 -78 66 -21 57 8 76 145 100 131 22 173 37 339 121 203
102 381 215 454 288 117 116 245 306 377 559 80 153 111 197 138 197 30 0 179
-88 522 -307 189 -121 511 -326 714 -455 204 -129 431 -275 505 -324 l135 -89
-11 -65 c-7 -36 -13 -105 -14 -155 -1 -49 -5 -129 -9 -177 -7 -77 -12 -94 -45
-145 -20 -32 -46 -77 -58 -100 -21 -41 -21 -43 -3 -101 20 -67 20 -67 -46
-171 l-34 -54 0 -186 c0 -185 0 -186 -27 -233 -19 -32 -64 -75 -141 -136 -199
-157 -243 -225 -217 -333 16 -65 106 -241 240 -469 119 -201 150 -267 184
-384 33 -113 42 -194 26 -242 -7 -22 -38 -93 -69 -159 l-56 -120 -5 -270 c-5
-251 -6 -272 -25 -296 -73 -95 -140 -189 -460 -649 -389 -560 -535 -767 -658
-932 l-80 -108 -1183 0 c-823 0 -1199 3 -1236 11 -201 42 -373 231 -413 454
-12 68 -14 641 -15 3912 0 2107 3 3839 6 3848 4 9 12 14 18 12 7 -3 122 -74
257 -157z m10188 106 c12 -11 56 -86 96 -166 40 -80 99 -179 130 -219 31 -41
69 -100 85 -130 15 -31 53 -98 83 -149 131 -221 205 -565 162 -758 -22 -100
-71 -257 -97 -309 -49 -97 -99 -111 -168 -47 -53 52 -54 90 -2 204 l37 83 -1
210 c-1 182 -4 221 -23 290 -32 118 -103 254 -257 490 -75 115 -151 239 -169
275 -70 137 -68 200 8 237 48 24 80 21 116 -11z m-6530 -11 c21 -19 56 -68 76
-107 31 -59 39 -85 43 -145 10 -155 -57 -257 -139 -213 -15 9 -30 5 -69 -16
l-49 -27 -99 31 c-150 48 -301 157 -333 239 -13 36 11 70 55 78 75 15 231 -43
331 -122 84 -66 79 -71 72 63 -7 145 2 211 33 236 30 24 34 23 79 -17z m6234
-175 c11 -152 0 -2271 -11 -2334 -6 -31 -18 -56 -31 -67 -23 -19 -88 -34 -188
-45 l-63 -7 0 1210 c0 666 3 1231 6 1257 5 31 13 50 26 57 38 20 164 48 208
46 l45 -2 8 -115z m-7341 50 c21 -6 42 -19 48 -30 17 -32 12 -115 -8 -140 -25
-31 -58 -22 -162 48 -67 45 -86 63 -88 84 -3 22 2 28 20 32 13 3 32 7 43 9 39
9 110 7 147 -3z m4972 -18 c87 -51 101 -157 40 -295 -41 -94 -41 -126 0 -146
25 -12 38 -11 106 8 146 40 266 20 310 -51 33 -54 36 -110 9 -165 -49 -99
-161 -118 -322 -54 -91 36 -112 38 -127 10 -9 -16 -7 -36 10 -91 34 -111 36
-159 11 -211 -33 -68 -61 -82 -156 -82 -46 1 -90 6 -103 14 -30 16 -72 105
-72 154 0 20 11 65 25 99 27 67 32 117 13 136 -18 18 -98 14 -163 -8 -160 -55
-275 5 -275 142 0 54 3 63 33 93 62 62 209 72 317 21 59 -28 118 -34 138 -14
21 21 13 72 -23 130 -38 64 -65 136 -65 174 0 36 23 85 53 113 55 50 175 61
241 23z m3016 -128 c60 -54 64 -125 10 -154 -15 -8 -27 -7 -48 4 -58 30 -96
151 -54 175 30 18 51 12 92 -25z m865 -208 c56 -26 120 -91 132 -133 5 -16 8
-66 8 -113 0 -98 -21 -151 -74 -187 -38 -26 -66 -21 -56 11 4 11 9 71 12 132
5 94 3 115 -12 137 -41 63 -177 75 -255 23 -23 -15 -57 -30 -76 -33 -28 -5
-35 -2 -45 19 -9 20 -8 32 5 56 51 98 240 145 361 88z m-7800 -80 c41 -27 33
-57 -31 -115 -73 -67 -135 -86 -248 -77 -106 9 -153 22 -182 51 -31 32 -30 41
9 80 54 54 186 86 334 81 65 -2 100 -8 118 -20z m-2845 -31 c56 -20 105 -50
695 -426 568 -362 639 -411 643 -451 4 -33 -47 -145 -158 -345 -116 -208 -220
-363 -284 -420 -104 -92 -423 -274 -583 -332 -117 -43 -149 -46 -223 -21 l-62
21 -37 -25 c-32 -23 -48 -26 -117 -26 -106 0 -294 19 -319 32 -28 15 -35 28
-35 69 0 83 78 124 235 124 119 0 179 -19 224 -70 35 -40 48 -31 28 18 -18 43
-49 62 -149 93 -113 34 -153 55 -153 79 0 24 60 65 140 94 81 30 282 79 358
86 84 9 125 23 138 47 7 12 15 128 20 282 7 224 12 277 34 370 28 126 41 206
31 206 -25 0 -86 -221 -117 -422 -29 -189 -49 -228 -102 -193 -37 24 -46 57
-56 200 -7 119 -11 135 -40 186 -29 51 -31 63 -31 150 0 70 -5 110 -20 153
-12 32 -25 108 -31 168 -13 152 -22 166 -137 228 -106 57 -105 77 3 119 61 24
54 24 105 6z m9530 -81 c35 -30 60 -73 60 -105 0 -12 -15 -54 -34 -93 -50
-105 -67 -176 -73 -316 -5 -107 -2 -139 16 -210 26 -107 106 -269 210 -428
236 -360 274 -465 269 -746 l-3 -148 -55 -34 c-30 -18 -69 -36 -87 -40 -26 -5
-34 -2 -49 21 -14 21 -18 52 -20 163 -2 144 -12 219 -46 342 -19 73 -74 190
-88 190 -12 0 -82 -135 -107 -210 -22 -65 -27 -100 -33 -260 -4 -102 -10 -193
-15 -202 -23 -55 -149 31 -194 132 -30 68 -35 133 -17 240 39 242 129 420 211
420 18 0 44 -9 58 -20 62 -49 50 -22 -59 140 -99 146 -153 249 -173 332 -34
143 -32 444 4 583 33 126 127 275 173 275 11 0 34 -12 52 -26z m1047 -3 c63
-39 50 -116 -25 -148 -32 -13 -39 -13 -69 1 -54 26 -65 83 -24 130 33 38 73
44 118 17z m-387 -16 c49 -26 206 -161 229 -198 20 -33 21 -44 21 -378 0 -189
-5 -544 -10 -789 -9 -405 -12 -447 -28 -470 -25 -34 -166 -102 -222 -108 -80
-7 -75 -49 -78 657 -3 610 8 1248 23 1284 9 21 27 22 65 2z m-10478 -112 c23
-21 58 -115 58 -158 0 -42 -14 -50 -100 -58 -36 -3 -96 -16 -135 -28 -141 -44
-205 -26 -205 58 0 54 18 90 65 132 47 41 96 61 175 71 76 9 118 4 142 -17z
m213 13 c66 -28 84 -117 30 -152 -34 -22 -81 -12 -128 27 -55 45 -48 90 18
124 37 18 38 18 80 1z m-166 -328 c35 -26 46 -29 60 -20 34 25 68 34 129 34
77 1 92 -11 99 -76 5 -39 2 -51 -17 -71 -29 -31 -86 -33 -149 -5 -24 11 -47
20 -52 20 -4 0 -9 -19 -11 -42 -4 -55 -30 -73 -147 -98 -52 -12 -148 -41 -213
-65 -158 -59 -189 -58 -231 6 -16 25 -16 29 2 88 10 34 30 76 44 95 32 42 137
97 247 129 158 47 181 48 239 5z m287 -323 c41 -17 80 -90 70 -132 -9 -32 -59
-53 -128 -53 -63 0 -109 24 -138 72 -28 45 -22 78 19 105 40 27 122 31 177 8z
m-278 -27 c18 -23 83 -198 80 -215 -3 -18 -20 -25 -153 -66 -44 -14 -143 -53
-219 -87 -179 -79 -192 -81 -240 -40 -48 42 -69 84 -61 119 22 89 176 212 345
273 84 30 228 39 248 16z m6372 -43 c778 -3 1485 -8 1570 -10 85 -3 257 -8
382 -11 l228 -6 6 -34 c3 -19 3 -49 0 -68 l-6 -33 -83 -7 c-238 -20 -3427 -11
-3817 11 -160 9 -161 10 -100 108 l42 66 182 -6 c99 -2 818 -7 1596 -10z
m-6040 -283 c72 -36 105 -136 59 -178 -18 -16 -37 -19 -129 -19 -95 0 -112 3
-137 21 -62 46 -62 152 0 179 47 21 164 19 207 -3z m4327 -25 c22 -22 30 -140
14 -214 -17 -74 -34 -83 -151 -83 -109 0 -165 13 -180 40 -28 52 1 212 46 257
24 24 29 25 139 21 93 -2 118 -6 132 -21z m769 9 c17 -13 19 -27 19 -146 0
-152 -2 -154 -89 -165 -58 -8 -202 10 -222 26 -33 27 -47 207 -21 259 16 32
41 38 178 39 85 1 120 -3 135 -13z m693 4 c57 -5 109 -15 117 -21 17 -14 18
-94 2 -206 l-11 -83 -138 0 c-166 0 -185 6 -196 57 -11 55 -8 205 6 230 17 33
59 38 220 23z m6223 -119 c390 -173 1183 -494 1273 -514 6 -1 13 23 16 53 3
30 6 -1147 7 -2616 2 -2630 2 -2672 -18 -2748 -28 -110 -73 -190 -155 -272
-77 -78 -164 -127 -254 -144 -35 -6 -750 -10 -2036 -10 -1875 0 -1983 1 -1997
18 -52 58 -636 1124 -861 1570 -112 222 -111 221 -42 402 105 274 284 630 458
910 157 253 254 477 276 643 17 123 14 261 -9 355 -11 46 -20 102 -20 125 0
71 79 215 171 312 55 59 78 67 228 90 119 17 204 58 287 140 117 115 160 252
150 471 -6 117 -4 134 11 153 10 12 122 66 258 125 630 271 1267 606 1687 888
48 32 131 85 183 117 l97 60 76 -34 c42 -18 139 -60 214 -94z m-12373 108 c27
-10 39 -24 66 -83 18 -39 44 -86 59 -105 43 -57 34 -77 -53 -121 -25 -12 -82
-47 -128 -76 -152 -98 -205 -115 -292 -94 -69 16 -94 46 -99 118 -7 103 37
174 163 257 100 67 177 102 246 114 3 1 21 -4 38 -10z m7063 -109 c-3 -137 -9
-167 -33 -181 -21 -11 -242 -14 -284 -3 -33 8 -45 54 -45 167 0 129 -2 128
203 125 l162 -3 -3 -105z m775 87 c15 -15 18 -35 18 -127 0 -145 1 -144 -153
-148 -136 -4 -188 7 -202 44 -11 29 -12 166 -1 204 12 43 43 51 188 48 111 -3
135 -6 150 -21z m720 -1 c28 -24 28 -26 28 -140 0 -146 -3 -149 -116 -155
-103 -4 -165 5 -190 30 -17 17 -19 34 -19 134 0 155 0 155 154 155 107 0 117
-2 143 -24z m-1912 -396 c759 -6 1501 -14 1649 -19 244 -8 271 -10 283 -27 16
-22 17 -65 2 -98 -19 -41 -72 -46 -369 -36 -146 5 -771 11 -1390 14 -1253 7
-1976 13 -2427 22 l-303 6 0 27 c0 15 13 48 30 74 l30 47 557 0 c307 0 1179
-5 1938 -10z m-1980 -349 c319 -48 656 -133 848 -215 294 -126 595 -350 796
-592 81 -98 136 -182 146 -225 6 -24 3 -28 -27 -38 -18 -6 -64 -15 -102 -21
-234 -37 -395 -161 -471 -365 -56 -147 -52 -285 12 -413 69 -140 173 -227 330
-277 117 -38 127 -46 118 -110 -16 -122 -88 -296 -340 -820 -236 -491 -274
-578 -360 -829 -49 -142 -78 -212 -91 -220 -13 -8 -129 -10 -394 -9 -387 3
-607 13 -840 39 -332 37 -848 131 -890 162 -39 29 -48 85 -56 323 l-7 220 69
135 69 135 -1 132 c0 119 -3 139 -28 202 -34 88 -114 239 -273 519 -69 120
-136 243 -150 272 l-24 53 21 48 c15 33 65 92 169 198 81 82 157 164 169 181
28 41 52 134 52 200 0 67 18 88 95 109 33 9 128 47 210 83 l150 67 163 3 162
4 26 33 c14 19 28 52 31 75 7 47 8 47 -112 25 -44 -8 -161 -18 -260 -21 -257
-9 -362 17 -396 98 -13 31 -3 54 82 203 l34 60 -3 154 c-1 85 2 170 8 190 11
42 64 97 130 134 86 49 276 100 450 121 76 9 362 -4 485 -23z m3420 -96 c136
-36 238 -122 304 -257 67 -135 77 -257 30 -349 -30 -60 -101 -151 -147 -189
-81 -66 -220 -95 -330 -66 -89 22 -138 50 -209 119 -72 69 -83 96 -83 207 0
129 27 184 119 238 39 23 57 27 122 27 67 0 81 -4 125 -30 63 -40 119 -138
111 -198 -7 -51 -32 -86 -73 -103 -65 -27 -149 10 -172 75 -9 24 -6 35 20 74
16 25 27 51 23 57 -21 33 -98 -19 -116 -80 -17 -55 -4 -105 38 -151 96 -106
229 -108 308 -5 72 94 78 162 25 274 -66 140 -137 180 -298 169 -114 -8 -178
-39 -238 -116 -60 -76 -223 -406 -279 -566 -64 -184 -87 -229 -136 -264 -56
-41 -127 -67 -141 -53 -36 36 108 457 248 722 116 219 224 349 341 413 114 61
287 83 408 52z m1379 -46 c194 -60 326 -261 326 -495 0 -189 -100 -348 -268
-427 -57 -27 -79 -32 -143 -32 -67 0 -84 4 -151 37 -124 62 -224 174 -247 280
-13 58 1 171 28 234 62 139 245 232 348 176 43 -24 108 -85 141 -134 39 -59
38 -144 -1 -210 -35 -60 -56 -71 -124 -66 -77 7 -101 33 -115 126 -10 65 -14
72 -35 72 -35 0 -56 -50 -51 -120 5 -65 29 -106 90 -150 119 -87 300 -14 344
137 48 165 -48 344 -233 435 -121 59 -219 38 -337 -73 -34 -31 -77 -83 -96
-114 -79 -129 -151 -236 -226 -336 -44 -58 -122 -169 -173 -246 -93 -141 -109
-157 -166 -167 -75 -12 -77 41 -11 204 59 144 127 269 226 419 240 364 441
493 734 474 44 -2 107 -13 140 -24z m-2821 -66 c122 -6 127 -7 127 -28 0 -30
-64 -214 -89 -257 -12 -19 -45 -100 -75 -179 -64 -172 -91 -229 -111 -229 -21
0 -115 83 -255 225 -132 134 -249 238 -393 349 -100 77 -129 112 -106 128 14
10 651 4 902 -9z m407 -18 c18 -22 4 -63 -87 -270 -70 -158 -133 -314 -213
-528 -37 -99 -56 -112 -116 -84 -79 38 -80 78 -8 300 111 339 216 562 278 587
37 15 132 12 146 -5z m334 -11 c26 -10 19 -31 -44 -143 -112 -201 -243 -496
-339 -766 -36 -103 -72 -177 -87 -182 -18 -6 -64 37 -85 80 -17 32 -20 53 -16
96 11 120 119 404 278 729 l94 192 92 0 c50 0 98 -3 107 -6z m-7209 -49 c167
-44 284 -139 367 -300 62 -121 81 -197 76 -305 -10 -187 -151 -494 -368 -800
-101 -142 -98 -128 -44 -207 26 -37 125 -166 221 -285 95 -120 183 -234 195
-254 20 -35 20 -37 3 -72 -22 -47 -98 -156 -222 -319 -140 -183 -201 -269
-220 -307 -16 -34 -16 -34 29 -107 25 -41 83 -135 128 -209 117 -189 245 -444
260 -515 7 -36 11 -117 9 -215 l-4 -157 -43 -87 c-55 -111 -134 -194 -224
-236 -75 -35 -227 -55 -370 -48 -79 4 -96 8 -172 47 -100 50 -188 128 -233
202 -18 30 -47 97 -64 149 -29 83 -33 108 -33 200 0 194 67 343 352 773 68
103 92 147 92 171 0 42 -32 90 -194 300 -137 175 -203 271 -225 324 -11 26
-10 36 12 78 25 49 204 306 316 453 63 83 101 150 101 179 0 21 -44 93 -105
172 -60 77 -211 328 -257 429 -72 156 -81 204 -82 406 -1 174 0 182 25 235 69
145 228 275 387 315 68 18 198 13 287 -10z m7442 -567 c38 -59 48 -81 47 -113
-1 -39 -36 -121 -76 -177 -35 -49 -158 -47 -171 3 -7 28 16 130 52 228 58 158
76 166 148 59z m1253 27 c13 -14 38 -50 55 -81 l33 -57 -89 -116 c-109 -144
-144 -181 -171 -181 -27 0 -117 49 -128 71 -7 12 0 32 26 75 73 121 222 314
243 314 4 0 18 -11 31 -25z m-1003 -215 c68 -30 66 -79 -6 -177 -26 -35 -37
-43 -64 -43 -42 0 -78 19 -95 50 -12 22 -11 32 8 84 26 68 59 106 92 106 13 0
42 -9 65 -20z m373 -26 c0 -37 -29 -131 -57 -189 -29 -57 -170 -205 -196 -205
-18 0 -77 83 -77 108 0 23 75 173 109 220 38 52 116 92 179 92 39 0 42 -2 42
-26z m871 -43 c39 -39 37 -74 -6 -138 -50 -74 -144 -173 -165 -173 -20 0 -71
54 -95 100 -14 28 -14 32 8 67 38 59 102 133 134 154 43 28 89 25 124 -10z
m-2578 -76 c37 -8 91 -27 120 -42 67 -36 165 -134 200 -200 31 -59 35 -98 21
-218 -14 -121 -2 -255 32 -355 39 -115 38 -185 -5 -308 -42 -120 -219 -521
-281 -637 -117 -217 -430 -1011 -430 -1091 0 -37 -35 -58 -103 -61 -132 -8
-141 26 -67 241 84 242 177 456 390 901 231 482 283 617 325 860 21 119 25
337 7 413 -32 139 -145 279 -258 322 -119 44 -241 14 -340 -85 -58 -58 -84
-120 -84 -203 0 -83 19 -131 71 -183 56 -57 127 -78 197 -60 55 15 122 78 122
115 0 41 -26 43 -90 8 -77 -43 -119 -42 -166 1 -31 28 -37 42 -42 85 -10 107
25 170 122 219 43 22 59 25 116 21 76 -6 130 -31 182 -85 86 -89 109 -225 55
-334 -72 -147 -258 -241 -414 -209 -79 17 -127 43 -194 107 -188 179 -180 478
18 663 74 69 141 105 223 119 84 14 198 12 273 -4z m1112 -133 c96 -38 182
-104 237 -182 47 -67 61 -134 79 -375 11 -143 11 -168 -4 -234 -31 -135 -123
-346 -371 -852 -145 -298 -218 -464 -310 -714 -83 -223 -123 -306 -156 -322
-34 -17 -131 -16 -155 1 -19 14 -19 17 13 123 50 163 156 439 229 597 36 78
136 281 223 451 172 336 247 500 306 671 37 106 38 113 38 249 0 78 -6 158
-12 182 -29 101 -144 212 -256 247 -71 22 -137 13 -233 -35 -75 -36 -108 -76
-134 -160 -27 -85 -24 -133 10 -204 67 -139 180 -192 277 -129 97 63 130 185
62 227 -23 15 -48 -8 -48 -45 0 -63 -44 -107 -106 -108 -36 0 -47 6 -77 39
-86 95 -69 208 42 286 40 28 49 30 129 30 103 0 149 -20 206 -86 52 -61 69
-123 64 -228 -3 -69 -10 -99 -31 -143 -105 -214 -432 -251 -610 -69 -58 58
-91 125 -111 223 -20 96 -20 131 0 218 35 155 172 294 354 358 55 19 81 22
165 19 83 -3 113 -9 180 -35z m930 -17 c134 -29 229 -93 303 -207 119 -182
142 -401 66 -627 -60 -180 -141 -337 -366 -706 -135 -221 -233 -421 -349 -715
-49 -124 -78 -183 -99 -202 -30 -28 -126 -56 -154 -45 -38 15 -11 125 91 367
69 162 246 525 312 639 56 96 242 471 294 592 74 174 99 262 104 375 5 94 4
106 -20 158 -47 103 -156 188 -258 202 -70 10 -127 -11 -179 -65 -92 -95 -94
-225 -3 -319 42 -44 42 -45 99 -40 44 4 62 10 76 28 10 12 18 26 18 31 0 12
-35 26 -82 34 -21 3 -51 17 -68 31 -59 50 -31 153 54 193 51 25 79 26 137 6
90 -32 143 -111 143 -215 0 -115 -65 -215 -172 -267 -77 -37 -202 -40 -275 -6
-62 29 -144 115 -185 194 -37 72 -42 145 -17 262 19 92 50 149 107 203 102 95
262 133 423 99z m-1930 -759 c-11 -65 -52 -224 -81 -311 -34 -102 -76 -196
-241 -540 -220 -456 -330 -711 -422 -977 -22 -64 -47 -130 -55 -146 -18 -35
-60 -52 -128 -52 -42 0 -50 3 -58 24 -16 43 50 274 135 471 40 92 74 165 277
585 169 350 246 530 298 698 52 171 59 183 136 232 76 48 125 71 137 63 5 -3
5 -24 2 -47z m1516 -55 c24 -17 54 -40 66 -53 l21 -23 -41 -105 c-23 -58 -142
-307 -265 -555 -255 -512 -345 -705 -396 -854 -46 -132 -71 -177 -112 -196
-44 -20 -123 -20 -131 1 -22 58 223 670 470 1174 74 151 163 340 197 420 73
169 103 220 128 220 10 0 39 -13 63 -29z m407 -84 c4 -32 -86 -222 -240 -507
-199 -368 -301 -585 -403 -860 -85 -229 -100 -256 -143 -273 -99 -39 -152 -29
-152 27 0 95 135 422 390 941 84 171 186 382 227 470 40 88 82 168 92 179 29
28 120 56 176 53 46 -2 50 -4 53 -30z m-1424 -41 c46 -19 76 -51 76 -80 0 -28
-76 -195 -260 -571 -244 -499 -345 -739 -419 -995 -16 -56 -37 -110 -46 -120
-18 -20 -94 -40 -150 -40 -29 0 -36 4 -41 26 -11 43 3 108 60 278 96 283 171
456 542 1242 129 273 151 297 238 260z m415 -25 c10 -6 12 -19 7 -44 -3 -19
-98 -218 -209 -443 -275 -555 -410 -857 -492 -1103 -21 -63 -46 -122 -56 -132
-21 -21 -95 -34 -138 -24 -54 12 -53 55 1 225 84 263 296 741 600 1358 57 115
64 121 181 152 84 22 88 22 106 11z"/>
<path d="M5021 25902 c-51 -143 -201 -349 -686 -947 -568 -700 -790 -995 -990
-1315 -291 -463 -398 -781 -365 -1076 26 -235 99 -394 243 -531 164 -156 368
-234 612 -236 99 -1 119 2 197 30 147 51 243 119 414 288 83 83 202 215 266
295 63 80 122 151 131 159 15 12 17 9 17 -32 0 -263 -346 -1270 -510 -1484
l-40 -53 736 0 736 0 -39 44 c-158 180 -524 1239 -511 1481 l3 59 111 -149
c144 -194 243 -306 355 -403 191 -167 407 -253 594 -237 406 35 691 256 785
610 31 114 38 329 16 447 -70 371 -368 876 -956 1618 -80 102 -267 334 -414
515 -435 535 -622 796 -666 926 l-17 50 -22 -59z"/>
<path d="M16170 24971 c-163 -35 -333 -250 -332 -421 1 -57 51 -202 105 -300
98 -182 237 -365 301 -400 25 -13 28 -12 67 26 76 74 209 308 275 484 54 146
32 367 -46 466 -83 103 -253 170 -370 145z m196 -105 c66 -31 115 -80 150
-153 27 -54 29 -66 29 -178 0 -118 -1 -122 -42 -225 -24 -58 -65 -139 -92
-182 -56 -87 -140 -178 -163 -178 -36 0 -201 227 -260 358 -36 78 -51 202 -39
320 9 85 25 124 68 163 46 42 60 50 120 75 78 32 160 32 229 0z"/>
<path d="M16207 23420 c-85 -74 -317 -399 -317 -443 0 -43 272 -429 327 -464
20 -13 24 -12 58 24 83 86 256 306 316 402 16 26 15 28 -103 201 -139 205
-200 285 -227 299 -17 9 -26 6 -54 -19z m96 -260 c43 -51 97 -150 97 -180 0
-41 -139 -220 -171 -220 -23 0 -83 72 -116 137 -31 64 -27 93 18 161 33 49
118 142 130 142 4 0 23 -18 42 -40z"/>
<path d="M16190 22021 c-115 -123 -284 -421 -320 -565 -59 -236 21 -426 218
-519 60 -29 77 -32 157 -32 78 0 98 4 147 28 82 40 152 107 188 180 69 141 58
399 -26 566 -65 131 -266 391 -302 391 -9 0 -37 -22 -62 -49z m105 -95 c42
-32 150 -176 187 -249 49 -99 71 -196 72 -332 1 -117 0 -122 -32 -187 -34 -69
-91 -127 -145 -147 -41 -16 -175 -13 -234 4 -182 54 -253 260 -173 500 21 62
90 191 159 295 38 58 112 140 126 140 4 0 22 -11 40 -24z"/>
<path d="M12135 24244 c-246 -23 -520 -107 -730 -226 -126 -71 -252 -159 -305
-212 -64 -66 -34 -60 140 25 245 120 433 186 653 228 246 47 401 46 595 -4 53
-14 106 -25 119 -25 33 0 30 30 -9 81 -38 49 -110 92 -188 112 -59 16 -209 27
-275 21z"/>
<path d="M12010 23853 c-179 -30 -332 -112 -570 -308 -142 -116 -300 -272
-300 -296 0 -21 47 -49 82 -49 13 0 55 9 93 20 103 29 189 27 283 -10 154 -59
285 -82 487 -84 133 -2 175 -13 175 -45 0 -31 -187 -187 -291 -242 -58 -32
-77 -59 -39 -59 34 0 215 99 284 156 106 87 149 185 112 255 -7 14 -16 39 -20
55 -11 43 -8 206 4 238 6 16 40 59 75 95 36 37 65 73 65 79 0 15 3 16 -66 -9
-52 -19 -83 -22 -254 -23 -250 -3 -296 -14 -549 -143 -183 -92 -214 -103 -227
-82 -18 30 268 254 421 329 136 66 206 84 335 84 87 0 113 -4 153 -22 58 -26
67 -27 67 -6 0 43 -206 86 -320 67z m29 -399 c13 -9 29 -32 37 -50 24 -58 14
-184 -15 -184 -30 0 -96 111 -107 179 -11 66 31 92 85 55z m-100 -131 c18 -47
30 -93 29 -102 -3 -13 -19 -16 -93 -15 -130 1 -271 42 -299 88 -16 26 30 59
149 105 164 64 164 64 214 -76z"/>
<path d="M12372 22507 c-12 -13 -19 -26 -16 -30 14 -13 78 28 68 44 -9 15 -30
10 -52 -14z"/>
<path d="M12292 22310 c7 -159 64 -251 164 -266 81 -12 338 34 477 86 88 33
113 88 60 130 -48 37 -105 25 -283 -60 -140 -67 -161 -75 -216 -75 -108 0
-164 60 -182 193 -15 107 -25 102 -20 -8z"/>
<path d="M11411 22023 c-25 -9 -66 -37 -92 -63 -81 -81 -88 -190 -19 -327 44
-87 83 -128 158 -165 59 -29 76 -33 142 -32 95 2 226 44 448 145 231 105 267
116 431 133 161 17 176 24 174 83 -3 101 -167 143 -335 84 -32 -11 -163 -74
-292 -141 -327 -169 -420 -198 -530 -166 -116 34 -175 123 -157 236 10 63 25
86 77 116 87 51 191 27 234 -54 l19 -37 1 35 c0 45 -36 118 -72 144 -37 26
-128 31 -187 9z"/>
<path d="M5486 18139 c-64 -18 -116 -94 -116 -169 0 -115 132 -206 228 -156
59 31 102 103 102 173 0 45 -33 116 -63 136 -28 18 -113 27 -151 16z m119
-119 c8 -7 15 -27 15 -45 0 -64 -80 -97 -133 -55 -47 37 -44 89 8 111 26 11
91 4 110 -11z"/>
<path d="M5547 17466 c-20 -8 -45 -20 -54 -27 -24 -21 -53 -89 -53 -129 0 -54
38 -121 85 -148 78 -45 188 -6 242 85 32 56 28 109 -14 162 -54 66 -124 86
-206 57z m122 -86 c28 -14 45 -64 32 -89 -23 -41 -91 -62 -132 -40 -42 22 -43
95 -2 127 20 14 77 16 102 2z"/>
<path d="M5750 16839 c-66 -27 -116 -88 -134 -162 -18 -76 52 -170 138 -182
99 -15 165 24 201 119 16 41 16 48 1 101 -10 33 -30 71 -50 92 -27 30 -40 36
-82 39 -27 2 -60 -1 -74 -7z m88 -105 c67 -47 34 -164 -46 -164 -14 0 -39 15
-59 35 -42 42 -40 74 8 118 33 31 64 34 97 11z"/>
<path d="M6015 16234 c-45 -24 -75 -55 -96 -96 -25 -49 -24 -94 4 -148 17 -35
34 -51 77 -72 71 -36 107 -35 156 1 97 71 116 131 71 223 -44 89 -141 131
-212 92z m109 -115 c42 -33 32 -89 -21 -117 -31 -17 -41 -15 -68 13 -34 33
-33 77 1 104 15 12 34 21 44 21 10 0 29 -9 44 -21z"/>
<path d="M6434 15681 c-31 -14 -82 -68 -104 -112 -28 -54 -25 -97 9 -151 40
-63 77 -81 158 -76 57 4 67 7 104 43 43 42 79 102 79 133 0 31 -57 110 -99
138 -43 28 -112 40 -147 25z m120 -117 c24 -23 20 -71 -9 -99 -28 -29 -34 -30
-80 -10 -55 22 -66 87 -21 117 20 14 94 9 110 -8z"/>
<path d="M6903 15221 c-109 -79 -125 -197 -39 -286 42 -44 44 -45 108 -45 82
0 121 24 161 100 37 70 34 131 -8 185 -61 81 -149 99 -222 46z m150 -102 c9
-12 17 -34 17 -49 0 -31 -40 -85 -70 -95 -25 -8 -87 21 -101 47 -14 27 6 82
39 109 33 26 88 20 115 -12z"/>
<path d="M7513 14854 c-29 -14 -68 -43 -87 -65 -44 -48 -48 -101 -13 -169 32
-64 65 -84 145 -88 87 -4 128 16 160 78 46 93 16 205 -68 248 -56 28 -75 28
-137 -4z m114 -100 c38 -29 41 -44 13 -89 -27 -44 -68 -60 -113 -46 -69 23
-68 108 1 145 39 22 61 19 99 -10z"/>
<path d="M12277 14316 c-118 -33 -185 -177 -124 -267 51 -76 142 -106 218 -71
77 34 119 102 121 194 1 46 -1 52 -48 99 -57 57 -92 66 -167 45z m91 -108 c7
-7 12 -30 12 -53 0 -23 -5 -46 -12 -53 -18 -18 -88 -15 -110 5 -24 21 -23 68
2 93 23 23 88 28 108 8z"/>
<path d="M12785 13914 c-41 -21 -81 -61 -95 -94 -9 -22 -9 -42 0 -87 10 -48
20 -66 59 -105 78 -78 142 -78 221 1 81 81 87 158 17 237 -16 19 -43 42 -58
50 -37 18 -106 18 -144 -2z m143 -108 c10 -10 13 -25 8 -51 -10 -51 -37 -75
-86 -75 -61 0 -95 49 -74 105 16 41 118 55 152 21z"/>
<path d="M13304 13486 c-76 -33 -134 -145 -113 -219 23 -83 125 -154 203 -143
60 9 118 46 138 86 36 71 16 193 -38 241 -54 48 -129 61 -190 35z m135 -122
c25 -31 27 -64 6 -103 -24 -47 -83 -56 -129 -20 -40 31 -36 78 9 118 45 39 86
41 114 5z"/>
<path d="M13709 12921 c-113 -71 -110 -239 4 -306 92 -53 192 -19 238 80 28
61 25 122 -10 176 -52 83 -149 103 -232 50z m136 -67 c21 -8 45 -56 45 -89 0
-15 -11 -37 -26 -52 -21 -21 -32 -25 -66 -20 -22 3 -51 16 -64 28 -66 62 22
167 111 133z"/>
<path d="M14033 12340 c-42 -10 -60 -25 -95 -79 -51 -80 -35 -154 50 -233 40
-37 59 -48 84 -48 44 0 129 41 156 74 69 89 44 231 -48 270 -46 20 -107 26
-147 16z m124 -126 c16 -23 17 -65 1 -87 -8 -9 -35 -19 -64 -23 -45 -5 -55 -3
-73 15 -34 34 -23 92 22 111 32 14 99 4 114 -16z"/>
<path d="M14170 11663 c-58 -40 -96 -114 -86 -166 10 -54 60 -124 107 -147 84
-43 170 -20 229 62 57 78 45 179 -29 241 -30 25 -40 27 -115 27 -61 0 -88 -4
-106 -17z m136 -73 c22 0 64 -46 64 -70 0 -12 -14 -35 -30 -52 -28 -27 -36
-30 -77 -25 -29 3 -52 12 -60 23 -14 20 -17 82 -4 102 9 15 60 32 79 26 8 -2
20 -4 28 -4z"/>
<path d="M14261 11033 c-82 -42 -96 -67 -96 -169 l0 -85 41 -39 c73 -68 175
-67 250 2 50 46 68 92 61 155 -5 50 -26 83 -79 126 -53 43 -108 46 -177 10z
m135 -84 c8 -6 19 -28 25 -48 14 -49 -1 -87 -45 -107 -106 -51 -175 82 -82
159 23 19 76 17 102 -4z"/>
<path d="M14255 7868 c159 -184 528 -1260 513 -1495 l-3 -48 -103 138 c-246
330 -397 475 -596 572 -128 63 -198 80 -331 79 -333 -2 -623 -175 -755 -448
-26 -56 -56 -130 -65 -166 -23 -88 -31 -328 -15 -428 36 -228 189 -551 435
-922 202 -304 408 -573 930 -1215 283 -347 429 -536 525 -676 76 -112 159
-266 161 -298 0 -9 9 7 19 36 51 145 216 374 675 938 404 498 561 697 727 926
366 503 573 888 632 1181 18 89 21 295 5 384 -70 398 -377 661 -804 690 -119
8 -213 -12 -330 -70 -179 -90 -344 -242 -583 -539 -79 -97 -146 -177 -149
-177 -17 0 10 192 47 340 46 182 171 568 245 755 68 174 177 393 220 443 l37
42 -737 0 -737 0 37 -42z"/>
<path d="M8155 7316 c-110 -21 -213 -60 -419 -158 -105 -50 -211 -97 -236
-105 -25 -8 -101 -17 -170 -20 -135 -6 -160 -13 -160 -44 0 -96 159 -154 321
-115 94 22 160 53 349 166 236 141 391 201 480 185 91 -17 187 -99 210 -179
21 -76 -19 -164 -93 -203 -61 -31 -168 -15 -206 31 -8 9 -20 16 -27 16 -25 0
-15 -28 24 -68 30 -32 46 -40 87 -45 62 -8 145 4 180 27 38 25 62 70 80 149
14 63 14 74 0 121 -31 104 -130 213 -213 235 -68 18 -136 20 -207 7z"/>
<path d="M7215 6705 c-27 -7 -103 -27 -168 -44 -65 -17 -130 -31 -144 -31 -28
0 -103 -67 -103 -92 0 -8 13 -27 30 -43 24 -23 41 -29 87 -33 52 -3 66 0 133
35 41 22 111 61 154 89 72 44 85 49 135 48 83 -2 154 -48 180 -117 19 -50 -10
-130 -73 -206 -39 -47 -45 -68 -20 -78 21 -8 80 50 111 112 71 139 19 292
-121 356 -48 22 -128 23 -201 4z"/>
<path d="M7940 6009 c-148 -81 -410 -317 -463 -417 l-28 -52 34 -15 c32 -13
34 -17 41 -76 3 -34 6 -92 6 -128 l-1 -66 -104 -114 c-58 -63 -105 -120 -105
-128 0 -21 40 -15 108 17 89 42 116 48 309 64 278 25 397 61 563 170 115 77
133 86 159 86 71 0 -40 -105 -274 -260 -246 -163 -328 -181 -597 -134 -29 5
-38 3 -38 -8 0 -19 75 -54 148 -69 74 -16 157 -3 274 42 167 65 453 263 626
434 91 91 102 106 102 137 0 70 -49 83 -186 47 -94 -24 -126 -22 -292 26 -146
41 -311 66 -449 69 -111 3 -133 12 -133 54 0 36 66 96 243 221 81 57 147 110
147 118 0 21 -31 15 -90 -18z m177 -489 c105 -25 153 -45 153 -64 0 -40 -139
-115 -232 -123 -51 -5 -59 -3 -82 20 -34 34 -62 131 -47 163 9 21 17 24 68 24
32 0 95 -9 140 -20z m-302 -2 c35 -16 104 -152 89 -176 -20 -32 -61 -54 -84
-47 -29 9 -80 117 -80 171 0 60 23 76 75 52z"/>
<path d="M8710 5004 c-150 -92 -328 -171 -550 -242 -197 -63 -221 -66 -475
-67 l-230 0 -80 33 c-44 19 -98 34 -120 35 -56 3 -57 -23 -3 -104 36 -54 53
-69 108 -97 36 -18 101 -41 145 -52 74 -19 92 -20 224 -10 78 6 177 17 220 26
163 34 468 166 627 272 140 94 279 252 221 252 -7 0 -46 -21 -87 -46z"/>
<path d="M3489 7856 c-66 -14 -96 -32 -160 -96 -101 -101 -129 -176 -129 -345
0 -90 5 -122 24 -178 42 -118 235 -436 304 -501 41 -38 67 -31 125 38 84 97
246 336 267 394 39 103 52 188 47 307 -5 138 -29 205 -96 274 -58 59 -111 88
-200 107 -78 16 -107 16 -182 0z m232 -123 c57 -25 109 -81 145 -152 25 -49
28 -67 28 -146 0 -100 -13 -143 -76 -269 -66 -132 -211 -336 -239 -336 -29 0
-146 167 -220 316 -63 125 -79 216 -61 350 18 138 73 217 174 250 59 19 191
12 249 -13z"/>
<path d="M3532 6223 c-55 -56 -235 -290 -280 -364 l-21 -35 33 -55 c108 -179
301 -419 338 -419 9 0 38 26 65 58 92 107 267 335 285 371 27 52 24 102 -8
132 -15 13 -70 78 -123 144 -120 149 -192 225 -215 225 -10 0 -43 -26 -74 -57z
m152 -304 c30 -27 58 -59 61 -70 13 -40 -109 -189 -155 -189 -29 0 -86 55
-104 102 -17 40 -16 42 9 94 27 56 87 114 116 114 10 0 42 -23 73 -51z"/>
<path d="M3535 4913 c-42 -43 -175 -238 -229 -335 -20 -36 -51 -104 -68 -150
-29 -74 -32 -95 -32 -193 -1 -108 0 -113 36 -187 44 -87 131 -183 198 -218 38
-20 61 -24 145 -24 91 -1 106 2 165 30 80 38 145 101 190 185 33 61 35 70 38
180 5 142 -9 204 -79 346 -96 196 -253 403 -306 403 -12 0 -38 -16 -58 -37z
m96 -134 c11 -6 47 -52 81 -102 189 -288 227 -492 118 -640 -126 -171 -397
-157 -491 25 -48 93 -46 293 4 402 32 69 182 291 209 311 26 18 52 19 79 4z"/>
<path d="M1303 25220 c-38 -78 -139 -213 -369 -495 -502 -617 -669 -894 -682
-1136 -5 -110 7 -176 48 -259 31 -62 116 -147 178 -179 95 -48 245 -65 325
-37 104 37 234 150 367 319 34 42 64 77 67 77 13 0 -11 -134 -48 -260 -65
-227 -160 -466 -215 -537 l-25 -33 387 0 c371 0 386 1 371 18 -51 56 -188 409
-242 622 -26 105 -40 190 -32 190 4 0 34 -37 69 -82 211 -280 379 -368 593
-313 182 48 299 181 325 368 30 214 -79 462 -380 862 -86 113 -118 154 -401
505 -174 216 -236 302 -278 384 l-26 51 -32 -65z"/>
<path d="M18315 6174 c93 -153 251 -631 243 -731 l-3 -38 -81 106 c-154 199
-282 289 -425 297 -239 14 -430 -133 -470 -362 -46 -269 105 -552 665 -1241
234 -289 350 -443 387 -516 l31 -62 18 41 c30 66 111 180 265 372 80 99 189
235 243 302 383 477 543 756 559 973 16 238 -108 424 -322 480 -216 56 -367
-24 -596 -314 -63 -80 -64 -81 -67 -50 -9 89 159 612 235 729 9 14 23 35 31
48 l14 22 -380 0 -381 0 34 -56z"/>
<path d="M18545 3286 c-336 -66 -545 -294 -594 -649 -7 -52 -11 -404 -11
-1043 l0 -964 430 0 430 0 0 145 0 145 -250 0 -250 0 0 843 c0 920 0 919 58
1034 100 197 337 269 549 166 107 -53 204 -191 239 -341 9 -37 17 -68 18 -69
3 -4 336 54 341 59 12 12 -49 212 -92 298 -38 76 -63 111 -128 176 -67 68 -95
89 -175 127 -52 25 -124 53 -160 62 -90 22 -315 29 -405 11z"/>
</g>
</svg>
